<?xml version="1.0" encoding="utf-8"?>
<!-- Generator: Adobe Illustrator 19.0.0, SVG Export Plug-In . SVG Version: 6.00 Build 0)  -->
<svg xmlns="http://www.w3.org/2000/svg" xmlns:xlink="http://www.w3.org/1999/xlink" version="1.1" id="Layer_1" x="0px" y="0px" width="1400px" height="1000px" viewBox="0 0 1400 1000" enable-background="new 0 0 1400 1000" xml:space="preserve">
<g id="XMLID_1_">
	<g id="XMLID_157_">
		
	</g>
	<g id="XMLID_156_">
		<path id="XMLID_308_" d="M1400.3,993.9H-0.3V6.1h1400.5V993.9z M0.3,993.4h1399.5V6.6H0.3V993.4z"/>
	</g>
	<g id="XMLID_155_">
		<path fill-rule="evenodd" clip-rule="evenodd" fill="#1C1510" d="M140.3,767.4H417h355.9h258.5h276.7v-272    c0-126.7-103.7-230.4-230.4-230.4h-46.4H772.9h-97.4H417h-46.4C244,265,140.3,368.7,140.3,495.4V767.4z"/>
	</g>
	<g id="XMLID_154_">
		<rect x="166.7" y="678.8" fill-rule="evenodd" clip-rule="evenodd" fill="#909092" width="39.6" height="5.8"/>
	</g>
	<g id="XMLID_153_">
		<rect x="166.7" y="670.3" fill-rule="evenodd" clip-rule="evenodd" fill="#909092" width="39.6" height="5.8"/>
	</g>
	<g id="XMLID_152_">
		<rect x="166.7" y="661.9" fill-rule="evenodd" clip-rule="evenodd" fill="#909092" width="39.6" height="5.8"/>
	</g>
	<g id="XMLID_151_">
		<rect x="166.7" y="653.4" fill-rule="evenodd" clip-rule="evenodd" fill="#909092" width="39.6" height="5.8"/>
	</g>
	<g id="XMLID_150_">
		<rect x="166.7" y="645" fill-rule="evenodd" clip-rule="evenodd" fill="#909092" width="39.6" height="5.8"/>
	</g>
	<g id="XMLID_149_">
		<rect x="166.7" y="636.5" fill-rule="evenodd" clip-rule="evenodd" fill="#909092" width="39.6" height="5.8"/>
	</g>
	<g id="XMLID_148_">
		<rect x="166.7" y="628.1" fill-rule="evenodd" clip-rule="evenodd" fill="#909092" width="39.6" height="5.8"/>
	</g>
	<g id="XMLID_147_">
		<rect x="441.6" y="290.5" fill-rule="evenodd" clip-rule="evenodd" fill="#909092" width="5.8" height="39.6"/>
	</g>
	<g id="XMLID_146_">
		<rect x="433.2" y="290.5" fill-rule="evenodd" clip-rule="evenodd" fill="#909092" width="5.8" height="39.6"/>
	</g>
	<g id="XMLID_145_">
		<rect x="424.7" y="290.5" fill-rule="evenodd" clip-rule="evenodd" fill="#909092" width="5.8" height="39.6"/>
	</g>
	<g id="XMLID_144_">
		<rect x="416.3" y="290.5" fill-rule="evenodd" clip-rule="evenodd" fill="#909092" width="5.8" height="39.6"/>
	</g>
	<g id="XMLID_143_">
		<rect x="407.8" y="290.5" fill-rule="evenodd" clip-rule="evenodd" fill="#909092" width="5.8" height="39.6"/>
	</g>
	<g id="XMLID_142_">
		<rect x="399.4" y="290.5" fill-rule="evenodd" clip-rule="evenodd" fill="#909092" width="5.8" height="39.6"/>
	</g>
	<g id="XMLID_141_">
		<rect x="390.9" y="290.5" fill-rule="evenodd" clip-rule="evenodd" fill="#909092" width="5.8" height="39.6"/>
	</g>
	<g id="XMLID_140_">
		<rect x="522.8" y="290.5" fill-rule="evenodd" clip-rule="evenodd" fill="#93272B" width="5.8" height="39.6"/>
	</g>
	<g id="XMLID_139_">
		<rect x="514.3" y="290.5" fill-rule="evenodd" clip-rule="evenodd" fill="#93272B" width="5.8" height="39.6"/>
	</g>
	<g id="XMLID_138_">
		<rect x="505.9" y="290.5" fill-rule="evenodd" clip-rule="evenodd" fill="#93272B" width="5.8" height="39.6"/>
	</g>
	<g id="XMLID_137_">
		<rect x="497.4" y="290.5" fill-rule="evenodd" clip-rule="evenodd" fill="#93272B" width="5.8" height="39.6"/>
	</g>
	<g id="XMLID_136_">
		<rect x="489" y="290.5" fill-rule="evenodd" clip-rule="evenodd" fill="#93272B" width="5.8" height="39.6"/>
	</g>
	<g id="XMLID_135_">
		<rect x="480.5" y="290.5" fill-rule="evenodd" clip-rule="evenodd" fill="#93272B" width="5.8" height="39.6"/>
	</g>
	<g id="XMLID_134_">
		<rect x="472.1" y="290.5" fill-rule="evenodd" clip-rule="evenodd" fill="#93272B" width="5.8" height="39.6"/>
	</g>
	<g id="XMLID_133_">
		<rect x="603.4" y="290.5" fill-rule="evenodd" clip-rule="evenodd" fill="#93272B" width="5.8" height="39.6"/>
	</g>
	<g id="XMLID_132_">
		<rect x="594.9" y="290.5" fill-rule="evenodd" clip-rule="evenodd" fill="#93272B" width="5.8" height="39.6"/>
	</g>
	<g id="XMLID_131_">
		<rect x="586.5" y="290.5" fill-rule="evenodd" clip-rule="evenodd" fill="#93272B" width="5.8" height="39.6"/>
	</g>
	<g id="XMLID_130_">
		<rect x="578" y="290.5" fill-rule="evenodd" clip-rule="evenodd" fill="#93272B" width="5.8" height="39.6"/>
	</g>
	<g id="XMLID_129_">
		<rect x="569.6" y="290.5" fill-rule="evenodd" clip-rule="evenodd" fill="#93272B" width="5.8" height="39.6"/>
	</g>
	<g id="XMLID_128_">
		<rect x="561.1" y="290.5" fill-rule="evenodd" clip-rule="evenodd" fill="#93272B" width="5.8" height="39.6"/>
	</g>
	<g id="XMLID_127_">
		<rect x="552.7" y="290.5" fill-rule="evenodd" clip-rule="evenodd" fill="#93272B" width="5.8" height="39.6"/>
	</g>
	<g id="XMLID_126_">
		<rect x="166.7" y="600.2" fill-rule="evenodd" clip-rule="evenodd" fill="#909092" width="39.6" height="5.8"/>
	</g>
	<g id="XMLID_125_">
		<rect x="166.7" y="591.8" fill-rule="evenodd" clip-rule="evenodd" fill="#909092" width="39.6" height="5.8"/>
	</g>
	<g id="XMLID_124_">
		<rect x="166.7" y="583.3" fill-rule="evenodd" clip-rule="evenodd" fill="#909092" width="39.6" height="5.8"/>
	</g>
	<g id="XMLID_123_">
		<rect x="166.7" y="574.9" fill-rule="evenodd" clip-rule="evenodd" fill="#909092" width="39.6" height="5.8"/>
	</g>
	<g id="XMLID_122_">
		<rect x="166.7" y="566.4" fill-rule="evenodd" clip-rule="evenodd" fill="#909092" width="39.6" height="5.8"/>
	</g>
	<g id="XMLID_121_">
		<rect x="166.7" y="558" fill-rule="evenodd" clip-rule="evenodd" fill="#909092" width="39.6" height="5.8"/>
	</g>
	<g id="XMLID_120_">
		<rect x="166.7" y="549.5" fill-rule="evenodd" clip-rule="evenodd" fill="#909092" width="39.6" height="5.8"/>
	</g>
	<g id="XMLID_119_">
		<rect x="166.7" y="523.9" fill-rule="evenodd" clip-rule="evenodd" fill="#909092" width="39.6" height="5.8"/>
	</g>
	<g id="XMLID_118_">
		<rect x="166.7" y="515.5" fill-rule="evenodd" clip-rule="evenodd" fill="#909092" width="39.6" height="5.8"/>
	</g>
	<g id="XMLID_117_">
		<rect x="166.7" y="507" fill-rule="evenodd" clip-rule="evenodd" fill="#909092" width="39.6" height="5.8"/>
	</g>
	<g id="XMLID_116_">
		<rect x="166.7" y="498.6" fill-rule="evenodd" clip-rule="evenodd" fill="#909092" width="39.6" height="5.8"/>
	</g>
	<g id="XMLID_115_">
		<path fill-rule="evenodd" clip-rule="evenodd" fill="#909092" d="M367.8,290.5v39.6c-1.9,0-3.9,0.1-5.8,0.2v-39.6    C363.9,290.6,365.9,290.6,367.8,290.5"/>
	</g>
	<g id="XMLID_114_">
		<path fill-rule="evenodd" clip-rule="evenodd" fill="#909092" d="M357.1,291l2.1,39.5c-1.9,0.1-3.9,0.3-5.8,0.5l-2.1-39.6    C353.3,291.2,355.2,291.1,357.1,291"/>
	</g>
	<g id="XMLID_113_">
		<path fill-rule="evenodd" clip-rule="evenodd" fill="#909092" d="M346.5,291.9l4.1,39.4c-1.9,0.2-3.8,0.5-5.7,0.8l-4.1-39.4    C342.7,292.4,344.6,292.2,346.5,291.9"/>
	</g>
	<g id="XMLID_112_">
		<path fill-rule="evenodd" clip-rule="evenodd" fill="#909092" d="M336,293.5l6.2,39.1c-1.9,0.3-3.8,0.7-5.7,1.1l-6.2-39.1    C332.2,294.2,334.1,293.8,336,293.5"/>
	</g>
	<g id="XMLID_111_">
		<path fill-rule="evenodd" clip-rule="evenodd" fill="#909092" d="M325.7,295.5l8.2,38.7c-1.9,0.4-3.8,0.9-5.6,1.4l-8.2-38.8    C321.9,296.4,323.8,296,325.7,295.5"/>
	</g>
	<g id="XMLID_110_">
		<path fill-rule="evenodd" clip-rule="evenodd" fill="#909092" d="M315.5,298.1l10.2,38.2c-1.9,0.5-3.7,1.1-5.5,1.7L310,299.8    C311.8,299.2,313.7,298.7,315.5,298.1"/>
	</g>
	<g id="XMLID_109_">
		<path fill-rule="evenodd" clip-rule="evenodd" fill="#909092" d="M305.6,301.2l12.2,37.7c-1.8,0.6-3.6,1.3-5.5,2l-12.2-37.7    C301.9,302.5,303.7,301.8,305.6,301.2"/>
	</g>
	<g id="XMLID_108_">
		<path fill-rule="evenodd" clip-rule="evenodd" fill="#909092" d="M295.9,304.8l14.2,37c-1.8,0.7-3.6,1.5-5.3,2.3l-14.2-37    C292.3,306.2,294.1,305.5,295.9,304.8"/>
	</g>
	<g id="XMLID_107_">
		<path fill-rule="evenodd" clip-rule="evenodd" fill="#909092" d="M268.3,318.2l19.8,34.3c-1.7,1-3.3,2-5,3l-19.8-34.3    C265,320.2,266.7,319.2,268.3,318.2"/>
	</g>
	<g id="XMLID_106_">
		<path fill-rule="evenodd" clip-rule="evenodd" fill="#909092" d="M259.6,323.6l21.6,33.2c-1.6,1.1-3.2,2.1-4.8,3.3l-21.6-33.2    C256.4,325.8,258,324.7,259.6,323.6"/>
	</g>
	<g id="XMLID_105_">
		<path fill-rule="evenodd" clip-rule="evenodd" fill="#909092" d="M251.3,329.4l23.3,32c-1.6,1.1-3.1,2.3-4.6,3.5l-23.3-32    C248.1,331.7,249.7,330.6,251.3,329.4"/>
	</g>
	<g id="XMLID_104_">
		<path fill-rule="evenodd" clip-rule="evenodd" fill="#909092" d="M243.2,335.6l24.9,30.8c-1.5,1.2-3,2.4-4.5,3.7l-24.9-30.8    C240.2,338.1,241.7,336.8,243.2,335.6"/>
	</g>
	<g id="XMLID_103_">
		<path fill-rule="evenodd" clip-rule="evenodd" fill="#909092" d="M235.4,342.2l26.5,29.4c-1.4,1.3-2.9,2.6-4.3,3.9l-26.5-29.4    C232.5,344.8,233.9,343.5,235.4,342.2"/>
	</g>
	<g id="XMLID_102_">
		<path fill-rule="evenodd" clip-rule="evenodd" fill="#909092" d="M227.9,349.2l28,28c-1.4,1.4-2.7,2.7-4.1,4.1l-28-28    C225.2,351.9,226.6,350.5,227.9,349.2"/>
	</g>
	<g id="XMLID_101_">
		<path fill-rule="evenodd" clip-rule="evenodd" fill="#909092" d="M220.9,356.5l29.4,26.5c-1.3,1.4-2.6,2.9-3.9,4.3L217,360.8    C218.3,359.3,219.6,357.9,220.9,356.5"/>
	</g>
	<g id="XMLID_100_">
		<path fill-rule="evenodd" clip-rule="evenodd" fill="#909092" d="M201.4,381.1l33.2,21.6c-1.1,1.6-2.1,3.2-3.2,4.9L198.2,386    C199.3,384.3,200.3,382.7,201.4,381.1"/>
	</g>
	<g id="XMLID_99_">
		<path fill-rule="evenodd" clip-rule="evenodd" fill="#909092" d="M195.8,390l34.3,19.8c-1,1.7-2,3.3-2.9,5L192.8,395    C193.8,393.3,194.8,391.6,195.8,390"/>
	</g>
	<g id="XMLID_98_">
		<path fill-rule="evenodd" clip-rule="evenodd" fill="#909092" d="M190.6,399.1l35.3,18c-0.9,1.7-1.8,3.4-2.7,5.2l-35.3-18    C188.8,402.5,189.7,400.8,190.6,399.1"/>
	</g>
	<g id="XMLID_97_">
		<path fill-rule="evenodd" clip-rule="evenodd" fill="#909092" d="M185.9,408.4l36.2,16.1c-0.8,1.7-1.6,3.5-2.4,5.3l-36.2-16.1    C184.3,412,185.1,410.2,185.9,408.4"/>
	</g>
	<g id="XMLID_96_">
		<path fill-rule="evenodd" clip-rule="evenodd" fill="#909092" d="M181.7,418.1l37,14.2c-0.7,1.8-1.4,3.6-2.1,5.4l-37-14.2    C180.2,421.6,181,419.8,181.7,418.1"/>
	</g>
	<g id="XMLID_95_">
		<path fill-rule="evenodd" clip-rule="evenodd" fill="#909092" d="M178,427.9l37.7,12.2c-0.6,1.8-1.3,3.6-1.8,5.5l-37.6-12.2    C176.7,431.5,177.3,429.7,178,427.9"/>
	</g>
	<g id="XMLID_94_">
		<path fill-rule="evenodd" clip-rule="evenodd" fill="#909092" d="M174.8,437.9l38.2,10.2c-0.5,1.9-1.1,3.7-1.6,5.6l-38.2-10.2    C173.7,441.6,174.2,439.7,174.8,437.9"/>
	</g>
	<g id="XMLID_93_">
		<path fill-rule="evenodd" clip-rule="evenodd" fill="#909092" d="M168.4,468.7l39.4,4.1c-0.3,1.9-0.5,3.8-0.7,5.8l-39.4-4.1    C167.9,472.5,168.1,470.6,168.4,468.7"/>
	</g>
	<g id="XMLID_92_">
		<path fill-rule="evenodd" clip-rule="evenodd" fill="#909092" d="M167.3,479.2l39.5,2.1c-0.2,1.9-0.3,3.9-0.4,5.8l-39.5-2.1    C167.1,483,167.2,481.1,167.3,479.2"/>
	</g>
	<g id="XMLID_91_">
		<path fill-rule="evenodd" clip-rule="evenodd" fill="#909092" d="M166.8,489.7h39.6c0,1.6-0.1,3.2-0.1,4.8v1h-39.6v-1    C166.7,492.8,166.8,491.2,166.8,489.7"/>
	</g>
	<g id="XMLID_90_">
		<path id="XMLID_306_" fill="#EED1B2" d="M222.6,673.7l10.6-6h5l-6.3,27.5h-5.7l4.8-20.7l-6.8,3.7L222.6,673.7z"/>
	</g>
	<g id="XMLID_89_">
		<path id="XMLID_304_" fill="#EED1B2" d="M234.1,602.5c1.1-1.2,1.6-2.3,1.6-3.2s-0.3-1.7-0.9-2.1c-0.6-0.4-1.5-0.6-2.7-0.6    c-1.8,0-3.9,0.2-6.1,0.5l-1,0.1l0.7-4.2c2.7-0.9,5.3-1.4,7.9-1.4c2.6,0,4.6,0.5,5.9,1.5c1.3,1,2,2.7,2,4.9s-0.6,4.1-1.7,5.7    c-1.1,1.6-2.9,3.3-5.4,5.2l-7.6,5.7H238l-1.2,4.9h-17.7l1.1-4.7l8.3-7.2C231.2,605.4,233.1,603.7,234.1,602.5z"/>
	</g>
	<g id="XMLID_88_">
		<path id="XMLID_302_" fill="#EED1B2" d="M225.5,521.2c2.5-1.1,5.1-1.7,7.9-1.7c2.8,0,4.9,0.5,6.2,1.4c1.3,0.9,2,2.4,2,4.4    s-0.4,3.5-1.1,4.6c-0.7,1.1-2,2.1-3.9,3.1c1,0.6,1.7,1.2,2.1,1.9c0.4,0.7,0.6,1.8,0.6,3.2c0,2.9-1.1,5.3-3.2,7.1s-5,2.7-8.6,2.7    c-1.2,0-2.5-0.1-3.9-0.4c-1.4-0.3-2.5-0.5-3.2-0.7l-1.2-0.4l1.2-3.9c3.2,0.3,5.6,0.5,7.3,0.5c1.7,0,3.1-0.4,4.2-1.2    c1.1-0.8,1.6-1.9,1.6-3.4c0-0.8-0.3-1.4-0.8-1.7s-1.4-0.5-2.8-0.6l-5.2-0.1l1-4.2l5.4-0.3c1.1-0.1,2.1-0.5,3.2-1.5    c1.1-0.9,1.6-2,1.6-3.1c0-1.7-1.2-2.6-3.7-2.6c-2.1,0-4.1,0.1-6,0.4l-1.1,0.1L225.5,521.2z"/>
	</g>
	<g id="XMLID_87_">
		<path id="XMLID_300_" fill="#EED1B2" d="M230.4,473.3l1.1-4.9h-11.6l1-4.2l11.5-18.6h6.2L227,463.6h5.6l1.7-7.4h5.7l-1.7,7.4h2.5    l-1.1,4.7h-2.5l-1.1,4.9H230.4z"/>
	</g>
	<g id="XMLID_86_">
		<path id="XMLID_298_" fill="#EED1B2" d="M265,398.6c4.8,0,7.2,2.2,7.2,6.7c0,3.3-1,6-3.1,8.1s-4.7,3.2-7.8,3.2    c-1.4,0-3-0.1-4.6-0.4c-1.6-0.3-2.9-0.6-3.8-0.9l-1.3-0.5l1.3-4.3c3.2,0.8,5.7,1.2,7.6,1.2c1.8,0,3.3-0.5,4.4-1.5    c1.1-1,1.6-2.1,1.6-3.3c0-1.2-0.3-2.1-0.7-2.5s-1.2-0.7-2.1-0.7c-1.6,0-3,0.2-4.1,0.7l-0.6,0.2l-4.2-1l4.6-14.9h16.3l-1.1,4.9    h-11.8l-2.5,6.5C262.2,399.1,263.8,398.6,265,398.6z"/>
	</g>
	<g id="XMLID_85_">
		<path id="XMLID_295_" fill="#EED1B2" d="M321.8,354.5c-3.2,0-5.6,2.3-7.2,6.8c2.2-1,4.1-1.5,5.6-1.5c5,0,7.5,2.4,7.5,7.2    c0,3.3-1,5.9-2.9,7.9c-2,2-4.7,3-8.3,3c-2.8,0-4.9-0.8-6.5-2.4c-1.6-1.6-2.4-4.1-2.4-7.3c0-2.1,0.4-4.2,1.1-6.4s1.7-4.2,3-6    c1.3-1.8,2.9-3.3,4.9-4.5c2-1.2,4.2-1.7,6.6-1.7c1.8,0,3.8,0.2,5.9,0.7l1.1,0.3l-1.8,4.6C326.2,354.7,324,354.5,321.8,354.5z     M318.5,364.8c-1.6,0-2.9,0.3-4.1,0.7l-0.6,0.3c-0.2,1.1-0.4,2.1-0.4,3.1c0,1,0.3,2,0.8,2.9c0.5,0.9,1.4,1.4,2.6,1.4    c1.6,0,2.9-0.5,3.7-1.4c0.9-0.9,1.3-2.3,1.3-4.1C321.9,365.7,320.7,364.8,318.5,364.8z"/>
	</g>
	<g id="XMLID_84_">
		<path id="XMLID_293_" fill="#EED1B2" d="M387.2,344.3l1.1-4.9h17.1l-1.7,7.2l-14.7,21l-5.2-1.5l14.4-20.1l0.3-1.7H387.2z"/>
	</g>
	<g id="XMLID_83_">
		<path id="XMLID_289_" fill="#93272B" d="M474.3,339.2c2.6,0,4.6,0.5,6.1,1.6s2.1,2.4,2.1,3.9c0,2.1-0.4,3.7-1.2,4.9    c-0.8,1.2-2,2.3-3.6,3.4c1.4,1.1,2.2,2.8,2.2,5.1c0,2.8-1.2,5.1-3.7,6.9c-2.5,1.8-5.4,2.7-8.6,2.7c-3.3,0-5.6-0.6-6.9-1.7    c-1.3-1.2-2-2.9-2-5.2c0-2.7,1.8-5.3,5.4-7.7c-0.6-0.6-1-1.2-1.3-1.7c-0.3-0.6-0.4-1-0.4-1.2c0-0.2,0-0.6,0-1.2    c0-2.6,1.1-4.9,3.3-6.8C467.8,340.2,470.7,339.2,474.3,339.2z M464.9,359.9c0,1,0.3,1.8,0.8,2.2c0.5,0.5,1.5,0.7,2.9,0.7    s2.6-0.5,3.7-1.4c1.1-0.9,1.6-1.9,1.6-3.1c0-0.7-0.1-1.2-0.4-1.6c-0.2-0.4-0.7-0.7-1.4-1h-3.7c-1,0.4-1.8,0.9-2.5,1.6    C465.2,358,464.9,358.9,464.9,359.9z M476.3,346.8c0-0.8-0.3-1.4-0.8-1.9c-0.5-0.5-1.4-0.8-2.6-0.8c-1.2,0-2.3,0.4-3.3,1.3    c-1,0.9-1.5,1.8-1.5,2.8c0,0.7,0.1,1.2,0.3,1.5c0.2,0.3,0.5,0.8,1.1,1.2h3.7c0.8-0.5,1.6-1.1,2.2-1.9S476.3,347.6,476.3,346.8z"/>
	</g>
	<g id="XMLID_82_">
		<path id="XMLID_286_" fill="#93272B" d="M543.6,361.9c1.6,0.4,3.4,0.6,5.4,0.6s3.7-0.6,5.2-1.7c1.4-1.2,2.4-2.7,2.9-4.6l-1.1,0.3    c-2.5,0.6-4.2,0.8-5.1,0.8c-2.4,0-4.2-0.6-5.3-1.7c-1.2-1.2-1.8-3-1.8-5.6c0-2.5,1-4.8,2.9-7c0.9-1.1,2.2-2,3.8-2.6    c1.6-0.7,3.4-1,5.5-1c2.6,0,4.6,0.9,5.9,2.8c1.3,1.8,1.9,4.4,1.9,7.7c0,5.6-1.5,10-4.6,13.2c-3.1,3.2-6.8,4.8-11.1,4.8    c-1.8,0-3.6-0.2-5.3-0.7l-0.9-0.2L543.6,361.9z M558.4,349.1c0-3.1-1.2-4.6-3.7-4.6c-1.4,0-2.7,0.5-3.8,1.4    c-1.1,0.9-1.6,2-1.6,3.3c0,1.3,0.2,2.1,0.7,2.5c0.5,0.4,1.2,0.6,2.2,0.6c1.8,0,3.5-0.2,5.1-0.5l0.9-0.2    C558.3,350.7,558.4,349.8,558.4,349.1z"/>
	</g>
	<g id="XMLID_81_">
		<path id="XMLID_283_" fill="#EED1B2" d="M327.8,696.4h-27.2l17.5-75.9H342c16.7,0,25,7.7,25,23.1c0,10.9-2,20.7-6,29.5    c-4.5,9.8-10.8,16.6-18.6,20.2C338,695.4,333.1,696.4,327.8,696.4z M346.3,668.5c1.6-4.2,2.9-8.4,3.7-12.7    c0.8-4.3,1.2-8.3,1.2-11.9s-1-6.3-3.1-7.7c-2-1.5-5.1-2.2-9.2-2.2h-8.5L319.1,683h10c3.8,0,7.2-1.4,10.2-4.1    C342.3,676.2,344.6,672.7,346.3,668.5z"/>
	</g>
	<g id="XMLID_80_">
		<rect x="171.5" y="726.2" fill-rule="evenodd" clip-rule="evenodd" fill="#EED1B2" width="1113.6" height="2.9"/>
	</g>
	<g id="XMLID_2_">
		<g id="XMLID_3_">
			<path fill="#2C221E" d="M513.2,456.1v50.7l-16,16l-5.3-5.3v-69.3L513.2,456.1z M491.9,602.8v-69.3l5.3-5.3l16,16v50.7     L491.9,602.8z M585.2,621.4h-80c-7.1-1.8-11.6-6.2-13.3-13.3l21.3-8h64L585.2,621.4z M577.2,450.8h-63.7l-21.3-8     c1.8-7.1,6.2-11.6,13.3-13.3h79.7L577.2,450.8z M582.6,506.8v-56l8-21.3c7.1,1.8,11.6,6.2,13.3,13.3v74.6l-5.3,5.3L582.6,506.8z      M598.6,528.1l5.3,5.3v74.6c-1.8,7.1-6.2,11.6-13.3,13.3l-8-21.3v-56L598.6,528.1z"/>
		</g>
	</g>
	<g id="XMLID_4_">
		<g id="XMLID_5_">
			<path fill="#EED1B2" d="M646.5,456.1v50.7l-16,16l-5.3-5.3v-69.3L646.5,456.1z M625.2,602.8v-69.3l5.3-5.3l16,16v50.7     L625.2,602.8z M718.5,621.4h-80c-7.1-1.8-11.6-6.2-13.3-13.3l21.3-8h64L718.5,621.4z M710.5,450.8h-63.7l-21.3-8     c1.8-7.1,6.2-11.6,13.3-13.3h79.7L710.5,450.8z M715.8,514.8l10.7,10.7l-10.7,10.7h-69.3l-10.7-10.7l10.7-10.7H715.8z      M715.8,506.8v-56l8-21.3c7.1,1.8,11.6,6.2,13.3,13.3v74.6l-5.3,5.3L715.8,506.8z M731.8,528.1l5.3,5.3v74.6     c-1.8,7.1-6.2,11.6-13.3,13.3l-8-21.3v-56L731.8,528.1z"/>
		</g>
	</g>
	<g id="XMLID_6_">
		<g id="XMLID_7_">
			<path fill="#EED1B2" d="M779.8,448.1v58.7l-16,16l-5.3-5.3v-77.3L779.8,448.1z M849.1,514.8l10.7,10.7l-10.7,10.7h-69.3     l-10.7-10.7l10.7-10.7H849.1z M849.1,506.8v-56l8-21.3c7.1,1.8,11.6,6.2,13.3,13.3v74.6l-5.3,5.3L849.1,506.8z M865.1,528.1     l5.3,5.3v74.6c-1.8,7.1-6.2,11.6-13.3,13.3l-8-21.3v-56L865.1,528.1z"/>
		</g>
	</g>
	<g id="XMLID_62_">
		<path id="XMLID_275_" fill="#EED1B2" d="M902.5,626.9h-6v-31.3h6v17.8l2.3-0.4l4.4-8.4h6.7l-5.8,10.6l6.1,11.8h-6.7l-4.5-8.7    l-2.5,0.4V626.9z"/>
		<path id="XMLID_277_" fill="#EED1B2" d="M925.6,626.9h-6v-22.3h5.9v1.3c2.1-1.2,3.8-1.8,5.3-1.8c2.4,0,4.3,0.7,5.6,2.1    c2.7-1.4,5.2-2.1,7.5-2.1c2.9,0,5,0.9,6.1,2.6c1.1,1.7,1.7,4.4,1.7,8.2v12.1h-6V615c0-1.9-0.2-3.3-0.6-4.2    c-0.4-0.9-1.3-1.4-2.5-1.4c-1,0-2.1,0.2-3.5,0.6l-0.7,0.2c0.1,2.2,0.2,3.9,0.2,5.1v11.6h-6v-11.5c0-2.2-0.2-3.8-0.6-4.7    c-0.4-0.9-1.2-1.4-2.5-1.4c-1.2,0-2.3,0.2-3.4,0.6l-0.5,0.2V626.9z"/>
		<path id="XMLID_279_" fill="#EED1B2" d="M955.7,626.5l12.9-31.7l5.3,1.9l-12.9,31.7L955.7,626.5z"/>
		<path id="XMLID_281_" fill="#EED1B2" d="M983.9,626.9h-6v-31.3h6v10c2.1-1.1,3.9-1.6,5.5-1.6c3,0,5,0.9,6.2,2.6    c1.1,1.8,1.7,4.5,1.7,8.1v12.1h-6v-12c0-1.9-0.2-3.3-0.7-4.2c-0.4-0.9-1.3-1.4-2.7-1.4c-1.2,0-2.3,0.2-3.5,0.5l-0.6,0.2V626.9z"/>
	</g>
	<g id="XMLID_61_">
		<path id="XMLID_259_" fill="#EED1B2" d="M583,650.7v21.5h-4.5v-16.4l-4.7,3l-2.1-3.4l7.1-4.7H583z"/>
		<path id="XMLID_261_" fill="#EED1B2" d="M603.7,672.2h-13.9v-3.8l4.6-4.7c1.6-1.7,2.8-3,3.4-3.8c0.6-0.9,1-1.8,1-2.8    s-0.3-1.7-0.8-2.1c-0.5-0.4-1.3-0.6-2.3-0.6c-1.5,0-3,0.1-4.8,0.4l-0.8,0.1l-0.2-3.5c2.1-0.7,4.3-1,6.6-1c4.6,0,6.8,2.1,6.8,6.2    c0,1.6-0.3,3-1,4.2c-0.7,1.2-2,2.6-3.8,4.3l-3.7,3.4h8.9V672.2z"/>
		<path id="XMLID_263_" fill="#EED1B2" d="M607.9,651.5c2-0.8,4.2-1.2,6.7-1.2s4.3,0.5,5.4,1.4c1.1,0.9,1.7,2.5,1.7,4.5    c0,2.1-0.8,3.7-2.5,4.8c1,0.6,1.8,1.2,2.2,1.8c0.4,0.6,0.7,1.6,0.7,2.9c0,2.3-0.6,4-1.7,5.2s-3,1.7-5.6,1.7c-1.9,0-3.9-0.3-6-0.8    l-1-0.3l0.2-3.4c2.4,0.4,4.5,0.6,6.1,0.6c2.2,0,3.4-1,3.4-2.9c0-0.8-0.3-1.4-0.9-1.9c-0.6-0.5-1.3-0.7-2.3-0.7H610v-3.7h4.3    c0.7,0,1.4-0.3,1.9-0.9c0.6-0.6,0.8-1.3,0.8-2c0-1.5-1.1-2.3-3.2-2.3c-1.5,0-3.1,0.2-4.8,0.5l-0.8,0.1L607.9,651.5z"/>
		<path id="XMLID_265_" fill="#EED1B2" d="M634.5,672.2v-3.5h-9.1v-3.4l5.3-14.5h5l-5.8,14h4.6v-6h4.5v6h2.1v3.9H639v3.5H634.5z"/>
		<path id="XMLID_267_" fill="#EED1B2" d="M644.2,672.2v-5.4h4.7v5.4H644.2z"/>
		<path id="XMLID_269_" fill="#EED1B2" d="M666.6,650.7v3.9H657l-0.6,4.7c1.3-0.5,2.6-0.8,3.8-0.8c4.6,0,7,2.2,7,6.5    c0,2.4-0.6,4.3-1.9,5.6c-1.3,1.3-3.1,2-5.4,2c-1,0-2.1-0.1-3.4-0.3c-1.3-0.2-2.3-0.4-3-0.6l-1.2-0.3l0.5-3.3    c2.6,0.4,4.8,0.6,6.6,0.6c1.1,0,1.9-0.3,2.4-0.8c0.6-0.6,0.8-1.4,0.8-2.4c0-1.1-0.2-1.8-0.7-2.3c-0.5-0.5-1.2-0.7-2-0.7    c-1.5,0-2.7,0.1-3.8,0.4l-0.5,0.1l-2.7-0.6l0.6-11.6H666.6z"/>
		<path id="XMLID_271_" fill="#EED1B2" d="M682.5,672.2h-4.4v-22.8h4.4v13l1.7-0.3l3.2-6.2h4.9l-4.2,7.7l4.5,8.6h-4.9l-3.3-6.4    l-1.8,0.3V672.2z"/>
		<path id="XMLID_273_" fill="#EED1B2" d="M699.2,672.2h-4.4v-16.3h4.3v0.9c1.5-0.9,2.8-1.3,3.8-1.3c1.8,0,3.1,0.5,4.1,1.5    c2-1,3.8-1.5,5.5-1.5c2.2,0,3.6,0.6,4.5,1.9c0.8,1.2,1.3,3.2,1.3,6v8.8H714v-8.7c0-1.4-0.2-2.4-0.5-3.1c-0.3-0.7-0.9-1-1.8-1    c-0.7,0-1.5,0.2-2.5,0.5l-0.5,0.2c0.1,1.6,0.1,2.9,0.1,3.7v8.4h-4.4v-8.4c0-1.6-0.1-2.7-0.4-3.4c-0.3-0.7-0.9-1-1.9-1    c-0.8,0-1.7,0.2-2.5,0.5l-0.4,0.1V672.2z"/>
	</g>
	<g id="XMLID_60_">
		<rect x="934.3" y="512.4" fill-rule="evenodd" clip-rule="evenodd" fill="#00A651" width="28" height="22.2"/>
	</g>
	<g id="XMLID_59_">
		<polygon fill-rule="evenodd" clip-rule="evenodd" fill="#00A651" points="958.2,545.5 982.3,523.5 958.2,501.5   "/>
	</g>
	<g id="XMLID_58_">
		<rect x="403.2" y="512.4" fill-rule="evenodd" clip-rule="evenodd" fill="#2C221E" width="28" height="22.2"/>
	</g>
	<g id="XMLID_57_">
		<polygon fill-rule="evenodd" clip-rule="evenodd" fill="#2C221E" points="407.4,545.5 383.3,523.5 407.4,501.5   "/>
	</g>
	<g id="XMLID_8_">
		<path fill-rule="evenodd" clip-rule="evenodd" fill="#EED1B2" d="M841.5,672.3h12.9l23.4-26.8h-12.9L841.5,672.3z M858.6,672.3    h12.9l23.4-26.8H882L858.6,672.3z M875.6,672.3h12.9l23.4-26.8h-12.9L875.6,672.3z M892.7,672.3h12.9l23.4-26.8h-12.9L892.7,672.3    z M909.8,672.3h12.9l23.4-26.8h-12.9L909.8,672.3z M926.8,672.3h12.9l23.4-26.8h-12.9L926.8,672.3z M943.9,672.3h12.9l23.4-26.8    h-12.9L943.9,672.3z M960.9,672.3h12.9l23.4-26.8h-12.9L960.9,672.3z M773.3,672.3h12.9l23.4-26.8h-12.9L773.3,672.3z     M790.4,672.3h12.9l23.4-26.8h-12.9L790.4,672.3z M807.4,672.3h12.9l23.4-26.8h-12.9L807.4,672.3z M824.5,672.3h12.9l23.4-26.8    h-12.9L824.5,672.3z"/>
	</g>
	<g id="XMLID_9_">
		<path fill-rule="evenodd" clip-rule="evenodd" fill="#E4B584" d="M926.8,672.3h12.9l23.4-26.8h-12.9L926.8,672.3z M943.9,672.3    h12.9l23.4-26.8h-12.9L943.9,672.3z M960.9,672.3h12.9l23.4-26.8h-12.9L960.9,672.3z"/>
	</g>
	<g id="XMLID_10_">
		<path fill-rule="evenodd" clip-rule="evenodd" fill="#EED1B2" d="M742.3,644h7.9c1,0,1.7,0.8,1.7,1.7v6c0,1-0.8,1.7-1.7,1.7h-7.9    c-1,0-1.7-0.8-1.7-1.7v-6C740.6,644.8,741.4,644,742.3,644 M753.9,654.5c4.9,1.1,0.3,9.8,3.4,13.1c2.2,2.4,6.3,1.4,7.3-1.6    c0.6-1.6,0.3-3.3-0.1-4.9c-0.4-1.6-0.8-3-1-4.7c-0.2-1.4-0.2-4.2-0.5-5.2c0.8-1.2,1.6-0.7,0.6-2.7c-1.2-2.5-3.6-5.8-6.4-6.5    l-0.6,1.4c0.6,0.3,1.1,0.7,1.6,1.1l-0.7,1.5l2.7,5.3l1.2,0c0.3,2.4,0.3,4.9,0.8,7.2c0.3,1.6,1.2,4.2,1.1,5.8c0,2-1.5,3.6-3.7,3.1    c-2.1-0.5-1.9-2.7-1.9-4.9c0-4.9,0.9-8.6-3.9-9.5v-8.2c0-1.6-1.3-2.8-2.8-2.8h-9.4c-1.6,0-2.8,1.3-2.8,2.8v24.9h-1    c-0.5,0-1,0.4-1,1v0.7c0,0.5,0.4,1,1,1h17c0.5,0,1-0.4,1-1v-0.7c0-0.5-0.4-1-1-1h-1V654.5z"/>
	</g>
	<g id="XMLID_11_">
		<path fill-rule="evenodd" clip-rule="evenodd" fill="#00AEEF" d="M1054.7,589.4v13.4h21.3v-13.4H1054.7z M1051.9,586.6h5.1v-2.5    h4.1v2.5h8.4v-2.5h4.1v2.5h5.1v19h-26.8V586.6z"/>
	</g>
	<g id="XMLID_37_">
		<rect x="1056.4" y="595" fill-rule="evenodd" clip-rule="evenodd" fill="#00AEEF" width="5.5" height="2.5"/>
	</g>
	<g id="XMLID_36_">
		<polygon fill-rule="evenodd" clip-rule="evenodd" fill="#00AEEF" points="1068.5,595.1 1070.1,595.1 1070.1,593.6 1072.6,593.6     1072.6,595.1 1074.3,595.1 1074.3,597.4 1072.6,597.4 1072.6,598.9 1070.1,598.9 1070.1,597.4 1068.5,597.4   "/>
	</g>
	<g id="XMLID_12_">
		<path fill-rule="evenodd" clip-rule="evenodd" fill="#00AEEF" d="M1128.4,600.5v0.6v2.8c4.4-2.6,4.9-10.8,0-13.2v1.8v0.6V600.5z     M1115.1,586.9h-4.3h-0.7l-2.1,2.3h-2.1v5.7v0.9v3.8v1.9h6.2l3.3,3.9h7.1v-4.9h4.5v-7.4h-3.3v-2.6h-3.6v-3.6h-0.5h-3.1H1115.1z     M1109.5,584.7h4.3v0.9h-4.3l-2.1,2.3h-2.8v5.7h-0.8v-5.7h-1.9v14.9h1.9v-5.7h0.8v5.7h6.9l3.3,3.9h9.1v-4.9h3.3v4    c7.6-1.7,8.7-15.2,0-17v2.9h-2.1v-2.6h-3.6v-1.2v-2.3h-3.6v-0.9h3.6V583h-12V584.7z"/>
	</g>
	<g id="XMLID_32_">
		<path fill-rule="evenodd" clip-rule="evenodd" fill="#00AEEF" d="M1168.8,599.4c1,0.4,1.7,1.4,1.7,2.6c0,1.6-1.3,2.8-2.8,2.8    c-1.6,0-2.8-1.3-2.8-2.8c0-1.2,0.7-2.2,1.7-2.6v-14.3c0-0.6,0.5-1.1,1.1-1.1h0c0.6,0,1.1,0.5,1.1,1.1v1.2h3.9    c0.6,0,1.1,0.5,1.1,1.1v0c0,0.6-0.5,1.1-1.1,1.1h-3.9v2h3.9c0.6,0,1.1,0.5,1.1,1.1v0c0,0.6-0.5,1.1-1.1,1.1h-3.9v2h3.9    c0.6,0,1.1,0.5,1.1,1.1v0c0,0.6-0.5,1.1-1.1,1.1h-3.9V599.4z"/>
	</g>
	<g id="XMLID_31_">
		<path fill-rule="evenodd" clip-rule="evenodd" fill="#00AEEF" d="M1163.1,606.2c-1,1.3-2.6,2.1-4.4,2.1c-2.7,0-5-2-5.5-4.6h2.2    c0.4,1.4,1.7,2.4,3.3,2.4s2.8-1,3.3-2.4h2.2c0.4,1.4,1.7,2.4,3.3,2.4c1.5,0,2.8-1,3.3-2.4h2.2c0.4,1.4,1.7,2.4,3.3,2.4    s2.8-1,3.3-2.4h2.2c-0.5,2.6-2.8,4.6-5.5,4.6c-1.8,0-3.4-0.8-4.4-2.1c-1,1.3-2.6,2.1-4.4,2.1    C1165.7,608.4,1164.1,607.5,1163.1,606.2"/>
	</g>
	<g id="XMLID_30_">
		<path fill-rule="evenodd" clip-rule="evenodd" fill="#00AEEF" d="M1164,598.6c-0.5,2.6-2.8,4.6-5.5,4.6s-5-2-5.5-4.6h2.2    c0.4,1.4,1.7,2.4,3.3,2.4c1.5,0,2.8-1,3.3-2.4H1164z"/>
	</g>
	<g id="XMLID_29_">
		<path fill-rule="evenodd" clip-rule="evenodd" fill="#00AEEF" d="M1181.9,598.6c-0.5,2.6-2.8,4.6-5.5,4.6s-5-2-5.5-4.6h2.2    c0.4,1.4,1.7,2.4,3.3,2.4s2.8-1,3.3-2.4H1181.9z"/>
	</g>
	<g id="XMLID_28_">
		<path id="XMLID_240_" fill="#EED1B2" d="M1052.8,468.7c1.5-1.9,3.6-2.8,6.5-2.8c2.9,0,5,0.9,6.5,2.8s2.2,4.8,2.2,8.9    s-0.7,7-2.2,8.8s-3.6,2.7-6.5,2.7c-2.9,0-5.1-0.9-6.5-2.7s-2.2-4.7-2.2-8.8S1051.3,470.6,1052.8,468.7z M1063.1,477.6    c0-2.8-0.3-4.8-0.9-5.9c-0.6-1.1-1.6-1.7-3-1.7c-1.4,0-2.4,0.6-3,1.7c-0.6,1.1-0.9,3.1-0.9,5.9s0.3,4.7,0.9,5.8    c0.6,1.1,1.6,1.7,3,1.7s2.4-0.6,3-1.7C1062.8,482.3,1063.1,480.3,1063.1,477.6z"/>
		<path id="XMLID_243_" fill="#EED1B2" d="M1072.3,467.5c1.5-1.1,3.4-1.6,5.9-1.6c2.5,0,4.5,0.5,6,1.6c1.5,1.1,2.3,2.6,2.3,4.5    c0,1.3-0.2,2.3-0.5,3s-1,1.4-2,2.2c1,0.8,1.7,1.6,2.1,2.4s0.6,1.8,0.6,3.1c0,2.2-0.8,3.9-2.4,4.9s-3.7,1.6-6.2,1.6    c-5.7,0-8.5-2-8.5-6.1c0-1.4,0.2-2.6,0.7-3.4c0.4-0.8,1.2-1.6,2.2-2.5c-0.9-0.8-1.6-1.5-1.9-2.3s-0.5-1.7-0.5-2.9    C1070.1,470.1,1070.8,468.6,1072.3,467.5z M1074.7,481.9c0,2,1.2,3,3.5,3c2.3,0,3.5-1,3.5-3c0-1.2-0.7-2-2-2.5h-3    C1075.4,479.9,1074.7,480.8,1074.7,481.9z M1078.2,470.1c-1,0-1.8,0.2-2.3,0.7c-0.5,0.5-0.8,1.1-0.8,2.1s0.6,1.8,1.7,2.5h3    c1.1-0.8,1.7-1.7,1.7-2.6C1081.4,471,1080.4,470.1,1078.2,470.1z"/>
		<path id="XMLID_247_" fill="#EED1B2" d="M1089.6,488.7v-5.6h4.9v5.6H1089.6z"/>
		<path id="XMLID_249_" fill="#EED1B2" d="M1098.5,467.2c2.1-0.8,4.4-1.2,7-1.2s4.4,0.5,5.6,1.5s1.8,2.6,1.8,4.7    c0,2.2-0.9,3.8-2.6,5c1.1,0.6,1.9,1.2,2.3,1.8c0.5,0.6,0.7,1.6,0.7,3c0,2.4-0.6,4.2-1.8,5.4s-3.2,1.8-5.8,1.8c-2,0-4-0.3-6.2-0.9    l-1.1-0.3l0.2-3.6c2.5,0.4,4.7,0.6,6.4,0.6c2.3,0,3.5-1,3.5-3c0-0.8-0.3-1.5-0.9-2c-0.6-0.5-1.4-0.7-2.4-0.7h-4.5v-3.9h4.5    c0.7,0,1.4-0.3,2-1c0.6-0.6,0.9-1.3,0.9-2.1c0-1.6-1.1-2.4-3.4-2.4c-1.6,0-3.2,0.2-5,0.5l-0.9,0.1L1098.5,467.2z"/>
		<path id="XMLID_251_" fill="#EED1B2" d="M1118.4,468.7c1.5-1.9,3.6-2.8,6.5-2.8c2.9,0,5,0.9,6.5,2.8s2.2,4.8,2.2,8.9    s-0.7,7-2.2,8.8s-3.6,2.7-6.5,2.7c-2.9,0-5.1-0.9-6.5-2.7s-2.2-4.7-2.2-8.8S1117,470.6,1118.4,468.7z M1128.8,477.6    c0-2.8-0.3-4.8-0.9-5.9c-0.6-1.1-1.6-1.7-3-1.7c-1.4,0-2.4,0.6-3,1.7c-0.6,1.1-0.9,3.1-0.9,5.9s0.3,4.7,0.9,5.8    c0.6,1.1,1.6,1.7,3,1.7s2.4-0.6,3-1.7C1128.5,482.3,1128.8,480.3,1128.8,477.6z"/>
		<path id="XMLID_254_" fill="#EED1B2" d="M1135,488.7l5.2-23.1h8.9l5.2,23.1h-4.7l-0.9-4.2h-8.1l-0.9,4.2H1135z M1143.8,469.5    l-2.3,11h6.3l-2.3-11H1143.8z"/>
		<path id="XMLID_257_" fill="#EED1B2" d="M1157.4,488.7v-23.1h8l4.1,16.8l4.1-16.8h8v23.1h-4.7v-17.8h-0.5l-4.5,16.8h-4.7    l-4.5-16.8h-0.5v17.8H1157.4z"/>
	</g>
	<g id="XMLID_13_">
		<path fill-rule="evenodd" clip-rule="evenodd" fill="#EED1B2" d="M1161.4,516.9c-6.5-1.1-9.3,1.7-10.3,7.2    c-6.2,0.7-5.7,8.6-0.7,9.5c3.5,0.6,13.8,0.1,18,0.1c4.9,0,13.1,1,16-1.8c2.3-2.2,3.4-8-2.8-10.4l-0.8-0.4    C1183,507.3,1164,504.8,1161.4,516.9 M1148.5,521.6c2.6-6.1,4.2-7,10.9-8c-1.7-6.7-13.6-6.1-13.9,2.3    C1145.5,518.3,1147,521.1,1148.5,521.6z M1145.7,523.3c-1.4,2.6-4.1,6.7,0.2,11c3.2,3.1,7.4,2.2,13.3,2.2c5.1,0,10.2,0,15.3,0    c5.3,0,9.4,0.5,12.4-3.1c3.5-4.1,2.6-10.5-1.2-13.2c-1.3-1-1.6-0.6-1.8-2.3c-1.6-12.4-14.5-15-21.4-8.4c-0.2,0.2-0.2,0.2-0.5,0.4    l-0.7,0.5c-1.7-1.6-2.5-3.5-6.4-4.2C1145,504.2,1138.5,515.9,1145.7,523.3z"/>
	</g>
	<g id="XMLID_24_">
		<path fill-rule="evenodd" clip-rule="evenodd" fill="#EED1B2" d="M1151.9,548.7l2.7,0c1.2-0.8,3.9-7.3,4.8-8.9l-3.1-0.1    L1151.9,548.7z"/>
	</g>
	<g id="XMLID_23_">
		<path fill-rule="evenodd" clip-rule="evenodd" fill="#EED1B2" d="M1170.3,548.7c3.6,0.1,2.5,1,5.1-4.3c0.8-1.6,1.7-3.1,2.3-4.7    h-2.6C1174,540.3,1170.9,547.2,1170.3,548.7"/>
	</g>
	<g id="XMLID_22_">
		<path fill-rule="evenodd" clip-rule="evenodd" fill="#EED1B2" d="M1158.1,548.8c3.9,0,2.7,0.8,7.4-9c-3.6-0.1-2.8-0.5-4,1.9    L1158.1,548.8z"/>
	</g>
	<g id="XMLID_21_">
		<path fill-rule="evenodd" clip-rule="evenodd" fill="#EED1B2" d="M1164.2,548.7c3.7,0.1,2.6,0.7,5.1-4.3c0.8-1.5,1.6-3.1,2.3-4.6    c-3.9-0.1-2.7-0.5-5.1,4.3C1165.7,545.6,1164.7,547.2,1164.2,548.7"/>
	</g>
	<g id="XMLID_20_">
		<polygon fill-rule="evenodd" clip-rule="evenodd" fill="#EED1B2" points="1151.4,503.3 1154.3,503.3 1154.3,498.2 1151.7,498.2     1151.4,498.2   "/>
	</g>
	<g id="XMLID_19_">
		<path fill-rule="evenodd" clip-rule="evenodd" fill="#EED1B2" d="M1157.9,504.4l2.4,1.2c0.6-0.7,2.2-3.4,2.5-4.5l-2.5-1.1    L1157.9,504.4z"/>
	</g>
	<g id="XMLID_18_">
		<path fill-rule="evenodd" clip-rule="evenodd" fill="#EED1B2" d="M1136.7,508.5c1.4,0.7,2.9,1.8,4.5,2.3c0.3-1,0.8-1.5,1.2-2.3    c-1.1-0.8-3-1.8-4.2-2.4c-0.2,0.2-0.2,0.2-0.4,0.5L1136.7,508.5z"/>
	</g>
	<g id="XMLID_17_">
		<path fill-rule="evenodd" clip-rule="evenodd" fill="#EED1B2" d="M1136.8,523.9l1.1,2.1c1.1-0.3,3.6-1.7,4.4-2.4l-1.2-2.3    C1140.4,521.6,1137.5,523.2,1136.8,523.9"/>
	</g>
	<g id="XMLID_16_">
		<path fill-rule="evenodd" clip-rule="evenodd" fill="#EED1B2" d="M1142.8,501.5l2.3,4.1c0.9-0.2,1.7-0.9,2.5-1.3    c-0.6-1.4-1.7-2.9-2.3-4.3L1142.8,501.5z"/>
	</g>
	<g id="XMLID_15_">
		<polygon fill-rule="evenodd" clip-rule="evenodd" fill="#EED1B2" points="1135.1,517.3 1140,517.4 1140,514.7 1135,514.7   "/>
	</g>
	<g id="XMLID_14_">
		<path id="XMLID_238_" fill="#EED1B2" d="M1078.4,546.6h-26.5v-7.3l8.7-8.9c3.1-3.2,5.3-5.6,6.5-7.3c1.2-1.7,1.8-3.5,1.8-5.4    c0-1.9-0.5-3.3-1.5-4.1c-1-0.8-2.4-1.2-4.3-1.2c-2.8,0-5.8,0.2-9,0.7l-1.5,0.2l-0.4-6.6c4-1.2,8.2-1.9,12.6-1.9    c8.7,0,13,3.9,13,11.7c0,3.1-0.7,5.7-2,7.9s-3.7,4.9-7.2,8.1l-7.1,6.4h17V546.6z"/>
	</g>
	<g id="XMLID_158_">
		<path id="XMLID_236_" fill="#EED1B2" d="M1104.6,505.7v40.9h-8.6v-31.2l-8.9,5.7l-3.9-6.4l13.5-9H1104.6z"/>
	</g>
	<g id="XMLID_159_">
		<path id="XMLID_234_" fill="#EED1B2" d="M1128.9,546.5c-2.5,0.5-4.8,0.8-6.8,0.8s-3.6-0.2-4.8-0.7s-2.2-1.3-2.8-2.4    c-0.7-1.1-1.2-2.4-1.4-3.8c-0.3-1.5-0.4-3.3-0.4-5.5c0-4.7,0.7-7.9,2-9.7s3.7-2.8,7.3-2.8c2,0,4.4,0.3,7.1,1l-0.1,3.9    c-2.3-0.4-4.3-0.5-5.8-0.5c-1.6,0-2.7,0.2-3.3,0.6c-0.7,0.4-1.2,1.2-1.5,2.4c-0.3,1.2-0.5,3.1-0.5,5.9c0,2.8,0.3,4.7,1,5.8    c0.7,1.1,2,1.6,3.9,1.6c2,0,4-0.2,6.2-0.5L1128.9,546.5z"/>
	</g>
	<g id="XMLID_160_">
		<path fill-rule="evenodd" clip-rule="evenodd" fill="#EED1B2" d="M1113.9,507.2c2,0,3.6,1.6,3.6,3.6s-1.6,3.6-3.6,3.6    s-3.6-1.6-3.6-3.6S1112,507.2,1113.9,507.2 M1113.9,506.2c2.5,0,4.6,2.1,4.6,4.6c0,2.5-2.1,4.6-4.6,4.6c-2.5,0-4.6-2.1-4.6-4.6    C1109.3,508.2,1111.4,506.2,1113.9,506.2z"/>
	</g>
	<g id="XMLID_163_">
		<rect x="1047.5" y="450.3" fill-rule="evenodd" clip-rule="evenodd" fill="#EED1B2" width="144.5" height="2.8"/>
	</g>
	<g id="XMLID_164_">
		<path id="XMLID_231_" d="M1192.3,453.4h-145v-3.3h145V453.4z M1047.8,452.9h144v-2.3h-144V452.9z"/>
	</g>
	<g id="XMLID_165_">
		<rect x="1047.5" y="559.2" fill-rule="evenodd" clip-rule="evenodd" fill="#EED1B2" width="144.5" height="2.8"/>
	</g>
	<g id="XMLID_166_">
		<path id="XMLID_228_" d="M1192.3,562.3h-145v-3.3h145V562.3z M1047.8,561.8h144v-2.3h-144V561.8z"/>
	</g>
	<g id="XMLID_167_">
		<rect x="1047.5" y="624.5" fill-rule="evenodd" clip-rule="evenodd" fill="#EED1B2" width="144.5" height="2.8"/>
	</g>
	<g id="XMLID_168_">
		<path id="XMLID_225_" d="M1192.3,627.6h-145v-3.3h145V627.6z M1047.8,627.1h144v-2.3h-144V627.1z"/>
	</g>
	<g id="XMLID_169_">
		<path id="XMLID_223_" fill="#EED1B2" d="M1050.8,650v-9h3.1l2.2,7.4h0.1V641h1.8v9h-3l-2.3-7.4h-0.1v7.4H1050.8z"/>
	</g>
	<g id="XMLID_170_">
		<path id="XMLID_172_" fill="#EED1B2" d="M1060.1,644.1c0.5-0.6,1.3-0.9,2.3-0.9s1.9,0.3,2.3,0.9c0.5,0.6,0.7,1.5,0.7,2.6    c0,2.3-1,3.5-3,3.5s-3-1.2-3-3.5C1059.4,645.6,1059.6,644.7,1060.1,644.1z M1061.4,648.2c0.2,0.3,0.5,0.5,1,0.5s0.8-0.2,1-0.5    c0.2-0.3,0.3-0.8,0.3-1.5c0-0.7-0.1-1.2-0.3-1.5c-0.2-0.3-0.5-0.5-1-0.5s-0.8,0.2-1,0.5c-0.2,0.3-0.3,0.8-0.3,1.5    C1061.2,647.4,1061.3,647.9,1061.4,648.2z"/>
		<path id="XMLID_175_" fill="#EED1B2" d="M1066.8,650v-6.6h1.8v0.7c0.7-0.4,1.4-0.7,2.1-0.9v1.8c-0.7,0.2-1.3,0.3-1.8,0.5l-0.3,0.1    v4.4H1066.8z"/>
		<path id="XMLID_177_" fill="#EED1B2" d="M1075.4,644.9h-1.6v2.7c0,0.3,0,0.5,0,0.6c0,0.1,0.1,0.2,0.1,0.3c0.1,0.1,0.2,0.1,0.4,0.1    l1,0l0.1,1.4c-0.6,0.1-1,0.2-1.4,0.2c-0.8,0-1.3-0.2-1.6-0.5c-0.3-0.4-0.4-1-0.4-2v-2.8h-0.8v-1.5h0.8v-1.8h1.8v1.8h1.6V644.9z"/>
		<path id="XMLID_179_" fill="#EED1B2" d="M1078.3,650h-1.8v-9.3h1.8v3c0.6-0.3,1.2-0.5,1.6-0.5c0.9,0,1.5,0.3,1.8,0.8    s0.5,1.3,0.5,2.4v3.6h-1.8v-3.6c0-0.6-0.1-1-0.2-1.2c-0.1-0.3-0.4-0.4-0.8-0.4c-0.3,0-0.7,0.1-1,0.2l-0.2,0.1V650z"/>
		<path id="XMLID_181_" fill="#EED1B2" d="M1086.2,650.9v-1.6c0.4,0,0.6-0.1,0.8-0.2s0.2-0.4,0.2-0.7V641h1.8l0,7.5    c0,1-0.2,1.6-0.6,1.9S1087.2,650.9,1086.2,650.9z"/>
		<path id="XMLID_183_" fill="#EED1B2" d="M1095.8,645.4v2.8c0,0.2,0.1,0.4,0.1,0.4s0.2,0.1,0.3,0.2l-0.1,1.3c-0.5,0-0.8,0-1.1-0.1    c-0.3-0.1-0.5-0.2-0.8-0.4c-0.6,0.3-1.3,0.5-1.9,0.5c-1.4,0-2.1-0.7-2.1-2.2c0-0.7,0.2-1.2,0.6-1.5s1-0.5,1.8-0.5l1.4-0.1v-0.4    c0-0.3-0.1-0.5-0.2-0.6c-0.1-0.1-0.3-0.2-0.6-0.2l-2.5,0.1l-0.1-1.2c0.9-0.3,1.8-0.4,2.7-0.4s1.5,0.2,1.8,0.5    C1095.6,644.1,1095.8,644.7,1095.8,645.4z M1092.8,647.2c-0.5,0-0.7,0.3-0.7,0.8c0,0.5,0.2,0.7,0.6,0.7c0.3,0,0.7-0.1,1.1-0.2    l0.2-0.1v-1.4L1092.8,647.2z"/>
		<path id="XMLID_186_" fill="#EED1B2" d="M1099.3,650h-1.8v-9.3h1.8v5.3l0.7-0.1l1.3-2.5h2l-1.7,3.1l1.8,3.5h-2l-1.3-2.6l-0.7,0.1    V650z"/>
		<path id="XMLID_188_" fill="#EED1B2" d="M1109.4,645.4v2.8c0,0.2,0.1,0.4,0.1,0.4s0.2,0.1,0.3,0.2l-0.1,1.3c-0.5,0-0.8,0-1.1-0.1    c-0.3-0.1-0.5-0.2-0.8-0.4c-0.6,0.3-1.3,0.5-1.9,0.5c-1.4,0-2.1-0.7-2.1-2.2c0-0.7,0.2-1.2,0.6-1.5s1-0.5,1.8-0.5l1.4-0.1v-0.4    c0-0.3-0.1-0.5-0.2-0.6c-0.1-0.1-0.3-0.2-0.6-0.2l-2.5,0.1l-0.1-1.2c0.9-0.3,1.8-0.4,2.7-0.4s1.5,0.2,1.8,0.5    C1109.2,644.1,1109.4,644.7,1109.4,645.4z M1106.4,647.2c-0.5,0-0.7,0.3-0.7,0.8c0,0.5,0.2,0.7,0.6,0.7c0.3,0,0.7-0.1,1.1-0.2    l0.2-0.1v-1.4L1106.4,647.2z"/>
		<path id="XMLID_191_" fill="#EED1B2" d="M1111.1,650v-6.6h1.8v0.7c0.7-0.4,1.4-0.7,2.1-0.9v1.8c-0.7,0.2-1.3,0.3-1.8,0.5l-0.3,0.1    v4.4H1111.1z"/>
		<path id="XMLID_193_" fill="#EED1B2" d="M1119.7,644.9h-1.6v2.7c0,0.3,0,0.5,0,0.6c0,0.1,0.1,0.2,0.1,0.3c0.1,0.1,0.2,0.1,0.4,0.1    l1,0l0.1,1.4c-0.6,0.1-1,0.2-1.4,0.2c-0.8,0-1.3-0.2-1.6-0.5c-0.3-0.4-0.4-1-0.4-2v-2.8h-0.8v-1.5h0.8v-1.8h1.8v1.8h1.6V644.9z"/>
		<path id="XMLID_195_" fill="#EED1B2" d="M1126,645.4v2.8c0,0.2,0.1,0.4,0.1,0.4s0.2,0.1,0.3,0.2l-0.1,1.3c-0.5,0-0.8,0-1.1-0.1    c-0.3-0.1-0.5-0.2-0.8-0.4c-0.6,0.3-1.3,0.5-1.9,0.5c-1.4,0-2.1-0.7-2.1-2.2c0-0.7,0.2-1.2,0.6-1.5s1-0.5,1.8-0.5l1.4-0.1v-0.4    c0-0.3-0.1-0.5-0.2-0.6c-0.1-0.1-0.3-0.2-0.6-0.2l-2.5,0.1l-0.1-1.2c0.9-0.3,1.8-0.4,2.7-0.4s1.5,0.2,1.8,0.5    C1125.8,644.1,1126,644.7,1126,645.4z M1123,647.2c-0.5,0-0.7,0.3-0.7,0.8c0,0.5,0.2,0.7,0.6,0.7c0.3,0,0.7-0.1,1.1-0.2l0.2-0.1    v-1.4L1123,647.2z"/>
		<path id="XMLID_198_" fill="#EED1B2" d="M1127.1,651.6l0.7-3.4h2l-1.2,3.4H1127.1z"/>
		<path id="XMLID_200_" fill="#EED1B2" d="M1134.2,650v-9h1.8v9H1134.2z"/>
		<path id="XMLID_202_" fill="#EED1B2" d="M1139.6,650h-1.8v-6.6h1.8v0.4c0.6-0.4,1.2-0.5,1.7-0.5c0.9,0,1.5,0.3,1.8,0.8    s0.5,1.3,0.5,2.4v3.6h-1.8v-3.5c0-0.6-0.1-1-0.2-1.3c-0.1-0.3-0.4-0.4-0.8-0.4c-0.4,0-0.7,0.1-1,0.2l-0.2,0.1V650z"/>
		<path id="XMLID_204_" fill="#EED1B2" d="M1150.8,640.7v9.3h-1.8v-0.3c-0.6,0.3-1.2,0.4-1.6,0.4c-1,0-1.6-0.3-2-0.8    s-0.6-1.4-0.6-2.6s0.2-2.1,0.7-2.6c0.5-0.6,1.1-0.8,2.1-0.8c0.3,0,0.7,0,1.2,0.1l0.3,0.1v-2.7H1150.8z M1148.8,648.4l0.2,0v-3.5    c-0.5-0.1-0.9-0.1-1.3-0.1c-0.7,0-1.1,0.6-1.1,1.9c0,0.7,0.1,1.2,0.2,1.5c0.2,0.3,0.4,0.4,0.8,0.4    C1148.1,648.6,1148.4,648.5,1148.8,648.4z"/>
		<path id="XMLID_207_" fill="#EED1B2" d="M1152.8,644.1c0.5-0.6,1.3-0.9,2.3-0.9s1.9,0.3,2.3,0.9c0.5,0.6,0.7,1.5,0.7,2.6    c0,2.3-1,3.5-3,3.5s-3-1.2-3-3.5C1152.1,645.6,1152.3,644.7,1152.8,644.1z M1154.2,648.2c0.2,0.3,0.5,0.5,1,0.5s0.8-0.2,1-0.5    c0.2-0.3,0.3-0.8,0.3-1.5c0-0.7-0.1-1.2-0.3-1.5c-0.2-0.3-0.5-0.5-1-0.5s-0.8,0.2-1,0.5c-0.2,0.3-0.3,0.8-0.3,1.5    C1153.9,647.4,1154,647.9,1154.2,648.2z"/>
		<path id="XMLID_210_" fill="#EED1B2" d="M1161.3,650h-1.8v-6.6h1.8v0.4c0.6-0.4,1.2-0.5,1.7-0.5c0.9,0,1.5,0.3,1.8,0.8    s0.5,1.3,0.5,2.4v3.6h-1.8v-3.5c0-0.6-0.1-1-0.2-1.3c-0.1-0.3-0.4-0.4-0.8-0.4c-0.4,0-0.7,0.1-1,0.2l-0.2,0.1V650z"/>
		<path id="XMLID_212_" fill="#EED1B2" d="M1168.6,648.3c0.2,0.2,0.5,0.3,0.9,0.3c0.8,0,1.6,0,2.2-0.1l0.4,0l0,1.3    c-1,0.2-1.9,0.4-2.8,0.4c-1,0-1.7-0.3-2.2-0.8c-0.5-0.5-0.7-1.4-0.7-2.6c0-2.4,1-3.6,2.9-3.6c1.9,0,2.9,1,2.9,3l-0.1,1.2h-3.9    C1168.3,647.9,1168.4,648.1,1168.6,648.3z M1170.6,646.1c0-0.5-0.1-0.9-0.3-1.1c-0.2-0.2-0.5-0.3-0.9-0.3s-0.7,0.1-0.9,0.3    c-0.2,0.2-0.3,0.6-0.3,1.1H1170.6z"/>
		<path id="XMLID_215_" fill="#EED1B2" d="M1178.3,645c-1.1-0.1-1.9-0.2-2.3-0.2s-0.7,0-0.8,0.1c-0.1,0.1-0.2,0.2-0.2,0.4    c0,0.2,0.1,0.3,0.3,0.4c0.2,0.1,0.6,0.2,1.3,0.3c0.7,0.1,1.2,0.3,1.5,0.6c0.3,0.3,0.5,0.8,0.5,1.4c0,1.4-0.9,2.1-2.7,2.1    c-0.6,0-1.3-0.1-2.1-0.2l-0.4-0.1l0.1-1.5c1.1,0.1,1.9,0.2,2.3,0.2c0.4,0,0.7,0,0.9-0.1s0.2-0.2,0.2-0.4s-0.1-0.3-0.2-0.4    c-0.2-0.1-0.6-0.2-1.3-0.3s-1.2-0.3-1.5-0.6c-0.3-0.3-0.5-0.8-0.5-1.5s0.2-1.2,0.7-1.6c0.5-0.4,1.1-0.5,1.8-0.5    c0.5,0,1.2,0.1,2.1,0.3l0.4,0.1L1178.3,645z"/>
		<path id="XMLID_217_" fill="#EED1B2" d="M1179.8,642.5v-1.8h1.8v1.8H1179.8z M1179.8,650v-6.6h1.8v6.6H1179.8z"/>
		<path id="XMLID_220_" fill="#EED1B2" d="M1188.3,645.4v2.8c0,0.2,0.1,0.4,0.1,0.4s0.2,0.1,0.3,0.2l-0.1,1.3c-0.5,0-0.8,0-1.1-0.1    c-0.3-0.1-0.5-0.2-0.8-0.4c-0.6,0.3-1.3,0.5-1.9,0.5c-1.4,0-2.1-0.7-2.1-2.2c0-0.7,0.2-1.2,0.6-1.5s1-0.5,1.8-0.5l1.4-0.1v-0.4    c0-0.3-0.1-0.5-0.2-0.6c-0.1-0.1-0.3-0.2-0.6-0.2l-2.5,0.1l-0.1-1.2c0.9-0.3,1.8-0.4,2.7-0.4s1.5,0.2,1.8,0.5    C1188.2,644.1,1188.3,644.7,1188.3,645.4z M1185.4,647.2c-0.5,0-0.7,0.3-0.7,0.8c0,0.5,0.2,0.7,0.6,0.7c0.3,0,0.7-0.1,1.1-0.2    l0.2-0.1v-1.4L1185.4,647.2z"/>
	</g>
</g>
</svg>
