<?xml version="1.0" encoding="utf-8"?>
<!-- Generator: Adobe Illustrator 19.0.0, SVG Export Plug-In . SVG Version: 6.00 Build 0)  -->
<svg xmlns="http://www.w3.org/2000/svg" xmlns:xlink="http://www.w3.org/1999/xlink" version="1.1" id="Layer_1" x="0px" y="0px" viewBox="0 0 1800 1400" style="enable-background:new 0 0 1800 1400;" xml:space="preserve">
<style type="text/css">
	.st0{fill:#131F38;}
	.st1{fill:#080B12;}
	.st2{fill:#0E2759;}
	.st3{fill:#F23841;}
	.st4{fill:#84D4F6;}
	.st5{fill:#0D76A8;}
	.st6{fill:#FFFFFF;}
	.st7{fill:#FC6E27;}
	.st8{fill:#121E38;}
	.st9{fill:none;}
	.st10{fill:#252A30;}
	.st11{fill:#3B434D;}
	.st12{fill:#D9F4FF;}
</style>

<g id="XMLID_1_">
	<g id="XMLID_2_">
		<path id="XMLID_3_" class="st1" d="M900,388.7c-401.7,0-640,77.9-741.5,121.2c-33.2,14.2-49.8,51.7-37.9,85.8l78.2,224.7    c43.5,125,161.4,208.9,293.8,208.9h814.9c132.4,0,250.3-83.8,293.8-208.9l78.2-224.7c11.9-34.1-4.7-71.6-37.9-85.8    C1540,466.6,1301.7,388.7,900,388.7z"/>
	</g>
	<g id="XMLID_207_">
		<path id="XMLID_445_" class="st2" d="M1307.4,1018.3H492.6c-127.6,0-241.5-81-283.4-201.5L131,592.1c-9.9-28.5,4-60.2,31.8-72    c49.3-21,133.7-51.3,256-76.2c144.1-29.3,306-44.1,481.1-44.1c175.1,0,337,14.8,481.1,44.1c122.3,24.9,206.8,55.2,256,76.2    c27.8,11.9,41.8,43.5,31.8,72l-78.2,224.7C1548.9,937.3,1435,1018.3,1307.4,1018.3z M900,407.7c-174.6,0-335.9,14.8-479.5,44    c-121.7,24.7-205.6,54.8-254.5,75.7c-23.9,10.2-36,37.5-27.4,62.1l78.2,224.7c40.8,117.3,151.6,196.1,275.8,196.1h814.9    c124.2,0,235-78.8,275.8-196.1l78.2-224.7c8.6-24.6-3.5-51.9-27.4-62.1c-48.9-20.9-132.8-51-254.5-75.7    C1235.9,422.5,1074.6,407.7,900,407.7z"/>
	</g>
	<g id="XMLID_8_">
		<g id="XMLID_32_">
			<g id="XMLID_33_">
				<path id="XMLID_444_" class="st3" d="M713.6,799.4c-0.3,0-0.5,0-0.8-0.1l-25.5-6.8c-1.6-0.4-2.6-2.1-2.1-3.7      c0.4-1.6,2.1-2.6,3.7-2.1l25.5,6.8c1.6,0.4,2.6,2.1,2.1,3.7C716.1,798.5,714.9,799.4,713.6,799.4z"/>
			</g>
			<g id="XMLID_35_">
				<path id="XMLID_443_" class="st3" d="M688.1,698.9c-1.3,0-2.5-0.9-2.9-2.2c-0.4-1.6,0.5-3.2,2.1-3.7l25.5-6.8      c1.6-0.4,3.2,0.5,3.7,2.1c0.4,1.6-0.5,3.2-2.1,3.7l-25.5,6.8C688.6,698.9,688.4,698.9,688.1,698.9z"/>
			</g>
			<g id="XMLID_36_">
				<path id="XMLID_442_" class="st3" d="M641.3,617.9c-0.8,0-1.5-0.3-2.1-0.9c-1.2-1.2-1.2-3.1,0-4.2l18.7-18.7      c1.2-1.2,3.1-1.2,4.2,0c1.2,1.2,1.2,3.1,0,4.2L643.4,617C642.9,617.6,642.1,617.9,641.3,617.9z"/>
			</g>
			<g id="XMLID_37_">
				<path id="XMLID_441_" class="st3" d="M560.3,571.1c-0.3,0-0.5,0-0.8-0.1c-1.6-0.4-2.6-2.1-2.1-3.7l6.8-25.5      c0.4-1.6,2.1-2.5,3.7-2.1c1.6,0.4,2.6,2.1,2.1,3.7l-6.8,25.5C562.8,570.2,561.6,571.1,560.3,571.1z"/>
			</g>
			<g id="XMLID_39_">
				<path id="XMLID_440_" class="st4" d="M466.6,571.1c-1.3,0-2.5-0.9-2.9-2.2l-6.8-25.5c-0.4-1.6,0.5-3.2,2.1-3.7      c1.6-0.4,3.2,0.5,3.7,2.1l6.8,25.5c0.4,1.6-0.5,3.2-2.1,3.7C467.2,571,466.9,571.1,466.6,571.1z"/>
			</g>
			<g id="XMLID_41_">
				<path id="XMLID_439_" class="st4" d="M385.6,617.9c-0.8,0-1.5-0.3-2.1-0.9l-18.7-18.7c-1.2-1.2-1.2-3.1,0-4.2      c1.2-1.2,3.1-1.2,4.2,0l18.7,18.7c1.2,1.2,1.2,3.1,0,4.2C387.1,617.6,386.4,617.9,385.6,617.9z"/>
			</g>
			<g id="XMLID_42_">
				<path id="XMLID_438_" class="st4" d="M338.8,698.9c-0.3,0-0.5,0-0.8-0.1l-25.5-6.8c-1.6-0.4-2.6-2.1-2.1-3.7      c0.4-1.6,2.1-2.5,3.7-2.1l25.5,6.8c1.6,0.4,2.6,2.1,2.1,3.7C341.3,698.1,340.1,698.9,338.8,698.9z"/>
			</g>
			<g id="XMLID_43_">
				<path id="XMLID_437_" class="st4" d="M313.3,799.4c-1.3,0-2.5-0.9-2.9-2.2c-0.4-1.6,0.5-3.2,2.1-3.7l25.5-6.8      c1.6-0.4,3.2,0.5,3.7,2.1c0.4,1.6-0.5,3.2-2.1,3.7l-25.5,6.8C313.8,799.3,313.6,799.4,313.3,799.4z"/>
			</g>
		</g>
		<g id="XMLID_5_">
			<g id="XMLID_61_">
				<path id="XMLID_436_" class="st4" d="M324.5,744.1h-18c-0.8,0-1.5-0.7-1.5-1.5c0-0.8,0.7-1.5,1.5-1.5h18c0.8,0,1.5,0.7,1.5,1.5      C326,743.4,325.3,744.1,324.5,744.1z"/>
			</g>
			<g id="XMLID_78_">
				<path id="XMLID_435_" class="st4" d="M349.9,649.5c-0.3,0-0.5-0.1-0.7-0.2l-15.6-9c-0.7-0.4-1-1.3-0.5-2c0.4-0.7,1.3-1,2-0.5      l15.6,9c0.7,0.4,1,1.3,0.5,2C350.9,649.2,350.4,649.5,349.9,649.5z"/>
			</g>
			<g id="XMLID_88_">
				<path id="XMLID_434_" class="st4" d="M419.2,580.3c-0.5,0-1-0.3-1.3-0.8l-9-15.6c-0.4-0.7-0.2-1.6,0.5-2c0.7-0.4,1.6-0.2,2,0.5      l9,15.6c0.4,0.7,0.2,1.6-0.5,2C419.7,580.2,419.5,580.3,419.2,580.3z"/>
			</g>
			<g id="XMLID_89_">
				<path id="XMLID_433_" class="st4" d="M513.8,555c-0.8,0-1.5-0.7-1.5-1.5v-18c0-0.8,0.7-1.5,1.5-1.5c0.8,0,1.5,0.7,1.5,1.5v18      C515.3,554.4,514.7,555,513.8,555z"/>
			</g>
			<g id="XMLID_92_">
				<path id="XMLID_432_" class="st3" d="M608.4,580.5c-0.3,0-0.5-0.1-0.7-0.2c-0.7-0.4-1-1.3-0.5-2l9-15.6c0.4-0.7,1.3-1,2-0.5      c0.7,0.4,1,1.3,0.5,2l-9,15.6C609.4,580.2,608.9,580.5,608.4,580.5z"/>
			</g>
			<g id="XMLID_93_">
				<path id="XMLID_431_" class="st3" d="M677.6,649.8c-0.5,0-1-0.3-1.3-0.8c-0.4-0.7-0.2-1.6,0.5-2l15.6-9c0.7-0.4,1.6-0.2,2,0.5      c0.4,0.7,0.2,1.6-0.5,2l-15.6,9C678.1,649.7,677.8,649.8,677.6,649.8z"/>
			</g>
			<g id="XMLID_95_">
				<path id="XMLID_430_" class="st3" d="M720.9,744.4h-18c-0.8,0-1.5-0.7-1.5-1.5c0-0.8,0.7-1.5,1.5-1.5h18c0.8,0,1.5,0.7,1.5,1.5      C722.4,743.8,721.7,744.4,720.9,744.4z"/>
			</g>
		</g>
		<g id="XMLID_34_">
			<path id="XMLID_427_" class="st5" d="M595.1,907H432.2c-40.5,0-78.5-21.2-99.2-55.4c-19.9-32.8-30.4-70.6-30.4-109.1     c0-56.4,21.9-109.3,61.8-149.2c39.8-39.9,92.8-61.8,149.2-61.8c0,0,0.1,0,0.1,0c56.5,0,109.5,21.9,149.3,61.7     c39.8,39.8,61.7,92.8,61.7,149.4c0,37.9-10.2,75.1-29.4,107.5C674.4,885.2,636,907,595.1,907z M513.6,539.5     C513.6,539.5,513.6,539.5,513.6,539.5c-112,0-203,91.1-203,203c0,37.1,10.1,73.4,29.2,105c19.2,31.8,54.6,51.5,92.3,51.5h162.9     c38.1,0,73.9-20.3,93.3-53.1c18.5-31.2,28.3-66.9,28.3-103.4c0-54.4-21.1-105.4-59.4-143.7C619,560.6,568,539.5,513.6,539.5z"/>
		</g>
		<g id="XMLID_73_">
			<path id="XMLID_7_" class="st3" d="M427.1,698.5L360.7,657l69.3,36.3c1.5,0.8,2,2.6,1.3,4.1c-0.8,1.5-2.6,2-4.1,1.3     C427.2,698.6,427.1,698.6,427.1,698.5z"/>
		</g>
		<g id="XMLID_74_">
			<path id="XMLID_424_" class="st5" d="M595.1,795H432.2c-1.3,0-2.4-0.5-3-1l-0.3-0.2l-0.2-0.3c-9.2-15.3-14.1-32.9-14.1-51     c0-54.6,44.4-99,99-99c26.6,0,51.5,10.3,70.2,28.9c18.6,18.6,28.9,43.5,28.9,70.1c0,17.8-4.7,35.2-13.7,50.4     C598.2,794.1,596.6,795,595.1,795z M431.9,791c0.1,0,0.2,0,0.3,0h162.9c0.1,0,0.4-0.1,0.4-0.2c8.6-14.5,13.1-31.2,13.1-48.3     c0-25.5-9.8-49.4-27.7-67.3c-17.9-17.9-41.8-27.7-67.3-27.7c-52.4,0-95,42.6-95,95C418.6,759.7,423.2,776.4,431.9,791z"/>
		</g>
		<g id="XMLID_58_">
			<path id="XMLID_418_" class="st6" d="M472.5,729.6h29.2v8.5h-38.5v-8.7c0-6.1,2.2-10.6,6.5-13.4c1.5-0.9,3.2-1.8,5.1-2.5l10.5-4     c2.3-0.9,4-2,5.1-3.3c1.1-1.3,1.6-3,1.6-5c0-2-0.7-3.7-2.1-5c-1.4-1.3-3.4-2-6.1-2c-2.6,0-4.8,0.6-6.5,1.9     c-1.7,1.3-2.7,3.1-3,5.6h-10.3c0.1-5,2-8.9,5.7-11.7c3.4-2.6,8-3.9,13.8-3.9c5.3,0,9.7,1.4,13.1,4.2c3.5,2.9,5.3,6.5,5.3,10.8     c0,4.2-1.1,7.6-3.2,10.2c-2.1,2.5-5.4,4.7-9.9,6.4l-10.6,4.1c-2,0.8-3.5,1.7-4.4,2.6c-0.9,1-1.4,2.2-1.4,3.7V729.6z"/>
			<path id="XMLID_420_" class="st6" d="M509.8,737.1c-1.2-1.2-1.8-2.6-1.8-4.4s0.6-3.3,1.8-4.5c1.2-1.2,2.8-1.8,4.6-1.8     c1.9,0,3.5,0.6,4.7,1.8c1.3,1.2,1.9,2.7,1.9,4.5s-0.6,3.3-1.9,4.4c-1.3,1.2-2.8,1.7-4.7,1.7C512.5,738.8,511,738.2,509.8,737.1z"/>
			<path id="XMLID_422_" class="st6" d="M540.2,707c2.8-0.5,5.5-0.7,8.1-0.7c5.3,0,9.5,1.3,12.7,3.8c3.1,2.5,4.7,6.2,4.7,11     c0,5.2-1.8,9.5-5.3,12.8c-3.7,3.5-8.4,5.3-14.1,5.3c-5.6,0-10.1-1.4-13.5-4.2c-3.5-2.9-5.3-7-5.4-12.1h9.5c0,2.7,0.9,4.6,2.7,5.9     c1.8,1.3,4.1,1.9,6.8,1.9c2.8,0,5.1-0.9,6.9-2.7c1.8-1.8,2.7-4.1,2.7-6.8c0-5.2-3.5-7.8-10.5-7.8H530l2.4-26.3H563v8.5h-21.6     L540.2,707z"/>
		</g>
		<g id="XMLID_60_">
			<path id="XMLID_410_" class="st6" d="M502.3,756.7c0,1.1-0.3,2-0.9,2.8c-0.6,0.8-1.5,1.3-2.7,1.6l4.2,6.3h-3.7l-3.4-6.1h-2.2v6.1     h-2.8v-15.6h5.8c1.8,0,3.3,0.4,4.3,1.3C501.8,754,502.3,755.2,502.3,756.7z M496.2,759.5c1,0,1.8-0.2,2.4-0.7     c0.5-0.5,0.8-1.1,0.8-1.9c0-0.8-0.2-1.4-0.7-1.9c-0.5-0.5-1.2-0.7-2.2-0.7h-2.9v5.2H496.2z"/>
			<path id="XMLID_413_" class="st6" d="M515.7,753.2c1,0.9,1.5,2.1,1.5,3.7c0,1.6-0.5,2.8-1.5,3.7c-1,0.9-2.4,1.3-4.1,1.3h-2.6v5.7     h-2.9v-15.6h5.5C513.3,751.9,514.7,752.3,515.7,753.2z M511.6,759.3c0.9,0,1.5-0.2,2-0.7c0.4-0.5,0.7-1.1,0.7-1.8     s-0.2-1.3-0.7-1.8c-0.4-0.5-1.1-0.7-2-0.7h-2.6v5H511.6z"/>
			<path id="XMLID_416_" class="st6" d="M524.1,751.9l4.3,9.3l4.3-9.3h3.9v15.6h-2.9v-11.8l-4.4,10.1h-1.8l-4.6-10.5v12.2h-2.8     v-15.6H524.1z"/>
		</g>
	</g>
	<g id="XMLID_4_">
		<g id="XMLID_136_">
			<g id="XMLID_135_">
				<path id="XMLID_409_" class="st4" d="M1094,744.2h-14.9c-0.8,0-1.5-0.7-1.5-1.5c0-0.8,0.7-1.5,1.5-1.5h14.9      c0.8,0,1.5,0.7,1.5,1.5C1095.5,743.6,1094.8,744.2,1094,744.2z"/>
			</g>
			<g id="XMLID_134_">
				<path id="XMLID_408_" class="st4" d="M1105.6,678.5c-0.2,0-0.3,0-0.5-0.1l-14-5.1c-0.8-0.3-1.2-1.1-0.9-1.9      c0.3-0.8,1.1-1.2,1.9-0.9l14,5.1c0.8,0.3,1.2,1.1,0.9,1.9C1106.8,678.1,1106.2,678.5,1105.6,678.5z"/>
			</g>
			<g id="XMLID_133_">
				<path id="XMLID_407_" class="st4" d="M1139,620.6c-0.3,0-0.7-0.1-1-0.4l-11.4-9.6c-0.6-0.5-0.7-1.5-0.2-2.1      c0.5-0.6,1.5-0.7,2.1-0.2l11.4,9.6c0.6,0.5,0.7,1.5,0.2,2.1C1139.9,620.4,1139.4,620.6,1139,620.6z"/>
			</g>
			<g id="XMLID_132_">
				<path id="XMLID_406_" class="st4" d="M1190.2,577.7c-0.5,0-1-0.3-1.3-0.8l-7.4-12.9c-0.4-0.7-0.2-1.6,0.5-2      c0.7-0.4,1.6-0.2,2,0.5l7.4,12.9c0.4,0.7,0.2,1.6-0.5,2C1190.7,577.6,1190.4,577.7,1190.2,577.7z"/>
			</g>
			<g id="XMLID_131_">
				<path id="XMLID_405_" class="st4" d="M1253,554.8c-0.7,0-1.3-0.5-1.5-1.2l-2.6-14.7c-0.1-0.8,0.4-1.6,1.2-1.7      c0.8-0.1,1.6,0.4,1.7,1.2l2.6,14.7c0.1,0.8-0.4,1.6-1.2,1.7C1253.1,554.8,1253,554.8,1253,554.8z"/>
			</g>
			<g id="XMLID_130_">
				<path id="XMLID_404_" class="st4" d="M1319.8,554.8c-0.1,0-0.2,0-0.3,0c-0.8-0.1-1.4-0.9-1.2-1.7l2.6-14.7      c0.1-0.8,0.9-1.4,1.7-1.2c0.8,0.1,1.4,0.9,1.2,1.7l-2.6,14.7C1321.1,554.3,1320.5,554.8,1319.8,554.8z"/>
			</g>
			<g id="XMLID_129_">
				<path id="XMLID_403_" class="st3" d="M1382.5,577.7c-0.3,0-0.5-0.1-0.7-0.2c-0.7-0.4-1-1.3-0.5-2l7.4-12.9c0.4-0.7,1.3-1,2-0.5      c0.7,0.4,1,1.3,0.5,2l-7.4,12.9C1383.5,577.4,1383,577.7,1382.5,577.7z"/>
			</g>
			<g id="XMLID_128_">
				<path id="XMLID_402_" class="st3" d="M1433.7,620.6c-0.4,0-0.9-0.2-1.2-0.5c-0.5-0.6-0.4-1.6,0.2-2.1l11.4-9.6      c0.6-0.5,1.6-0.4,2.1,0.2c0.5,0.6,0.4,1.6-0.2,2.1l-11.4,9.6C1434.4,620.5,1434,620.6,1433.7,620.6z"/>
			</g>
			<g id="XMLID_127_">
				<path id="XMLID_401_" class="st3" d="M1467.1,678.5c-0.6,0-1.2-0.4-1.4-1c-0.3-0.8,0.1-1.6,0.9-1.9l14-5.1      c0.8-0.3,1.6,0.1,1.9,0.9c0.3,0.8-0.1,1.6-0.9,1.9l-14,5.1C1467.4,678.4,1467.3,678.5,1467.1,678.5z"/>
			</g>
			<g id="XMLID_97_">
				<path id="XMLID_400_" class="st3" d="M1493.6,744.2h-14.9c-0.8,0-1.5-0.7-1.5-1.5c0-0.8,0.7-1.5,1.5-1.5h14.9      c0.8,0,1.5,0.7,1.5,1.5C1495.1,743.6,1494.4,744.2,1493.6,744.2z"/>
			</g>
		</g>
		<g id="XMLID_44_">
			<g id="XMLID_45_">
				<path id="XMLID_399_" class="st3" d="M1465.8,849.4c-0.5,0-1-0.1-1.5-0.4l-18.1-10.5c-1.4-0.8-1.9-2.7-1.1-4.1      c0.8-1.4,2.7-1.9,4.1-1.1l18.1,10.5c1.4,0.8,1.9,2.7,1.1,4.1C1467.8,848.8,1466.8,849.4,1465.8,849.4z"/>
			</g>
			<g id="XMLID_46_">
				<path id="XMLID_398_" class="st3" d="M1490.4,781.7c-0.2,0-0.3,0-0.5,0l-20.6-3.6c-1.6-0.3-2.7-1.8-2.4-3.5      c0.3-1.6,1.8-2.7,3.5-2.4l20.6,3.6c1.6,0.3,2.7,1.8,2.4,3.5C1493.1,780.7,1491.9,781.7,1490.4,781.7z"/>
			</g>
			<g id="XMLID_47_">
				<path id="XMLID_397_" class="st3" d="M1469.8,713.4c-1.4,0-2.7-1-3-2.5c-0.3-1.6,0.8-3.2,2.4-3.5l20.6-3.6      c1.6-0.3,3.2,0.8,3.5,2.4c0.3,1.6-0.8,3.2-2.4,3.5l-20.6,3.6C1470.1,713.4,1469.9,713.4,1469.8,713.4z"/>
			</g>
			<g id="XMLID_48_">
				<path id="XMLID_396_" class="st3" d="M1447.7,652.6c-1,0-2-0.5-2.6-1.5c-0.8-1.4-0.3-3.3,1.1-4.1l18.1-10.5      c1.4-0.8,3.3-0.3,4.1,1.1c0.8,1.4,0.3,3.3-1.1,4.1l-18.1,10.5C1448.7,652.5,1448.2,652.6,1447.7,652.6z"/>
			</g>
			<g id="XMLID_49_">
				<path id="XMLID_395_" class="st3" d="M1406.1,603.1c-0.7,0-1.4-0.2-1.9-0.7c-1.3-1.1-1.4-3-0.4-4.2l13.5-16.1      c1.1-1.3,3-1.4,4.2-0.4c1.3,1.1,1.4,3,0.4,4.2l-13.5,16.1C1407.8,602.7,1406.9,603.1,1406.1,603.1z"/>
			</g>
			<g id="XMLID_50_">
				<path id="XMLID_394_" class="st3" d="M1350.1,570.7c-0.3,0-0.7-0.1-1-0.2c-1.6-0.6-2.4-2.3-1.8-3.8l7.2-19.7      c0.6-1.6,2.3-2.4,3.8-1.8c1.6,0.6,2.4,2.3,1.8,3.8l-7.2,19.7C1352.4,570,1351.3,570.7,1350.1,570.7z"/>
			</g>
			<g id="XMLID_51_">
				<path id="XMLID_393_" class="st4" d="M1286.4,559.5c-1.7,0-3-1.3-3-3v-21c0-1.7,1.3-3,3-3s3,1.3,3,3v21      C1289.4,558.1,1288,559.5,1286.4,559.5z"/>
			</g>
			<g id="XMLID_52_">
				<path id="XMLID_392_" class="st4" d="M1222.7,570.7c-1.2,0-2.4-0.8-2.8-2l-7.2-19.7c-0.6-1.6,0.2-3.3,1.8-3.8      c1.6-0.6,3.3,0.2,3.8,1.8l7.2,19.7c0.6,1.6-0.2,3.3-1.8,3.8C1223.3,570.7,1223,570.7,1222.7,570.7z"/>
			</g>
			<g id="XMLID_53_">
				<path id="XMLID_391_" class="st4" d="M1166.6,603.1c-0.9,0-1.7-0.4-2.3-1.1l-13.5-16.1c-1.1-1.3-0.9-3.2,0.4-4.2      c1.3-1.1,3.2-0.9,4.2,0.4l13.5,16.1c1.1,1.3,0.9,3.2-0.4,4.2C1168,602.8,1167.3,603.1,1166.6,603.1z"/>
			</g>
			<g id="XMLID_54_">
				<path id="XMLID_390_" class="st4" d="M1125,652.6c-0.5,0-1-0.1-1.5-0.4l-18.2-10.5c-1.4-0.8-1.9-2.7-1.1-4.1      c0.8-1.4,2.7-1.9,4.1-1.1l18.2,10.5c1.4,0.8,1.9,2.7,1.1,4.1C1127.1,652.1,1126.1,652.6,1125,652.6z"/>
			</g>
			<g id="XMLID_55_">
				<path id="XMLID_389_" class="st4" d="M1102.9,713.4c-0.2,0-0.3,0-0.5,0l-20.6-3.6c-1.6-0.3-2.7-1.8-2.4-3.5      c0.3-1.6,1.9-2.7,3.5-2.4l20.6,3.6c1.6,0.3,2.7,1.8,2.4,3.5C1105.6,712.4,1104.4,713.4,1102.9,713.4z"/>
			</g>
			<g id="XMLID_56_">
				<path id="XMLID_388_" class="st4" d="M1082.3,781.7c-1.4,0-2.7-1-3-2.5c-0.3-1.6,0.8-3.2,2.4-3.5l20.6-3.6      c1.6-0.3,3.2,0.8,3.5,2.4c0.3,1.6-0.8,3.2-2.4,3.5l-20.6,3.6C1082.6,781.7,1082.5,781.7,1082.3,781.7z"/>
			</g>
			<g id="XMLID_57_">
				<path id="XMLID_387_" class="st4" d="M1106.9,849.4c-1,0-2-0.5-2.6-1.5c-0.8-1.4-0.3-3.3,1.1-4.1l18.2-10.5      c1.4-0.8,3.3-0.3,4.1,1.1c0.8,1.4,0.3,3.3-1.1,4.1l-18.2,10.5C1107.9,849.2,1107.4,849.4,1106.9,849.4z"/>
			</g>
		</g>
		<g id="XMLID_6_">
			<polygon id="XMLID_9_" class="st3" points="1233.6,661 1198,593.5 1238.8,658    "/>
		</g>
		<g id="XMLID_138_">
			<path id="XMLID_386_" class="st4" d="M1091.6,814.5c-0.6,0-1.2-0.4-1.4-0.9c-0.3-0.8,0.1-1.6,0.8-2l12.1-4.9     c0.8-0.3,1.6,0.1,2,0.8c0.3,0.8-0.1,1.6-0.8,2l-12.1,4.9C1092,814.5,1091.8,814.5,1091.6,814.5z"/>
		</g>
		<g id="XMLID_139_">
			<path id="XMLID_385_" class="st3" d="M1481.1,814.5c-0.2,0-0.4,0-0.6-0.1l-12.1-4.9c-0.8-0.3-1.1-1.2-0.8-2     c0.3-0.8,1.2-1.1,2-0.8l12.1,4.9c0.8,0.3,1.1,1.2,0.8,2C1482.2,814.1,1481.7,814.5,1481.1,814.5z"/>
		</g>
		<g id="XMLID_59_">
			<path id="XMLID_382_" class="st5" d="M1367.8,907h-162.9c-40.5,0-78.5-21.2-99.2-55.4c-19.9-32.8-30.4-70.6-30.4-109.1     c0-56.4,21.9-109.3,61.8-149.2c39.8-39.9,92.8-61.8,149.2-61.8c0,0,0.1,0,0.1,0c56.5,0,109.5,21.9,149.3,61.7     c39.8,39.8,61.7,92.8,61.7,149.4c0,37.9-10.2,75.1-29.4,107.5C1447.1,885.2,1408.7,907,1367.8,907z M1286.4,539.5     C1286.3,539.5,1286.3,539.5,1286.4,539.5c-112,0-203,91.1-203,203c0,37.1,10.1,73.4,29.2,105c19.2,31.8,54.6,51.5,92.3,51.5     h162.9c38.1,0,73.9-20.3,93.3-53.1c18.5-31.2,28.3-66.9,28.3-103.4c0-54.4-21.1-105.4-59.4-143.7     C1391.7,560.6,1340.7,539.5,1286.4,539.5z"/>
		</g>
		<g id="XMLID_146_">
			<path id="XMLID_379_" class="st5" d="M1367.8,795h-162.9c-1.3,0-2.4-0.5-3-1l-0.3-0.2l-0.2-0.3c-9.2-15.3-14.1-32.9-14.1-51     c0-54.6,44.4-99,99-99c26.6,0,51.5,10.3,70.2,28.9c18.6,18.6,28.9,43.5,28.9,70.1c0,17.8-4.7,35.2-13.7,50.4     C1370.9,794.1,1369.3,795,1367.8,795z M1204.6,791c0.1,0,0.2,0.1,0.3,0.1h162.9c0.1,0,0.4-0.1,0.4-0.2     c8.6-14.5,13.1-31.2,13.1-48.3c0-25.5-9.8-49.4-27.7-67.3c-17.9-17.9-41.8-27.7-67.3-27.7c-52.4,0-95,42.6-95,95     C1191.3,759.7,1195.9,776.4,1204.6,791z"/>
		</g>
		<g id="XMLID_143_">
			<path id="XMLID_298_" class="st6" d="M1268,686.5v32.3h8.9v7.9h-8.9v11.3h-9.2v-11.3h-25.9v-7l26.1-33.3H1268z M1243.9,719.8     h15.3v-19.5L1243.9,719.8z"/>
			<path id="XMLID_376_" class="st6" d="M1295.2,707c2.8-0.5,5.5-0.7,8.1-0.7c5.3,0,9.5,1.3,12.7,3.8c3.1,2.5,4.7,6.2,4.7,11     c0,5.2-1.8,9.5-5.3,12.8c-3.7,3.5-8.4,5.3-14.1,5.3c-5.6,0-10.1-1.4-13.5-4.2c-3.5-2.9-5.3-7-5.4-12.1h9.5c0,2.7,0.9,4.6,2.7,5.9     s4.1,1.9,6.8,1.9c2.8,0,5.1-0.9,6.9-2.7c1.8-1.8,2.7-4.1,2.7-6.8c0-5.2-3.5-7.8-10.5-7.8H1285l2.4-26.3h30.6v8.5h-21.6     L1295.2,707z"/>
		</g>
		<g id="XMLID_140_">
			<path id="XMLID_222_" class="st6" d="M1267.5,751.9l4.3,9.3l4.3-9.3h3.9v15.6h-2.9v-11.8l-4.4,10.1h-1.8l-4.6-10.5v12.2h-2.8     v-15.6H1267.5z"/>
			<path id="XMLID_225_" class="st6" d="M1293.9,753.2c1,0.9,1.5,2.1,1.5,3.7c0,1.6-0.5,2.8-1.5,3.7c-1,0.9-2.4,1.3-4.1,1.3h-2.6     v5.7h-2.9v-15.6h5.5C1291.6,751.9,1292.9,752.3,1293.9,753.2z M1289.8,759.3c0.9,0,1.5-0.2,2-0.7c0.4-0.5,0.7-1.1,0.7-1.8     s-0.2-1.3-0.7-1.8c-0.4-0.5-1.1-0.7-2-0.7h-2.6v5H1289.8z"/>
			<path id="XMLID_228_" class="st6" d="M1301.1,751.9v6.5h6.8v-6.5h2.8v15.6h-2.8v-6.6h-6.8v6.6h-2.8v-15.6H1301.1z"/>
		</g>
	</g>
	<g id="XMLID_10_">
		<path class="st7" d="M1174.8,492.1l-35.3-24.8c-1-0.7-2.4,0-2.4,1.2v6.3c0,0.8-0.7,1.5-1.5,1.5h-45c-0.8,0-1.5,0.7-1.5,1.5v31    c0,0.8,0.7,1.5,1.5,1.5h45c0.8,0,1.5,0.7,1.5,1.5v6.3c0,1.2,1.4,1.9,2.4,1.2l35.3-24.8C1175.7,494,1175.7,492.7,1174.8,492.1z"/>
	</g>
	<g id="XMLID_11_">
		<path class="st8" d="M625.2,494.6l35.3,24.8c1,0.7,2.4,0,2.4-1.2v-6.3c0-0.8,0.7-1.5,1.5-1.5h45c0.8,0,1.5-0.7,1.5-1.5v-31    c0-0.8-0.7-1.5-1.5-1.5h-45c-0.8,0-1.5-0.7-1.5-1.5v-6.3c0-1.2-1.4-1.9-2.4-1.2l-35.3,24.8C624.3,492.7,624.3,494,625.2,494.6z"/>
	</g>
	<g id="XMLID_12_">
		<g id="XMLID_13_">
			<path id="XMLID_14_" class="st9" d="M819.3,652.8l95.8,17.4c-0.1-36.5,5.5-72.4,12.8-103.6H819.9L819.3,652.8z"/>
		</g>
		<g id="XMLID_98_">
			<path id="XMLID_220_" class="st10" d="M930.6,690.3l114.9,20.9V694l-115.4-21c-0.4-36.9,5.3-73.7,13.2-106.4h-15.5     c-7.3,31.2-12.9,67.2-12.8,103.6l-95.8-17.4l-0.1,17.3l96.3,17.5c1.9,46.6,9.8,87.6,18.3,119.5h15.7     C941,776.2,932.8,735.9,930.6,690.3z"/>
		</g>
		<g id="XMLID_144_">
			<path id="XMLID_219_" class="st10" d="M974.6,471.5c-5.3-0.5-10.5-0.9-15.8-1.3c-4.9,11.8-10.8,27.3-16.8,45.4     c-3,9.3-6.2,19.7-9.2,31h15.6C957.3,514.9,967.5,488.4,974.6,471.5z"/>
		</g>
		<g id="XMLID_159_">
			<polygon id="XMLID_218_" class="st10" points="754.5,641 754.5,658.3 799.2,666.4 799.3,649.2    "/>
		</g>
		<g id="XMLID_160_">
			<path id="XMLID_40_" class="st11" d="M819.9,566.6h107.9h15.5h102.2v-20h-97h-15.6H831.2l64.6-78.5c-8.8,0-17.6,0.2-26.4,0.6     l-64.2,77.9h-50.8v20h45.4l-0.6,82.6l-0.1,17.3l-1,140.6h20l1-137l0.1-17.3L819.9,566.6z"/>
		</g>
	</g>
	<g id="XMLID_15_">
		<g id="XMLID_16_">
			<path id="XMLID_17_" class="st9" d="M1045.5,742.6V508c0-15.7-11.6-29.1-27.1-31.3c-78.9-11.4-157.8-11.4-236.7,0     c-15.6,2.3-27.1,15.6-27.1,31.3v234.6H1045.5z"/>
		</g>
	</g>
	<g id="XMLID_141_">
		<path id="XMLID_19_" class="st5" d="M754.5,775.4c0,17.5,14.2,31.6,31.6,31.6h227.7c17.5,0,31.6-14.2,31.6-31.6v-32.8h-291V775.4z    "/>
	</g>
	<g id="XMLID_18_">
		<path id="XMLID_215_" class="st5" d="M1013.9,809H786.1c-18.5,0-33.6-15.1-33.6-33.6V508c0-16.6,12.4-30.9,28.9-33.3    c78.7-11.4,158.6-11.4,237.3,0c16.4,2.4,28.9,16.7,28.9,33.3v267.4C1047.5,794,1032.4,809,1013.9,809z M900,470.1    c-39.4,0-78.9,2.8-118.1,8.5c-14.5,2.1-25.4,14.7-25.4,29.3v267.4c0,16.3,13.3,29.6,29.6,29.6h227.7c16.3,0,29.6-13.3,29.6-29.6    V508c0-14.6-10.9-27.2-25.4-29.3C978.9,473,939.4,470.1,900,470.1z"/>
	</g>
	<g id="XMLID_20_">
		<path class="st12" d="M809.6,624.2l-6.3,8.9c-0.2,0.3,0,0.6,0.3,0.6h1.6c0.2,0,0.4,0.2,0.4,0.4v11.4c0,0.2,0.2,0.4,0.4,0.4h7.8    c0.2,0,0.4-0.2,0.4-0.4v-11.4c0-0.2,0.2-0.4,0.4-0.4h1.6c0.3,0,0.5-0.3,0.3-0.6l-6.3-8.9C810,624,809.7,624,809.6,624.2z"/>
	</g>
	<g id="XMLID_21_">
		<g id="XMLID_170_">
			<path id="XMLID_23_" class="st6" d="M795.5,777.5h6.2v1.2h-2.4v6.6h-1.4v-6.6h-2.4V777.5z"/>
		</g>
		<g id="XMLID_172_">
			<path id="XMLID_24_" class="st6" d="M804.2,777.5v4.8c0,0.6,0.2,1.1,0.5,1.4c0.3,0.3,0.7,0.4,1.3,0.4c0.5,0,0.9-0.1,1.3-0.4     c0.3-0.3,0.5-0.7,0.5-1.4v-4.8h1.4v4.8c0,1-0.3,1.8-0.8,2.3c-0.6,0.5-1.3,0.8-2.3,0.8s-1.8-0.3-2.3-0.8c-0.6-0.5-0.8-1.3-0.8-2.3     v-4.8H804.2z"/>
		</g>
		<g id="XMLID_174_">
			<path id="XMLID_25_" class="st6" d="M817,779.8c0,0.6-0.2,1-0.5,1.4c-0.3,0.4-0.8,0.7-1.3,0.8l2.1,3.2h-1.8l-1.7-3h-1.1v3h-1.4     v-7.8h2.9c0.9,0,1.6,0.2,2.1,0.7C816.7,778.5,817,779.1,817,779.8z M813.9,781.3c0.5,0,0.9-0.1,1.2-0.4c0.3-0.2,0.4-0.5,0.4-0.9     c0-0.4-0.1-0.7-0.4-0.9c-0.2-0.2-0.6-0.4-1.1-0.4h-1.5v2.6H813.9z"/>
		</g>
		<g id="XMLID_177_">
			<path id="XMLID_26_" class="st6" d="M820.4,777.5l3.4,5.5v-5.5h1.4v7.8h-1.4l-3.5-5.7v5.7h-1.4v-7.8H820.4z"/>
		</g>
		<g id="XMLID_179_">
			<path id="XMLID_27_" class="st6" d="M836.3,779.8c0,0.6-0.2,1-0.5,1.4c-0.3,0.4-0.8,0.7-1.3,0.8l2.1,3.2h-1.8l-1.7-3H832v3h-1.4     v-7.8h2.9c0.9,0,1.6,0.2,2.1,0.7C836.1,778.5,836.3,779.1,836.3,779.8z M833.3,781.3c0.5,0,0.9-0.1,1.2-0.4     c0.3-0.2,0.4-0.5,0.4-0.9c0-0.4-0.1-0.7-0.4-0.9c-0.2-0.2-0.6-0.4-1.1-0.4H832v2.6H833.3z"/>
		</g>
		<g id="XMLID_182_">
			<path id="XMLID_28_" class="st6" d="M838.3,777.5h1.4v7.8h-1.4V777.5z"/>
		</g>
		<g id="XMLID_184_">
			<path id="XMLID_30_" class="st6" d="M846.7,784c-0.3,0.9-1,1.4-1.9,1.4c-1,0-1.8-0.4-2.4-1.1c-0.7-0.8-1-1.7-1-2.9     c0-1.2,0.4-2.2,1.1-3c0.7-0.7,1.6-1.1,2.6-1.1c0.7,0,1.3,0.2,1.8,0.5c0.5,0.3,0.9,0.8,1.2,1.5l-1.5,0.3c-0.4-0.7-1-1-1.6-1     c-0.6,0-1.1,0.3-1.5,0.8c-0.4,0.5-0.6,1.2-0.6,2.1c0,0.8,0.2,1.5,0.6,2c0.4,0.5,0.8,0.7,1.4,0.7c0.5,0,0.9-0.2,1.3-0.5     c0.3-0.3,0.5-0.8,0.5-1.4v0l-1.8,0v-0.9h3.1v4h-1.2L846.7,784z"/>
		</g>
		<g id="XMLID_186_">
			<path id="XMLID_31_" class="st6" d="M851.5,777.5v3.3h3.4v-3.3h1.4v7.8h-1.4v-3.3h-3.4v3.3H850v-7.8H851.5z"/>
		</g>
		<g id="XMLID_188_">
			<path id="XMLID_38_" class="st6" d="M857.5,777.5h6.2v1.2h-2.4v6.6h-1.4v-6.6h-2.4V777.5z"/>
		</g>
	</g>
	<g id="XMLID_149_">
		<g id="XMLID_151_">
			<path id="XMLID_63_" class="st6" d="M798,791.8c0.4-0.1,0.8-0.1,1.2-0.1c0.8,0,1.5,0.2,1.9,0.6c0.5,0.4,0.7,0.9,0.7,1.7     c0,0.8-0.3,1.4-0.8,2c-0.6,0.5-1.3,0.8-2.1,0.8c-0.9,0-1.5-0.2-2.1-0.6c-0.5-0.4-0.8-1.1-0.8-1.8h1.5c0,0.4,0.1,0.7,0.4,0.9     c0.3,0.2,0.6,0.3,1,0.3c0.4,0,0.8-0.1,1.1-0.4c0.3-0.3,0.4-0.6,0.4-1c0-0.8-0.5-1.2-1.6-1.2h-2.4l0.4-4h4.7v1.3h-3.3L798,791.8z"/>
		</g>
		<g id="XMLID_165_">
			<path id="XMLID_72_" class="st6" d="M811.7,791.8c0.4-0.8,1-1.3,2-1.3c0.7,0,1.2,0.2,1.6,0.7c0.4,0.4,0.6,1.1,0.6,1.9v3.4h-1.4     v-3.4c0-0.4-0.1-0.8-0.3-1c-0.2-0.2-0.5-0.3-0.9-0.3c-0.4,0-0.7,0.2-0.9,0.5c-0.2,0.3-0.4,0.8-0.4,1.5v2.7h-1.4v-3.4     c0-0.4-0.1-0.8-0.3-1c-0.2-0.2-0.5-0.3-0.9-0.3c-0.4,0-0.7,0.2-1,0.5c-0.3,0.3-0.4,0.8-0.4,1.5v2.7h-1.4v-5.8h1.2l0.2,1     c0.4-0.8,1-1.2,1.8-1.2c0.5,0,0.9,0.1,1.2,0.3C811.3,791.1,811.6,791.4,811.7,791.8z"/>
		</g>
		<g id="XMLID_167_">
			<path id="XMLID_77_" class="st6" d="M817.9,788.8c0-0.3,0.1-0.5,0.2-0.6c0.2-0.1,0.4-0.2,0.6-0.2c0.3,0,0.5,0.1,0.6,0.2     c0.2,0.1,0.2,0.4,0.2,0.6c0,0.3-0.1,0.5-0.2,0.6c-0.2,0.1-0.4,0.2-0.6,0.2c-0.3,0-0.5-0.1-0.6-0.2     C818,789.2,817.9,789,817.9,788.8z M818,790.7h1.4v5.8H818V790.7z"/>
		</g>
	</g>
	<g id="XMLID_164_">
		<path id="XMLID_62_" class="st12" d="M822.2,758.3l-8-5.6c-0.2-0.2-0.5,0-0.5,0.3v1.4c0,0.2-0.2,0.3-0.3,0.3h-5.3    c-5.2,0-9.5,4.3-9.5,9.5v6c0,0.4,0.3,0.7,0.7,0.7h6.4c0.4,0,0.7-0.3,0.7-0.7v-5.7c0-1.1,0.9-2.1,2.1-2.1h4.9    c0.2,0,0.3,0.2,0.3,0.3v1.4c0,0.3,0.3,0.4,0.5,0.3l8-5.6C822.4,758.8,822.4,758.5,822.2,758.3z"/>
	</g>
	<g id="XMLID_22_">
		<path id="XMLID_211_" class="st5" d="M1047.5,890.1h-295v-37h295V890.1z M756.5,886.1h287v-29h-287V886.1z"/>
	</g>
	<g id="XMLID_191_">
		<g id="XMLID_190_">
			<rect x="805.6" y="860" class="st7" width="8.8" height="23"/>
		</g>
		<g id="XMLID_192_">
			<rect x="820.6" y="860" class="st7" width="8.8" height="23"/>
		</g>
		<g id="XMLID_193_">
			<rect x="835.6" y="860" class="st7" width="8.8" height="23"/>
		</g>
		<g id="XMLID_194_">
			<rect x="850.6" y="860" class="st7" width="8.8" height="23"/>
		</g>
		<g id="XMLID_195_">
			<rect x="865.6" y="860" class="st7" width="8.8" height="23"/>
		</g>
		<g id="XMLID_196_">
			<rect x="880.6" y="860" class="st7" width="8.8" height="23"/>
		</g>
		<g id="XMLID_197_">
			<rect x="895.6" y="860" class="st7" width="8.8" height="23"/>
		</g>
		<g id="XMLID_198_">
			<rect x="910.6" y="860" class="st7" width="8.8" height="23"/>
		</g>
		<g id="XMLID_199_">
			<rect x="925.6" y="860" class="st7" width="8.8" height="23"/>
		</g>
		<g id="XMLID_200_">
			<rect x="940.6" y="860" class="st8" width="8.8" height="23"/>
		</g>
		<g id="XMLID_201_">
			<rect x="955.6" y="860" class="st8" width="8.8" height="23"/>
		</g>
		<g id="XMLID_202_">
			<rect x="970.6" y="860" class="st8" width="8.8" height="23"/>
		</g>
		<g id="XMLID_203_">
			<rect x="985.6" y="860" class="st8" width="8.8" height="23"/>
		</g>
	</g>
	<g id="XMLID_204_">
		<path id="XMLID_208_" class="st6" d="M770.7,861.7H783v3h-8.8v5h8.3v3h-8.3v5h8.8v3h-12.3V861.7z"/>
	</g>
	<g id="XMLID_206_">
		<path id="XMLID_163_" class="st6" d="M1021.7,861.7h12v3h-8.5v5h7.8v3h-7.8v8.1h-3.5V861.7z"/>
	</g>
	<g id="XMLID_94_">
		<path id="XMLID_152_" class="st6" d="M502,860.8c-0.1,1.1-0.5,2.1-1.1,2.9c-0.6,0.8-1.5,1.3-2.6,1.7l3.2,6.3H498l-2.5-6.1h-1.9    l-0.6,6.1h-2.6l1.5-15.6h5.2c1.7,0,3,0.4,3.8,1.3C501.8,858.1,502.1,859.3,502,860.8z M496.2,863.6c0.9,0,1.7-0.2,2.2-0.7    c0.5-0.5,0.8-1.1,0.9-1.8c0-0.8-0.1-1.4-0.5-1.9c-0.4-0.5-1-0.7-1.8-0.7h-2.6l-0.5,5.1H496.2z"/>
		<path id="XMLID_155_" class="st6" d="M514.5,857.2c0.8,0.9,1.1,2.1,1,3.7c-0.2,1.6-0.7,2.8-1.7,3.7c-1,0.9-2.3,1.3-3.9,1.3h-2.3    l-0.5,5.6h-2.7l1.5-15.6h5C512.5,856,513.7,856.4,514.5,857.2z M510.2,863.4c0.8,0,1.4-0.2,1.8-0.7c0.4-0.4,0.7-1,0.8-1.8    c0.1-0.7-0.1-1.3-0.4-1.8c-0.4-0.5-0.9-0.7-1.7-0.7h-2.3l-0.5,4.9H510.2z"/>
		<path id="XMLID_158_" class="st6" d="M522.3,856l2.9,9.2l4.6-9.2h3.6l-1.5,15.6h-2.7l1.1-11.8l-4.8,10.1h-1.7l-3-10.5l-1.1,12.1    H517l1.5-15.6H522.3z"/>
	</g>
	<g id="XMLID_147_">
		<path id="XMLID_90_" class="st6" d="M1268.4,856l2.9,9.2l4.6-9.2h3.6l-1.5,15.6h-2.7l1.1-11.8l-4.8,10.1h-1.7l-3-10.5l-1.1,12.1    h-2.6l1.5-15.6H1268.4z"/>
		<path id="XMLID_99_" class="st6" d="M1292.1,857.2c0.8,0.9,1.1,2.1,1,3.7c-0.2,1.6-0.7,2.8-1.7,3.7c-1,0.9-2.3,1.3-3.9,1.3h-2.3    l-0.5,5.6h-2.7l1.5-15.6h5C1290.1,856,1291.3,856.4,1292.1,857.2z M1287.8,863.4c0.8,0,1.4-0.2,1.8-0.7c0.4-0.4,0.7-1,0.8-1.8    c0.1-0.7-0.1-1.3-0.4-1.8c-0.4-0.5-0.9-0.7-1.7-0.7h-2.3l-0.5,4.9H1287.8z"/>
		<path id="XMLID_145_" class="st6" d="M1298.8,856l-0.6,6.5h6.1l0.6-6.5h2.6l-1.5,15.6h-2.6l0.6-6.6h-6l-0.6,6.6h-2.6l1.5-15.6    H1298.8z"/>
	</g>
</g>
</svg>
