<?xml version="1.0" encoding="utf-8"?>
<!-- Generator: Adobe Illustrator 18.0.0, SVG Export Plug-In . SVG Version: 6.00 Build 0)  -->
<!DOCTYPE svg PUBLIC "-//W3C//DTD SVG 1.1//EN" "http://www.w3.org/Graphics/SVG/1.1/DTD/svg11.dtd">
<svg xmlns="http://www.w3.org/2000/svg" xmlns:xlink="http://www.w3.org/1999/xlink" version="1.1" x="0px" y="0px" width="2800px" height="1800px" viewBox="0 0 2800 1800" enable-background="new 0 0 2800 1800" xml:space="preserve">
<g id="BACKGROUND">
	<g>
		<radialGradient id="SVGID_1_" cx="1400" cy="900" r="1176.8602" gradientUnits="userSpaceOnUse">
			<stop offset="0" style="stop-color:#0F1C38"/>
			<stop offset="1" style="stop-color:#060A14"/>
		</radialGradient>
		
	</g>
	<g>
		<g opacity="0.3">
			<radialGradient id="SVGID_2_" cx="1400" cy="900" r="1118.5848" gradientUnits="userSpaceOnUse">
				<stop offset="0" style="stop-color:#0F1C38"/>
				<stop offset="1" style="stop-color:#294487"/>
			</radialGradient>
			<path fill="url(#SVGID_2_)" d="M1951.6,92H1400H848.4C402.2,92,40,453.8,40,900v0c0,446.2,362.2,808,808.4,808h180.8     c29.9,0,58.5-11.9,79.6-33l26.7-26.5c36.9-36.9,87-57.5,139.2-57.5H1400h125.2c52.2,0,102.3,20.5,139.2,57.5l26.7,26.6     c21.1,21.1,49.8,32.9,79.6,32.9h180.8c446.2,0,808.4-361.8,808.4-808v0C2760,453.8,2397.8,92,1951.6,92z"/>
		</g>
		<g opacity="0.3">
			<radialGradient id="SVGID_3_" cx="1400" cy="900" r="1075.7211" gradientUnits="userSpaceOnUse">
				<stop offset="0" style="stop-color:#0F1C38"/>
				<stop offset="1" style="stop-color:#294487"/>
			</radialGradient>
			<path fill="url(#SVGID_3_)" d="M1770.8,1664c-18.3,0-35.5-7.1-48.5-20.1l-26.7-26.8c-22.5-22.5-48.8-39.8-78.2-52     s-60.4-18.1-92.2-18.1h-250.5c-31.8,0-62.8,6-92.2,18.1c-29.4,12.2-55.7,29.6-78.2,52.1l-26.7,26.7c-13,13-30.2,20-48.5,20H848.4     c-103.2,0-203.2-20.2-297.4-60c-91-38.5-172.7-93.6-242.9-163.8C238,1370,183,1288.3,144.5,1197.4c-39.8-94.2-60-194.2-60-297.4     c0-103.2,20.2-203.2,60-297.4C183,511.7,238,430,308.2,359.8c70.2-70.2,151.9-125.3,242.8-163.8c94.2-39.8,194.2-60,297.4-60     h1103.2c103.2,0,203.2,20.2,297.4,60c91,38.5,172.7,93.6,242.8,163.8C2562,430,2617,511.7,2655.5,602.6     c39.8,94.2,60,194.2,60,297.4c0,103.2-20.2,203.2-60,297.4c-38.5,91-93.6,172.7-163.7,242.9c-70.2,70.2-151.9,125.3-242.8,163.8     c-94.2,39.8-194.2,60-297.4,60H1770.8z"/>
		</g>
		<g>
			<radialGradient id="SVGID_4_" cx="1400" cy="900" r="1052.5413" gradientUnits="userSpaceOnUse">
				<stop offset="0" style="stop-color:#0F1C38"/>
				<stop offset="0.7626" style="stop-color:#060A14"/>
			</radialGradient>
			<path fill="url(#SVGID_4_)" d="M1770.8,1640c-11.9,0-23.1-4.7-31.5-13.1l-26.7-26.8c-24.7-24.7-53.6-43.8-85.9-57.2     c-32.3-13.4-66.4-20-101.4-20h-250.5c-35,0-69.1,6.6-101.4,20c-32.3,13.4-61.2,32.6-85.9,57.3l-26.7,26.7     c-8.4,8.4-19.6,13-31.5,13H848.4c-99.9,0-196.8-19.6-288-58.1c-88.1-37.3-167.2-90.6-235.2-158.6S203.8,1276.1,166.6,1188     c-38.6-91.2-58.1-188.1-58.1-288c0-99.9,19.6-196.8,58.1-288c37.3-88.1,90.6-167.2,158.6-235.2s147.1-121.4,235.2-158.6     c91.2-38.6,188.1-58.1,288-58.1h1103.2c99.9,0,196.8,19.6,288,58.1c88.1,37.3,167.2,90.6,235.2,158.6s121.3,147.1,158.6,235.2     c38.6,91.2,58.1,188.1,58.1,288c0,99.9-19.6,196.8-58.1,288c-37.3,88.1-90.6,167.3-158.6,235.2c-68,68-147.1,121.4-235.2,158.6     c-91.2,38.6-188.1,58.1-288,58.1H1770.8z"/>
		</g>
	</g>
	<g>
		<path fill="#29ABE2" d="M1569.4,387.1l-63.6-69.7c-0.8-0.9-1.9-1.2-3.1-0.8c-1.2,0.4-1.7,1.6-1.7,2.8V341h-75.9    c-0.8,0-1.6,0.5-2.2,1c-0.6,0.6-0.9,1.5-0.9,2.3V434c0,0.8,0.4,1.6,0.9,2.1c0.6,0.6,1.4,0.9,2.2,0.9h75.9v21.8    c0,1.2,0.6,2.3,1.7,2.8s2.4,0.1,3.2-0.8l63.5-69.7C1570.5,390,1570.4,388.3,1569.4,387.1z M1505.9,431.9c-0.6-0.6-1.5-0.9-2.3-0.9    H1428v-84h75.6c0.8,0,1.8-0.2,2.3-0.7c0.6-0.6,1.1-1.2,1.1-2v-17.1l56.5,62l-56.5,62V434C1507,433.2,1506.5,432.4,1505.9,431.9z"/>
		<path fill="#29ABE2" d="M1377.1,342c-0.6-0.6-1.4-1-2.2-1H1299v-21.6c0-1.2-0.6-2.3-1.7-2.8c-1.2-0.4-2.4-0.1-3.2,0.8l-63.5,69.7    c-1,1.1-1,2.9,0,4l63.6,69.7c0.8,0.9,2,1.2,3.1,0.8s1.7-1.6,1.7-2.8V437h75.9c0.8,0,1.6-0.3,2.2-0.9c0.6-0.6,0.9-1.3,0.9-2.1    v-89.7C1378,343.5,1377.6,342.6,1377.1,342z M1372,431h-75.6c-0.8,0-1.8,0.3-2.3,0.9c-0.6,0.6-1.1,1.3-1.1,2.1v17.1l-56.5-62    l56.5-62v17.1c0,0.8,0.5,1.4,1.1,2c0.6,0.6,1.5,0.7,2.3,0.7h75.6V431z"/>
	</g>
	<g>
		<path fill="#313959" d="M1562.9,1347h-325.7l-59.2,147h444.2L1562.9,1347z M1250.6,1367h298.7l43.1,107h-384.9L1250.6,1367z"/>
		<g>
			<g>
				<path fill="#29ABE2" d="M1293.6,1449.2h-11.7v-37.3l-11.5,3.4v-8.9l22.2-7.7h1.1V1449.2z"/>
				<path fill="#29ABE2" d="M1343.9,1428.6c0,6.8-1.5,12.1-4.6,15.8c-3.1,3.7-7.4,5.5-12.9,5.5c-5.6,0-10-1.9-13-5.6      c-3.1-3.7-4.6-9-4.6-15.7v-9.2c0-6.8,1.5-12.1,4.6-15.8c3.1-3.7,7.4-5.5,13-5.5c5.6,0,9.9,1.9,13,5.6c3.1,3.7,4.6,9,4.6,15.8      V1428.6z M1332.2,1417.9c0-3.6-0.5-6.3-1.4-8.1c-0.9-1.8-2.5-2.7-4.5-2.7c-2,0-3.5,0.8-4.4,2.5s-1.4,4.2-1.5,7.6v12.9      c0,3.8,0.5,6.5,1.4,8.3c0.9,1.7,2.4,2.6,4.5,2.6c2,0,3.5-0.8,4.4-2.5c0.9-1.7,1.4-4.4,1.5-8V1417.9z"/>
				<path fill="#29ABE2" d="M1357.4,1437.9c1.8,0,3.4,0.5,4.6,1.6c1.2,1.1,1.8,2.5,1.8,4.2c0,1.7-0.6,3.1-1.8,4.2      c-1.2,1.1-2.8,1.6-4.6,1.6c-1.9,0-3.4-0.6-4.6-1.7c-1.2-1.1-1.8-2.5-1.8-4.2c0-1.7,0.6-3.1,1.8-4.2      C1353.9,1438.4,1355.5,1437.9,1357.4,1437.9z"/>
				<path fill="#29ABE2" d="M1406.6,1449.2h-35.2v-7.6l16.2-17.1c4-4.6,6-8.2,6-10.9c0-2.2-0.5-3.8-1.4-5c-0.9-1.1-2.3-1.7-4.1-1.7      c-1.8,0-3.2,0.8-4.3,2.3s-1.7,3.4-1.7,5.7h-11.7c0-3.1,0.8-6,2.3-8.6c1.5-2.6,3.7-4.7,6.4-6.2c2.8-1.5,5.8-2.2,9.2-2.2      c5.5,0,9.7,1.3,12.6,3.8c2.9,2.5,4.4,6.1,4.4,10.9c0,2-0.4,3.9-1.1,5.8s-1.9,3.9-3.4,5.9c-1.6,2.1-4.1,4.8-7.5,8.3l-6.5,7.5      h19.9V1449.2z"/>
				<path fill="#29ABE2" d="M1447.6,1428.6c0,6.8-1.5,12.1-4.6,15.8c-3.1,3.7-7.4,5.5-12.9,5.5c-5.6,0-10-1.9-13-5.6      c-3.1-3.7-4.6-9-4.6-15.7v-9.2c0-6.8,1.5-12.1,4.6-15.8c3.1-3.7,7.4-5.5,13-5.5c5.6,0,9.9,1.9,13,5.6c3.1,3.7,4.6,9,4.6,15.8      V1428.6z M1435.9,1417.9c0-3.6-0.5-6.3-1.4-8.1c-0.9-1.8-2.5-2.7-4.5-2.7c-2,0-3.5,0.8-4.4,2.5s-1.4,4.2-1.5,7.6v12.9      c0,3.8,0.5,6.5,1.4,8.3c0.9,1.7,2.4,2.6,4.5,2.6c2,0,3.5-0.8,4.4-2.5c0.9-1.7,1.4-4.4,1.5-8V1417.9z"/>
				<path fill="#29ABE2" d="M1493.1,1437c0,3.8-0.9,6.9-2.6,9.2c-1.7,2.3-4.1,3.5-7,3.5c-2.5,0-4.5-0.9-6.1-2.6v11.7h-6.6v-34.4h6.2      l0.2,2.4c1.6-1.9,3.7-2.9,6.3-2.9c3.1,0,5.4,1.1,7.1,3.4c1.7,2.3,2.5,5.4,2.5,9.4V1437z M1486.5,1436.5c0-2.3-0.4-4.1-1.2-5.4      c-0.8-1.3-2-1.9-3.6-1.9c-2.1,0-3.5,0.8-4.3,2.4v10.2c0.8,1.6,2.3,2.5,4.3,2.5C1484.9,1444.3,1486.5,1441.7,1486.5,1436.5z"/>
				<path fill="#29ABE2" d="M1503.5,1424.4l0.2,2.8c1.8-2.2,4.1-3.2,7.1-3.2c3.2,0,5.4,1.3,6.6,3.8c1.7-2.5,4.2-3.8,7.5-3.8      c2.7,0,4.7,0.8,6,2.4c1.3,1.6,2,3.9,2,7.1v15.9h-6.7v-15.9c0-1.4-0.3-2.4-0.8-3.1c-0.6-0.7-1.5-1-2.9-1c-2,0-3.4,1-4.1,2.9      l0,17.1h-6.6v-15.8c0-1.4-0.3-2.5-0.8-3.1c-0.6-0.6-1.5-1-2.9-1c-1.9,0-3.2,0.8-4.1,2.3v17.6h-6.6v-24.8H1503.5z"/>
			</g>
		</g>
	</g>
</g>
<g id="RPM">
	<g>
		<path fill="#009245" d="M2051,447c-121.4,0-235.5,47.4-321.3,133.2c-85.8,85.8-133.1,200-133.1,321.4c0,80.1,21,158.8,60.8,227.3    l3,5.2l10.4-6l-3-5.2c-38.7-66.8-59.1-143.3-59.1-221.3c0-118.2,46-229.4,129.6-312.9C1821.7,505.1,1932.8,459,2051,459h6v-12    H2051z"/>
		<g>
			<path fill="#313959" d="M2337.1,1397.2c-86.6,50.1-185.5,76.6-286.1,76.6s-199.5-26.5-286.1-76.6l-8.7-5l-10,17.3l8.7,5     c89.6,51.9,192,79.3,296.1,79.3c104.1,0,206.5-27.4,296.1-79.3l8.7-5l-10-17.3L2337.1,1397.2z"/>
			<path fill="#313959" d="M2596.6,671.1c-29.8-70.5-72.5-133.8-126.9-188.2c-54.4-54.4-117.7-97.1-188.2-126.9     c-73-30.9-150.6-46.5-230.5-46.5c-79.9,0-157.5,15.7-230.5,46.5c-70.5,29.8-133.8,72.5-188.2,126.9     c-54.4,54.4-97.1,117.7-126.9,188.2c-30.9,73-46.5,150.6-46.5,230.5s15.7,157.5,46.5,230.5c29.8,70.5,72.5,133.8,126.9,188.2     l7.1,7.1l14.1-14.1l-7.1-7.1c-52.5-52.5-93.8-113.7-122.6-181.9c-29.8-70.5-45-145.5-45-222.7c0-77.2,15.1-152.2,45-222.7     c28.8-68.1,70.1-129.3,122.6-181.9s113.7-93.8,181.9-122.6c70.5-29.8,145.5-45,222.7-45s152.2,15.1,222.7,45     c68.1,28.8,129.3,70.1,181.9,122.6s93.8,113.7,122.6,181.9c29.8,70.5,45,145.5,45,222.7c0,77.2-15.1,152.2-45,222.7     c-28.8,68.1-70.1,129.3-122.6,181.9l-7.1,7.1l14.1,14.1l7.1-7.1c54.4-54.4,97.1-117.7,126.9-188.2c30.9-73,46.5-150.6,46.5-230.5     S2627.5,744.1,2596.6,671.1z"/>
		</g>
		<path fill="#9E005D" d="M2171.3,1327.6l-5.8,1.5c-37.1,9.9-75.7,14.9-114.6,14.9c-78.1,0-154.6-20.4-221.3-59.1l-5.2-3l-6,10.4    l5.2,3c68.6,39.7,147.2,60.7,227.3,60.7c39.9,0,79.5-5.1,117.7-15.3l5.8-1.5L2171.3,1327.6z"/>
		<g>
			<path fill="#ED1C24" d="M2466.6,1138.1l-3,5.2l53.9,31.1c1-1.7,2-3.5,3-5.2L2466.6,1138.1z"/>
			<path fill="#ED1C24" d="M2597.2,899c0,1-0.2,1.6-0.2,2.6V899H2597.2z"/>
			<path fill="#ED1C24" d="M2591.2,899H2529v6h62.2c0-1,0-2,0-3S2591.2,900,2591.2,899z"/>
			<path fill="#ED1C24" d="M2597,905v-3.4c0,1,0.2,2.4,0.2,3.4H2597z"/>
			<path fill="#ED1C24" d="M2463.6,659.9l3,5.2l53.9-31.1c-1-1.7-2-3.5-3-5.2L2463.6,659.9z"/>
			<path fill="#ED1C24" d="M2543.7,1030.5l-1.6,5.8l30.1,8.1c0.5-1.9,1-3.9,1.5-5.8L2543.7,1030.5z"/>
			<path fill="#ED1C24" d="M2542.1,766.9l1.6,5.8l30.1-8.1c-0.5-1.9-1-3.9-1.5-5.8L2542.1,766.9z"/>
			<path fill="#29ABE2" d="M2439.3,517.5L2439.3,517.5l-2-2.1c0,0,0,0-0.1-0.1c0,0,0,0-0.1-0.1l-2.1-2.1l0,0     C2332.9,412.1,2198,356.1,2054,355.4V355h-6v0.4c-144,0.8-278.9,56.7-381.1,157.9l0,0l-2.1,2.1c0,0,0,0-0.1,0.1c0,0,0,0-0.1,0.1     l-2.1,2.1l0,0.2C1561.5,619.9,1505.5,755,1504.7,899h0.3v6h-0.3c0.8,144,57.5,280.6,160,383.1l2.1,2l4.2-4.3l-2.1-2.1     c-33.1-33.1-61.4-69.8-84.5-109.2l53.9-31.1l-3-5.2l-53.9,31.1c-22.5-39.3-39.8-81.2-51.7-124.9l30.1-8.1l-1.6-5.8l-30.1,8.3     c-11.3-43.2-17.2-88.8-17.4-133.8h62.3v-6h-62.3c0.2-46,6.2-90.9,17.4-134.2l30.1,8l1.6-5.8l-30.1-8.1     c11.9-43.7,29.2-85.6,51.7-124.9l53.9,31.1l3-5.2l-53.9-31.1c22.6-38.5,50.2-74.5,82.4-107.1l22,22l4.2-4.2l-22-22     c32.6-32.2,68.5-59.8,107.1-82.4l31.1,53.9l5.2-3l-31.1-53.9c39.3-22.5,81.2-39.8,124.9-51.7l8.1,30.1l5.8-1.6l-8-30.1     c43.2-11.3,88-17.2,134-17.4V424h6v-62.6c46,0.2,90.7,6.2,134,17.4l-8.1,30.1l5.8,1.6l8.1-30.1c43.7,11.9,85.6,29.2,124.9,51.7     l-31.1,53.9l5.2,3l31.1-53.9c38.5,22.6,74.5,50.2,107.1,82.4l-22,22l4.2,4.2l22-22c32.2,32.6,59.8,68.5,82.4,107.1     c1,1.7,2,3.5,3,5.2c22.5,39.3,39.8,81.2,51.7,124.9c0.5,1.9,1,3.9,1.5,5.8c11.3,43.2,17.2,88.2,17.4,134c0,1,0,2,0,3s0,2,0,3     c-0.2,45.8-6.2,90.7-17.4,134c-0.5,1.9-1,3.9-1.5,5.8c-11.9,43.7-29.2,85.6-51.7,124.9c-1,1.7-2,3.5-3,5.2     c-23.1,39.4-51.4,76.1-84.5,109.2l-2.1,2.1l4.2,4.2l2.1-2.1c102.5-102.5,159.2-238.5,160-383.3c0-1,0-2,0-3s0-2,0-3     C2596.4,754.8,2540.5,619.7,2439.3,517.5z"/>
			<path fill="#29ABE2" d="M2325.4,1371l-32.8-56.7l-5.2,3l31.1,53.9c-39.3,22.5-81.3,39.8-124.9,51.7l-8-30l-5.8,1.6l8.1,30     c-43.5,11.3-88.9,17.3-133.9,17.5V1380h-6v61.8c-45-0.3-90.5-6.2-134-17.5l8-30l-5.8-1.6l-8,30c-43.6-11.9-85.6-29.2-124.9-51.7     l31.1-53.9l-5.2-3l-32.5,56.3l-1.6,2.8l0,0l0,0l1.6,0.9l1,0.6c0.1,0,0.1,0.1,0.2,0.1l2.4,1.4l0,0c39.7,22.7,82.2,40.2,126.3,52.3     l0,0.1l5.8,1.6l0-0.1c44,11.5,89.5,17.5,135.5,17.7v0.2h6v-0.2c46-0.3,91.5-6.3,135.5-17.7l0,0.1l5.8-1.6l0-0.1     c44.1-12,86.6-29.5,126.3-52.3l0,0l2.5-1.4c0,0,0.1-0.1,0.1-0.1l0.7-0.4l1.9-1.1l0,0l0,0L2325.4,1371z"/>
		</g>
		<path fill="#535F8C" d="M2084.4,893.3c-6.7-7.4-16.3-11.1-28.7-11.1c-3.2,0-6.5,0.5-9.9,1.4c-3.4,0.9-6.1,2.1-8.1,3.3l2.8-25h49.5    v-23h-73.1l-7.7,64.3l23.1,5.5c3.3-4.4,8.4-6.5,15.2-6.5c11.9,0,17.9,6.7,17.9,20.1c0,14.4-4.9,21.7-14.6,21.7    c-4.3,0-7.8-1.4-10.4-4.1c-2.6-2.7-4.1-6-4.4-11h-29.1c-0.1,7,1.9,13.6,5.8,19.2c3.9,5.7,9.3,10.1,16.2,13.4s14.3,4.9,22.1,4.9    c8.8,0,16.5-1.7,23-5.2c6.5-3.5,11.5-8.5,15.1-15c3.6-6.5,5.4-13.8,5.4-21.8C2094.5,911.1,2091.1,900.7,2084.4,893.3z"/>
		<g>
			<polygon fill="#535F8C" points="1990,1041.1 1998.1,1026 1988.1,1026 1983.7,1034.5 1979.4,1026 1969.3,1026 1977.4,1041.1      1968.8,1057 1978.9,1057 1983.6,1047.9 1988.5,1057 1998.5,1057    "/>
			<polygon fill="#535F8C" points="2013,1057 2022,1057 2022,1015 2021.4,1015 2003,1021.8 2003,1029 2013,1026.3    "/>
			<path fill="#535F8C" d="M2049.1,1014.9c-4.6,0-8,1.5-10.5,4.5c-2.5,3-3.6,7.3-3.6,12.9v7.6c0,5.6,1.1,9.9,3.6,12.9     c2.5,3.1,6,4.6,10.6,4.6c4.6,0,8.3-1.5,10.8-4.5c2.5-3,4-7.3,4-12.9v-7.5c0-5.6-1.5-9.9-4-12.9S2053.6,1014.9,2049.1,1014.9z      M2054,1041.4c0,3-0.5,5.2-1.2,6.6c-0.8,1.4-2,2.1-3.6,2.1c-1.7,0-3.1-0.7-3.8-2.1s-1.3-3.7-1.3-6.8v-10.6c0-2.8,0.6-4.8,1.3-6.2     c0.7-1.4,2-2,3.7-2c1.7,0,3,0.7,3.8,2.2c0.8,1.5,1.2,3.7,1.2,6.7V1041.4z"/>
			<path fill="#535F8C" d="M2082.8,1057.5c4.6,0,8-1.5,10.5-4.5c2.5-3,3.7-7.3,3.7-12.9v-7.5c0-5.6-1.1-9.9-3.7-12.9     s-6-4.6-10.6-4.6s-8.3,1.5-10.8,4.5c-2.5,3-3.9,7.3-3.9,12.9v7.6c0,5.6,1.4,9.9,4,12.9     C2074.5,1055.9,2078.2,1057.5,2082.8,1057.5z M2078,1030.5c0-2.8,0.4-4.8,1.2-6.2c0.7-1.4,1.9-2,3.6-2c1.7,0,3.1,0.7,3.9,2.2     c0.8,1.5,1.3,3.7,1.3,6.7v10.2c0,3-0.6,5.2-1.4,6.6c-0.8,1.4-2.1,2.1-3.7,2.1c-1.7,0-3-0.7-3.7-2.1s-1.2-3.7-1.2-6.8V1030.5z"/>
			<path fill="#535F8C" d="M2127.2,1019.5c-2.5-3.1-6.1-4.6-10.7-4.6s-8.2,1.5-10.7,4.5c-2.5,3-3.8,7.3-3.8,12.9v7.6     c0,5.6,1.3,9.9,3.8,12.9c2.5,3.1,6.1,4.6,10.7,4.6c4.6,0,8.1-1.5,10.7-4.5c2.5-3,3.8-7.3,3.8-12.9v-7.5     C2131,1026.9,2129.7,1022.5,2127.2,1019.5z M2121,1041.4c0,3-0.2,5.2-1,6.6c-0.8,1.4-1.9,2.1-3.5,2.1c-1.7,0-2.7-0.7-3.5-2.1     s-1-3.7-1-6.8v-10.6c0-2.8,0.3-4.8,1.1-6.2c0.7-1.4,1.9-2,3.5-2c1.7,0,2.7,0.7,3.5,2.2c0.8,1.5,0.9,3.7,0.9,6.7V1041.4z"/>
			<path fill="#535F8C" d="M2020.8,1105c1.2-1.9,1.7-4.3,1.7-7.2c0-4-1.4-7.2-4.2-9.4c-2.8-2.2-6.6-3.4-11.5-3.4H1991v42h10v-15h5     l7.3,15h10.7v-0.7l-8.6-16.7C2017.8,1108.5,2019.7,1106.9,2020.8,1105z M2011.2,1102.7c-1,1-2.4,1.3-4.3,1.3h-5.9v-11h5.9     c1.9,0,3.3,0.5,4.3,1.5s1.5,2.3,1.5,4.1C2012.6,1100.4,2012.1,1101.7,2011.2,1102.7z"/>
			<path fill="#535F8C" d="M2053.5,1086.9c-2.4-1.2-5.2-1.9-8.4-1.9H2029v42h10v-14h6c5,0,9-1.3,11.9-3.8c2.9-2.4,4.3-5.7,4.3-9.8     c0-2.7-0.7-5.3-2-7.4S2056,1088.1,2053.5,1086.9z M2049.6,1103.6c-1,1-2.5,1.4-4.4,1.4h-6.1v-12h6.2c1.8,0,3.2,0.6,4.3,1.8     c1,1.2,1.6,2.7,1.6,4.6C2051.1,1101.2,2050.6,1102.6,2049.6,1103.6z"/>
			<polygon fill="#535F8C" points="2088.9,1113.8 2079.6,1085 2067,1085 2067,1127 2076,1127 2076,1117.1 2075.3,1097.4      2085.6,1127 2092.2,1127 2102.1,1097.4 2101,1117.1 2101,1127 2111,1127 2111,1085 2098.1,1085    "/>
		</g>
		<g>
			<g>
				<path fill="#535F8C" d="M2038.9,532.9l2.2-18.5h21.2v6.5H2048l-0.8,7.2c0.6-0.3,1.4-0.7,2.3-0.9s1.9-0.4,2.8-0.4      c3.6,0,6.4,1.1,8.3,3.2c1.9,2.1,2.9,5.1,2.9,9c0,2.3-0.5,4.4-1.6,6.3c-1,1.9-2.5,3.3-4.4,4.3s-4.1,1.5-6.6,1.5      c-2.3,0-4.4-0.5-6.4-1.4c-2-0.9-3.5-2.2-4.7-3.8c-1.1-1.6-1.7-3.5-1.7-5.5h8.4c0.1,1.3,0.5,2.4,1.3,3.2c0.8,0.8,1.8,1.2,3,1.2      c2.8,0,4.2-2.1,4.2-6.3c0-3.9-1.7-5.8-5.2-5.8c-2,0-3.4,0.6-4.4,1.9L2038.9,532.9z"/>
			</g>
			<g>
				<path fill="#535F8C" d="M1739.5,1123.3h-8.4v-26.7l-8.3,2.4v-6.4l15.9-5.5h0.8V1123.3z"/>
			</g>
			<g>
				<path fill="#535F8C" d="M2372.4,1109.3c-1.8,1.6-3.8,2.4-6.1,2.4c-3.3,0-5.9-1.1-7.8-3.3c-1.9-2.2-2.9-5.2-2.9-8.9      c0-2.3,0.5-4.5,1.6-6.5c1.1-2,2.6-3.6,4.5-4.7s4.1-1.7,6.5-1.7c2.4,0,4.5,0.6,6.5,1.8c1.9,1.2,3.4,2.9,4.5,5.1      c1.1,2.2,1.6,4.7,1.7,7.6v3.2c0,4-0.8,7.5-2.3,10.4c-1.6,2.9-3.8,5.2-6.7,6.8c-2.9,1.6-6.3,2.4-10.1,2.4h-0.5v-6.7l1.6,0      C2368.6,1116.7,2371.8,1114.2,2372.4,1109.3z M2368.6,1105.7c1.8,0,3.1-0.8,3.9-2.4v-3.5c0-2.3-0.4-4-1.2-5.1      c-0.8-1.1-1.8-1.7-3.2-1.7c-1.2,0-2.2,0.6-3,1.9c-0.8,1.3-1.2,2.8-1.2,4.6c0,1.9,0.4,3.4,1.2,4.5      C2366.1,1105.1,2367.2,1105.7,2368.6,1105.7z"/>
			</g>
			<g>
				<path fill="#535F8C" d="M1689.8,928.1h-25.3v-5.5l11.6-12.2c2.9-3.3,4.3-5.9,4.3-7.8c0-1.6-0.3-2.7-1-3.6      c-0.7-0.8-1.7-1.2-3-1.2c-1.3,0-2.3,0.5-3.1,1.6c-0.8,1.1-1.2,2.4-1.2,4.1h-8.4c0-2.2,0.6-4.3,1.7-6.2s2.7-3.4,4.6-4.4      c2-1.1,4.2-1.6,6.6-1.6c3.9,0,6.9,0.9,9,2.7c2.1,1.8,3.2,4.4,3.2,7.8c0,1.4-0.3,2.8-0.8,4.2c-0.5,1.4-1.4,2.8-2.5,4.3      c-1.1,1.5-2.9,3.5-5.4,6l-4.7,5.4h14.2V928.1z"/>
			</g>
			<g>
				<path fill="#535F8C" d="M2436.7,901.6c0,1.8-0.4,3.3-1.3,4.6c-0.9,1.3-2.1,2.4-3.6,3.2c1.7,0.8,3.1,2,4.1,3.5      c1,1.5,1.5,3.2,1.5,5.2c0,3.2-1.1,5.8-3.3,7.7c-2.2,1.9-5.3,2.8-9.2,2.8c-3.9,0-7-0.9-9.3-2.8c-2.3-1.9-3.4-4.4-3.4-7.6      c0-1.9,0.5-3.7,1.5-5.1c1-1.5,2.4-2.7,4.2-3.5c-1.5-0.8-2.8-1.9-3.6-3.2c-0.9-1.3-1.3-2.9-1.3-4.6c0-3.1,1.1-5.6,3.2-7.5      c2.1-1.8,5-2.7,8.7-2.7c3.7,0,6.6,0.9,8.7,2.7C2435.7,896,2436.7,898.4,2436.7,901.6z M2429.1,917.5c0-1.5-0.4-2.6-1.2-3.4      s-1.8-1.2-3-1.2c-1.3,0-2.3,0.4-3.1,1.2c-0.8,0.8-1.2,2-1.2,3.4c0,1.4,0.4,2.6,1.2,3.4c0.8,0.8,1.8,1.3,3.1,1.3      c1.2,0,2.2-0.4,3-1.2C2428.7,920.1,2429.1,918.9,2429.1,917.5z M2424.8,897.9c-1.1,0-2,0.4-2.6,1.1c-0.6,0.7-0.9,1.8-0.9,3.1      c0,1.3,0.3,2.3,0.9,3.1c0.6,0.8,1.5,1.2,2.6,1.2c1.1,0,2-0.4,2.6-1.2c0.6-0.8,0.9-1.8,0.9-3.1c0-1.3-0.3-2.3-0.9-3.1      C2426.9,898.2,2426,897.9,2424.8,897.9z"/>
			</g>
			<g>
				<path fill="#535F8C" d="M1728.6,708.5h4c3.1,0,4.7-1.5,4.7-4.6c0-1.2-0.4-2.2-1.1-2.9c-0.7-0.8-1.8-1.1-3.2-1.1      c-1.1,0-2.1,0.3-2.9,1c-0.8,0.6-1.2,1.5-1.2,2.4h-8.4c0-1.9,0.5-3.6,1.6-5.1s2.5-2.7,4.4-3.5c1.9-0.8,3.9-1.3,6.2-1.3      c4,0,7.2,0.9,9.5,2.8s3.5,4.4,3.5,7.6c0,1.6-0.5,3-1.4,4.4c-1,1.4-2.3,2.5-4.2,3.4c1.9,0.7,3.4,1.8,4.5,3.2      c1.1,1.4,1.6,3.2,1.6,5.3c0,3.2-1.2,5.8-3.7,7.8c-2.5,1.9-5.8,2.9-9.8,2.9c-2.4,0-4.6-0.5-6.6-1.4c-2-0.9-3.6-2.2-4.6-3.8      c-1-1.6-1.6-3.4-1.6-5.5h8.4c0,1.1,0.4,2.1,1.3,2.9c0.9,0.8,2,1.2,3.3,1.2c1.5,0,2.7-0.4,3.5-1.2c0.9-0.8,1.3-1.9,1.3-3.1      c0-1.8-0.5-3.1-1.4-3.9s-2.2-1.1-3.8-1.1h-4.1V708.5z"/>
			</g>
			<g>
				<path fill="#535F8C" d="M2392.1,698.4l-13.5,31.7h-8.8l13.5-29.7H2366v-6.5h26.1V698.4z"/>
			</g>
			<g>
				<path fill="#535F8C" d="M1861.9,591.1h3.7v6.5h-3.7v7.7h-8.4v-7.7h-14l-0.5-5.1l14.5-23.3v-0.1h8.4V591.1z M1847,591.1h6.5V580      l-0.5,0.8L1847,591.1z"/>
			</g>
			<g>
				<path fill="#535F8C" d="M2266.1,568.6v6.6h-0.4c-3.1,0-5.7,0.8-7.7,2.2s-3.3,3.6-3.7,6.3c1.9-1.9,4.3-2.8,7.2-2.8      c3.1,0,5.6,1.1,7.5,3.4c1.9,2.3,2.8,5.3,2.8,9c0,2.3-0.5,4.4-1.6,6.3c-1.1,1.9-2.6,3.4-4.5,4.5s-4.1,1.6-6.5,1.6      c-2.6,0-4.9-0.6-6.9-1.8c-2-1.2-3.6-2.8-4.7-5c-1.1-2.2-1.7-4.7-1.7-7.5v-3.4c0-3.7,0.8-7.1,2.4-10.1c1.6-3,3.9-5.3,6.8-7      c3-1.7,6.3-2.5,9.9-2.5H2266.1z M2258.6,587.3c-1.1,0-2,0.3-2.8,0.8c-0.7,0.5-1.3,1.1-1.7,1.9v2.5c0,4.6,1.6,6.8,4.7,6.8      c1.3,0,2.3-0.6,3.2-1.7s1.3-2.6,1.3-4.3c0-1.8-0.4-3.2-1.3-4.3C2261.2,587.9,2260,587.3,2258.6,587.3z"/>
			</g>
		</g>
		<g>
			<path fill="#29ABE2" d="M2051,1302.8c4.2,0,7.6-3.4,7.6-7.6c0-3.1-1.5-5.8-4.5-6.9V1276h13.4c1.7,0,3-1.3,3-3s-1.3-3-3-3H2054v-9     h13.4c1.7,0,3-1.3,3-3s-1.3-3-3-3H2054v-8h13.4c1.7,0,3-1.3,3-3s-1.3-3-3-3H2054v-5.5c0-1.7-1.3-3-3-3s-3,1.3-3,3v52.8     c-3,1.2-4.6,3.8-4.6,6.9C2043.4,1299.4,2046.8,1302.8,2051,1302.8z"/>
			<path fill="#29ABE2" d="M2017.8,1298h15.9c1.7,0,3-1.3,3-3s-1.3-3-3-3h-15.9c-1.7,0-3,1.3-3,3S2016.1,1298,2017.8,1298z"/>
			<path fill="#29ABE2" d="M2065.3,1295c0,1.7,1.3,3,3,3h15.9c1.7,0,3-1.3,3-3s-1.3-3-3-3h-15.9     C2066.6,1292,2065.3,1293.3,2065.3,1295z"/>
			<path fill="#29ABE2" d="M2084.1,1306h-66.4c-1.7,0-3,1.3-3,3s1.3,3,3,3h66.4c1.7,0,3-1.3,3-3S2085.8,1306,2084.1,1306z"/>
		</g>
	</g>
</g>
<g id="KM_x2F_H">
	<g>
		<path fill="#009245" d="M526.9,504.9l-5.2,3c-34.2,19.8-65.8,44.2-94,72.4c-85.8,85.8-133.1,200-133.1,321.3    c0,80.1,21,158.7,60.7,227.3l3,5.2l10.4-6l-3-5.2c-38.7-66.8-59.1-143.3-59.1-221.3c0-118.2,46-229.3,129.6-312.9    c27.4-27.4,58.3-51.2,91.6-70.5l5.2-3L526.9,504.9z"/>
		<path fill="#313959" d="M1043.8,1392.2l10,17.3l-8.7,5c-89.6,51.9-192,79.3-296.1,79.3s-206.5-27.4-296.1-79.3l-8.7-5l10-17.3    l8.7,5c86.6,50.1,185.5,76.6,286.1,76.6s199.5-26.5,286.1-76.6L1043.8,1392.2z M1294.7,671.1c-29.8-70.5-72.5-133.8-126.9-188.2    c-54.4-54.4-117.7-97.1-188.2-126.9c-73-30.9-150.6-46.5-230.5-46.5S591.6,325.1,518.5,356c-70.5,29.8-133.8,72.5-188.2,126.9    c-54.4,54.4-97.1,117.7-126.9,188.2c-30.9,73-46.5,150.6-46.5,230.5c0,79.9,15.7,157.5,46.5,230.5    c29.8,70.5,72.5,133.8,126.9,188.2l7.1,7.1l14.1-14.1l-7.1-7.1c-52.5-52.5-93.8-113.7-122.6-181.9c-29.8-70.5-45-145.5-45-222.7    c0-77.2,15.1-152.2,45-222.7c28.8-68.1,70.1-129.3,122.6-181.9s113.7-93.8,181.9-122.6c70.5-29.8,145.5-45,222.7-45    s152.2,15.1,222.7,45c68.1,28.8,129.3,70.1,181.9,122.6s93.8,113.7,122.6,181.9c29.8,70.5,45,145.5,45,222.7    c0,77.2-15.1,152.2-45,222.7c-28.8,68.1-70.1,129.3-122.6,181.9l-7.1,7.1l14.1,14.1l7.1-7.1c54.4-54.4,97.1-117.7,126.9-188.2    c30.9-73,46.5-150.6,46.5-230.5S1325.5,744.1,1294.7,671.1z"/>
		<g>
			<path fill="#ED1C24" d="M1164.7,1138.1l-3,5.2l53.9,31.1c1-1.7,2-3.5,3-5.2L1164.7,1138.1z"/>
			<path fill="#ED1C24" d="M1295,905v-3.4c0,1,0.3,2.4,0.3,3.4H1295z"/>
			<path fill="#ED1C24" d="M1289.3,899H1227v6h62.3c0-1,0-2,0-3S1289.3,900,1289.3,899z"/>
			<path fill="#ED1C24" d="M1295.3,899c0,1-0.3,1.6-0.3,2.6V899H1295.3z"/>
			<path fill="#ED1C24" d="M1161.7,659.9l3,5.2l53.9-31.1c-1-1.7-2-3.5-3-5.2L1161.7,659.9z"/>
			<path fill="#ED1C24" d="M1241.8,1030.5l-1.6,5.8l30.1,8.1c0.5-1.9,1-3.9,1.5-5.8L1241.8,1030.5z"/>
			<path fill="#ED1C24" d="M1240.2,766.9l1.6,5.8l30.1-8.1c-0.5-1.9-1-3.9-1.5-5.8L1240.2,766.9z"/>
			<path fill="#29ABE2" d="M1137.4,517.5L1137.4,517.5l-4.2-4.3l0,0C1030.9,412.1,896,356.1,752,355.4V355h-6v0.4     c-144,0.8-278.9,56.7-381.1,157.9l0,0l-4.2,4.2l0,0.2C259.5,619.9,203.6,755,202.8,899h0.2v6h-0.2c0.8,144,57.5,280.6,160,383.1     l2.1,2l4.2-4.3l-2.1-2.1c-33.1-33.1-61.4-69.8-84.5-109.2l53.9-31.1l-3-5.2l-53.9,31.1c-22.5-39.3-39.8-81.2-51.7-124.9l30.1-8.1     l-1.6-5.8l-30.1,8.3C215,995.5,209.1,950,208.8,905H271v-6h-62.2c0.2-46,6.2-90.9,17.4-134.2l30.1,8l1.6-5.8l-30.1-8.1     c11.9-43.7,29.2-85.6,51.7-124.9l53.9,31.1l3-5.2l-53.9-31.1c22.6-38.5,50.2-74.5,82.4-107.1l22,22l4.2-4.2l-22-22     c32.6-32.2,68.5-59.8,107.1-82.4l31.1,53.9l5.2-3L481.4,432c39.3-22.5,81.2-39.8,124.9-51.7l8.1,30.1l5.8-1.6l-8.1-30.1     c43.2-11.3,88-17.2,134-17.4V424h6v-62.6c46,0.2,90.8,6.2,134,17.4l-8.1,30.1l5.8,1.6l8.1-30.1c43.7,11.9,85.6,29.2,124.9,51.7     L985.5,486l5.2,3l31.1-53.9c38.5,22.6,74.5,50.2,107.1,82.4l-22,22l4.2,4.2l22-22c32.2,32.6,59.8,68.5,82.4,107.1     c1,1.7,2,3.5,3,5.2c22.5,39.3,39.8,81.2,51.7,124.9c0.5,1.9,1,3.9,1.5,5.8c11.3,43.2,17.2,88.2,17.4,134c0,1,0,2,0,3s0,2,0,3     c-0.2,45.8-6.2,90.7-17.4,134c-0.5,1.9-1,3.9-1.5,5.8c-11.9,43.7-29.2,85.6-51.7,124.9c-1,1.7-2,3.5-3,5.2     c-23.1,39.4-51.4,76.1-84.5,109.2l-2.1,2.1l4.2,4.2l2.1-2.1c102.5-102.5,159.2-238.5,160-383.3c0-1,0-2,0-3s0-2,0-3     C1294.5,754.8,1238.5,619.7,1137.4,517.5z"/>
			<path fill="#29ABE2" d="M1023.6,1371.2l-32.9-57l-5.2,3l31.1,53.9c-39.3,22.5-81.3,39.8-124.9,51.7l-8-30l-5.8,1.6l8,30     c-43.5,11.3-89,17.3-134,17.5V1380h-6v61.8c-45-0.3-90.5-6.2-133.9-17.5l8-30l-5.8-1.6l-8,30c-43.6-11.9-85.6-29.2-124.9-51.7     l31.1-53.9l-5.2-3l-32.8,56.7l-1.4,2.4l0,0l0,0l1.7,1l0.9,0.5c0.1,0,0.1,0.1,0.2,0.1l2.4,1.4l0,0c39.7,22.7,82.2,40.2,126.3,52.3     l0,0.1l5.8,1.6l0-0.1c44,11.5,89.5,17.5,135.5,17.7v0.2h6v-0.2c46-0.3,91.5-6.3,135.5-17.7l0,0.1l5.8-1.6l0-0.1     c44.1-12,86.6-29.5,126.3-52.3l0,0l2.4-1.4c0.1,0,0.1-0.1,0.2-0.1l0.8-0.4l1.8-1.1l0,0l0,0L1023.6,1371.2z"/>
		</g>
		<path fill="#9E005D" d="M872.5,1339.2l-5.8,1.5C828.5,1350.9,789,1356,749,1356c-80.2,0-158.8-21-227.3-60.7l-5.2-3l6-10.4l5.2,3    C594.5,1323.6,671,1344,749,1344c38.9,0,77.4-5,114.6-14.9l5.8-1.5L872.5,1339.2z"/>
		<path fill="#535F8C" d="M665.1,839h2.9v126h-29v-92.9l-29,8.4v-22L665.1,839z M781.4,851.5c7.6,9.2,11.6,22.3,11.6,39.2v22.8    c0,16.9-4,30-11.6,39.2c-7.6,9.2-18.5,13.8-32.4,13.8c-14,0-24.8-4.6-32.5-13.9c-7.6-9.2-11.6-22.3-11.6-39.1v-22.9    c0-16.9,3.9-30,11.6-39.2c7.6-9.2,18.5-13.8,32.4-13.8C762.8,837.7,773.8,842.3,781.4,851.5z M764,886.9c0-9-1.4-15.7-3.7-20.2    c-2.4-4.4-6.3-6.7-11.4-6.7c-5,0-8.7,2.1-11,6.2c-2.3,4.1-2.9,10.4-3.9,18.8v32c0,9.4,1.4,16.2,3.8,20.5c2.4,4.3,6.3,6.5,11.4,6.5    c4.9,0,8.7-2.1,11-6.3c2.4-4.2,3.8-10.8,3.8-19.9V886.9z M895,890.7v22.8c0,16.9-3.9,30-11.5,39.2c-7.6,9.2-18.5,13.8-32.3,13.8    c-14,0-24.9-4.6-32.5-13.9c-7.6-9.2-11.7-22.3-11.7-39.1v-22.9c0-16.9,4-30,11.6-39.2c7.6-9.2,18.6-13.8,32.5-13.8    c13.9,0,24.7,4.6,32.3,13.9C891.1,860.8,895,873.8,895,890.7z M866,886.9c0-9-1.2-15.7-3.6-20.2c-2.4-4.4-6.1-6.7-11.2-6.7    c-5,0-8.5,2.1-10.8,6.2c-2.3,4.1-3.4,10.4-3.4,18.8v32c0,9.4,1,16.2,3.3,20.5c2.4,4.3,5.9,6.5,11,6.5c4.9,0,8.6-2.1,11-6.3    c2.4-4.2,3.7-10.8,3.7-19.9V886.9z"/>
		<path fill="#535F8C" d="M702.6,1038.8l11.5,18.2h-11l-6.6-11.5l-2.6,2.6v8.9h-10v-44h10v23.4l0.8-1.3l7.1-9h11.5L702.6,1038.8z     M751.2,1025.5c-3.9,0-7.1,1.5-9.1,4.6c-1.4-3.1-4-4.6-7.9-4.6c-3.7,0-6.6,1.3-8.8,4.1l-0.3-3.7h-9v31h10v-21.5    c1-1.7,2.2-2.5,4-2.5c1.4,0,2.1,0.4,2.6,1.1c0.5,0.7,0.4,1.9,0.4,3.5v19.5h10v-21.1l0-0.4c0.9-1.7,2.4-2.5,4.3-2.5    c1.4,0,2.4,0.4,2.9,1.1c0.5,0.7,0.8,1.9,0.8,3.4v19.5h10v-20.1C760,1029.3,757.4,1025.5,751.2,1025.5z M762.6,1060h6.8l14.2-45    h-6.8L762.6,1060z M811.4,1028.6c-1.7-2-4.2-3-7.6-3c-3.2,0-5.8,1.3-7.8,3.9V1013h-10v44h10v-22.2c1-1.3,2.2-1.9,4.1-1.9    c1.6,0,2.5,0.4,3.1,1.2c0.7,0.8,0.7,2,0.7,3.6v19.3h10v-19.5C814,1033.5,813.1,1030.6,811.4,1028.6z"/>
		<g>
			<g>
				<path fill="#535F8C" d="M725.6,550.6h-8.4v-26.7l-8.3,2.4v-6.4l15.9-5.5h0.8V550.6z"/>
				<path fill="#535F8C" d="M758.6,536.4h3.7v6.5h-3.7v7.7h-8.4v-7.7h-14l-0.5-5.1l14.5-23.3v-0.1h8.4V536.4z M743.7,536.4h6.5      v-11.1l-0.5,0.8L743.7,536.4z"/>
				<path fill="#535F8C" d="M791.1,535.8c0,4.9-1.1,8.7-3.3,11.3s-5.3,4-9.3,4c-4,0-7.1-1.3-9.3-4c-2.2-2.7-3.3-6.4-3.3-11.3v-6.6      c0-4.9,1.1-8.7,3.3-11.3c2.2-2.7,5.3-4,9.3-4c4,0,7.1,1.3,9.3,4c2.2,2.7,3.3,6.4,3.3,11.3V535.8z M782.7,528.1      c0-2.6-0.3-4.5-1-5.8c-0.7-1.3-1.8-1.9-3.2-1.9c-1.4,0-2.5,0.6-3.1,1.8c-0.7,1.2-1,3-1.1,5.4v9.2c0,2.7,0.3,4.7,1,5.9      c0.7,1.3,1.8,1.9,3.2,1.9c1.4,0,2.5-0.6,3.2-1.8c0.7-1.2,1-3.1,1-5.7V528.1z"/>
			</g>
			<g>
				<path fill="#535F8C" d="M444.2,1108.5c0,4.9-1.1,8.7-3.3,11.3c-2.2,2.7-5.3,4-9.3,4c-4,0-7.1-1.3-9.3-4s-3.3-6.4-3.3-11.3v-6.6      c0-4.9,1.1-8.7,3.3-11.3c2.2-2.7,5.3-4,9.3-4c4,0,7.1,1.3,9.3,4c2.2,2.7,3.3,6.4,3.3,11.3V1108.5z M435.8,1100.8      c0-2.6-0.3-4.5-1-5.8c-0.7-1.3-1.8-1.9-3.2-1.9c-1.4,0-2.5,0.6-3.1,1.8c-0.7,1.2-1,3-1.1,5.4v9.2c0,2.7,0.3,4.7,1,5.9      c0.7,1.3,1.8,1.9,3.2,1.9c1.4,0,2.5-0.6,3.2-1.8c0.7-1.2,1-3.1,1-5.7V1100.8z"/>
			</g>
			<g>
				<path fill="#535F8C" d="M1032.2,1101.7h4c3.1,0,4.7-1.5,4.7-4.6c0-1.2-0.4-2.2-1.1-2.9s-1.8-1.1-3.2-1.1c-1.1,0-2.1,0.3-2.9,1      s-1.2,1.5-1.2,2.4h-8.4c0-1.9,0.5-3.6,1.6-5.1c1.1-1.5,2.5-2.7,4.4-3.5s3.9-1.3,6.2-1.3c4,0,7.2,0.9,9.5,2.8      c2.3,1.8,3.5,4.4,3.5,7.6c0,1.6-0.5,3-1.4,4.4c-1,1.4-2.3,2.5-4.2,3.4c1.9,0.7,3.4,1.8,4.5,3.2s1.6,3.2,1.6,5.3      c0,3.2-1.2,5.8-3.7,7.8c-2.5,1.9-5.8,2.9-9.8,2.9c-2.4,0-4.6-0.5-6.6-1.4c-2-0.9-3.6-2.2-4.6-3.8c-1-1.6-1.6-3.4-1.6-5.5h8.4      c0,1.1,0.4,2.1,1.3,2.9c0.9,0.8,2,1.2,3.3,1.2c1.5,0,2.7-0.4,3.5-1.2c0.9-0.8,1.3-1.9,1.3-3.1c0-1.8-0.5-3.1-1.4-3.9      c-0.9-0.8-2.2-1.1-3.8-1.1h-4.1V1101.7z"/>
				<path fill="#535F8C" d="M1079.1,1108.5c0,4.9-1.1,8.7-3.3,11.3c-2.2,2.7-5.3,4-9.3,4c-4,0-7.1-1.3-9.3-4s-3.3-6.4-3.3-11.3v-6.6      c0-4.9,1.1-8.7,3.3-11.3c2.2-2.7,5.3-4,9.3-4c4,0,7.1,1.3,9.3,4c2.2,2.7,3.3,6.4,3.3,11.3V1108.5z M1070.8,1100.8      c0-2.6-0.3-4.5-1-5.8c-0.7-1.3-1.8-1.9-3.2-1.9c-1.4,0-2.5,0.6-3.1,1.8c-0.7,1.2-1,3-1.1,5.4v9.2c0,2.7,0.3,4.7,1,5.9      c0.7,1.3,1.8,1.9,3.2,1.9c1.4,0,2.5-0.6,3.2-1.8c0.7-1.2,1-3.1,1-5.7V1100.8z"/>
				<path fill="#535F8C" d="M1108.6,1108.5c0,4.9-1.1,8.7-3.3,11.3c-2.2,2.7-5.3,4-9.3,4c-4,0-7.1-1.3-9.3-4s-3.3-6.4-3.3-11.3v-6.6      c0-4.9,1.1-8.7,3.3-11.3c2.2-2.7,5.3-4,9.3-4c4,0,7.1,1.3,9.3,4c2.2,2.7,3.3,6.4,3.3,11.3V1108.5z M1100.2,1100.8      c0-2.6-0.3-4.5-1-5.8c-0.7-1.3-1.8-1.9-3.2-1.9c-1.4,0-2.5,0.6-3.1,1.8c-0.7,1.2-1,3-1.1,5.4v9.2c0,2.7,0.3,4.7,1,5.9      c0.7,1.3,1.8,1.9,3.2,1.9c1.4,0,2.5-0.6,3.2-1.8c0.7-1.2,1-3.1,1-5.7V1100.8z"/>
			</g>
			<g>
				<path fill="#535F8C" d="M370,914h3.7v6.5H370v7.7h-8.4v-7.7h-14l-0.5-5.1l14.5-23.3v-0.1h8.4V914z M355.1,914h6.5v-11.1      l-0.5,0.8L355.1,914z"/>
				<path fill="#535F8C" d="M402.5,913.3c0,4.9-1.1,8.7-3.3,11.3c-2.2,2.7-5.3,4-9.3,4c-4,0-7.1-1.3-9.3-4s-3.3-6.4-3.3-11.3v-6.6      c0-4.9,1.1-8.7,3.3-11.3c2.2-2.7,5.3-4,9.3-4c4,0,7.1,1.3,9.3,4c2.2,2.7,3.3,6.4,3.3,11.3V913.3z M394.1,905.6      c0-2.6-0.3-4.5-1-5.8c-0.7-1.3-1.8-1.9-3.2-1.9c-1.4,0-2.5,0.6-3.1,1.8c-0.7,1.2-1,3-1.1,5.4v9.2c0,2.7,0.3,4.7,1,5.9      c0.7,1.3,1.8,1.9,3.2,1.9c1.4,0,2.5-0.6,3.2-1.8c0.7-1.2,1-3.1,1-5.7V905.6z"/>
			</g>
			<g>
				<path fill="#535F8C" d="M1106.2,928.1h-25.3v-5.5l11.6-12.2c2.9-3.3,4.3-5.9,4.3-7.8c0-1.6-0.3-2.7-1-3.6      c-0.7-0.8-1.7-1.2-3-1.2c-1.3,0-2.3,0.5-3.1,1.6c-0.8,1.1-1.2,2.4-1.2,4.1h-8.4c0-2.2,0.6-4.3,1.7-6.2c1.1-1.9,2.7-3.4,4.6-4.4      c2-1.1,4.2-1.6,6.6-1.6c3.9,0,6.9,0.9,9,2.7c2.1,1.8,3.2,4.4,3.2,7.8c0,1.4-0.3,2.8-0.8,4.2s-1.4,2.8-2.5,4.3      c-1.1,1.5-2.9,3.5-5.4,6l-4.7,5.4h14.2V928.1z"/>
				<path fill="#535F8C" d="M1130.6,891.4v6.6h-0.4c-3.1,0-5.7,0.8-7.7,2.2c-2,1.5-3.3,3.6-3.7,6.3c1.9-1.9,4.3-2.8,7.2-2.8      c3.1,0,5.6,1.1,7.5,3.4s2.8,5.3,2.8,9c0,2.3-0.5,4.4-1.6,6.3c-1.1,1.9-2.6,3.4-4.5,4.5s-4.1,1.6-6.5,1.6c-2.6,0-4.9-0.6-6.9-1.8      c-2-1.2-3.6-2.8-4.7-5c-1.1-2.2-1.7-4.7-1.7-7.5V911c0-3.7,0.8-7.1,2.4-10.1s3.9-5.3,6.8-7c3-1.7,6.3-2.5,9.9-2.5H1130.6z       M1123.1,910.2c-1.1,0-2,0.3-2.8,0.8c-0.7,0.5-1.3,1.1-1.7,1.9v2.5c0,4.6,1.6,6.8,4.7,6.8c1.3,0,2.3-0.6,3.2-1.7      c0.9-1.1,1.3-2.6,1.3-4.3c0-1.8-0.4-3.2-1.3-4.3C1125.7,910.7,1124.5,910.2,1123.1,910.2z"/>
				<path fill="#535F8C" d="M1165,913.3c0,4.9-1.1,8.7-3.3,11.3c-2.2,2.7-5.3,4-9.3,4c-4,0-7.1-1.3-9.3-4s-3.3-6.4-3.3-11.3v-6.6      c0-4.9,1.1-8.7,3.3-11.3c2.2-2.7,5.3-4,9.3-4c4,0,7.1,1.3,9.3,4c2.2,2.7,3.3,6.4,3.3,11.3V913.3z M1156.7,905.6      c0-2.6-0.3-4.5-1-5.8c-0.7-1.3-1.8-1.9-3.2-1.9c-1.4,0-2.5,0.6-3.1,1.8c-0.7,1.2-1,3-1.1,5.4v9.2c0,2.7,0.3,4.7,1,5.9      c0.7,1.3,1.8,1.9,3.2,1.9c1.4,0,2.5-0.6,3.2-1.8c0.7-1.2,1-3.1,1-5.7V905.6z"/>
			</g>
			<g>
				<path fill="#535F8C" d="M428.7,703.6c0,1.8-0.4,3.3-1.3,4.6s-2.1,2.4-3.6,3.2c1.7,0.8,3.1,2,4.1,3.5c1,1.5,1.5,3.2,1.5,5.2      c0,3.2-1.1,5.8-3.3,7.7c-2.2,1.9-5.3,2.8-9.2,2.8c-3.9,0-7-0.9-9.3-2.8s-3.4-4.4-3.4-7.6c0-1.9,0.5-3.7,1.5-5.1      c1-1.5,2.4-2.7,4.2-3.5c-1.5-0.8-2.8-1.9-3.6-3.2c-0.9-1.3-1.3-2.9-1.3-4.6c0-3.1,1.1-5.6,3.2-7.5c2.1-1.8,5-2.7,8.7-2.7      c3.7,0,6.6,0.9,8.7,2.7C427.6,698,428.7,700.5,428.7,703.6z M421,719.5c0-1.5-0.4-2.6-1.2-3.4s-1.8-1.2-3-1.2      c-1.3,0-2.3,0.4-3.1,1.2c-0.8,0.8-1.2,2-1.2,3.4c0,1.4,0.4,2.6,1.2,3.4s1.8,1.3,3.1,1.3c1.2,0,2.2-0.4,3-1.2      C420.6,722.1,421,720.9,421,719.5z M416.8,699.9c-1.1,0-2,0.4-2.6,1.1c-0.6,0.7-0.9,1.8-0.9,3.1c0,1.3,0.3,2.3,0.9,3.1      s1.5,1.2,2.6,1.2c1.1,0,2-0.4,2.6-1.2c0.6-0.8,0.9-1.8,0.9-3.1c0-1.3-0.3-2.3-0.9-3.1C418.8,700.2,417.9,699.9,416.8,699.9z"/>
				<path fill="#535F8C" d="M458.9,715.3c0,4.9-1.1,8.7-3.3,11.3s-5.3,4-9.3,4c-4,0-7.1-1.3-9.3-4c-2.2-2.7-3.3-6.4-3.3-11.3v-6.6      c0-4.9,1.1-8.7,3.3-11.3c2.2-2.7,5.3-4,9.3-4c4,0,7.1,1.3,9.3,4c2.2,2.7,3.3,6.4,3.3,11.3V715.3z M450.5,707.7      c0-2.6-0.3-4.5-1-5.8c-0.7-1.3-1.8-1.9-3.2-1.9c-1.4,0-2.5,0.6-3.1,1.8c-0.7,1.2-1,3-1.1,5.4v9.2c0,2.7,0.3,4.7,1,5.9      c0.7,1.3,1.8,1.9,3.2,1.9c1.4,0,2.5-0.6,3.2-1.8c0.7-1.2,1-3.1,1-5.7V707.7z"/>
			</g>
			<g>
				<path fill="#535F8C" d="M1060.8,730.1h-25.3v-5.5l11.6-12.2c2.9-3.3,4.3-5.9,4.3-7.8c0-1.6-0.3-2.7-1-3.6      c-0.7-0.8-1.7-1.2-3-1.2c-1.3,0-2.3,0.5-3.1,1.6c-0.8,1.1-1.2,2.4-1.2,4.1h-8.4c0-2.2,0.6-4.3,1.7-6.2c1.1-1.9,2.7-3.4,4.6-4.4      c2-1.1,4.2-1.6,6.6-1.6c3.9,0,6.9,0.9,9,2.7c2.1,1.8,3.2,4.4,3.2,7.8c0,1.4-0.3,2.8-0.8,4.2s-1.4,2.8-2.5,4.3      c-1.1,1.5-2.9,3.5-5.4,6l-4.7,5.4h14.2V730.1z"/>
				<path fill="#535F8C" d="M1090.3,730.1H1065v-5.5l11.6-12.2c2.9-3.3,4.3-5.9,4.3-7.8c0-1.6-0.3-2.7-1-3.6c-0.7-0.8-1.7-1.2-3-1.2      c-1.3,0-2.3,0.5-3.1,1.6c-0.8,1.1-1.2,2.4-1.2,4.1h-8.4c0-2.2,0.6-4.3,1.7-6.2c1.1-1.9,2.7-3.4,4.6-4.4c2-1.1,4.2-1.6,6.6-1.6      c3.9,0,6.9,0.9,9,2.7c2.1,1.8,3.2,4.4,3.2,7.8c0,1.4-0.3,2.8-0.8,4.2s-1.4,2.8-2.5,4.3c-1.1,1.5-2.9,3.5-5.4,6l-4.7,5.4h14.2      V730.1z"/>
				<path fill="#535F8C" d="M1119.6,715.3c0,4.9-1.1,8.7-3.3,11.3s-5.3,4-9.3,4c-4,0-7.1-1.3-9.3-4c-2.2-2.7-3.3-6.4-3.3-11.3v-6.6      c0-4.9,1.1-8.7,3.3-11.3c2.2-2.7,5.3-4,9.3-4c4,0,7.1,1.3,9.3,4c2.2,2.7,3.3,6.4,3.3,11.3V715.3z M1111.2,707.7      c0-2.6-0.3-4.5-1-5.8c-0.7-1.3-1.8-1.9-3.2-1.9c-1.4,0-2.5,0.6-3.1,1.8c-0.7,1.2-1,3-1.1,5.4v9.2c0,2.7,0.3,4.7,1,5.9      c0.7,1.3,1.8,1.9,3.2,1.9c1.4,0,2.5-0.6,3.2-1.8c0.7-1.2,1-3.1,1-5.7V707.7z"/>
			</g>
			<g>
				<path fill="#535F8C" d="M526.9,605.3h-8.4v-26.7l-8.3,2.4v-6.4l15.9-5.5h0.8V605.3z"/>
				<path fill="#535F8C" d="M562.9,590.5c0,4.9-1.1,8.7-3.3,11.3s-5.3,4-9.3,4c-4,0-7.1-1.3-9.3-4c-2.2-2.7-3.3-6.4-3.3-11.3v-6.6      c0-4.9,1.1-8.7,3.3-11.3c2.2-2.7,5.3-4,9.3-4c4,0,7.1,1.3,9.3,4c2.2,2.7,3.3,6.4,3.3,11.3V590.5z M554.6,582.8      c0-2.6-0.3-4.5-1-5.8c-0.7-1.3-1.8-1.9-3.2-1.9c-1.4,0-2.5,0.6-3.1,1.8c-0.7,1.2-1,3-1.1,5.4v9.2c0,2.7,0.3,4.7,1,5.9      c0.7,1.3,1.8,1.9,3.2,1.9c1.4,0,2.5-0.6,3.2-1.8c0.7-1.2,1-3.1,1-5.7V582.8z"/>
				<path fill="#535F8C" d="M592.4,590.5c0,4.9-1.1,8.7-3.3,11.3s-5.3,4-9.3,4c-4,0-7.1-1.3-9.3-4c-2.2-2.7-3.3-6.4-3.3-11.3v-6.6      c0-4.9,1.1-8.7,3.3-11.3c2.2-2.7,5.3-4,9.3-4c4,0,7.1,1.3,9.3,4c2.2,2.7,3.3,6.4,3.3,11.3V590.5z M584,582.8      c0-2.6-0.3-4.5-1-5.8c-0.7-1.3-1.8-1.9-3.2-1.9c-1.4,0-2.5,0.6-3.1,1.8c-0.7,1.2-1,3-1.1,5.4v9.2c0,2.7,0.3,4.7,1,5.9      c0.7,1.3,1.8,1.9,3.2,1.9c1.4,0,2.5-0.6,3.2-1.8c0.7-1.2,1-3.1,1-5.7V582.8z"/>
			</g>
			<g>
				<path fill="#535F8C" d="M933,605.3h-8.4v-26.7l-8.3,2.4v-6.4l15.9-5.5h0.8V605.3z"/>
				<path fill="#535F8C" d="M968.4,578.7c0,1.8-0.4,3.3-1.3,4.6s-2.1,2.4-3.6,3.2c1.7,0.8,3.1,2,4.1,3.5c1,1.5,1.5,3.2,1.5,5.2      c0,3.2-1.1,5.8-3.3,7.7c-2.2,1.9-5.3,2.8-9.2,2.8c-3.9,0-7-0.9-9.3-2.8s-3.4-4.4-3.4-7.6c0-1.9,0.5-3.7,1.5-5.1      c1-1.5,2.4-2.7,4.2-3.5c-1.5-0.8-2.8-1.9-3.6-3.2c-0.9-1.3-1.3-2.9-1.3-4.6c0-3.1,1.1-5.6,3.2-7.5c2.1-1.8,5-2.7,8.7-2.7      c3.7,0,6.6,0.9,8.7,2.7C967.3,573.1,968.4,575.6,968.4,578.7z M960.7,594.6c0-1.5-0.4-2.6-1.2-3.4s-1.8-1.2-3-1.2      c-1.3,0-2.3,0.4-3.1,1.2c-0.8,0.8-1.2,2-1.2,3.4c0,1.4,0.4,2.6,1.2,3.4s1.8,1.3,3.1,1.3c1.2,0,2.2-0.4,3-1.2      C960.3,597.2,960.7,596.1,960.7,594.6z M956.5,575c-1.1,0-2,0.4-2.6,1.1c-0.6,0.7-0.9,1.8-0.9,3.1c0,1.3,0.3,2.3,0.9,3.1      s1.5,1.2,2.6,1.2c1.1,0,2-0.4,2.6-1.2c0.6-0.8,0.9-1.8,0.9-3.1c0-1.3-0.3-2.3-0.9-3.1C958.5,575.4,957.6,575,956.5,575z"/>
				<path fill="#535F8C" d="M998.6,590.5c0,4.9-1.1,8.7-3.3,11.3s-5.3,4-9.3,4c-4,0-7.1-1.3-9.3-4c-2.2-2.7-3.3-6.4-3.3-11.3v-6.6      c0-4.9,1.1-8.7,3.3-11.3c2.2-2.7,5.3-4,9.3-4c4,0,7.1,1.3,9.3,4c2.2,2.7,3.3,6.4,3.3,11.3V590.5z M990.2,582.8      c0-2.6-0.3-4.5-1-5.8c-0.7-1.3-1.8-1.9-3.2-1.9c-1.4,0-2.5,0.6-3.1,1.8c-0.7,1.2-1,3-1.1,5.4v9.2c0,2.7,0.3,4.7,1,5.9      c0.7,1.3,1.8,1.9,3.2,1.9c1.4,0,2.5-0.6,3.2-1.8c0.7-1.2,1-3.1,1-5.7V582.8z"/>
			</g>
		</g>
		<g>
			<path fill="none" d="M785.2,1230H776v34h4.7c3.4,0,6.3,3.1,6.3,6.6v12.9c0,2,1.5,3.6,3.5,3.6s3.5-1.6,3.5-3.6v-45     C794,1233.7,790.1,1230,785.2,1230z"/>
			<rect x="732" y="1231" fill="none" width="34" height="10"/>
			<path fill="#29ABE2" d="M785.2,1224H776v-7h-54v75h-5v9h64v-9h-5v-22h4.7c0.1,0,0.3,0.5,0.3,0.6v12.9c0,5.3,4.2,9.6,9.5,9.6     c5.3,0,9.5-4.3,9.5-9.6v-45C800,1230.4,793.4,1224,785.2,1224z M732,1231h34v10h-34V1231z M794,1283.5c0,2-1.5,3.6-3.5,3.6     s-3.5-1.6-3.5-3.6v-12.9c0-3.4-2.9-6.6-6.3-6.6H776v-34h9.2c4.9,0,8.8,3.7,8.8,8.6V1283.5z"/>
		</g>
	</g>
</g>
</svg>
