<?xml version="1.0" encoding="utf-8"?>
<!-- Generator: Adobe Illustrator 19.0.0, SVG Export Plug-In . SVG Version: 6.00 Build 0)  -->
<svg xmlns="http://www.w3.org/2000/svg" xmlns:xlink="http://www.w3.org/1999/xlink" version="1.1" id="Layer_1" x="0px" y="0px" viewBox="0 0 1096 780" style="enable-background:new 0 0 1096 780;" xml:space="preserve">
<style type="text/css">
	.st0{filter:url(#Adobe_OpacityMaskFilter);}
	.st1{filter:url(#Adobe_OpacityMaskFilter_1_);}
	.st2{mask:url(#SVGID_1_);fill:url(#SVGID_2_);}
	.st3{fill:url(#SVGID_3_);}
	.st4{fill:#2E3192;}
	.st5{fill:#BE1E2D;}
	.st6{fill:#FFFFFF;}
	.st7{fill:#C52127;}
	.st8{font-family:'MyriadPro-Semibold';}
	.st9{font-size:11.569px;}
	.st10{font-family:'Rockwell-ExtraBold';}
	.st11{font-size:22.6194px;}
	.st12{font-size:47.2547px;}
	.st13{font-size:16.0042px;}
	.st14{font-size:39.0715px;}
	.st15{letter-spacing:-4;}
	.st16{font-family:'MyriadPro-Bold';}
	.st17{filter:url(#Adobe_OpacityMaskFilter_2_);}
	.st18{filter:url(#Adobe_OpacityMaskFilter_3_);}
	.st19{mask:url(#SVGID_4_);fill:url(#SVGID_5_);}
	.st20{fill:url(#SVGID_6_);}
	.st21{fill:#820000;}
	.st22{fill:#000039;}
	.st23{fill:#939598;}
	.st24{fill:none;stroke:#BCBEC0;stroke-width:2;stroke-miterlimit:10;}
	.st25{fill:#BCBEC0;}
	.st26{letter-spacing:-1;}
	.st27{font-family:'Rockwell-Bold';}
	.st28{font-size:4.0204px;}
	.st29{fill:#808285;}
	.st30{filter:url(#Adobe_OpacityMaskFilter_4_);}
	.st31{filter:url(#Adobe_OpacityMaskFilter_5_);}
	.st32{mask:url(#SVGID_7_);fill:url(#SVGID_8_);}
	.st33{fill:url(#SVGID_9_);}
	.st34{filter:url(#Adobe_OpacityMaskFilter_6_);}
	.st35{filter:url(#Adobe_OpacityMaskFilter_7_);}
	.st36{mask:url(#SVGID_10_);fill:url(#SVGID_11_);}
	.st37{fill:url(#SVGID_12_);}
	.st38{filter:url(#Adobe_OpacityMaskFilter_8_);}
	.st39{filter:url(#Adobe_OpacityMaskFilter_9_);}
	.st40{mask:url(#SVGID_13_);fill:url(#SVGID_14_);}
	.st41{fill:url(#SVGID_15_);}
	.st42{fill:none;stroke:#FFFFFF;stroke-width:2;stroke-miterlimit:10;}
	.st43{fill:none;stroke:#FFFFFF;stroke-width:5;stroke-miterlimit:10;}
	.st44{font-family:'Rockwell-BoldItalic';}
	.st45{font-size:25.2829px;}
	.st46{letter-spacing:-2;}
	.st47{font-size:21.1466px;}
	.st48{font-size:16.5833px;}
	.st49{font-size:9.6329px;}
	.st50{font-size:19.9926px;}
	.st51{letter-spacing:-3;}
	.st52{font-size:13.8777px;}
	.st53{font-size:8.6319px;}
	.st54{font-size:4.6259px;}
	.st55{font-size:14.9107px;}
	.st56{fill:none;stroke:#FFFFFF;stroke-miterlimit:10;}
	.st57{fill:#ED1C24;}
	.st58{font-size:22.3249px;}
	.st59{font-family:'Rockwell';}
	.st60{font-size:5.6805px;}
	.st61{filter:url(#Adobe_OpacityMaskFilter_10_);}
	.st62{filter:url(#Adobe_OpacityMaskFilter_11_);}
	.st63{mask:url(#SVGID_16_);fill:url(#SVGID_17_);}
	.st64{fill:url(#SVGID_18_);}
	.st65{filter:url(#Adobe_OpacityMaskFilter_12_);}
	.st66{filter:url(#Adobe_OpacityMaskFilter_13_);}
	.st67{mask:url(#SVGID_19_);fill:url(#SVGID_20_);}
	.st68{fill:url(#SVGID_21_);}
	.st69{font-size:21.4625px;}
	.st70{fill:#BE1E2D;stroke:#BE1E2D;stroke-width:6;stroke-miterlimit:10;}
</style>

<defs>
	<filter id="Adobe_OpacityMaskFilter" filterUnits="userSpaceOnUse" x="0" y="372" width="1096" height="409">
		<feFlood style="flood-color:white;flood-opacity:1" result="back"/>
		<feBlend in="SourceGraphic" in2="back" mode="normal"/>
	</filter>
</defs>
<mask maskUnits="userSpaceOnUse" x="0" y="372" width="1096" height="409" id="SVGID_1_">
	<g class="st0">
		<defs>
			<filter id="Adobe_OpacityMaskFilter_1_" filterUnits="userSpaceOnUse" x="0" y="372" width="1096" height="409">
				<feFlood style="flood-color:white;flood-opacity:1" result="back"/>
				<feBlend in="SourceGraphic" in2="back" mode="normal"/>
			</filter>
		</defs>
		<mask maskUnits="userSpaceOnUse" x="0" y="372" width="1096" height="409" id="SVGID_1_">
			<g class="st1">
			</g>
		</mask>
		<linearGradient id="SVGID_2_" gradientUnits="userSpaceOnUse" x1="0" y1="576.5012" x2="1096" y2="576.5012">
			<stop offset="3.430090e-02" style="stop-color:#FFFFFF"/>
			<stop offset="0.4516" style="stop-color:#FFFFFF"/>
			<stop offset="0.956" style="stop-color:#FCFCFC"/>
		</linearGradient>
		<rect y="372" class="st2" width="1096" height="409"/>
	</g>
</mask>
<linearGradient id="SVGID_3_" gradientUnits="userSpaceOnUse" x1="0" y1="576.5012" x2="1096" y2="576.5012">
	<stop offset="3.430090e-02" style="stop-color:#000000"/>
	<stop offset="9.023738e-02" style="stop-color:#414142"/>
	<stop offset="0.21" style="stop-color:#797B7E"/>
	<stop offset="0.3827" style="stop-color:#CCCED0"/>
	<stop offset="0.4516" style="stop-color:#F1F2F2"/>
	<stop offset="0.4974" style="stop-color:#EBECED"/>
	<stop offset="0.5647" style="stop-color:#DBDCDD"/>
	<stop offset="0.6454" style="stop-color:#C0C1C3"/>
	<stop offset="0.7365" style="stop-color:#9B9DA0"/>
	<stop offset="0.8362" style="stop-color:#6F7173"/>
	<stop offset="0.9416" style="stop-color:#222223"/>
	<stop offset="0.956" style="stop-color:#000000"/>
</linearGradient>
<rect y="372" class="st3" width="1096" height="409"/>
<g>
	<g>
		<circle class="st4" cx="333.6" cy="198.8" r="142.1"/>
		<path class="st5" d="M236.1,111.2L236.1,111.2c24.1-27.5,59.5-45,99-45c72.6,0,131.4,58.8,131.4,131.4c0,24.9-6.9,48.1-18.9,68    l0,0l12.8,7.8c13.4-22.1,21.1-48,21.1-75.8c0-80.9-65.6-146.4-146.4-146.4c-43.7,0-82.9,19.2-109.7,49.5L236.1,111.2z"/>
		<g>
			<path class="st6" d="M336.6,65.1c0,0.9-0.7,1.6-1.6,1.6l0,0c-0.9,0-1.6-0.7-1.6-1.6v-3.5c0-0.9,0.7-1.6,1.6-1.6l0,0     c0.9,0,1.6,0.7,1.6,1.6V65.1z"/>
		</g>
		<g>
			<path class="st6" d="M372.9,69.4c-0.1,0.5-0.9,0.7-1.6,0.5l0,0c-0.8-0.2-1.3-0.8-1.1-1.3l0.6-2c0.1-0.5,0.9-0.7,1.6-0.5l0,0     c0.8,0.2,1.3,0.8,1.1,1.3L372.9,69.4z"/>
		</g>
		<g>
			<path class="st6" d="M432.3,105.8c-0.4,0.4-1.1,0.2-1.7-0.4l0,0c-0.6-0.6-0.7-1.3-0.3-1.7l1.5-1.4c0.4-0.4,1.1-0.2,1.7,0.4l0,0     c0.6,0.6,0.7,1.3,0.3,1.7L432.3,105.8z"/>
		</g>
		<g>
			<path class="st6" d="M465.3,167.2c-0.5,0.1-1.1-0.4-1.3-1.2l0,0c-0.2-0.8,0.1-1.5,0.6-1.6l2-0.5c0.5-0.1,1.1,0.4,1.3,1.2l0,0     c0.2,0.8-0.1,1.5-0.6,1.6L465.3,167.2z"/>
		</g>
		<g>
			<path class="st6" d="M463,236.8c-0.5-0.1-0.7-0.9-0.5-1.6l0,0c0.2-0.8,0.8-1.3,1.3-1.1l2,0.6c0.5,0.1,0.7,0.9,0.5,1.6l0,0     c-0.2,0.8-0.8,1.3-1.3,1.1L463,236.8z"/>
		</g>
		<g>
			<path class="st6" d="M426,295.8c-0.4-0.4-0.2-1.1,0.4-1.7l0,0c0.6-0.5,1.3-0.7,1.7-0.3l1.4,1.5c0.4,0.4,0.2,1.1-0.4,1.7l0,0     c-0.6,0.5-1.3,0.7-1.7,0.3L426,295.8z"/>
		</g>
		<g>
			<path class="st6" d="M364.3,328.2c-0.1-0.5,0.4-1.1,1.2-1.3l0,0c0.8-0.2,1.5,0.1,1.6,0.6l0.5,2c0.1,0.5-0.4,1.1-1.2,1.2l0,0     c-0.8,0.2-1.5-0.1-1.6-0.6L364.3,328.2z"/>
		</g>
		<g>
			<path class="st6" d="M297.4,326.1c0.1-0.5,0.9-0.7,1.6-0.5l0,0c0.8,0.2,1.3,0.8,1.1,1.3l-0.6,2c-0.1,0.5-0.9,0.7-1.6,0.5l0,0     c-0.8-0.2-1.3-0.8-1.1-1.3L297.4,326.1z"/>
		</g>
		<g>
			<path class="st6" d="M239.6,291.5c0.4-0.4,1.1-0.2,1.7,0.3l0,0c0.6,0.6,0.7,1.3,0.4,1.7l-1.4,1.4c-0.4,0.4-1.1,0.2-1.7-0.3l0,0     c-0.6-0.6-0.7-1.3-0.4-1.7L239.6,291.5z"/>
		</g>
		<g>
			<path class="st6" d="M205.7,232c0.5-0.1,1.1,0.4,1.3,1.1l0,0c0.2,0.8,0,1.5-0.5,1.6l-2,0.5c-0.5,0.1-1.1-0.4-1.3-1.1l0,0     c-0.2-0.8,0-1.5,0.5-1.6L205.7,232z"/>
		</g>
		<g>
			<path class="st6" d="M205.7,163.4c0.5,0.1,0.8,0.9,0.6,1.6l0,0c-0.2,0.8-0.8,1.3-1.3,1.2l-2-0.5c-0.5-0.1-0.8-0.9-0.6-1.6l0,0     c0.2-0.8,0.8-1.3,1.3-1.2L205.7,163.4z"/>
		</g>
		<g>
			<path class="st6" d="M241.2,102.3c0.4,0.4,0.2,1.1-0.3,1.7l0,0c-0.6,0.6-1.3,0.7-1.7,0.4l-1.4-1.4c-0.4-0.4-0.2-1.1,0.3-1.7l0,0     c0.6-0.6,1.3-0.7,1.7-0.4L241.2,102.3z"/>
		</g>
		<g>
			<path class="st6" d="M302.9,67.8c0.1,0.5-0.4,1.1-1.2,1.3l0,0c-0.8,0.2-1.5,0-1.6-0.6l-0.5-2c-0.1-0.5,0.4-1.1,1.2-1.3l0,0     c0.8-0.2,1.5,0,1.6,0.6L302.9,67.8z"/>
		</g>
		<g>
			<path class="st6" d="M405.1,85.1c-0.5,0.8-1.5,1-2.2,0.5l0,0c-0.8-0.5-1-1.5-0.5-2.2l1.8-3c0.5-0.8,1.5-1,2.2-0.5l0,0     c0.8,0.5,1,1.5,0.5,2.2L405.1,85.1z"/>
		</g>
		<g>
			<path class="st6" d="M451.9,135c-0.8,0.4-1.8,0.1-2.2-0.6l0,0c-0.4-0.8-0.1-1.8,0.6-2.2l3.1-1.7c0.8-0.4,1.8-0.2,2.2,0.6l0,0     c0.4,0.8,0.1,1.8-0.6,2.2L451.9,135z"/>
		</g>
		<g>
			<path class="st6" d="M467.6,201.6c-0.9,0-1.6-0.8-1.6-1.7l0,0c0-0.9,0.8-1.6,1.7-1.6l3.5,0.1c0.9,0,1.6,0.8,1.6,1.7l0,0     c0,0.9-0.8,1.6-1.7,1.6L467.6,201.6z"/>
		</g>
		<g>
			<path class="st6" d="M448,267.1c-0.8-0.5-1-1.5-0.6-2.2l0,0c0.5-0.8,1.5-1,2.2-0.6l3,1.8c0.8,0.5,1,1.5,0.6,2.2l0,0     c-0.5,0.8-1.5,1-2.2,0.6L448,267.1z"/>
		</g>
		<g>
			<path class="st6" d="M398.4,314.2c-0.4-0.8-0.2-1.8,0.6-2.2l0,0c0.8-0.4,1.8-0.2,2.2,0.6l1.7,3.1c0.4,0.8,0.2,1.8-0.6,2.2l0,0     c-0.8,0.4-1.8,0.2-2.2-0.6L398.4,314.2z"/>
		</g>
		<g>
			<path class="st6" d="M332,330.3c0-0.9,0.7-1.6,1.7-1.6l0,0c0.9,0,1.6,0.7,1.6,1.6l0,3.5c0,0.9-0.7,1.6-1.6,1.6l0,0     c-0.9,0-1.6-0.7-1.6-1.6L332,330.3z"/>
		</g>
		<g>
			<path class="st6" d="M266.3,311.1c0.5-0.8,1.5-1,2.2-0.6l0,0c0.8,0.5,1,1.5,0.6,2.2l-1.8,3c-0.5,0.8-1.5,1-2.2,0.6l0,0     c-0.8-0.5-1-1.5-0.6-2.2L266.3,311.1z"/>
		</g>
		<g>
			<path class="st6" d="M218.9,261.8c0.8-0.4,1.8-0.2,2.2,0.6l0,0c0.4,0.8,0.2,1.8-0.6,2.2l-3.1,1.7c-0.8,0.4-1.8,0.2-2.2-0.6l0,0     c-0.4-0.8-0.2-1.8,0.6-2.2L218.9,261.8z"/>
		</g>
		<g>
			<path class="st6" d="M202.4,195.5c0.9,0,1.6,0.7,1.6,1.6l0,0c0,0.9-0.7,1.6-1.6,1.6l-3.5,0c-0.9,0-1.6-0.7-1.6-1.6l0,0     c0-0.9,0.7-1.6,1.6-1.6L202.4,195.5z"/>
		</g>
		<g>
			<path class="st6" d="M221.1,129.7c0.8,0.5,1,1.5,0.6,2.2l0,0c-0.5,0.8-1.4,1-2.2,0.6l-3-1.8c-0.8-0.5-1-1.5-0.6-2.2l0,0     c0.5-0.8,1.5-1,2.2-0.6L221.1,129.7z"/>
		</g>
		<g>
			<path class="st6" d="M270.1,82c0.4,0.8,0.2,1.8-0.6,2.2l0,0c-0.8,0.5-1.8,0.2-2.2-0.6l-1.8-3c-0.5-0.8-0.2-1.8,0.6-2.2l0,0     c0.8-0.5,1.8-0.2,2.2,0.6L270.1,82z"/>
		</g>
		<path class="st7" d="M333.9,197.1c0,0,0.1,0.5,0.2,1.5c0.1,1,0.3,2.4,0.4,4.3c0.3,3.7,0.8,9,1.1,15.3c0.4,6.3,0.7,13.7,0.9,21.6    c0.1,4,0.2,8,0.3,12.2c0.1,4.2,0.1,8.4,0.1,12.6c0,4.2,0,8.4-0.1,12.6c0,4.2-0.1,8.2-0.2,12.2c-0.2,7.9-0.5,15.3-0.9,21.6    c-0.4,6.3-0.8,11.6-1.1,15.3c-0.2,1.8-0.3,3.3-0.4,4.3c-0.1,1-0.2,1.5-0.2,1.5s-0.1-0.5-0.2-1.5c-0.1-1-0.3-2.4-0.4-4.3    c-0.3-3.7-0.8-9-1.1-15.3c-0.4-6.3-0.7-13.7-0.9-21.6c-0.1-4-0.2-8-0.2-12.2c-0.1-4.2-0.1-8.4-0.1-12.6c0-4.2,0-8.4,0.1-12.6    c0.1-4.2,0.1-8.2,0.3-12.2c0.2-7.9,0.5-15.3,0.9-21.6c0.4-6.3,0.8-11.6,1.1-15.3c0.2-1.8,0.3-3.3,0.4-4.3    C333.9,197.6,333.9,197.1,333.9,197.1z"/>
		<rect x="286.3" y="175.5" class="st6" width="98" height="2.3"/>
		<path class="st6" d="M358.6,223.1c0,3.8-3.1,6.9-6.9,6.9H318c-3.8,0-6.9-3.1-6.9-6.9l0,0c0-3.8,3.1-6.9,6.9-6.9h33.8    C355.5,216.2,358.6,219.3,358.6,223.1L358.6,223.1z"/>
		<text transform="matrix(1 0 0 1 320.8652 226.6621)" class="st8 st9">AUTO</text>
		<text transform="matrix(1 0 0 1 328.9409 85.8926)" class="st6 st10 st11">6</text>
		<text transform="matrix(1 0 0 1 387.9409 104.5254)" class="st6 st10 st11">7</text>
		<text transform="matrix(1 0 0 1 432.0269 147.8589)" class="st6 st10 st11">8</text>
		<text transform="matrix(1 0 0 1 447.2339 206.1924)" class="st6 st10 st11">9</text>
		<text transform="matrix(1 0 0 1 326.5679 325.4932)" class="st6 st10 st11">0</text>
		<text transform="matrix(1 0 0 1 319.5693 160.1748)" class="st6 st10 st12">0</text>
		<text transform="matrix(1 0 0 1 289.5688 262.8115)" class="st6 st10 st13">0:00:00.00</text>
		<text transform="matrix(1 0 0 1 319.6152 170.4121)" class="st6 st10 st9">MPH</text>
		<text transform="matrix(1 0 0 1 319.5698 211.208)" class="st6 st10 st14">N</text>
		<text transform="matrix(1 0 0 1 267.8257 307.8262)" class="st6 st10 st11">1</text>
		<text transform="matrix(1 0 0 1 223.8257 266.5898)" class="st6 st10 st11">2</text>
		<text transform="matrix(1 0 0 1 206.2969 206.1924)" class="st6 st10 st11">3</text>
		<text transform="matrix(1 0 0 1 221.3726 146.1924)" class="st6 st10 st11">4</text>
		<text transform="matrix(1 0 0 1 267.8257 102.1533)" class="st6 st10 st11">5</text>
		<text transform="matrix(1 0 0 1 421.9565 266.5903)" class="st6 st10 st11 st15">10</text>
		<text transform="matrix(1 0 0 1 347.3115 313.6221)" class="st6 st16 st9">x1000</text>
		<text transform="matrix(1 0 0 1 350.8848 322.999)" class="st6 st16 st9">RPM</text>
		<defs>
			<filter id="Adobe_OpacityMaskFilter_2_" filterUnits="userSpaceOnUse" x="201" y="66.2" width="265.1" height="265.1">
				<feFlood style="flood-color:white;flood-opacity:1" result="back"/>
				<feBlend in="SourceGraphic" in2="back" mode="normal"/>
			</filter>
		</defs>
		<mask maskUnits="userSpaceOnUse" x="201" y="66.2" width="265.1" height="265.1" id="SVGID_4_">
			<g class="st17">
				<defs>
					<filter id="Adobe_OpacityMaskFilter_3_" filterUnits="userSpaceOnUse" x="201" y="66.2" width="265.1" height="265.1">
						<feFlood style="flood-color:white;flood-opacity:1" result="back"/>
						<feBlend in="SourceGraphic" in2="back" mode="normal"/>
					</filter>
				</defs>
				<mask maskUnits="userSpaceOnUse" x="201" y="66.2" width="265.1" height="265.1" id="SVGID_4_">
					<g class="st18">
					</g>
				</mask>
				<radialGradient id="SVGID_5_" cx="333.5681" cy="198.7737" r="132.5588" gradientUnits="userSpaceOnUse">
					<stop offset="0" style="stop-color:#0F0F0F"/>
					<stop offset="0.5612" style="stop-color:#111111"/>
					<stop offset="0.7965" style="stop-color:#181818"/>
					<stop offset="0.8011" style="stop-color:#191919"/>
					<stop offset="0.8316" style="stop-color:#1C1C1C"/>
					<stop offset="0.8584" style="stop-color:#272727"/>
					<stop offset="0.8839" style="stop-color:#393939"/>
					<stop offset="0.9085" style="stop-color:#525252"/>
					<stop offset="0.9325" style="stop-color:#737373"/>
					<stop offset="0.956" style="stop-color:#9B9B9B"/>
					<stop offset="0.9788" style="stop-color:#CACACA"/>
					<stop offset="1" style="stop-color:#FCFCFC"/>
				</radialGradient>
				<circle class="st19" cx="333.6" cy="198.8" r="132.6"/>
			</g>
		</mask>
		<radialGradient id="SVGID_6_" cx="333.5681" cy="198.7737" r="132.5588" gradientUnits="userSpaceOnUse">
			<stop offset="0" style="stop-color:#2E2D2F"/>
			<stop offset="0.5644" style="stop-color:#323133"/>
			<stop offset="0.8009" style="stop-color:#3F3F40"/>
			<stop offset="0.8011" style="stop-color:#3F3F41"/>
			<stop offset="0.8843" style="stop-color:#39393A"/>
			<stop offset="0.9574" style="stop-color:#222223"/>
			<stop offset="1" style="stop-color:#000000"/>
		</radialGradient>
		<circle class="st20" cx="333.6" cy="198.8" r="132.6"/>
		<path class="st21" d="M333.6,56.6c-41.9,0-79.5,18.1-105.5,46.9l8,7.7l0,0c24.1-27.5,59.5-45,99-45c72.6,0,131.4,58.8,131.4,131.4    c0,24.9-6.9,48.1-18.9,68l8.6,5.2c12.5-21.1,19.6-45.8,19.6-72.1C475.7,120.3,412.1,56.6,333.6,56.6z"/>
		<g>
			<path class="st6" d="M338.3,37.2c0,1.1-0.9,2-2,2l0,0c-1.1,0-2-0.9-2-2v-9.7c0-1.1,0.9-2,2-2l0,0c1.1,0,2,0.9,2,2V37.2z"/>
		</g>
		<g>
			<path class="st6" d="M423.8,63c-0.6,0.9-1.8,1.2-2.8,0.6l0,0c-0.9-0.6-1.2-1.8-0.6-2.8l5.1-8.2c0.6-0.9,1.8-1.2,2.8-0.6l0,0     c0.9,0.6,1.2,1.8,0.6,2.8L423.8,63z"/>
		</g>
		<g>
			<path class="st6" d="M478.4,122c-1,0.5-2.2,0.2-2.7-0.8l0,0c-0.5-1-0.2-2.2,0.8-2.7l8.4-4.7c1-0.5,2.2-0.2,2.7,0.8l0,0     c0.5,1,0.2,2.2-0.8,2.7L478.4,122z"/>
		</g>
		<g>
			<path class="st6" d="M497.8,199.2c-1.1,0-2-0.9-2-2l0,0c0-1.1,0.9-2,2-2l9.7-0.1c1.1,0,2,0.9,2,2l0,0c0,1.1-0.9,2-2,2     L497.8,199.2z"/>
		</g>
		<g>
			<path class="st5" d="M476.8,278.5c-1-0.5-1.3-1.8-0.8-2.7l0,0c0.5-1,1.8-1.3,2.7-0.8l8.5,4.7c1,0.5,1.3,1.7,0.8,2.7l0,0     c-0.5,1-1.7,1.3-2.7,0.8L476.8,278.5z"/>
		</g>
		<g>
			<path class="st6" d="M331.9,360.3c0-1.1,0.9-2,2-2l0,0c1.1,0,2,0.9,2,2l-0.1,9.7c0,1.1-0.9,2-2,2l0,0c-1.1,0-2-0.9-2-2     L331.9,360.3z"/>
		</g>
		<g>
			<path class="st6" d="M250.7,335.9c0.6-0.9,1.8-1.2,2.7-0.7l0,0c0.9,0.6,1.2,1.8,0.7,2.8l-5,8.3c-0.6,0.9-1.8,1.2-2.7,0.7l0,0     c-0.9-0.6-1.2-1.8-0.7-2.7L250.7,335.9z"/>
		</g>
		<g>
			<path class="st6" d="M194.4,276.2c1-0.5,2.2-0.2,2.7,0.8l0,0c0.5,1,0.2,2.2-0.8,2.7l-8.4,4.7c-1,0.5-2.2,0.2-2.7-0.8l0,0     c-0.5-1-0.2-2.2,0.8-2.7L194.4,276.2z"/>
		</g>
		<g>
			<path class="st6" d="M174.7,195.1c1.1,0,2,0.9,2,2l0,0c0,1.1-0.9,2-2,2L165,199c-1.1,0-2-0.9-2-2l0,0c0-1.1,0.9-2,2-2     L174.7,195.1z"/>
		</g>
		<path class="st22" d="M255.5,47.2h-60.8c0,0-64.1,45.5-72.6,137.5s63.3,155,75.2,162.5h66.5c0,0-94.6-48.2-93.9-157.1    C170.6,81.2,255.5,47.2,255.5,47.2z"/>
		<g>
			<path class="st6" d="M199.9,112.1c0.9,0.6,1.2,1.8,0.6,2.8l0,0c-0.6,0.9-1.8,1.2-2.8,0.6l-8.2-5.1c-0.9-0.6-1.2-1.8-0.6-2.8l0,0     c0.6-0.9,1.8-1.2,2.8-0.6L199.9,112.1z"/>
		</g>
		<g>
			<path class="st6" d="M263.5,54.5c0.5,1,0.1,2.2-0.9,2.7l0,0c-1,0.5-2.2,0.1-2.7-0.9l-4.5-8.6c-0.5-1-0.1-2.2,0.9-2.7l0,0     c1-0.5,2.2-0.1,2.7,0.8L263.5,54.5z"/>
		</g>
		<path class="st23" d="M188.6,61.7h40.5c0.1-0.1,0.2-0.2,0.4-0.3h-42.6c0,0-50.5,45-57,108.7h1.7    C138.3,106.6,188.6,61.7,188.6,61.7z"/>
		<path class="st24" d="M149.6,225.2h-17.4c0,0,2.4,55.7,57.4,106.9h17.8"/>
		<path class="st25" d="M201,329.3h-10.8c0,0-17.6-18.1-22.1-24.7l7.6-0.2C175.8,304.3,194.3,325.5,201,329.3z"/>
		<path class="st25" d="M184.2,306.7c0,0.4-0.3,0.7-0.7,0.7h-3.4c-0.4,0-0.7-0.3-0.7-0.7l0,0c0-0.4,0.3-0.7,0.7-0.7h3.4    C183.9,305.9,184.2,306.3,184.2,306.7L184.2,306.7z"/>
		<path class="st25" d="M205.9,328.5c0,0.4-0.3,0.7-0.7,0.7h-3.4c-0.4,0-0.7-0.3-0.7-0.7l0,0c0-0.4,0.3-0.7,0.7-0.7h3.4    C205.6,327.8,205.9,328.1,205.9,328.5L205.9,328.5z"/>
		<path class="st21" d="M188.6,61.7h40.5c0.1-0.1,0.2-0.2,0.4-0.3h-42.6c0,0-7.5,6.7-17.2,18.7h1.9    C181.2,68.3,188.6,61.7,188.6,61.7z"/>
		<path class="st23" d="M147,169.5c0-0.3-0.3-0.6-0.6-0.6h-15.9c-0.3,0-0.6,0.3-0.6,0.6l0,0c0,0.3,0.3,0.6,0.6,0.6h15.9    C146.7,170.1,147,169.8,147,169.5L147,169.5z"/>
		<text transform="matrix(1 0 0 1 129.8931 180.2759)" class="st6 st10 st9 st26">100</text>
		<text transform="matrix(1.157 0 0 1 213.6909 53.2871)" class="st6 st27 st28">0</text>
		<text transform="matrix(1 0 0 1 192.5596 59.9141)" class="st6 st10 st9 st26">265  F</text>
		<text transform="matrix(1 0 0 1 129.8931 221.1592)" class="st6 st10 st9 st26">1/1</text>
		<text transform="matrix(1 0 0 1 195.8931 342.4932)" class="st6 st10 st9 st26">0</text>
		<path class="st6" d="M146.9,227.6c0-0.5-0.4-0.9-0.9-0.9h-3.6c-0.5,0-0.9,0.4-0.9,0.9l0,0c0,0.5,0.4,0.9,0.9,0.9h3.6    C146.5,228.5,146.9,228.1,146.9,227.6L146.9,227.6z"/>
		<path class="st6" d="M206.7,63.9c0-0.5-0.4-0.9-0.9-0.9h-3.6c-0.5,0-0.9,0.4-0.9,0.9l0,0c0,0.5,0.4,0.9,0.9,0.9h3.6    C206.3,64.8,206.7,64.4,206.7,63.9L206.7,63.9z"/>
		<path class="st6" d="M172.4,104.5c0-0.5-0.4-0.9-0.9-0.9H168c-0.5,0-0.9,0.4-0.9,0.9l0,0c0,0.5,0.4,0.9,0.9,0.9h3.6    C172,105.4,172.4,105,172.4,104.5L172.4,104.5z"/>
		<path class="st6" d="M149.7,150.9c0-0.5-0.4-0.9-0.9-0.9h-3.6c-0.5,0-0.9,0.4-0.9,0.9l0,0c0,0.5,0.4,0.9,0.9,0.9h3.6    C149.3,151.8,149.7,151.4,149.7,150.9L149.7,150.9z"/>
		<path class="st6" d="M154.4,254.8c0,0.6-0.4,1-1,1h-3.8c-0.6,0-1-0.4-1-1l0,0c0-0.6,0.4-1,1-1h3.8    C154,253.8,154.4,254.2,154.4,254.8L154.4,254.8z"/>
		<path class="st6" d="M166.7,281.8c0,0.6-0.4,1-1,1h-3.8c-0.6,0-1-0.4-1-1l0,0c0-0.6,0.4-1,1-1h3.8    C166.2,280.8,166.7,281.2,166.7,281.8L166.7,281.8z"/>
	</g>
	<g>
		<ellipse class="st29" cx="291.9" cy="562.6" rx="135.8" ry="137.8"/>
		<defs>
			<filter id="Adobe_OpacityMaskFilter_4_" filterUnits="userSpaceOnUse" x="166.5" y="435.2" width="250.9" height="254.6">
				<feFlood style="flood-color:white;flood-opacity:1" result="back"/>
				<feBlend in="SourceGraphic" in2="back" mode="normal"/>
			</filter>
		</defs>
		<mask maskUnits="userSpaceOnUse" x="166.5" y="435.2" width="250.9" height="254.6" id="SVGID_7_">
			<g class="st30">
				<defs>
					<filter id="Adobe_OpacityMaskFilter_5_" filterUnits="userSpaceOnUse" x="166.5" y="435.2" width="250.9" height="254.6">
						<feFlood style="flood-color:white;flood-opacity:1" result="back"/>
						<feBlend in="SourceGraphic" in2="back" mode="normal"/>
					</filter>
				</defs>
				<mask maskUnits="userSpaceOnUse" x="166.5" y="435.2" width="250.9" height="254.6" id="SVGID_7_">
					<g class="st31">
					</g>
				</mask>
				<radialGradient id="SVGID_8_" cx="291.945" cy="562.561" r="126.393" gradientUnits="userSpaceOnUse">
					<stop offset="0" style="stop-color:#0F0F0F"/>
					<stop offset="0.5612" style="stop-color:#111111"/>
					<stop offset="0.7965" style="stop-color:#181818"/>
					<stop offset="0.8011" style="stop-color:#191919"/>
					<stop offset="0.8316" style="stop-color:#1C1C1C"/>
					<stop offset="0.8584" style="stop-color:#272727"/>
					<stop offset="0.8839" style="stop-color:#393939"/>
					<stop offset="0.9085" style="stop-color:#525252"/>
					<stop offset="0.9325" style="stop-color:#737373"/>
					<stop offset="0.956" style="stop-color:#9B9B9B"/>
					<stop offset="0.9788" style="stop-color:#CACACA"/>
					<stop offset="1" style="stop-color:#FCFCFC"/>
				</radialGradient>
				<ellipse class="st32" cx="291.9" cy="562.6" rx="125.5" ry="127.3"/>
			</g>
		</mask>
		<radialGradient id="SVGID_9_" cx="291.945" cy="562.561" r="126.393" gradientUnits="userSpaceOnUse">
			<stop offset="0" style="stop-color:#2E2D2F"/>
			<stop offset="0.5644" style="stop-color:#323133"/>
			<stop offset="0.8009" style="stop-color:#3F3F40"/>
			<stop offset="0.8011" style="stop-color:#3F3F41"/>
			<stop offset="0.8843" style="stop-color:#39393A"/>
			<stop offset="0.9574" style="stop-color:#222223"/>
			<stop offset="1" style="stop-color:#000000"/>
		</radialGradient>
		<ellipse class="st33" cx="291.9" cy="562.6" rx="125.5" ry="127.3"/>
		<ellipse class="st29" cx="803.6" cy="568.4" rx="133.6" ry="133.5"/>
		<defs>
			<filter id="Adobe_OpacityMaskFilter_6_" filterUnits="userSpaceOnUse" x="680.2" y="445" width="246.9" height="246.7">
				<feFlood style="flood-color:white;flood-opacity:1" result="back"/>
				<feBlend in="SourceGraphic" in2="back" mode="normal"/>
			</filter>
		</defs>
		<mask maskUnits="userSpaceOnUse" x="680.2" y="445" width="246.9" height="246.7" id="SVGID_10_">
			<g class="st34">
				<defs>
					<filter id="Adobe_OpacityMaskFilter_7_" filterUnits="userSpaceOnUse" x="680.2" y="445" width="246.9" height="246.7">
						<feFlood style="flood-color:white;flood-opacity:1" result="back"/>
						<feBlend in="SourceGraphic" in2="back" mode="normal"/>
					</filter>
				</defs>
				<mask maskUnits="userSpaceOnUse" x="680.2" y="445" width="246.9" height="246.7" id="SVGID_10_">
					<g class="st35">
					</g>
				</mask>
				
					<radialGradient id="SVGID_11_" cx="805.6348" cy="567.7983" r="121.7558" gradientTransform="matrix(1.0217 0 0 1.0058 -19.4872 -2.7039)" gradientUnits="userSpaceOnUse">
					<stop offset="0" style="stop-color:#0F0F0F"/>
					<stop offset="0.5612" style="stop-color:#111111"/>
					<stop offset="0.7965" style="stop-color:#181818"/>
					<stop offset="0.8011" style="stop-color:#191919"/>
					<stop offset="0.8316" style="stop-color:#1C1C1C"/>
					<stop offset="0.8584" style="stop-color:#272727"/>
					<stop offset="0.8839" style="stop-color:#393939"/>
					<stop offset="0.9085" style="stop-color:#525252"/>
					<stop offset="0.9325" style="stop-color:#737373"/>
					<stop offset="0.956" style="stop-color:#9B9B9B"/>
					<stop offset="0.9788" style="stop-color:#CACACA"/>
					<stop offset="1" style="stop-color:#FCFCFC"/>
				</radialGradient>
				<ellipse class="st36" cx="803.6" cy="568.4" rx="123.5" ry="123.4"/>
			</g>
		</mask>
		
			<radialGradient id="SVGID_12_" cx="805.6348" cy="567.7983" r="121.7558" gradientTransform="matrix(1.0217 0 0 1.0058 -19.4872 -2.7039)" gradientUnits="userSpaceOnUse">
			<stop offset="0" style="stop-color:#2E2D2F"/>
			<stop offset="0.5644" style="stop-color:#323133"/>
			<stop offset="0.8009" style="stop-color:#3F3F40"/>
			<stop offset="0.8011" style="stop-color:#3F3F41"/>
			<stop offset="0.8843" style="stop-color:#39393A"/>
			<stop offset="0.9574" style="stop-color:#222223"/>
			<stop offset="1" style="stop-color:#000000"/>
		</radialGradient>
		<ellipse class="st37" cx="803.6" cy="568.4" rx="123.5" ry="123.4"/>
		<path class="st4" d="M735.4,573.2c0,103.2-83.7,186.9-186.9,186.9c-103.2,0-186.9-83.7-186.9-186.9    c0-103.2,83.7-186.9,186.9-186.9C651.8,386.3,735.4,470,735.4,573.2z"/>
		<defs>
			<filter id="Adobe_OpacityMaskFilter_8_" filterUnits="userSpaceOnUse" x="373.3" y="397.9" width="350.6" height="350.6">
				<feFlood style="flood-color:white;flood-opacity:1" result="back"/>
				<feBlend in="SourceGraphic" in2="back" mode="normal"/>
			</filter>
		</defs>
		<mask maskUnits="userSpaceOnUse" x="373.3" y="397.9" width="350.6" height="350.6" id="SVGID_13_">
			<g class="st38">
				<defs>
					<filter id="Adobe_OpacityMaskFilter_9_" filterUnits="userSpaceOnUse" x="373.3" y="397.9" width="350.6" height="350.6">
						<feFlood style="flood-color:white;flood-opacity:1" result="back"/>
						<feBlend in="SourceGraphic" in2="back" mode="normal"/>
					</filter>
				</defs>
				<mask maskUnits="userSpaceOnUse" x="373.3" y="397.9" width="350.6" height="350.6" id="SVGID_13_">
					<g class="st39">
					</g>
				</mask>
				<radialGradient id="SVGID_14_" cx="548.5754" cy="573.1772" r="175.3224" gradientUnits="userSpaceOnUse">
					<stop offset="0" style="stop-color:#0F0F0F"/>
					<stop offset="0.5612" style="stop-color:#111111"/>
					<stop offset="0.7965" style="stop-color:#181818"/>
					<stop offset="0.8011" style="stop-color:#191919"/>
					<stop offset="0.8316" style="stop-color:#1C1C1C"/>
					<stop offset="0.8584" style="stop-color:#272727"/>
					<stop offset="0.8839" style="stop-color:#393939"/>
					<stop offset="0.9085" style="stop-color:#525252"/>
					<stop offset="0.9325" style="stop-color:#737373"/>
					<stop offset="0.956" style="stop-color:#9B9B9B"/>
					<stop offset="0.9788" style="stop-color:#CACACA"/>
					<stop offset="1" style="stop-color:#FCFCFC"/>
				</radialGradient>
				<path class="st40" d="M723.9,573.2c0,96.8-78.5,175.3-175.3,175.3c-96.8,0-175.3-78.5-175.3-175.3      c0-96.8,78.5-175.3,175.3-175.3C645.4,397.9,723.9,476.3,723.9,573.2z"/>
			</g>
		</mask>
		<radialGradient id="SVGID_15_" cx="548.5754" cy="573.1772" r="175.3224" gradientUnits="userSpaceOnUse">
			<stop offset="0" style="stop-color:#2E2D2F"/>
			<stop offset="0.5644" style="stop-color:#323133"/>
			<stop offset="0.8009" style="stop-color:#3F3F40"/>
			<stop offset="0.8011" style="stop-color:#3F3F41"/>
			<stop offset="0.8843" style="stop-color:#39393A"/>
			<stop offset="0.9574" style="stop-color:#222223"/>
			<stop offset="1" style="stop-color:#000000"/>
		</radialGradient>
		<path class="st41" d="M723.9,573.2c0,96.8-78.5,175.3-175.3,175.3c-96.8,0-175.3-78.5-175.3-175.3c0-96.8,78.5-175.3,175.3-175.3    C645.4,397.9,723.9,476.3,723.9,573.2z"/>
		<g>
			<g>
				<path class="st6" d="M462.1,631.8c0,0-0.9-1.5-2.7-4.2c-0.4-0.7-0.9-1.4-1.4-2.3c-0.5-0.9-1-1.8-1.6-2.9c-0.6-1-1.2-2.2-1.8-3.3      c-0.6-1.2-1.1-2.6-1.8-3.9c-1.3-2.7-2.4-6-3.7-9.4c-0.6-1.7-1-3.6-1.6-5.5c-0.3-1-0.6-1.9-0.8-2.9c-0.2-1-0.4-2-0.6-3.1      s-0.4-2.1-0.6-3.2c-0.3-1.1-0.3-2.2-0.5-3.3c-0.1-1.1-0.3-2.3-0.4-3.4c-0.1-0.6-0.1-1.2-0.2-1.7c0-0.6-0.1-1.2-0.1-1.8      c-0.1-1.2-0.1-2.4-0.2-3.6c0-1.2-0.1-2.5-0.1-3.7c0-1.2,0.1-2.5,0.1-3.8c0.1-1.3,0.2-2.6,0.3-3.9c0.4-5.2,1.2-10.6,2.6-16.1      c1.4-5.5,3.2-11.1,5.6-16.6c4.8-11,11.8-21.8,21.1-31.1c9.2-9.3,20.6-17.2,33.4-22.5c12.7-5.3,26.8-8.1,40.8-7.9      c14,0.2,28,3.3,40.6,8.9c12.6,5.6,23.8,13.7,32.8,23.3c9.1,9.5,15.9,20.5,20.4,31.6c2.3,5.6,4,11.2,5.2,16.7      c1.2,5.5,2,10.9,2.2,16.2c0.1,1.3,0.1,2.6,0.1,3.9c0,0.6,0,1.3,0,1.9l0,0.5c0,0.2,0,0.3,0,0.5l0,0.9c-0.1,2.5-0.2,4.9-0.4,7.3      c-0.3,2.4-0.6,4.7-0.9,6.9c-0.3,2.2-0.9,4.4-1.3,6.4c-2,8.3-4.4,15.3-7.2,20.7c-0.7,1.4-1.2,2.7-1.9,3.9      c-0.7,1.2-1.3,2.3-1.9,3.3c-0.6,1-1.1,2-1.6,2.8c-0.6,0.8-1.1,1.6-1.5,2.3c-1.8,2.7-2.8,4.1-2.8,4.1s0.9-1.5,2.7-4.2      c0.4-0.7,0.9-1.4,1.5-2.3c0.5-0.9,1-1.8,1.6-2.9c0.6-1,1.2-2.2,1.8-3.3c0.6-1.2,1.2-2.5,1.8-3.9c2.6-5.5,5-12.5,6.8-20.7      c0.4-2.1,0.9-4.2,1.2-6.4c0.2-2.2,0.5-4.5,0.8-6.8c0.1-2.4,0.2-4.8,0.3-7.3l0-0.9c0-0.1,0-0.3,0-0.4l0-0.5c0-0.6,0-1.3-0.1-1.9      c-0.1-1.3,0-2.6-0.2-3.8c-0.3-5.2-1.1-10.5-2.3-16c-1.2-5.4-3-11-5.3-16.4c-4.6-10.9-11.4-21.6-20.3-31      c-8.9-9.4-19.9-17.3-32.3-22.8c-12.4-5.5-26.1-8.5-39.9-8.6c-13.7-0.2-27.5,2.4-40,7.6c-12.5,5.2-23.8,12.8-32.9,22      c-9.1,9.1-16.2,19.7-21,30.5c-2.4,5.4-4.3,10.9-5.7,16.3c-1.4,5.4-2.2,10.8-2.7,15.9c-0.1,1.3-0.2,2.6-0.3,3.8      c0,1.3-0.1,2.5-0.1,3.8c-0.1,1.3,0,2.4,0.1,3.7c0,1.2,0.1,2.4,0.1,3.6c0,0.6,0,1.2,0.1,1.8c0.1,0.6,0.1,1.2,0.2,1.7      c0.1,1.1,0.2,2.3,0.4,3.4c0.1,1.1,0.2,2.2,0.4,3.3c0.2,1.1,0.4,2.1,0.6,3.2c0.2,1,0.4,2.1,0.6,3.1c0.2,1,0.5,2,0.7,2.9      c0.5,1.9,0.9,3.8,1.5,5.5c1.2,3.4,2.2,6.7,3.5,9.4c0.6,1.4,1.2,2.7,1.7,4c0.6,1.2,1.2,2.3,1.7,3.4c0.5,1,1,2,1.5,2.9      c0.5,0.9,1,1.6,1.4,2.3C461.2,630.3,462.1,631.8,462.1,631.8z"/>
			</g>
			<path class="st42" d="M405,698c-28.8-33-46.2-76.2-46.2-123.4c0-103.8,84.1-187.9,187.9-187.9c103.8,0,187.9,84.1,187.9,187.9     c0,47.6-17.7,91.1-46.9,124.2"/>
			<path class="st43" d="M414.8,693c-28.2-31.4-45.3-72.9-45.3-118.3c0-97.9,79.3-177.2,177.2-177.2c97.9,0,177.2,79.3,177.2,177.2     c0,46.2-17.7,88.3-46.6,119.8"/>
			<path class="st6" d="M547.7,414.1c0,1.3-1,2.3-2.3,2.3l0,0c-1.3,0-2.3-1-2.3-2.3v-17c0-1.3,1-2.3,2.3-2.3l0,0     c1.3,0,2.3,1,2.3,2.3V414.1z"/>
			<path class="st6" d="M563.1,410.5c-0.1,1-0.7,1.7-1.3,1.6l0,0c-0.6-0.1-1.1-0.9-1-1.8l1.3-13c0.1-1,0.7-1.7,1.3-1.6l0,0     c0.6,0.1,1.1,0.9,1,1.8L563.1,410.5z"/>
			<path class="st6" d="M595.5,417.2c-0.3,0.9-1,1.5-1.6,1.3l0,0c-0.6-0.2-0.9-1.1-0.6-2l3.8-12.5c0.3-0.9,1-1.5,1.6-1.3l0,0     c0.6,0.2,0.9,1.1,0.6,2L595.5,417.2z"/>
			<path class="st6" d="M625.4,430c-0.5,0.8-1.3,1.3-1.8,1l0,0c-0.6-0.3-0.6-1.2-0.2-2.1l6.2-11.5c0.5-0.8,1.3-1.3,1.8-1l0,0     c0.6,0.3,0.6,1.2,0.2,2.1L625.4,430z"/>
			<path class="st6" d="M652.3,448.5c-0.6,0.7-1.5,1-2,0.6l0,0c-0.5-0.4-0.4-1.3,0.2-2.1l8.3-10c0.6-0.7,1.5-1,2-0.6l0,0     c0.5,0.4,0.4,1.3-0.2,2.1L652.3,448.5z"/>
			<path class="st6" d="M675,471.9c-0.7,0.6-1.7,0.7-2.1,0.2l0,0c-0.4-0.5-0.1-1.4,0.6-2l10.1-8.2c0.7-0.6,1.7-0.7,2.1-0.2l0,0     c0.4,0.5,0.1,1.4-0.6,2L675,471.9z"/>
			<path class="st6" d="M692.7,499.3c-0.8,0.4-1.8,0.4-2.1-0.2l0,0c-0.3-0.6,0.2-1.4,1-1.8l11.6-6c0.8-0.4,1.8-0.4,2.1,0.2l0,0     c0.3,0.6-0.2,1.4-1,1.8L692.7,499.3z"/>
			<path class="st6" d="M704.6,529.6c-0.9,0.3-1.8,0-2-0.6l0,0c-0.2-0.6,0.4-1.3,1.4-1.6l12.5-3.6c0.9-0.3,1.8,0,2,0.6l0,0     c0.2,0.6-0.4,1.3-1.4,1.6L704.6,529.6z"/>
			<path class="st6" d="M710.4,561.7c-1,0.1-1.8-0.4-1.8-1l0,0c-0.1-0.6,0.7-1.2,1.6-1.3l13-1.1c1-0.1,1.8,0.4,1.8,1l0,0     c0.1,0.6-0.7,1.2-1.6,1.3L710.4,561.7z"/>
			<path class="st6" d="M709.7,594.3c-1-0.1-1.7-0.7-1.6-1.3l0,0c0.1-0.6,0.9-1,1.9-0.9l12.9,1.5c1,0.1,1.7,0.7,1.6,1.3l0,0     c-0.1,0.6-0.9,1-1.9,0.9L709.7,594.3z"/>
			<path class="st6" d="M702.7,626.1c-0.9-0.3-1.5-1-1.3-1.6l0,0c0.2-0.6,1.1-0.8,2-0.5l12.4,4c0.9,0.3,1.5,1,1.3,1.6l0,0     c-0.2,0.6-1.1,0.8-2,0.6L702.7,626.1z"/>
			<path class="st6" d="M689.5,655.9c-0.8-0.5-1.3-1.3-1-1.8l0,0c0.3-0.5,1.2-0.6,2.1-0.1l11.4,6.3c0.8,0.5,1.3,1.3,1,1.8l0,0     c-0.3,0.6-1.2,0.6-2.1,0.1L689.5,655.9z"/>
			<path class="st6" d="M400.9,653.7c0.8-0.5,1.8-0.4,2.1,0.1l0,0c0.3,0.6-0.1,1.4-1,1.8l-11.4,6.3c-0.8,0.5-1.8,0.4-2.1-0.2l0,0     c-0.3-0.5,0.1-1.4,1-1.8L400.9,653.7z"/>
			<path class="st6" d="M388.1,623.3c0.9-0.3,1.8,0,2,0.6l0,0c0.2,0.6-0.4,1.3-1.3,1.6l-12.4,3.9c-0.9,0.3-1.8,0-2-0.6l0,0     c-0.2-0.6,0.4-1.3,1.3-1.6L388.1,623.3z"/>
			<path class="st6" d="M381.6,591.1c1-0.1,1.8,0.3,1.8,0.9l0,0c0.1,0.6-0.7,1.2-1.6,1.3l-13,1.4c-1,0.1-1.8-0.3-1.8-0.9l0,0     c-0.1-0.6,0.6-1.2,1.6-1.3L381.6,591.1z"/>
			<path class="st6" d="M381.6,558.1c1,0.1,1.7,0.7,1.6,1.3l0,0c-0.1,0.6-0.9,1.1-1.8,1l-13-1.2c-1-0.1-1.7-0.7-1.6-1.3l0,0     c0.1-0.6,0.9-1.1,1.8-1L381.6,558.1z"/>
			<path class="st6" d="M388.1,525.9c0.9,0.3,1.5,1,1.3,1.6l0,0c-0.2,0.6-1.1,0.9-2,0.6l-12.5-3.8c-0.9-0.3-1.5-1-1.3-1.6l0,0     c0.2-0.6,1.1-0.9,2-0.6L388.1,525.9z"/>
			<path class="st6" d="M400.9,495.5c0.8,0.4,1.3,1.3,1,1.8l0,0c-0.3,0.6-1.2,0.6-2.1,0.2l-11.5-6.2c-0.8-0.5-1.3-1.3-1-1.8l0,0     c0.3-0.6,1.2-0.6,2.1-0.2L400.9,495.5z"/>
			<path class="st6" d="M418.3,469.8c0.7,0.6,1,1.5,0.6,2l0,0c-0.4,0.5-1.3,0.4-2.1-0.2l-10.1-8.2c-0.7-0.6-1-1.5-0.6-2l0,0     c0.4-0.5,1.3-0.4,2.1,0.2L418.3,469.8z"/>
			<path class="st6" d="M440.2,447.8c0.6,0.7,0.7,1.7,0.3,2.1l0,0c-0.5,0.4-1.4,0.1-2-0.6l-8.4-10c-0.6-0.7-0.7-1.7-0.3-2.1l0,0     c0.5-0.4,1.4-0.1,2,0.6L440.2,447.8z"/>
			<path class="st6" d="M468.3,428.9c0.5,0.8,0.4,1.8-0.2,2.1l0,0c-0.6,0.3-1.4-0.1-1.8-1l-6.2-11.5c-0.5-0.8-0.4-1.8,0.2-2.1l0,0     c0.6-0.3,1.4,0.1,1.8,1L468.3,428.9z"/>
			<path class="st6" d="M498.5,416.5c0.3,0.9,0,1.8-0.6,2l0,0c-0.6,0.2-1.3-0.4-1.6-1.3l-3.8-12.5c-0.3-0.9,0-1.8,0.6-2l0,0     c0.6-0.2,1.3,0.4,1.6,1.3L498.5,416.5z"/>
			<path class="st6" d="M531.4,410.2c0.1,1-0.3,1.8-1,1.8l0,0c-0.6,0.1-1.2-0.7-1.3-1.6l-1.2-13c-0.1-1,0.3-1.8,1-1.8l0,0     c0.6-0.1,1.2,0.7,1.3,1.6L531.4,410.2z"/>
			<path class="st6" d="M518.5,423.8c0.4,1.7-0.5,3.3-1.9,3.6l0,0c-1.4,0.3-2.9-0.9-3.2-2.6l-4.6-23.3c-0.3-1.7,0.5-3.3,1.9-3.6l0,0     c1.4-0.3,2.8,0.9,3.2,2.6L518.5,423.8z"/>
			<path class="st6" d="M578.3,424.8c-0.3,1.7-1.8,2.9-3.2,2.6l0,0c-1.4-0.3-2.3-1.9-1.9-3.6l4.6-23.3c0.3-1.7,1.8-2.9,3.2-2.6l0,0     c1.4,0.3,2.3,1.9,2,3.6L578.3,424.8z"/>
			<path class="st6" d="M634,449.2c-1,1.5-2.7,2-3.9,1.2l0,0c-1.2-0.8-1.4-2.7-0.4-4.1l13.3-19.7c1-1.5,2.8-2,3.9-1.2l0,0     c1.2,0.8,1.4,2.6,0.4,4.1L634,449.2z"/>
			<path class="st6" d="M675.3,492.6c-1.5,1-3.3,0.8-4.1-0.4l0,0c-0.8-1.2-0.3-3,1.2-3.9l19.9-13.1c1.5-1,3.3-0.8,4.1,0.4l0,0     c0.8,1.2,0.3,3-1.2,3.9L675.3,492.6z"/>
			<path class="st6" d="M696.9,548.4c-1.7,0.3-3.3-0.6-3.6-2l0,0c-0.3-1.4,0.9-2.8,2.6-3.2l23.3-4.5c1.7-0.3,3.3,0.6,3.6,2l0,0     c0.3,1.4-0.9,2.8-2.6,3.2L696.9,548.4z"/>
			<path class="st6" d="M695.3,608.6c-1.7-0.3-2.9-1.8-2.6-3.2l0,0c0.3-1.4,1.9-2.3,3.6-1.9l23.3,4.9c1.7,0.4,2.9,1.8,2.6,3.2l0,0     c-0.3,1.4-1.9,2.3-3.6,1.9L695.3,608.6z"/>
			<path class="st6" d="M671.3,662.7c-1.5-1-2-2.7-1.2-3.9l0,0c0.8-1.2,2.6-1.4,4.1-0.4l19.7,13.3c1.5,1,2,2.8,1.2,3.9l0,0     c-0.8,1.2-2.6,1.4-4.1,0.4L671.3,662.7z"/>
			<path class="st6" d="M402,671.1c1.4-1,3.3-0.8,4.1,0.3l0,0c0.8,1.2,0.3,3-1.1,4l-3.2,2.2c-1.4,1-3.3,0.8-4.1-0.3l0,0     c-0.8-1.2-0.3-3,1.1-4L402,671.1z"/>
			<path class="st6" d="M462.3,628.3c1.4-1,3.3-0.8,4.1,0.3l0,0c0.8,1.2,0.3,3-1.1,4L410.9,671c-1.4,1-3.3,0.8-4.1-0.3l0,0     c-0.8-1.2-0.3-3,1.1-4L462.3,628.3z"/>
			<path class="st6" d="M395.2,603.3c1.7-0.4,3.3,0.5,3.6,1.9l0,0c0.3,1.4-0.9,2.9-2.6,3.2l-23.3,4.8c-1.7,0.4-3.3-0.5-3.6-1.9l0,0     c-0.3-1.4,0.9-2.9,2.6-3.2L395.2,603.3z"/>
			<path class="st6" d="M395.6,544c1.7,0.3,2.9,1.7,2.6,3.1l0,0c-0.3,1.4-1.9,2.3-3.6,2l-23.4-4.3c-1.7-0.3-2.9-1.7-2.6-3.1l0,0     c0.3-1.4,1.9-2.3,3.6-2L395.6,544z"/>
			<path class="st6" d="M419.2,488.1c1.5,1,2,2.7,1.2,3.9l0,0c-0.8,1.2-2.6,1.4-4.1,0.4l-19.8-13.1c-1.5-1-2-2.7-1.2-3.9l0,0     c0.8-1.2,2.6-1.4,4.1-0.4L419.2,488.1z"/>
			<path class="st6" d="M461.8,446.4c1,1.4,0.8,3.3-0.4,4.1l0,0c-1.2,0.8-3,0.3-3.9-1.2l-13.4-19.7c-1-1.4-0.8-3.3,0.4-4.1l0,0     c1.2-0.8,3-0.3,4,1.1L461.8,446.4z"/>
			<path class="st6" d="M609,427.2c-0.5,1.2-1.8,1.7-3,1.2l0,0c-1.2-0.5-1.7-1.8-1.2-3l6.5-15.8c0.5-1.2,1.8-1.7,3-1.2l0,0     c1.2,0.5,1.7,1.8,1.2,3L609,427.2z"/>
			<path class="st6" d="M661.7,464c-0.9,0.9-2.3,0.9-3.2,0l0,0c-0.9-0.9-0.9-2.3,0-3.2l12.2-11.9c0.9-0.9,2.3-0.9,3.2,0l0,0     c0.9,0.9,0.9,2.3,0,3.2L661.7,464z"/>
			<path class="st6" d="M695.4,517.2c-1.2,0.5-2.5-0.1-3-1.3l0,0c-0.5-1.2,0.1-2.5,1.3-3l15.8-6.3c1.2-0.5,2.5,0.1,3,1.3l0,0     c0.5,1.2-0.1,2.5-1.3,3L695.4,517.2z"/>
			<path class="st6" d="M705.9,578.6c-1.3,0-2.3-1-2.2-2.3l0,0c0-1.3,1-2.3,2.3-2.2l17,0.2c1.3,0,2.3,1,2.2,2.3l0,0     c0,1.3-1,2.3-2.3,2.2L705.9,578.6z"/>
			<path class="st6" d="M691.4,641.6c-1.1-0.5-1.7-1.8-1.2-3l0,0c0.5-1.1,1.8-1.7,3-1.2l15.6,6.9c1.1,0.5,1.7,1.8,1.2,3l0,0     c-0.5,1.1-1.8,1.7-3,1.2L691.4,641.6z"/>
			<path class="st6" d="M397.1,636c1.2-0.5,2.5,0,3,1.2l0,0c0.5,1.2,0,2.5-1.2,3l-15.7,6.7c-1.2,0.5-2.5,0-3-1.2l0,0     c-0.5-1.2,0-2.5,1.2-3L397.1,636z"/>
			<path class="st6" d="M384.9,573.9c1.3,0,2.3,1,2.3,2.2l0,0c0,1.3-1,2.3-2.3,2.3l-17,0.2c-1.3,0-2.3-1-2.3-2.3l0,0     c0-1.3,1-2.3,2.2-2.3L384.9,573.9z"/>
			<path class="st6" d="M397.3,512.8c1.2,0.5,1.7,1.8,1.3,3l0,0c-0.5,1.2-1.8,1.7-3,1.3l-15.8-6.3c-1.2-0.5-1.7-1.8-1.3-3l0,0     c0.5-1.2,1.8-1.7,3-1.3L397.3,512.8z"/>
			<path class="st6" d="M432.8,460.3c0.9,0.9,0.9,2.3,0,3.2l0,0c-0.9,0.9-2.3,0.9-3.2,0l-12.1-12c-0.9-0.9-0.9-2.3,0-3.2l0,0     c0.9-0.9,2.3-0.9,3.2,0L432.8,460.3z"/>
			<path class="st6" d="M486.2,425.4c0.5,1.2-0.1,2.5-1.2,3l0,0c-1.2,0.5-2.5-0.1-3-1.2l-6.5-15.8c-0.5-1.2,0.1-2.5,1.2-3l0,0     c1.2-0.5,2.5,0.1,3,1.2L486.2,425.4z"/>
			<text transform="matrix(1 0 0 1 495.5396 447.6738)" class="st6 st44 st45 st46">100</text>
			<text transform="matrix(1 0 0 1 550.0688 447.6738)" class="st6 st44 st45 st46">120</text>
			<text transform="matrix(1 0 0 1 594.4053 472.4081)" class="st6 st44 st45 st46">140</text>
			<text transform="matrix(1 0 0 1 634.1562 509.6093)" class="st6 st44 st45 st46">150</text>
			<text transform="matrix(1 0 0 1 806.0098 572.04)" class="st6 st44 st47 st26">20</text>
			<text transform="matrix(1 0 0 1 893.6064 532.0478)" class="st6 st44 st48 st26">1</text>
			<text transform="matrix(1 0 0 1 902.4424 573.9482)" class="st6 st44 st49">1/2</text>
			<text transform="matrix(1 0 0 1 891.8193 619.5703)" class="st6 st44 st50 st26">0</text>
			<text transform="matrix(1 0 0 1 805.1562 607.8525)" class="st6 st44 st47 st51">0.0</text>
			<text transform="matrix(1 0 0 1 817.1807 589.5585)" class="st6 st44 st47 st26">8</text>
			<text transform="matrix(1 0 0 1 832.8799 570.6308)" class="st6 st44 st52 st26">c</text>
			<text transform="matrix(1 0 0 1 830.3213 588.9081)" class="st6 st44 st53">km</text>
			<text transform="matrix(1 0 0 1 831.5371 565.499)" class="st6 st44 st54">o</text>
			<text transform="matrix(1 0 0 1 655.5986 558.2988)" class="st6 st44 st45 st46">180</text>
			<text transform="matrix(1 0 0 1 655.5986 613.332)" class="st6 st44 st45 st46">200</text>
			<text transform="matrix(1 0 0 1 632.4111 662.5576)" class="st6 st44 st45 st46">220</text>
			<text transform="matrix(1 0 0 1 421.1738 661.0283)" class="st6 st44 st45 st46">0</text>
			<text transform="matrix(1 0 0 1 398.7158 613.332)" class="st6 st44 st45 st46">20</text>
			<text transform="matrix(1 0 0 1 395.7324 558.663)" class="st6 st44 st45 st46">40</text>
			<text transform="matrix(1 0 0 1 414.334 509.6093)" class="st6 st44 st45 st46">60</text>
			<text transform="matrix(1 0 0 1 451.2812 472.082)" class="st6 st44 st45 st46">80</text>
			<text transform="matrix(1 0 0 1 517.3271 543.6211)" class="st6 st44 st45 st46">12:49</text>
			<text transform="matrix(1 0 0 1 621.9629 683.0693)" class="st6 st44 st55 st26">km/h</text>
			<path class="st56" d="M594.4,606.1c0,0.4-0.3,0.8-0.8,0.8h-96c-0.4,0-0.8-0.3-0.8-0.8l0,0c0-0.4,0.3-0.8,0.8-0.8h96     C594.1,605.3,594.4,605.7,594.4,606.1L594.4,606.1z"/>
			<path class="st6" d="M354.2,671.8c-0.7-1-0.6-2.4,0.2-3l0,0c0.9-0.6,2.1-0.2,2.9,0.8l1.6,2.3c0.7,1,0.6,2.4-0.2,3l0,0     c-0.9,0.6-2.1,0.2-2.9-0.8L354.2,671.8z"/>
			<g>
				<g>
					<path class="st6" d="M290.7,701.1c-75.4,0-136.8-61.4-136.8-136.8c0-75.4,61.4-136.8,136.8-136.8c33.3,0,65.4,12.1,90.4,34.1       l-1.2,1.4c-24.6-21.7-56.3-33.7-89.2-33.7c-74.4,0-134.9,60.5-134.9,134.9c0,74.4,60.5,135,134.9,135       c32.6,0,64.1-11.8,88.6-33.2l1.2,1.4C355.6,689.1,323.7,701.1,290.7,701.1z"/>
				</g>
				<g>
					<path class="st6" d="M290.7,694.8c-71.9,0-130.5-58.5-130.5-130.5c0-71.9,58.5-130.5,130.5-130.5c32.8,0,64.1,12.2,88.2,34.3       l-3.1,3.4c-23.3-21.3-53.5-33.1-85.1-33.1c-69.4,0-125.8,56.4-125.8,125.8c0,69.4,56.4,125.8,125.8,125.8       c31.1,0,60.9-11.4,84-32.2l3.1,3.5C353.8,682.9,322.9,694.8,290.7,694.8z"/>
				</g>
				<path class="st6" d="M174.6,563.6c0.9,0,1.6,0.7,1.6,1.6l0,0c0,0.9-0.7,1.6-1.6,1.6h-12.3c-0.9,0-1.6-0.7-1.6-1.6l0,0      c0-0.9,0.7-1.6,1.6-1.6H174.6z"/>
				<path class="st6" d="M171.9,552.4c0.7,0.1,1.2,0.5,1.2,0.9l0,0c0,0.5-0.6,0.8-1.3,0.7l-9.4-0.9c-0.7-0.1-1.2-0.5-1.2-0.9l0,0      c0-0.5,0.6-0.8,1.3-0.7L171.9,552.4z"/>
				<path class="st6" d="M176.8,529c0.7,0.2,1.1,0.7,1,1.2l0,0c-0.1,0.4-0.8,0.6-1.4,0.4l-9-2.8c-0.7-0.2-1.1-0.7-1-1.2l0,0      c0.1-0.4,0.8-0.6,1.4-0.4L176.8,529z"/>
				<path class="st6" d="M186.1,507.4c0.6,0.3,0.9,0.9,0.7,1.3l0,0c-0.2,0.4-0.9,0.5-1.5,0.1l-8.3-4.5c-0.6-0.3-0.9-0.9-0.7-1.3l0,0      c0.2-0.4,0.9-0.5,1.5-0.1L186.1,507.4z"/>
				<path class="st6" d="M199.5,487.9c0.5,0.4,0.7,1.1,0.4,1.4l0,0c-0.3,0.3-1,0.3-1.5-0.2l-7.2-6c-0.5-0.4-0.7-1.1-0.4-1.4l0,0      c0.3-0.3,1-0.3,1.5,0.2L199.5,487.9z"/>
				<path class="st6" d="M216.4,471.5c0.4,0.5,0.5,1.2,0.1,1.5l0,0c-0.4,0.3-1,0.1-1.4-0.5l-5.9-7.3c-0.4-0.5-0.5-1.2-0.1-1.5l0,0      c0.4-0.3,1-0.1,1.4,0.5L216.4,471.5z"/>
				<path class="st6" d="M236.2,458.7c0.3,0.6,0.3,1.3-0.1,1.5l0,0c-0.4,0.2-1-0.1-1.3-0.7l-4.4-8.4c-0.3-0.6-0.3-1.3,0.1-1.5l0,0      c0.4-0.2,1,0.1,1.3,0.7L236.2,458.7z"/>
				<path class="st6" d="M258.1,450.1c0.2,0.7,0,1.3-0.4,1.4l0,0c-0.4,0.1-0.9-0.3-1.1-1l-2.6-9c-0.2-0.7,0-1.3,0.4-1.4l0,0      c0.4-0.1,0.9,0.3,1.1,1L258.1,450.1z"/>
				<path class="st57" d="M281.3,445.9c0.1,0.7-0.3,1.3-0.7,1.3l0,0c-0.5,0-0.9-0.5-0.9-1.2l-0.8-9.4c-0.1-0.7,0.3-1.3,0.7-1.3l0,0      c0.5,0,0.9,0.5,0.9,1.2L281.3,445.9z"/>
				<path class="st57" d="M304.9,446.4c-0.1,0.7-0.5,1.2-1,1.2l0,0c-0.5,0-0.8-0.7-0.7-1.3l1.1-9.4c0.1-0.7,0.5-1.2,1-1.2l0,0      c0.5,0,0.8,0.7,0.7,1.3L304.9,446.4z"/>
				<path class="st57" d="M327.9,451.5c-0.2,0.7-0.7,1.1-1.2,0.9l0,0c-0.4-0.1-0.6-0.8-0.4-1.4l2.9-9c0.2-0.7,0.7-1.1,1.2-0.9l0,0      c0.4,0.1,0.6,0.8,0.4,1.4L327.9,451.5z"/>
				<path class="st57" d="M349.4,461c-0.3,0.6-0.9,0.9-1.3,0.7l0,0c-0.4-0.2-0.4-0.9-0.1-1.5l4.6-8.2c0.3-0.6,0.9-0.9,1.3-0.7l0,0      c0.4,0.2,0.4,0.9,0.1,1.5L349.4,461z"/>
				<path class="st6" d="M347.8,669.7c-0.3-0.6-0.3-1.3,0.1-1.5l0,0c0.4-0.2,1,0.1,1.3,0.7l4.6,8.2c0.3,0.6,0.3,1.3-0.1,1.5l0,0      c-0.4,0.2-1-0.1-1.3-0.7L347.8,669.7z"/>
				<path class="st6" d="M325.9,679c-0.2-0.7,0-1.3,0.4-1.4l0,0c0.4-0.1,1,0.3,1.2,1l2.8,9c0.2,0.7,0,1.3-0.4,1.4l0,0      c-0.4,0.1-1-0.3-1.2-0.9L325.9,679z"/>
				<path class="st6" d="M302.5,683.7c-0.1-0.7,0.2-1.3,0.7-1.3l0,0c0.5,0,0.9,0.5,1,1.2l1,9.4c0.1,0.7-0.2,1.3-0.7,1.3l0,0      c-0.5,0.1-0.9-0.5-1-1.2L302.5,683.7z"/>
				<path class="st6" d="M278.7,683.7c0.1-0.7,0.5-1.2,0.9-1.2l0,0c0.5,0,0.8,0.6,0.7,1.3l-0.9,9.4c-0.1,0.7-0.5,1.2-0.9,1.2l0,0      c-0.5,0-0.8-0.6-0.7-1.3L278.7,683.7z"/>
				<path class="st6" d="M255.4,679c0.2-0.7,0.7-1.1,1.1-1l0,0c0.4,0.1,0.6,0.8,0.4,1.4l-2.7,9c-0.2,0.7-0.7,1.1-1.1,1l0,0      c-0.4-0.1-0.6-0.8-0.4-1.4L255.4,679z"/>
				<path class="st6" d="M233.5,669.7c0.3-0.6,0.9-0.9,1.3-0.7l0,0c0.4,0.2,0.5,0.9,0.1,1.5l-4.5,8.3c-0.3,0.6-0.9,0.9-1.3,0.7l0,0      c-0.4-0.2-0.5-0.9-0.1-1.5L233.5,669.7z"/>
				<path class="st6" d="M214.9,657.2c0.4-0.5,1.1-0.7,1.4-0.5l0,0c0.4,0.3,0.3,1-0.2,1.5l-5.9,7.3c-0.4,0.5-1.1,0.7-1.4,0.5l0,0      c-0.4-0.3-0.3-1,0.2-1.5L214.9,657.2z"/>
				<path class="st6" d="M198.9,641.3c0.5-0.5,1.2-0.5,1.5-0.2l0,0c0.3,0.3,0.1,1-0.4,1.4l-7.2,6.1c-0.5,0.4-1.2,0.5-1.5,0.2l0,0      c-0.3-0.3-0.1-1,0.4-1.4L198.9,641.3z"/>
				<path class="st6" d="M185.3,621c0.6-0.3,1.3-0.3,1.5,0.1l0,0c0.2,0.4-0.1,1-0.7,1.3l-8.3,4.5c-0.6,0.3-1.3,0.3-1.5-0.1l0,0      c-0.2-0.4,0.1-1,0.7-1.3L185.3,621z"/>
				<path class="st6" d="M176.3,599.1c0.7-0.2,1.3,0,1.4,0.4l0,0c0.1,0.4-0.3,1-1,1.2l-9,2.8c-0.7,0.2-1.3,0-1.4-0.4l0,0      c-0.1-0.4,0.3-1,1-1.2L176.3,599.1z"/>
				<path class="st6" d="M171.7,575.4c0.7-0.1,1.3,0.2,1.3,0.7l0,0c0,0.5-0.5,0.9-1.2,0.9l-9.4,0.9c-0.7,0.1-1.3-0.2-1.3-0.7l0,0      c0-0.5,0.5-0.9,1.2-0.9L171.7,575.4z"/>
				<path class="st6" d="M181.6,584.7c1.2-0.3,2.4,0.4,2.6,1.4l0,0c0.2,1-0.6,2.1-1.9,2.3l-16.9,3.3c-1.2,0.2-2.4-0.4-2.6-1.4l0,0      c-0.2-1,0.6-2.1,1.9-2.3L181.6,584.7z"/>
				<path class="st6" d="M182.3,541.4c1.2,0.2,2.1,1.3,1.9,2.3l0,0c-0.2,1-1.4,1.7-2.6,1.4l-16.9-3.4c-1.2-0.2-2.1-1.3-1.9-2.3l0,0      c0.2-1,1.4-1.7,2.6-1.4L182.3,541.4z"/>
				<path class="st6" d="M200,501.2c1.1,0.7,1.4,2,0.8,2.8l0,0c-0.6,0.9-1.9,1-3,0.3l-14.2-9.6c-1-0.7-1.4-2-0.8-2.9l0,0      c0.6-0.9,1.9-1,3-0.3L200,501.2z"/>
				<path class="st6" d="M231.3,471.3c0.7,1.1,0.6,2.4-0.3,3l0,0c-0.9,0.6-2.2,0.2-2.8-0.9l-9.4-14.4c-0.7-1.1-0.6-2.4,0.3-3l0,0      c0.9-0.6,2.1-0.2,2.8,0.9L231.3,471.3z"/>
				<path class="st57" d="M271.7,455.7c0.2,1.2-0.4,2.4-1.4,2.6l0,0c-1,0.2-2.1-0.7-2.3-1.9l-3.2-16.9c-0.2-1.2,0.4-2.4,1.4-2.6l0,0      c1-0.2,2.1,0.6,2.3,1.9L271.7,455.7z"/>
				<path class="st57" d="M315.2,456.8c-0.2,1.2-1.3,2.1-2.3,1.9l0,0c-1-0.2-1.6-1.4-1.4-2.6l3.5-16.8c0.3-1.2,1.3-2.1,2.3-1.9l0,0      c1,0.2,1.6,1.4,1.4,2.6L315.2,456.8z"/>
				<path class="st57" d="M354.4,474.2c-0.7,1.1-2,1.4-2.8,0.8l0,0c-0.9-0.6-1-1.9-0.3-3l9.6-14.2c0.7-1,2-1.4,2.9-0.8l0,0      c0.9,0.6,1,1.9,0.3,3L354.4,474.2z"/>
				<path class="st6" d="M311.4,673.9c-0.3-1.2,0.4-2.4,1.4-2.6l0,0c1-0.2,2.1,0.6,2.3,1.9l3.5,16.8c0.3,1.2-0.4,2.4-1.4,2.6l0,0      c-1,0.2-2.1-0.6-2.3-1.9L311.4,673.9z"/>
				<path class="st6" d="M268.5,673.6c0.2-1.2,1.2-2.1,2.3-1.9l0,0c1,0.2,1.7,1.4,1.4,2.6l-3.1,16.9c-0.2,1.2-1.3,2.1-2.3,1.9l0,0      c-1-0.2-1.7-1.4-1.4-2.6L268.5,673.6z"/>
				<path class="st6" d="M228.1,656.5c0.7-1.1,2-1.4,2.8-0.9l0,0c0.9,0.6,1,1.9,0.3,3l-9.5,14.4c-0.7,1.1-2,1.4-2.8,0.9l0,0      c-0.9-0.6-1-1.9-0.3-3L228.1,656.5z"/>
				<path class="st6" d="M197.9,625.7c1-0.7,2.4-0.6,3,0.3l0,0c0.6,0.9,0.2,2.1-0.8,2.9l-14.2,9.7c-1,0.7-2.4,0.6-3-0.3l0,0      c-0.6-0.9-0.2-2.1,0.8-2.9L197.9,625.7z"/>
				<path class="st6" d="M184.1,519.3c0.8,0.3,1.2,1.3,0.9,2.1l0,0c-0.3,0.8-1.3,1.2-2.1,0.9l-11.4-4.7c-0.8-0.3-1.2-1.3-0.9-2.1      l0,0c0.3-0.8,1.3-1.2,2.1-0.9L184.1,519.3z"/>
				<path class="st6" d="M210.6,481.1c0.6,0.6,0.6,1.7,0,2.3l0,0c-0.6,0.6-1.7,0.6-2.3,0l-8.6-8.8c-0.6-0.6-0.6-1.7,0-2.3l0,0      c0.6-0.6,1.7-0.6,2.3,0L210.6,481.1z"/>
				<path class="st6" d="M249.2,456.8c0.3,0.8-0.1,1.8-0.9,2.1l0,0c-0.8,0.3-1.8-0.1-2.1-0.9l-4.6-11.5c-0.3-0.8,0.1-1.8,0.9-2.1      l0,0c0.8-0.3,1.8,0.1,2.1,0.9L249.2,456.8z"/>
				<path class="st57" d="M293.5,449.2c0,0.9-0.8,1.6-1.7,1.6l0,0c-0.9,0-1.6-0.8-1.6-1.7l0.1-12.3c0-0.9,0.8-1.6,1.7-1.6l0,0      c0.9,0,1.6,0.8,1.6,1.7L293.5,449.2z"/>
				<path class="st57" d="M339.1,459.7c-0.4,0.8-1.3,1.2-2.2,0.8l0,0c-0.8-0.4-1.2-1.3-0.8-2.2l5-11.3c0.4-0.8,1.3-1.2,2.2-0.8l0,0      c0.8,0.4,1.2,1.3,0.8,2.2L339.1,459.7z"/>
				<path class="st6" d="M335,672.5c-0.4-0.8,0-1.8,0.9-2.2l0,0c0.8-0.4,1.8,0,2.2,0.9l4.9,11.3c0.4,0.8,0,1.8-0.9,2.2l0,0      c-0.8,0.4-1.8,0-2.2-0.9L335,672.5z"/>
				<path class="st6" d="M290.1,681.3c0-0.9,0.7-1.6,1.6-1.7l0,0c0.9,0,1.7,0.7,1.7,1.6l0.1,12.3c0,0.9-0.7,1.6-1.6,1.7l0,0      c-0.9,0-1.7-0.7-1.7-1.6L290.1,681.3z"/>
				<path class="st6" d="M246,672.3c0.3-0.8,1.3-1.3,2.1-0.9l0,0c0.8,0.3,1.3,1.3,0.9,2.1l-4.6,11.4c-0.3,0.8-1.3,1.3-2.1,0.9l0,0      c-0.8-0.3-1.3-1.3-0.9-2.1L246,672.3z"/>
				<path class="st6" d="M208,646.7c0.6-0.6,1.7-0.7,2.3,0l0,0c0.6,0.6,0.7,1.7,0,2.3l-8.7,8.8c-0.6,0.6-1.7,0.7-2.3,0l0,0      c-0.6-0.6-0.7-1.7,0-2.3L208,646.7z"/>
				<path class="st6" d="M182.8,608c0.8-0.3,1.8,0.1,2.1,0.9l0,0c0.3,0.8-0.1,1.8-0.9,2.1l-11.4,4.7c-0.8,0.3-1.8,0-2.1-0.9l0,0      c-0.3-0.8,0-1.8,0.9-2.1L182.8,608z"/>
				<text transform="matrix(0.9984 5.592000e-02 -5.592000e-02 0.9984 339.0113 496.0623)" class="st6 st44 st58 st26">8</text>
				<text transform="matrix(0.9984 5.592000e-02 -5.592000e-02 0.9984 304.6327 477.874)" class="st6 st44 st58 st26">7</text>
				<text transform="matrix(0.9984 5.592000e-02 -5.592000e-02 0.9984 264.7734 481.5385)" class="st6 st44 st58 st26">6</text>
				<text transform="matrix(0.9984 5.592000e-02 -5.592000e-02 0.9984 231.1201 492.4521)" class="st6 st44 st58 st26">5</text>
				<text transform="matrix(0.9984 5.592000e-02 -5.592000e-02 0.9984 201.2168 518.4531)" class="st6 st44 st58 st26">4</text>
				<text transform="matrix(0.9984 5.592000e-02 -5.592000e-02 0.9984 184.2661 554.1193)" class="st6 st44 st58 st26">3</text>
				<text transform="matrix(0.9984 5.592000e-02 -5.592000e-02 0.9984 187.415 591.9221)" class="st6 st44 st58 st26">2</text>
				<text transform="matrix(0.9984 5.592000e-02 -5.592000e-02 0.9984 205.2112 624.8287)" class="st6 st44 st58 st26">1</text>
				<text transform="matrix(0.9984 5.592000e-02 -5.592000e-02 0.9984 230.2053 652.2661)" class="st6 st44 st58 st26">0</text>
				<path class="st6" d="M234.1,657.3c-0.6,1-0.6,2.4-1.8,1.7l0,0c-1.2-0.7-0.2-1.5,0.4-2.5l55.2-99.4c0.6-1,2.1-1.3,3.3-0.6l0,0      c1.2,0.7,1.7,2.1,1.1,3.1L234.1,657.3z"/>
			</g>
			<g>
				<path class="st6" d="M804.5,701.1c73.5,0,133.4-59.8,133.4-133.4S878,434.3,804.5,434.3c-32.5,0-63.8,11.8-88.1,33.3l1.2,1.4      c24-21.2,54.9-32.8,87-32.8c72.5,0,131.6,59,131.6,131.6s-59,131.6-131.6,131.6c-31.8,0-62.5-11.5-86.4-32.3l-1.2,1.4      C741.1,689.4,772.2,701.1,804.5,701.1z"/>
			</g>
			<g>
				<path class="st6" d="M804.5,694.9c70.1,0,127.2-57.1,127.2-127.2s-57.1-127.2-127.2-127.2c-31.9,0-62.5,11.9-86,33.5l3.1,3.3      c22.7-20.8,52.1-32.3,82.9-32.3c67.6,0,122.7,55,122.7,122.7c0,67.6-55,122.7-122.7,122.7c-30.3,0-59.4-11.1-81.9-31.4l-3,3.4      C742.9,683.4,773,694.9,804.5,694.9z"/>
			</g>
			<path class="st56" d="M746.8,525.2v88.4h124.3c0,0,32.9-30.2,5.6-88.4H746.8z"/>
			<rect x="831.5" y="594.3" class="st6" width="9.2" height="7.2"/>
			<text transform="matrix(1 0 0 1 834.498 599.3505)" class="st59 st60">A</text>
			<polygon class="st6" points="853.7,573.2 853.7,566 848.3,569.6    "/>
			<path class="st6" d="M867.1,562c0,0-1-0.1-1,0.7c-0.1,0.8,2.8,3.7,2.8,3.7v7.8c0,0-1.3,0.3-1.3-0.5c0-0.9,0-5.2,0-5.2     s0-0.9-2.2-1.2v-4.1c0,0,0.2-0.9-0.9-0.9c-1,0-6.2,0-6.2,0s-0.8,0.5-0.8,1.2s0,12.3,0,12.3h-1.1v2h9.9v-1.8h-0.9v-7.1h0.9v5.3     c0,0,0.2,2.2,2.2,2.2c2,0,2-2.1,2-3.4c0-1.3,0-5.9,0-5.9h1.1L867.1,562z M864.2,565.8c0,1-0.8,1.9-1.9,1.9h-2.1     c-1,0-1.9-0.8-1.9-1.9v-0.4c0-1,0.8-1.9,1.9-1.9h2.1c1,0,1.9,0.8,1.9,1.9V565.8z"/>
			<polygon class="st6" points="804.7,552.4 818.2,552.4 816.8,549.4 806.7,549.4    "/>
			<polygon class="st6" points="806.9,549 816.5,549 815.5,546.1 808.4,546.1    "/>
			<path class="st6" d="M815.7,537.1c0-2.3-1.9-4.2-4.2-4.2c-2.3,0-4.2,1.9-4.2,4.2c0,1.8,1.2,3.4,2.8,3.9v4.2c0,0,2.6,0,2.8,0     c0.2,0,0.1-3,0-4.2C814.5,540.5,815.7,538.9,815.7,537.1z"/>
			<g>
				<path class="st6" d="M892.3,601.1l-1.6-0.9c0.2-0.3,16.7-30.4-2.7-72.3l1.7-0.8C909.5,570,892.4,600.8,892.3,601.1z"/>
			</g>
			<polygon class="st6" points="891.1,532 885.2,532 882.7,527.1 889.7,527.1    "/>
			<path class="st6" d="M896.4,548.5c0-0.5-0.4-0.9-0.9-0.9H891c-0.5,0-0.9,0.4-0.9,0.9l0,0c0,0.5,0.4,0.9,0.9,0.9h4.5     C896,549.4,896.4,549,896.4,548.5L896.4,548.5z"/>
			<path class="st6" d="M898.6,570.6c0-0.5-0.4-0.9-0.9-0.9h-4.5c-0.5,0-0.9,0.4-0.9,0.9l0,0c0,0.5,0.4,0.9,0.9,0.9h4.5     C898.2,571.6,898.6,571.2,898.6,570.6L898.6,570.6z"/>
			<path class="st6" d="M895,591.9c0-0.5-0.4-0.9-0.9-0.9h-4.5c-0.5,0-0.9,0.4-0.9,0.9l0,0c0,0.5,0.4,0.9,0.9,0.9h4.5     C894.6,592.8,895,592.4,895,591.9L895,591.9z"/>
			<polygon class="st57" points="885.7,613.9 879.4,613.9 885.9,602.8 892.2,602.8    "/>
		</g>
	</g>
	<g>
		<defs>
			<filter id="Adobe_OpacityMaskFilter_10_" filterUnits="userSpaceOnUse" x="646.2" y="37.4" width="322.7" height="322.7">
				<feFlood style="flood-color:white;flood-opacity:1" result="back"/>
				<feBlend in="SourceGraphic" in2="back" mode="normal"/>
			</filter>
		</defs>
		<mask maskUnits="userSpaceOnUse" x="646.2" y="37.4" width="322.7" height="322.7" id="SVGID_16_">
			<g class="st61">
				<defs>
					<filter id="Adobe_OpacityMaskFilter_11_" filterUnits="userSpaceOnUse" x="646.2" y="37.4" width="322.7" height="322.7">
						<feFlood style="flood-color:white;flood-opacity:1" result="back"/>
						<feBlend in="SourceGraphic" in2="back" mode="normal"/>
					</filter>
				</defs>
				<mask maskUnits="userSpaceOnUse" x="646.2" y="37.4" width="322.7" height="322.7" id="SVGID_16_">
					<g class="st62">
					</g>
				</mask>
				<linearGradient id="SVGID_17_" gradientUnits="userSpaceOnUse" x1="646.1689" y1="198.7644" x2="968.8828" y2="198.7644">
					<stop offset="0" style="stop-color:#FFFFFF"/>
					<stop offset="0.3856" style="stop-color:#FFFFFF"/>
					<stop offset="0.4516" style="stop-color:#FFFFFF"/>
					<stop offset="1" style="stop-color:#FCFCFC"/>
				</linearGradient>
				<circle class="st63" cx="807.5" cy="198.8" r="161.4"/>
			</g>
		</mask>
		<linearGradient id="SVGID_18_" gradientUnits="userSpaceOnUse" x1="646.1689" y1="198.7644" x2="968.8828" y2="198.7644">
			<stop offset="0" style="stop-color:#2E2D2F"/>
			<stop offset="0.1512" style="stop-color:#323133"/>
			<stop offset="0.2147" style="stop-color:#3F3F41"/>
			<stop offset="0.2617" style="stop-color:#4B4B4D"/>
			<stop offset="0.3006" style="stop-color:#5B5C5E"/>
			<stop offset="0.3345" style="stop-color:#6E6F72"/>
			<stop offset="0.3649" style="stop-color:#838587"/>
			<stop offset="0.3928" style="stop-color:#9C9FA1"/>
			<stop offset="0.4186" style="stop-color:#BCBEC0"/>
			<stop offset="0.4418" style="stop-color:#E0E1E2"/>
			<stop offset="0.4516" style="stop-color:#F1F2F2"/>
			<stop offset="0.5335" style="stop-color:#EEEFEF"/>
			<stop offset="0.6055" style="stop-color:#E5E6E7"/>
			<stop offset="0.6738" style="stop-color:#D6D7D9"/>
			<stop offset="0.7398" style="stop-color:#C1C3C5"/>
			<stop offset="0.8042" style="stop-color:#A6A8AB"/>
			<stop offset="0.8674" style="stop-color:#87898C"/>
			<stop offset="0.9296" style="stop-color:#636467"/>
			<stop offset="0.9895" style="stop-color:#222223"/>
			<stop offset="1" style="stop-color:#000000"/>
		</linearGradient>
		<circle class="st64" cx="807.5" cy="198.8" r="161.4"/>
		<g>
			<g>
				<path class="st6" d="M810.6,64.1c0,0.9-0.7,1.6-1.6,1.6l0,0c-0.9,0-1.6-0.7-1.6-1.6v-3.5c0-0.9,0.7-1.6,1.6-1.6l0,0      c0.9,0,1.6,0.7,1.6,1.6V64.1z"/>
			</g>
			<circle class="st4" cx="807.5" cy="198.8" r="125.4"/>
			<defs>
				<filter id="Adobe_OpacityMaskFilter_12_" filterUnits="userSpaceOnUse" x="682.1" y="73.4" width="250.8" height="250.8">
					<feFlood style="flood-color:white;flood-opacity:1" result="back"/>
					<feBlend in="SourceGraphic" in2="back" mode="normal"/>
				</filter>
			</defs>
			<mask maskUnits="userSpaceOnUse" x="682.1" y="73.4" width="250.8" height="250.8" id="SVGID_19_">
				<g class="st65">
					<defs>
						<filter id="Adobe_OpacityMaskFilter_13_" filterUnits="userSpaceOnUse" x="682.1" y="73.4" width="250.8" height="250.8">
							<feFlood style="flood-color:white;flood-opacity:1" result="back"/>
							<feBlend in="SourceGraphic" in2="back" mode="normal"/>
						</filter>
					</defs>
					<mask maskUnits="userSpaceOnUse" x="682.1" y="73.4" width="250.8" height="250.8" id="SVGID_19_">
						<g class="st66">
						</g>
					</mask>
					<radialGradient id="SVGID_20_" cx="807.5254" cy="198.7659" r="125.3812" gradientUnits="userSpaceOnUse">
						<stop offset="0" style="stop-color:#0F0F0F"/>
						<stop offset="0.5612" style="stop-color:#111111"/>
						<stop offset="0.7965" style="stop-color:#181818"/>
						<stop offset="0.8011" style="stop-color:#191919"/>
						<stop offset="0.8316" style="stop-color:#1C1C1C"/>
						<stop offset="0.8584" style="stop-color:#272727"/>
						<stop offset="0.8839" style="stop-color:#393939"/>
						<stop offset="0.9085" style="stop-color:#525252"/>
						<stop offset="0.9325" style="stop-color:#737373"/>
						<stop offset="0.956" style="stop-color:#9B9B9B"/>
						<stop offset="0.9788" style="stop-color:#CACACA"/>
						<stop offset="1" style="stop-color:#FCFCFC"/>
					</radialGradient>
					<circle class="st67" cx="807.5" cy="198.8" r="125.4"/>
				</g>
			</mask>
			<radialGradient id="SVGID_21_" cx="807.5254" cy="198.7659" r="125.3812" gradientUnits="userSpaceOnUse">
				<stop offset="0" style="stop-color:#2E2D2F"/>
				<stop offset="0.5644" style="stop-color:#323133"/>
				<stop offset="0.8009" style="stop-color:#3F3F40"/>
				<stop offset="0.8011" style="stop-color:#3F3F41"/>
				<stop offset="0.8843" style="stop-color:#39393A"/>
				<stop offset="0.9574" style="stop-color:#222223"/>
				<stop offset="1" style="stop-color:#000000"/>
			</radialGradient>
			<circle class="st68" cx="807.5" cy="198.8" r="125.4"/>
			<text transform="matrix(1 0 0 1 768.9707 95.3301)" class="st6 st44 st69 st26">100</text>
			<text transform="matrix(1 0 0 1 810.625 95.3301)" class="st6 st44 st69 st26">120</text>
			<text transform="matrix(1 0 0 1 845.959 113.3145)" class="st6 st44 st69 st26">140</text>
			<text transform="matrix(1 0 0 1 878.3936 145.0718)" class="st6 st44 st69 st26">150</text>
			<text transform="matrix(1 0 0 1 887.6875 184.3922)" class="st6 st44 st69 st26">180</text>
			<text transform="matrix(1 0 0 1 892.8867 231.3409)" class="st6 st44 st69 st26">200</text>
			<text transform="matrix(1 0 0 1 874.6562 269.0986)" class="st6 st44 st69 st26">220</text>
			<text transform="matrix(1 0 0 1 710.2793 265.3013)" class="st6 st44 st69 st26">0</text>
			<text transform="matrix(1 0 0 1 691.9062 231.1099)" class="st6 st44 st69 st26">20</text>
			<text transform="matrix(1 0 0 1 685.4473 184.3922)" class="st6 st44 st69 st26">40</text>
			<text transform="matrix(1 0 0 1 702.8906 143.0601)" class="st6 st44 st69 st26">60</text>
			<text transform="matrix(1 0 0 1 738.2188 111.2037)" class="st6 st44 st69 st26">80</text>
			<g>
				<path class="st23" d="M810.6,62c0,1.1-0.9,1.9-1.9,1.9l0,0c-1.1,0-1.9-0.9-1.9-1.9V47.5c0-1.1,0.9-1.9,1.9-1.9l0,0      c1.1,0,1.9,0.9,1.9,1.9V62z"/>
				<path class="st23" d="M823.7,58.9c-0.1,0.8-0.6,1.4-1.1,1.4l0,0c-0.5-0.1-0.9-0.8-0.8-1.6l1.1-11c0.1-0.8,0.6-1.4,1.1-1.4l0,0      c0.5,0.1,0.9,0.8,0.8,1.6L823.7,58.9z"/>
				<path class="st23" d="M851.2,64.6c-0.2,0.8-0.8,1.3-1.4,1.1l0,0c-0.5-0.2-0.7-0.9-0.5-1.7l3.3-10.6c0.2-0.8,0.8-1.3,1.4-1.1l0,0      c0.5,0.2,0.7,0.9,0.5,1.7L851.2,64.6z"/>
				<path class="st23" d="M876.6,75.5c-0.4,0.7-1.1,1.1-1.6,0.8l0,0c-0.5-0.3-0.5-1-0.1-1.8l5.3-9.7c0.4-0.7,1.1-1.1,1.6-0.8l0,0      c0.5,0.3,0.5,1,0.1,1.8L876.6,75.5z"/>
				<path class="st23" d="M899.4,91.2c-0.5,0.6-1.3,0.9-1.7,0.5l0,0c-0.4-0.3-0.3-1.1,0.2-1.8l7.1-8.5c0.5-0.6,1.3-0.9,1.7-0.5l0,0      c0.4,0.3,0.3,1.1-0.2,1.8L899.4,91.2z"/>
				<path class="st23" d="M918.7,111c-0.6,0.5-1.4,0.6-1.8,0.2l0,0c-0.3-0.4-0.1-1.2,0.5-1.7l8.6-6.9c0.6-0.5,1.4-0.6,1.8-0.2l0,0      c0.3,0.4,0.1,1.2-0.5,1.7L918.7,111z"/>
				<path class="st23" d="M933.7,134.3c-0.7,0.4-1.5,0.3-1.8-0.2l0,0c-0.2-0.5,0.1-1.2,0.9-1.5l9.8-5.1c0.7-0.4,1.5-0.3,1.8,0.2l0,0      c0.2,0.5-0.1,1.2-0.9,1.5L933.7,134.3z"/>
				<path class="st23" d="M943.8,160c-0.8,0.2-1.5,0-1.7-0.5l0,0c-0.1-0.5,0.4-1.1,1.1-1.3l10.6-3.1c0.8-0.2,1.5,0,1.7,0.5l0,0      c0.2,0.5-0.4,1.1-1.1,1.3L943.8,160z"/>
				<path class="st23" d="M948.7,187.3c-0.8,0.1-1.5-0.3-1.6-0.8l0,0c0-0.5,0.6-1,1.4-1.1l11-0.9c0.8-0.1,1.5,0.3,1.6,0.8l0,0      c0,0.5-0.6,1-1.4,1.1L948.7,187.3z"/>
				<path class="st23" d="M948.1,214.9c-0.8-0.1-1.4-0.6-1.4-1.1l0,0c0.1-0.5,0.8-0.9,1.6-0.8l11,1.2c0.8,0.1,1.4,0.6,1.4,1.1l0,0      c-0.1,0.5-0.8,0.9-1.6,0.8L948.1,214.9z"/>
				<path class="st23" d="M942.2,241.9c-0.8-0.2-1.3-0.9-1.1-1.4l0,0c0.2-0.5,0.9-0.7,1.7-0.5l10.5,3.4c0.8,0.2,1.3,0.9,1.1,1.4l0,0      c-0.2,0.5-0.9,0.7-1.7,0.5L942.2,241.9z"/>
				<path class="st23" d="M931,267.2c-0.7-0.4-1.1-1.1-0.8-1.6l0,0c0.3-0.5,1-0.5,1.8-0.1l9.7,5.4c0.7,0.4,1.1,1.1,0.8,1.6l0,0      c-0.3,0.5-1,0.5-1.8,0.1L931,267.2z"/>
				<path class="st23" d="M686,265.4c0.7-0.4,1.5-0.3,1.8,0.1l0,0c0.3,0.5-0.1,1.2-0.8,1.6l-9.7,5.4c-0.7,0.4-1.5,0.3-1.8-0.1l0,0      c-0.3-0.5,0.1-1.2,0.8-1.6L686,265.4z"/>
				<path class="st23" d="M675.1,239.6c0.8-0.2,1.5,0,1.7,0.5l0,0c0.2,0.5-0.3,1.1-1.1,1.4l-10.5,3.3c-0.8,0.2-1.5,0-1.7-0.5l0,0      c-0.2-0.5,0.3-1.1,1.1-1.4L675.1,239.6z"/>
				<path class="st23" d="M669.6,212.2c0.8-0.1,1.5,0.3,1.6,0.8l0,0c0.1,0.5-0.6,1-1.4,1.1l-11,1.2c-0.8,0.1-1.5-0.3-1.6-0.8l0,0      c-0.1-0.5,0.6-1,1.4-1.1L669.6,212.2z"/>
				<path class="st23" d="M669.6,184.3c0.8,0.1,1.4,0.6,1.4,1.1l0,0c-0.1,0.5-0.7,0.9-1.6,0.8l-11-1c-0.8-0.1-1.4-0.6-1.4-1.1l0,0      c0-0.5,0.7-0.9,1.6-0.8L669.6,184.3z"/>
				<path class="st23" d="M675.1,156.9c0.8,0.2,1.3,0.8,1.1,1.3l0,0c-0.2,0.5-0.9,0.7-1.7,0.5l-10.6-3.2c-0.8-0.2-1.3-0.8-1.1-1.3      l0,0c0.2-0.5,0.9-0.7,1.7-0.5L675.1,156.9z"/>
				<path class="st23" d="M686,131.1c0.7,0.4,1.1,1.1,0.8,1.5l0,0c-0.3,0.5-1,0.5-1.8,0.2l-9.7-5.2c-0.7-0.4-1.1-1.1-0.8-1.5l0,0      c0.2-0.5,1-0.5,1.8-0.2L686,131.1z"/>
				<path class="st23" d="M700.8,109.3c0.6,0.5,0.9,1.3,0.5,1.7l0,0c-0.3,0.4-1.1,0.3-1.8-0.2l-8.6-7c-0.6-0.5-0.9-1.3-0.5-1.7l0,0      c0.3-0.4,1.1-0.3,1.8,0.2L700.8,109.3z"/>
				<path class="st23" d="M719.4,90.6c0.5,0.6,0.6,1.4,0.2,1.7l0,0c-0.4,0.3-1.2,0.1-1.7-0.5l-7.1-8.5c-0.5-0.6-0.6-1.4-0.2-1.7l0,0      c0.4-0.3,1.2-0.1,1.7,0.5L719.4,90.6z"/>
				<path class="st23" d="M743.2,74.5c0.4,0.7,0.3,1.5-0.1,1.8l0,0c-0.5,0.3-1.2-0.1-1.5-0.8l-5.3-9.7c-0.4-0.7-0.3-1.5,0.1-1.8l0,0      c0.5-0.3,1.2,0.1,1.6,0.8L743.2,74.5z"/>
				<path class="st23" d="M768.9,64c0.2,0.8,0,1.5-0.5,1.7l0,0c-0.5,0.2-1.1-0.4-1.4-1.1L763.8,54c-0.2-0.8,0-1.5,0.5-1.7l0,0      c0.5-0.2,1.1,0.3,1.4,1.1L768.9,64z"/>
				<path class="st23" d="M796.8,58.7c0.1,0.8-0.3,1.5-0.8,1.6l0,0c-0.5,0.1-1-0.6-1.1-1.4l-1-11c-0.1-0.8,0.3-1.5,0.8-1.6l0,0      c0.5-0.1,1,0.6,1.1,1.4L796.8,58.7z"/>
				<path class="st23" d="M785.8,70.2c0.3,1.5-0.4,2.8-1.6,3.1l0,0c-1.2,0.2-2.4-0.8-2.7-2.2l-3.9-19.8c-0.3-1.5,0.5-2.8,1.7-3.1      l0,0c1.2-0.2,2.4,0.7,2.7,2.2L785.8,70.2z"/>
				<path class="st23" d="M836.6,71.1c-0.3,1.5-1.5,2.4-2.7,2.2l0,0c-1.2-0.2-1.9-1.6-1.6-3.1l3.9-19.8c0.3-1.5,1.5-2.4,2.7-2.2l0,0      c1.2,0.2,1.9,1.6,1.7,3.1L836.6,71.1z"/>
				<path class="st23" d="M883.9,91.8c-0.8,1.2-2.3,1.7-3.3,1l0,0c-1-0.7-1.2-2.3-0.3-3.5l11.3-16.7c0.8-1.2,2.3-1.7,3.3-1l0,0      c1,0.7,1.2,2.2,0.3,3.5L883.9,91.8z"/>
				<path class="st23" d="M919,128.6c-1.2,0.8-2.8,0.6-3.5-0.4l0,0c-0.7-1-0.2-2.5,1-3.3l16.9-11.1c1.2-0.8,2.8-0.6,3.5,0.4l0,0      c0.7,1,0.2,2.5-1,3.3L919,128.6z"/>
				<path class="st23" d="M937.2,176c-1.5,0.3-2.8-0.5-3.1-1.7l0,0c-0.2-1.2,0.8-2.4,2.2-2.7l19.8-3.8c1.5-0.3,2.8,0.5,3.1,1.7l0,0      c0.2,1.2-0.8,2.4-2.2,2.7L937.2,176z"/>
				<path class="st23" d="M935.9,227.1c-1.5-0.3-2.4-1.5-2.2-2.7l0,0c0.3-1.2,1.6-1.9,3.1-1.6l19.7,4.1c1.5,0.3,2.4,1.5,2.2,2.7l0,0      c-0.2,1.2-1.6,1.9-3.1,1.6L935.9,227.1z"/>
				<path class="st23" d="M915.5,273c-1.2-0.8-1.7-2.3-1-3.3l0,0c0.7-1,2.2-1.2,3.5-0.3l16.7,11.3c1.2,0.8,1.7,2.3,1,3.3l0,0      c-0.7,1-2.2,1.2-3.5,0.3L915.5,273z"/>
				<path class="st23" d="M686.9,280.2c1.2-0.9,2.8-0.7,3.5,0.3l0,0c0.7,1,0.3,2.5-1,3.4l-2.7,1.9c-1.2,0.8-2.8,0.7-3.5-0.3l0,0      c-0.7-1-0.3-2.5,0.9-3.4L686.9,280.2z"/>
				<path class="st23" d="M681.1,222.6c1.5-0.3,2.8,0.4,3.1,1.6l0,0c0.3,1.2-0.7,2.4-2.2,2.7l-19.8,4.1c-1.5,0.3-2.8-0.4-3.1-1.6      l0,0c-0.3-1.2,0.7-2.4,2.2-2.7L681.1,222.6z"/>
				<path class="st23" d="M681.5,172.3c1.5,0.3,2.5,1.5,2.2,2.7l0,0c-0.2,1.2-1.6,2-3.1,1.7l-19.8-3.7c-1.5-0.3-2.5-1.5-2.2-2.7l0,0      c0.2-1.2,1.6-2,3.1-1.7L681.5,172.3z"/>
				<path class="st23" d="M701.6,124.8c1.2,0.8,1.7,2.3,1,3.3l0,0c-0.7,1-2.2,1.2-3.5,0.4l-16.8-11.1c-1.2-0.8-1.7-2.3-1-3.3l0,0      c0.7-1,2.2-1.2,3.5-0.4L701.6,124.8z"/>
				<path class="st23" d="M737.7,89.4c0.8,1.2,0.7,2.8-0.3,3.5l0,0c-1,0.7-2.5,0.3-3.3-1l-11.3-16.7c-0.8-1.2-0.7-2.8,0.3-3.5l0,0      c1-0.7,2.5-0.3,3.4,1L737.7,89.4z"/>
				<path class="st23" d="M862.6,73.1c-0.4,1-1.5,1.5-2.5,1l0,0c-1-0.4-1.5-1.5-1-2.5l5.5-13.4c0.4-1,1.5-1.5,2.5-1l0,0      c1,0.4,1.5,1.5,1,2.5L862.6,73.1z"/>
				<path class="st23" d="M907.4,104.3c-0.8,0.7-2,0.7-2.7,0l0,0c-0.7-0.8-0.7-2,0-2.7l10.3-10.1c0.8-0.7,2-0.7,2.7,0l0,0      c0.7,0.8,0.7,2,0,2.7L907.4,104.3z"/>
				<path class="st23" d="M936,149.5c-1,0.4-2.1-0.1-2.5-1.1l0,0c-0.4-1,0.1-2.1,1.1-2.5l13.4-5.4c1-0.4,2.1,0.1,2.5,1.1l0,0      c0.4,1-0.1,2.1-1.1,2.5L936,149.5z"/>
				<path class="st23" d="M944.9,201.6c-1.1,0-1.9-0.9-1.9-1.9l0,0c0-1.1,0.9-1.9,1.9-1.9l14.5,0.1c1.1,0,1.9,0.9,1.9,1.9l0,0      c0,1.1-0.9,1.9-1.9,1.9L944.9,201.6z"/>
				<path class="st23" d="M932.6,255.1c-1-0.4-1.4-1.6-1-2.5l0,0c0.4-1,1.6-1.4,2.5-1l13.2,5.8c1,0.4,1.4,1.6,1,2.5l0,0      c-0.4,1-1.6,1.4-2.5,1L932.6,255.1z"/>
				<path class="st23" d="M682.8,250.3c1-0.4,2.1,0,2.5,1l0,0c0.4,1,0,2.1-1,2.5l-13.3,5.7c-1,0.4-2.1,0-2.5-1l0,0      c-0.4-1,0-2.1,1-2.5L682.8,250.3z"/>
				<path class="st23" d="M672.4,197.6c1.1,0,1.9,0.8,1.9,1.9l0,0c0,1.1-0.8,1.9-1.9,1.9l-14.5,0.1c-1.1,0-1.9-0.8-1.9-1.9l0,0      c0-1.1,0.8-1.9,1.9-1.9L672.4,197.6z"/>
				<path class="st23" d="M682.9,145.8c1,0.4,1.5,1.5,1.1,2.5l0,0c-0.4,1-1.5,1.5-2.5,1.1l-13.4-5.4c-1-0.4-1.5-1.5-1.1-2.5l0,0      c0.4-1,1.5-1.5,2.5-1.1L682.9,145.8z"/>
				<path class="st23" d="M713,101.2c0.8,0.8,0.8,2,0,2.7l0,0c-0.7,0.8-2,0.8-2.7,0L700,93.8c-0.8-0.7-0.8-2,0-2.7l0,0      c0.7-0.8,2-0.8,2.7,0L713,101.2z"/>
				<path class="st23" d="M758.4,71.6c0.4,1-0.1,2.1-1,2.5l0,0c-1,0.4-2.1-0.1-2.5-1l-5.5-13.4c-0.4-1,0.1-2.1,1-2.5l0,0      c1-0.4,2.1,0.1,2.5,1L758.4,71.6z"/>
			</g>
			<circle cx="806.8" cy="193.4" r="25.6"/>
			<path class="st70" d="M943.8,145.7c0.4-0.1,0.8-0.1,0.9,0.1l0.2,0.7c0.1,0.2-0.2,0.5-0.6,0.7l-157.6,54.6     c-0.4,0.1-0.8,0.1-0.9-0.1l-0.2-0.7c-0.1-0.2,0.2-0.5,0.6-0.7L943.8,145.7z"/>
			<path d="M763,258.7h92.5v41.6c0,0-42.8,27.9-93.1,2.4L763,258.7z"/>
			<text transform="matrix(1 0 0 1 821.7402 279.6006)" class="st6 st44 st69 st26">86</text>
			<text transform="matrix(1 0 0 1 803.8223 301.1016)" class="st6 st44 st69 st26">86.4</text>
		</g>
	</g>
</g>
</svg>
