<?xml version="1.0" encoding="utf-8"?>
<!-- Generator: Adobe Illustrator 19.0.0, SVG Export Plug-In . SVG Version: 6.00 Build 0)  -->
<svg version="1.1" xmlns="http://www.w3.org/2000/svg" xmlns:xlink="http://www.w3.org/1999/xlink" x="0px" y="0px"
	 viewBox="0 0 1400 980" style="enable-background:new 0 0 1400 980;" xml:space="preserve">
<style type="text/css">
	.st0{fill:#FFFFFF;}
	.st1{fill:#ED1C24;}
	.st2{fill:#007CC4;}
	.st3{fill:#BE1E2D;}
	.st4{fill:#414042;}
	.st5{font-family:'BebasNeueBold';}
	.st6{font-size:83.5229px;}
	.st7{fill:#F1F2F2;}
</style>
<g id="Background">
	<rect x="-8.7" y="-15.3" width="1417.4" height="1020.5"/>
</g>
<g id="Object">
	<g>
		<g>
			<circle class="st0" cx="249.7" cy="262.8" r="10.3"/>
		</g>
		<g>
			<rect x="244.5" y="207.8" class="st0" width="10.3" height="55.3"/>
		</g>
		<g>
			<rect x="242.8" y="133" class="st0" width="13.8" height="47.2"/>
		</g>
		<g>
			
				<rect x="356.4" y="176.9" transform="matrix(-0.6887 -0.7251 0.7251 -0.6887 479.6573 606.9124)" class="st1" width="27.5" height="47.2"/>
		</g>
		<g>
			
				<rect x="314.9" y="138" transform="matrix(-0.9131 -0.4078 0.4078 -0.9131 542.6237 438.762)" class="st0" width="6.3" height="47.2"/>
		</g>
		<g>
			
				<rect x="115.9" y="180.8" transform="matrix(0.6887 -0.7251 0.7251 0.6887 -107.8304 157.6898)" class="st2" width="27.5" height="47.2"/>
		</g>
		<g>
			
				<rect x="178.6" y="141.9" transform="matrix(0.9131 -0.4078 0.4078 0.9131 -51.6832 88.5151)" class="st0" width="6.3" height="47.2"/>
		</g>
		<g>
			<circle class="st3" cx="249.7" cy="370" r="42.8"/>
		</g>
		<g>
			<polygon class="st3" points="237.1,375.9 254.8,361.2 114.4,202.7 			"/>
		</g>
		<g>
			<path class="st0" d="M93.8,207.9l4.3,4.4l-3.3,3.2l-4.5-4.6c-5.5-5.7-11.9-7.9-17.8-2.2c-5.9,5.7-3.9,12.1,1.7,17.8l26.8,27.7
				c5.5,5.7,11.9,7.8,17.7,2.1c5.9-5.7,3.9-12.1-1.6-17.8l-6.1-6.3l3.3-3.2l5.9,6.1c7.4,7.7,9.7,16.7,1.6,24.6
				c-8.1,7.9-17.1,5.4-24.5-2.3l-26.4-27.2c-7.4-7.7-9.7-16.7-1.6-24.6C77.5,197.7,86.4,200.2,93.8,207.9z"/>
		</g>
		<g>
			<path class="st0" d="M393.7,226.6L368.8,251l-3.4-3.5l52.9-51.9l3.4,3.5l-24.9,24.4l16.2,16.5l24.9-24.4l3.5,3.6L388.5,271
				l-3.5-3.6l24.9-24.4L393.7,226.6z"/>
		</g>
	</g>
	<g>
		<g>
			<path class="st3" d="M120.1,834.1l100-80.7c4,3.1,8.9,5.4,14.2,6.3c17.3,2.9,33.6-8.7,36.5-26c2.9-17.3-8.7-33.6-26-36.5
				c-17.3-2.9-33.6,8.7-36.5,26c-1.2,6.9,0,13.6,2.9,19.4L120.1,834.1z"/>
		</g>
		<g>
			<path class="st0" d="M134.6,806.7c0-2.7,1.2-4.6,4-4.6c2.8,0,4,1.9,4,4.6v9.4c0,2.7-1.2,4.6-4,4.6c-2.8,0-4-2-4-4.6V806.7z
				 M135.9,816.1c0,2,0.8,3.5,2.8,3.5c2,0,2.8-1.5,2.8-3.5v-9.5c0-2-0.8-3.5-2.8-3.5c-2,0-2.8,1.5-2.8,3.5V816.1z"/>
		</g>
		<g>
			<path class="st0" d="M104.9,739.7c-0.7,0.9-1.6,1.4-2.9,1.5v-1.1c1.8-0.1,2.7-1.2,3.1-2.6h0.9V756h-1.2V739.7z"/>
		</g>
		<g>
			<path class="st0" d="M119.1,662.9c0,5.3-6.6,7.1-6.7,12.5v0.2h6.6v1.1h-7.8v-0.9c0-6.5,6.7-7.9,6.7-12.9c0-2.1-0.7-3.6-2.8-3.6
				c-2,0-2.8,1.6-2.8,3.5v1.3h-1.2V663c0-2.7,1.1-4.7,4-4.7C118,658.2,119.1,660.2,119.1,662.9z"/>
		</g>
		<g>
			<path class="st0" d="M171.6,612.3v0.4c0,1.8-0.9,3.3-2.4,3.8c1.7,0.5,2.4,1.9,2.4,3.7v1.4c0,2.7-1.2,4.6-4,4.6c-2.8,0-4-2-4-4.6
				v-1h1.2v1.1c0,2,0.8,3.5,2.8,3.5s2.8-1.5,2.8-3.6v-1.4c0-1.9-0.9-3-2.7-3.1h-1.2v-1.1h1.3c1.7-0.1,2.7-1.3,2.7-3.1v-0.7
				c0-2.1-0.8-3.6-2.8-3.6s-2.8,1.5-2.8,3.5v0.7h-1.2v-0.7c0-2.7,1.2-4.6,4-4.6C170.4,607.7,171.6,609.6,171.6,612.3z"/>
		</g>
		<g>
			<path class="st0" d="M244.2,600.5v4.1H243v-4.1h-6.3v-1.1l6.1-13.2h1.4v13.2h1.5v1.1H244.2z M237.8,599.4h5.2v-11L237.8,599.4z"
				/>
		</g>
		<g>
			<path class="st0" d="M310.2,616.8c0.6-1,1.6-1.4,3-1.4c2.5,0,3.6,1.9,3.6,4.5v3.2c0,2.7-1.2,4.6-4,4.6c-2.8,0-4-2-4-4.6v-1h1.2
				v1.1c0,2,0.8,3.5,2.8,3.5c2,0,2.8-1.5,2.8-3.5V620c0-2-0.8-3.5-2.8-3.5c-1.3,0-2.3,0.7-2.6,2.1v0.3H309l0.5-9.8h6.9v1.1h-5.8
				L310.2,616.8z"/>
		</g>
		<g>
			<path class="st0" d="M367.9,667.2v0.2h-1.2v-0.3c0-2-0.8-3.4-2.8-3.4c-2.1,0-2.9,1.5-2.9,3.6v4.3c0.6-1,1.6-1.7,3.3-1.7
				c2.6,0,3.6,1.9,3.6,4.5v2.3c0,2.7-1.2,4.6-4,4.6c-2.8,0-4.1-2-4.1-4.6v-9.3c0-2.8,1.2-4.7,4.1-4.7
				C366.8,662.6,367.9,664.5,367.9,667.2z M361.1,674.5v2.2c0,2,0.8,3.5,2.9,3.5c2,0,2.8-1.4,2.8-3.5v-2.2c0-2-0.8-3.4-2.8-3.4
				C361.9,671,361.1,672.5,361.1,674.5z"/>
		</g>
		<g>
			<path class="st0" d="M379.8,738.8H373v-1.1h8v1.1l-5.2,17.3h-1.2L379.8,738.8z"/>
		</g>
		<g>
			<path class="st0" d="M345.8,809.5v0.6c0,1.9-0.7,3.4-2.4,3.9c1.8,0.5,2.4,2,2.4,3.9v1.3c0,2.7-1.4,4.5-4.2,4.5
				c-2.8,0-4.2-1.8-4.2-4.5v-1.3c0-1.9,0.6-3.4,2.5-3.9c-1.8-0.5-2.5-1.9-2.5-3.9v-0.6c0-2.7,1.4-4.5,4.2-4.5
				C344.4,805,345.8,806.8,345.8,809.5z M338.6,809.5v0.8c0,2.1,1,3.2,3,3.2s3-1.1,3-3.2v-0.8c0-2.2-1-3.4-3-3.4
				C339.6,806.1,338.6,807.4,338.6,809.5z M338.6,817.7v1.4c0,2.1,1,3.5,3,3.5s2.9-1.3,3-3.5v-1.4c0-2.2-1-3.2-3-3.2
				C339.6,814.5,338.6,815.6,338.6,817.7z"/>
		</g>
		<g>
			
				<rect x="118.8" y="814" transform="matrix(0.616 0.7878 -0.7878 0.616 700.7452 224.4731)" class="st0" width="2.7" height="33.9"/>
		</g>
		<g>
			
				<rect x="79.5" y="733.7" transform="matrix(0.1309 0.9914 -0.9914 0.1309 814.1717 572.0334)" class="st0" width="2.7" height="33.5"/>
		</g>
		<g>
			
				<rect x="77.3" y="659.4" transform="matrix(0.9053 0.4247 -0.4247 0.9053 289.469 22.8033)" class="st0" width="32.6" height="2.7"/>
		</g>
		<g>
			
				<rect x="136.8" y="589.6" transform="matrix(0.5623 0.8269 -0.8269 0.5623 555.7764 131.829)" class="st0" width="33.1" height="2.7"/>
		</g>
		<g>
			<rect x="239.3" y="549.6" class="st0" width="2.7" height="31"/>
		</g>
		<g>
			
				<rect x="327" y="576.3" transform="matrix(0.8447 0.5352 -0.5352 0.8447 367.618 -83.8414)" class="st0" width="2.7" height="30.6"/>
		</g>
		<g>
			
				<rect x="386.9" y="644.6" transform="matrix(0.4288 0.9034 -0.9034 0.4288 818.6806 26.6555)" class="st0" width="2.7" height="32.3"/>
		</g>
		<g>
			
				<rect x="383.4" y="750.7" transform="matrix(0.9897 0.1432 -0.1432 0.9897 111.7729 -49.5083)" class="st0" width="33.1" height="2.7"/>
		</g>
		<g>
			
				<rect x="345.3" y="833.6" transform="matrix(0.7425 0.6699 -0.6699 0.7425 652.5412 -27.6261)" class="st0" width="33.9" height="2.7"/>
		</g>
		<g>
			
				<rect x="101.7" y="810.7" transform="matrix(0.5576 0.8301 -0.8301 0.5576 727.2891 277.746)" class="st0" width="2.7" height="21.1"/>
		</g>
		<g>
			
				<rect x="93" y="794.7" transform="matrix(0.4836 0.8753 -0.8753 0.4836 753.5486 333.3008)" class="st0" width="2.7" height="21.1"/>
		</g>
		<g>
			
				<rect x="85" y="777.8" transform="matrix(0.3349 0.9422 -0.9422 0.3349 800.2328 442.9509)" class="st0" width="2.7" height="21.1"/>
		</g>
		<g>
			
				<rect x="77.8" y="759.5" transform="matrix(0.2091 0.9779 -0.9779 0.2091 815.5956 531.6224)" class="st0" width="2.7" height="21.1"/>
		</g>
		<g>
			
				<rect x="73.4" y="722.2" transform="matrix(2.734970e-02 0.9996 -0.9996 2.734970e-02 805.2009 637.9984)" class="st0" width="2.7" height="21.1"/>
		</g>
		<g>
			
				<rect x="65.4" y="713.3" transform="matrix(0.9982 5.964484e-02 -5.964484e-02 0.9982 42.7571 -3.2547)" class="st0" width="21.1" height="2.7"/>
		</g>
		<g>
			
				<rect x="67.7" y="694.7" transform="matrix(0.9753 0.2208 -0.2208 0.9753 155.6379 -8.747575e-02)" class="st0" width="21.1" height="2.7"/>
		</g>
		<g>
			
				<rect x="71.4" y="675.4" transform="matrix(0.9381 0.3465 -0.3465 0.9381 239.5196 13.5239)" class="st0" width="21.1" height="2.7"/>
		</g>
		<g>
			
				<rect x="89.2" y="640.9" transform="matrix(0.8495 0.5277 -0.5277 0.8495 353.9095 44.0343)" class="st0" width="21.1" height="2.7"/>
		</g>
		<g>
			
				<rect x="100.2" y="626.4" transform="matrix(0.8003 0.5996 -0.5996 0.8003 398.5127 58.9603)" class="st0" width="21.1" height="2.7"/>
		</g>
		<g>
			
				<rect x="112.4" y="612.2" transform="matrix(0.6924 0.7215 -0.7215 0.6924 480.4508 100.0367)" class="st0" width="21.1" height="2.7"/>
		</g>
		<g>
			
				<rect x="126.1" y="598.1" transform="matrix(0.5921 0.8059 -0.8059 0.5921 538.7848 134.3702)" class="st0" width="21.1" height="2.7"/>
		</g>
		<g>
			
				<rect x="155.8" y="575.2" transform="matrix(0.3647 0.9311 -0.9311 0.3647 642.4927 211.44)" class="st0" width="21.1" height="2.7"/>
		</g>
		<g>
			
				<rect x="173.3" y="570.1" transform="matrix(0.2822 0.9594 -0.9594 0.2822 680.1397 233.8594)" class="st0" width="21.1" height="2.7"/>
		</g>
		<g>
			
				<rect x="191.5" y="566" transform="matrix(0.1228 0.9924 -0.9924 0.1228 740.2538 297.1399)" class="st0" width="21.1" height="2.7"/>
		</g>
		<g>
			
				<rect x="220.1" y="553.7" transform="matrix(1 7.800890e-03 -7.800890e-03 1 4.4086 -1.7106)" class="st0" width="2.7" height="21.1"/>
		</g>
		<g>
			
				<rect x="368.4" y="819.9" transform="matrix(0.83 0.5577 -0.5577 0.83 522.4101 -71.7697)" class="st0" width="21.1" height="2.7"/>
		</g>
		<g>
			
				<rect x="377.2" y="803.9" transform="matrix(0.8754 0.4833 -0.4833 0.8754 437.4805 -87.0859)" class="st0" width="21.1" height="2.7"/>
		</g>
		<g>
			
				<rect x="385.1" y="787" transform="matrix(0.9423 0.3349 -0.3349 0.9423 286.8285 -86.9833)" class="st0" width="21.1" height="2.7"/>
		</g>
		<g>
			
				<rect x="392.3" y="768.7" transform="matrix(0.978 0.2087 -0.2087 0.978 169.5957 -67.1287)" class="st0" width="21.1" height="2.7"/>
		</g>
		<g>
			
				<rect x="396.7" y="731.4" transform="matrix(0.9996 2.749434e-02 -2.749434e-02 0.9996 20.3009 -10.9204)" class="st0" width="21.1" height="2.7"/>
		</g>
		<g>
			
				<rect x="404.8" y="704.1" transform="matrix(5.958427e-02 0.9982 -0.9982 5.958427e-02 1095.2473 266.6206)" class="st0" width="2.7" height="21.1"/>
		</g>
		<g>
			
				<rect x="402.5" y="685.5" transform="matrix(0.2206 0.9754 -0.9754 0.2206 993.6045 148.6201)" class="st0" width="2.7" height="21.1"/>
		</g>
		<g>
			
				<rect x="398.7" y="666.2" transform="matrix(0.3465 0.938 -0.938 0.3465 896.2221 66.915)" class="st0" width="2.7" height="21.1"/>
		</g>
		<g>
			
				<rect x="380.9" y="631.7" transform="matrix(0.5274 0.8496 -0.8496 0.5274 726.3311 -21.2136)" class="st0" width="2.7" height="21.1"/>
		</g>
		<g>
			
				<rect x="369.9" y="617.2" transform="matrix(0.5999 0.8001 -0.8001 0.5999 650.8083 -45.8762)" class="st0" width="2.7" height="21.1"/>
		</g>
		<g>
			
				<rect x="357.8" y="603" transform="matrix(0.7216 0.6923 -0.6923 0.7216 524.7061 -77.8225)" class="st0" width="2.7" height="21.1"/>
		</g>
		<g>
			
				<rect x="344" y="588.9" transform="matrix(0.8059 0.592 -0.592 0.8059 421.8704 -88.1303)" class="st0" width="2.7" height="21.1"/>
		</g>
		<g>
			
				<rect x="314.4" y="566" transform="matrix(0.9312 0.3644 -0.3644 0.9312 231.821 -75.4074)" class="st0" width="2.7" height="21.1"/>
		</g>
		<g>
			
				<rect x="296.9" y="560.9" transform="matrix(0.9593 0.2824 -0.2824 0.9593 173.4864 -60.9541)" class="st0" width="2.7" height="21.1"/>
		</g>
		<g>
			
				<rect x="278.6" y="556.8" transform="matrix(0.9924 0.1231 -0.1231 0.9924 71.9608 -30.1483)" class="st0" width="2.7" height="21.1"/>
		</g>
		<g>
			
				<rect x="250" y="562.9" transform="matrix(8.070184e-03 1 -1 8.070184e-03 822.6917 299.2054)" class="st0" width="21.1" height="2.7"/>
		</g>
	</g>
	<g>
		<g>
			<g>
				<path class="st3" d="M986.6,824.9l108.1-96.4c4.7,3.3,10.3,5.5,16.4,6.3c19.6,2.3,37.4-11.7,39.7-31.3
					c2.3-19.6-11.7-37.4-31.3-39.7c-19.6-2.3-37.4,11.7-39.7,31.3c-0.9,7.8,0.8,15.3,4.4,21.7L986.6,824.9z"/>
			</g>
			<g>
				<path class="st0" d="M997.3,792.3c0-3.8,1.7-6.5,5.7-6.5s5.7,2.7,5.7,6.5v13.2c0,3.8-1.7,6.5-5.7,6.5s-5.7-2.8-5.7-6.5V792.3z
					 M999,805.6c0,2.8,1.1,4.9,4,4.9c2.8,0,4-2.1,4-4.9v-13.4c0-2.8-1.1-4.9-4-4.9c-2.8,0-4,2.1-4,4.9V805.6z"/>
			</g>
			<g>
				<path class="st0" d="M980.2,743.7c0,7.5-9.3,10.1-9.5,17.7v0.3h9.2v1.6h-10.9V762c0-9.1,9.5-11.1,9.5-18.2c0-3-1-5.1-4-5.1
					c-2.8,0-3.9,2.2-3.9,5v1.8h-1.6v-1.7c0-3.7,1.6-6.7,5.6-6.7C978.7,737.1,980.2,739.9,980.2,743.7z"/>
				<path class="st0" d="M982.9,743.7c0-3.8,1.7-6.5,5.7-6.5c4,0,5.7,2.7,5.7,6.5v13.2c0,3.8-1.7,6.5-5.7,6.5c-4,0-5.7-2.8-5.7-6.5
					V743.7z M984.6,757c0,2.8,1.1,4.9,4,4.9c2.8,0,4-2.1,4-4.9v-13.4c0-2.8-1.1-4.9-4-4.9c-2.8,0-4,2.1-4,4.9V757z"/>
			</g>
			<g>
				<path class="st0" d="M972.8,695.6v5.7h-1.7v-5.7h-8.8V694l8.6-18.6h1.9V694h2.2v1.6H972.8z M963.8,694h7.3v-15.4L963.8,694z"/>
				<path class="st0" d="M977.4,681.7c0-3.8,1.7-6.5,5.7-6.5c4,0,5.7,2.7,5.7,6.5V695c0,3.8-1.7,6.5-5.7,6.5c-4,0-5.7-2.8-5.7-6.5
					V681.7z M979.1,695c0,2.8,1.1,4.9,4,4.9c2.8,0,4-2.1,4-4.9v-13.4c0-2.8-1.1-4.9-4-4.9c-2.8,0-4,2.1-4,4.9V695z"/>
			</g>
			<g>
				<path class="st0" d="M988.3,629.5v0.3h-1.6v-0.4c0-2.8-1.1-4.8-3.9-4.8c-2.9,0-4.1,2.1-4.1,5.1v6c0.9-1.4,2.3-2.4,4.6-2.4
					c3.6,0,5.1,2.7,5.1,6.3v3.2c0,3.8-1.7,6.5-5.7,6.5c-4,0-5.7-2.8-5.7-6.5v-13.2c0-3.9,1.7-6.6,5.7-6.6
					C986.7,623.1,988.3,625.8,988.3,629.5z M978.7,639.8v3.1c0,2.8,1.1,4.9,4,4.9c2.8,0,4-2,4-4.9v-3.1c0-2.8-1.1-4.8-4-4.8
					C979.8,635,978.7,637,978.7,639.8z"/>
				<path class="st0" d="M991.1,629.7c0-3.8,1.7-6.5,5.7-6.5c4,0,5.7,2.7,5.7,6.5v13.2c0,3.8-1.7,6.5-5.7,6.5c-4,0-5.7-2.8-5.7-6.5
					V629.7z M992.8,643c0,2.8,1.1,4.9,4,4.9c2.8,0,4-2.1,4-4.9v-13.4c0-2.8-1.1-4.9-4-4.9c-2.8,0-4,2.1-4,4.9V643z"/>
			</g>
			<g>
				<path class="st0" d="M1032.7,580.1v0.8c0,2.7-1,4.8-3.4,5.4c2.5,0.7,3.4,2.8,3.4,5.5v1.8c0,3.8-1.9,6.4-5.9,6.4
					c-4,0-5.9-2.6-5.9-6.4v-1.8c0-2.7,0.9-4.8,3.5-5.5c-2.5-0.7-3.5-2.7-3.5-5.4v-0.8c0-3.8,2-6.3,5.9-6.3
					C1030.7,573.8,1032.7,576.3,1032.7,580.1z M1022.7,580.1v1.1c0,2.9,1.4,4.4,4.2,4.4c2.7,0,4.2-1.5,4.2-4.4v-1.1
					c0-3-1.4-4.8-4.2-4.8C1024.1,575.4,1022.7,577.1,1022.7,580.1z M1022.7,591.7v2c0,3,1.4,4.9,4.2,4.9c2.8,0,4.1-1.9,4.2-4.9v-2
					c0-3-1.4-4.5-4.2-4.5C1024,587.2,1022.7,588.7,1022.7,591.7z"/>
				<path class="st0" d="M1035.4,580.4c0-3.8,1.7-6.5,5.7-6.5c4,0,5.7,2.7,5.7,6.5v13.2c0,3.8-1.7,6.5-5.7,6.5c-4,0-5.7-2.8-5.7-6.5
					V580.4z M1037.1,593.7c0,2.8,1.1,4.9,4,4.9c2.8,0,4-2.1,4-4.9v-13.4c0-2.8-1.1-4.9-4-4.9c-2.8,0-4,2.1-4,4.9V593.7z"/>
			</g>
			<g>
				<path class="st0" d="M1068.9,549.8c-0.9,1.2-2.3,2-4,2.2v-1.5c2.5-0.2,3.7-1.7,4.4-3.6h1.3v25.9h-1.7V549.8z"/>
				<path class="st0" d="M1074.3,553.2c0-3.8,1.7-6.5,5.7-6.5c4,0,5.7,2.7,5.7,6.5v13.2c0,3.8-1.7,6.5-5.7,6.5c-4,0-5.7-2.8-5.7-6.5
					V553.2z M1076,566.6c0,2.8,1.1,4.9,4,4.9c2.8,0,4-2.1,4-4.9v-13.4c0-2.8-1.1-4.9-4-4.9c-2.8,0-4,2.1-4,4.9V566.6z"/>
				<path class="st0" d="M1088.3,553.2c0-3.8,1.7-6.5,5.7-6.5s5.7,2.7,5.7,6.5v13.2c0,3.8-1.7,6.5-5.7,6.5s-5.7-2.8-5.7-6.5V553.2z
					 M1090,566.6c0,2.8,1.1,4.9,4,4.9c2.8,0,4-2.1,4-4.9v-13.4c0-2.8-1.1-4.9-4-4.9c-2.8,0-4,2.1-4,4.9V566.6z"/>
			</g>
			<g>
				<path class="st0" d="M1098.1,619.3l-1.1,1.7v5.6h-1v-15.4h1v8.1l5-8.1h1.1l-4.4,7.2l4.7,8.2h-1.1L1098.1,619.3z"/>
				<path class="st0" d="M1110.1,626.5h-1l-3.3-13.6v13.6h-0.9v-15.4h1.5l3.2,13.6l3.2-13.6h1.5v15.4h-1v-13.7L1110.1,626.5z"/>
				<path class="st0" d="M1122.7,611.1l-6.1,15.4h-0.9l6.1-15.4H1122.7z"/>
				<path class="st0" d="M1125.2,619.3v7.2h-1v-15.4h1v7.2h4.8v-7.2h1v15.4h-1v-7.2H1125.2z"/>
			</g>
			<g>
				<path class="st0" d="M1131.7,549.8c-0.9,1.2-2.3,2-4,2.2v-1.5c2.5-0.2,3.7-1.7,4.4-3.6h1.3v25.9h-1.7V549.8z"/>
				<path class="st0" d="M1148.4,553.3c0,7.5-9.3,10.1-9.5,17.7v0.3h9.2v1.6h-10.9v-1.3c0-9.1,9.5-11.1,9.5-18.2c0-3-1-5.1-4-5.1
					c-2.8,0-3.9,2.2-3.9,5v1.8h-1.6v-1.7c0-3.7,1.6-6.7,5.6-6.7C1146.8,546.7,1148.4,549.5,1148.4,553.3z"/>
				<path class="st0" d="M1151,553.2c0-3.8,1.7-6.5,5.7-6.5s5.7,2.7,5.7,6.5v13.2c0,3.8-1.7,6.5-5.7,6.5s-5.7-2.8-5.7-6.5V553.2z
					 M1152.7,566.6c0,2.8,1.1,4.9,4,4.9s4-2.1,4-4.9v-13.4c0-2.8-1.1-4.9-4-4.9s-4,2.1-4,4.9V566.6z"/>
			</g>
			<g>
				<path class="st0" d="M1193.4,576.9c-0.9,1.2-2.3,2-4,2.2v-1.5c2.5-0.2,3.7-1.7,4.4-3.6h1.3v25.9h-1.7V576.9z"/>
				<path class="st0" d="M1209,594.2v5.7h-1.7v-5.7h-8.8v-1.6l8.6-18.6h1.9v18.6h2.2v1.6H1209z M1200.1,592.6h7.3v-15.4
					L1200.1,592.6z"/>
				<path class="st0" d="M1213.6,580.4c0-3.8,1.7-6.5,5.7-6.5s5.7,2.7,5.7,6.5v13.2c0,3.8-1.7,6.5-5.7,6.5s-5.7-2.8-5.7-6.5V580.4z
					 M1215.3,593.7c0,2.8,1.1,4.9,4,4.9c2.8,0,4-2.1,4-4.9v-13.4c0-2.8-1.1-4.9-4-4.9c-2.8,0-4,2.1-4,4.9V593.7z"/>
			</g>
			<g>
				<path class="st0" d="M1214.6,626.2c-0.9,1.2-2.3,2-4,2.2v-1.5c2.5-0.2,3.7-1.7,4.4-3.6h1.3v25.9h-1.7V626.2z"/>
				<path class="st0" d="M1231.3,629.5v0.3h-1.6v-0.4c0-2.8-1.1-4.8-3.9-4.8c-2.9,0-4.1,2.1-4.1,5.1v6c0.9-1.4,2.3-2.4,4.6-2.4
					c3.6,0,5.1,2.7,5.1,6.3v3.2c0,3.8-1.7,6.5-5.7,6.5c-4,0-5.7-2.8-5.7-6.5v-13.2c0-3.9,1.7-6.6,5.7-6.6
					C1229.7,623.1,1231.3,625.8,1231.3,629.5z M1221.7,639.8v3.1c0,2.8,1.1,4.9,4,4.9c2.8,0,4-2,4-4.9v-3.1c0-2.8-1.1-4.8-4-4.8
					C1222.8,635,1221.7,637,1221.7,639.8z"/>
				<path class="st0" d="M1234.1,629.7c0-3.8,1.7-6.5,5.7-6.5s5.7,2.7,5.7,6.5v13.2c0,3.8-1.7,6.5-5.7,6.5s-5.7-2.8-5.7-6.5V629.7z
					 M1235.8,643c0,2.8,1.1,4.9,4,4.9c2.8,0,4-2.1,4-4.9v-13.4c0-2.8-1.1-4.9-4-4.9c-2.8,0-4,2.1-4,4.9V643z"/>
			</g>
			<g>
				<path class="st0" d="M1233.1,678.3c-0.9,1.2-2.3,2-4,2.2V679c2.5-0.2,3.7-1.7,4.4-3.6h1.3v25.9h-1.7V678.3z"/>
				<path class="st0" d="M1250.2,681.5v0.8c0,2.7-1,4.8-3.4,5.4c2.5,0.7,3.4,2.8,3.4,5.5v1.8c0,3.8-1.9,6.4-5.9,6.4
					c-4,0-5.9-2.6-5.9-6.4v-1.8c0-2.7,0.9-4.8,3.5-5.5c-2.5-0.7-3.5-2.7-3.5-5.4v-0.8c0-3.8,2-6.3,5.9-6.3
					C1248.2,675.2,1250.2,677.6,1250.2,681.5z M1240.1,681.5v1.1c0,2.9,1.4,4.4,4.2,4.4s4.2-1.5,4.2-4.4v-1.1c0-3-1.4-4.8-4.2-4.8
					C1241.5,676.7,1240.1,678.5,1240.1,681.5z M1240.1,693.1v2c0,3,1.4,4.9,4.2,4.9c2.8,0,4.1-1.9,4.2-4.9v-2c0-3-1.4-4.5-4.2-4.5
					C1241.4,688.6,1240.1,690.1,1240.1,693.1z"/>
				<path class="st0" d="M1252.8,681.7c0-3.8,1.7-6.5,5.7-6.5c4,0,5.7,2.7,5.7,6.5V695c0,3.8-1.7,6.5-5.7,6.5c-4,0-5.7-2.8-5.7-6.5
					V681.7z M1254.5,695c0,2.8,1.1,4.9,4,4.9c2.8,0,4-2.1,4-4.9v-13.4c0-2.8-1.1-4.9-4-4.9c-2.8,0-4,2.1-4,4.9V695z"/>
			</g>
			<g>
				<path class="st0" d="M1231.6,745.4c0,7.5-9.3,10.1-9.5,17.7v0.3h9.2v1.6h-10.9v-1.3c0-9.1,9.5-11.1,9.5-18.2c0-3-1-5.1-4-5.1
					c-2.8,0-3.9,2.2-3.9,5v1.8h-1.6v-1.7c0-3.7,1.6-6.7,5.6-6.7C1230,738.9,1231.6,741.7,1231.6,745.4z"/>
				<path class="st0" d="M1234.2,745.4c0-3.8,1.7-6.5,5.7-6.5c4,0,5.7,2.7,5.7,6.5v13.2c0,3.8-1.7,6.5-5.7,6.5c-4,0-5.7-2.8-5.7-6.5
					V745.4z M1235.9,758.7c0,2.8,1.1,4.9,4,4.9c2.8,0,4-2.1,4-4.9v-13.4c0-2.8-1.1-4.9-4-4.9c-2.8,0-4,2.1-4,4.9V758.7z"/>
				<path class="st0" d="M1248.3,745.4c0-3.8,1.7-6.5,5.7-6.5c4,0,5.7,2.7,5.7,6.5v13.2c0,3.8-1.7,6.5-5.7,6.5c-4,0-5.7-2.8-5.7-6.5
					V745.4z M1250,758.7c0,2.8,1.1,4.9,4,4.9c2.8,0,4-2.1,4-4.9v-13.4c0-2.8-1.1-4.9-4-4.9c-2.8,0-4,2.1-4,4.9V758.7z"/>
			</g>
			<g>
				<path class="st0" d="M1197.1,796.8c0,7.5-9.3,10.1-9.5,17.7v0.3h9.2v1.6h-10.9v-1.3c0-9.1,9.5-11.1,9.5-18.2c0-3-1-5.1-4-5.1
					c-2.8,0-3.9,2.2-3.9,5v1.8h-1.6v-1.7c0-3.7,1.6-6.7,5.6-6.7C1195.5,790.2,1197.1,793,1197.1,796.8z"/>
				<path class="st0" d="M1211,796.8c0,7.5-9.3,10.1-9.5,17.7v0.3h9.2v1.6h-10.9v-1.3c0-9.1,9.5-11.1,9.5-18.2c0-3-1-5.1-4-5.1
					c-2.8,0-3.9,2.2-3.9,5v1.8h-1.6v-1.7c0-3.7,1.6-6.7,5.6-6.7C1209.4,790.2,1211,793,1211,796.8z"/>
				<path class="st0" d="M1213.6,796.8c0-3.8,1.7-6.5,5.7-6.5s5.7,2.7,5.7,6.5V810c0,3.8-1.7,6.5-5.7,6.5s-5.7-2.8-5.7-6.5V796.8z
					 M1215.3,810.1c0,2.8,1.1,4.9,4,4.9c2.8,0,4-2.1,4-4.9v-13.4c0-2.8-1.1-4.9-4-4.9c-2.8,0-4,2.1-4,4.9V810.1z"/>
			</g>
			<g>
				
					<rect x="976.4" y="806.2" transform="matrix(0.6903 0.7235 -0.7235 0.6903 899.4156 -452.2066)" class="st0" width="3" height="36.6"/>
			</g>
			<g>
				
					<rect x="940.8" y="741.3" transform="matrix(0.2921 0.9564 -0.9564 0.2921 1393.5482 -363.455)" class="st0" width="3" height="36.6"/>
			</g>
			<g>
				
					<rect x="915.6" y="683" transform="matrix(0.9923 0.1238 -0.1238 0.9923 91.9047 -110.3285)" class="st0" width="36.6" height="3"/>
			</g>
			<g>
				
					<rect x="939.1" y="611.9" transform="matrix(0.7994 0.6008 -0.6008 0.7994 560.6714 -452.2052)" class="st0" width="36.6" height="3"/>
			</g>
			<g>
				
					<rect x="988.6" y="555.2" transform="matrix(0.6078 0.7941 -0.7941 0.6078 836.9293 -581.2214)" class="st0" width="36.6" height="3"/>
			</g>
			<g>
				
					<rect x="1057.6" y="523.4" transform="matrix(0.1444 0.9895 -0.9895 0.1444 1439.9283 -615.5391)" class="st0" width="36.6" height="3"/>
			</g>
			<g>
				
					<rect x="1149.7" y="506.6" transform="matrix(0.9811 0.1933 -0.1933 0.9811 123.1795 -212.6396)" class="st0" width="3" height="36.6"/>
			</g>
			<g>
				
					<rect x="1218.8" y="538.4" transform="matrix(0.8017 0.5977 -0.5977 0.8017 574.6332 -618.9927)" class="st0" width="3" height="36.6"/>
			</g>
			<g>
				
					<rect x="1268.4" y="595" transform="matrix(0.4747 0.8801 -0.8801 0.4747 1206.8402 -795.5718)" class="st0" width="3" height="36.6"/>
			</g>
			<g>
				
					<rect x="1291.4" y="667.3" transform="matrix(2.635108e-02 0.9997 -0.9997 2.635108e-02 1944.194 -624.8519)" class="st0" width="3" height="36.6"/>
			</g>
			<g>
				
					<rect x="1266.2" y="758.3" transform="matrix(0.9428 0.3334 -0.3334 0.9428 326.7927 -384.7593)" class="st0" width="36.6" height="3"/>
			</g>
			<g>
				
					<rect x="1229.8" y="823.8" transform="matrix(0.7177 0.6964 -0.6964 0.7177 927.0585 -636.1422)" class="st0" width="36.6" height="3"/>
			</g>
			<g>
				
					<rect x="951.9" y="783.9" transform="matrix(0.5285 0.8489 -0.8489 0.5285 1125.3883 -433.9523)" class="st0" width="3" height="24.5"/>
			</g>
			<g>
				
					<rect x="927.5" y="709.7" transform="matrix(8.100430e-02 0.9967 -0.9967 8.100430e-02 1574.3802 -261.531)" class="st0" width="3" height="26.6"/>
			</g>
			<g>
				
					<rect x="924.7" y="645.1" transform="matrix(0.9248 0.3805 -0.3805 0.9248 316.5693 -308.2775)" class="st0" width="26.6" height="3"/>
			</g>
			<g>
				
					<rect x="962.3" y="578.6" transform="matrix(0.7621 0.6474 -0.6474 0.7621 607.683 -493.6543)" class="st0" width="26.6" height="3"/>
			</g>
			<g>
				
					<rect x="1023.5" y="533.7" transform="matrix(0.4022 0.9155 -0.9155 0.4022 1109.8287 -629.3052)" class="st0" width="26.6" height="3"/>
			</g>
			<g>
				
					<rect x="1111.1" y="505.9" transform="matrix(0.9997 2.535860e-02 -2.535860e-02 0.9997 13.5247 -28.0463)" class="st0" width="3" height="26.6"/>
			</g>
			<g>
				
					<rect x="1186.9" y="520.9" transform="matrix(0.9025 0.4307 -0.4307 0.9025 345.9965 -459.7855)" class="st0" width="3" height="26.6"/>
			</g>
			<g>
				
					<rect x="1250" y="567.3" transform="matrix(0.6566 0.7543 -0.7543 0.6566 867.735 -744.6031)" class="st0" width="3" height="26.6"/>
			</g>
			<g>
				
					<rect x="1287.9" y="633.2" transform="matrix(0.3535 0.9354 -0.9354 0.3535 1438.3385 -788.1617)" class="st0" width="3" height="26.6"/>
			</g>
			<g>
				
					<rect x="1284.5" y="721" transform="matrix(0.9962 8.758915e-02 -8.758915e-02 0.9962 68.2682 -110.8966)" class="st0" width="26.6" height="3"/>
			</g>
			<g>
				
					<rect x="1259.9" y="792.9" transform="matrix(0.845 0.5347 -0.5347 0.845 622.1082 -557.7039)" class="st0" width="26.6" height="3"/>
			</g>
		</g>
		<g>
			<path class="st0" d="M1176.6,880.9h-126.3V823h126.3V880.9z M1053.3,877.9h120.2V826h-120.2V877.9z"/>
		</g>
	</g>
	<g>
		<g>
			<g>
				<rect x="671.4" y="548" class="st0" width="11.3" height="38.8"/>
			</g>
			<g>
				
					<rect x="566.8" y="584" transform="matrix(0.6887 -0.7251 0.7251 0.6887 -257.52 607.0231)" class="st1" width="22.6" height="38.8"/>
			</g>
			<g>
				
					<rect x="618.3" y="552" transform="matrix(0.9131 -0.4078 0.4078 0.9131 -179.0493 302.8927)" class="st0" width="5.2" height="38.8"/>
			</g>
			<g>
				
					<rect x="764.4" y="587.2" transform="matrix(-0.6887 -0.7251 0.7251 -0.6887 870.0244 1586.8025)" class="st2" width="22.6" height="38.8"/>
			</g>
			<g>
				
					<rect x="730.3" y="555.2" transform="matrix(-0.9131 -0.4078 0.4078 -0.9131 1167.75 1398.1744)" class="st0" width="5.2" height="38.8"/>
			</g>
			<g>
				<path class="st3" d="M572.6,601l82.3,116.3c-3.8,4.2-6.5,9.4-7.9,15.3c-4.4,18.9,7.3,37.8,26.2,42.2
					c18.9,4.4,37.8-7.3,42.2-26.2c4.4-18.9-7.3-37.8-26.2-42.2c-7.5-1.8-15-0.9-21.7,1.9L572.6,601z"/>
			</g>
			<g>
				<path class="st0" d="M552,623.2l2.7,2.5l-11.3,12.2l18.6,17.2l13.6-14.7l2.7,2.5L562,660.5l-44.7-41.4l16.3-17.6l2.7,2.5
					l-13.6,14.7l18,16.7L552,623.2z"/>
			</g>
			<g>
				<path class="st0" d="M814,642.3l-2.5,2.7l-11.4-10.8l-19,20l-2.9-2.7l41.9-44.2l16.8,15.9l-2.5,2.7l-13.9-13.2l-17.9,18.9
					L814,642.3z"/>
			</g>
			<g>
				<path class="st0" d="M706.6,629l-2.2-4.5c-1-2.1-3.2-3.5-5.5-3.5H697v3.6h1.9c1,0,1.8,0.6,2.2,1.4l2.2,4.5
					c0.2,0.5,0.3,1,0.3,1.5v30.1c0,0.6-0.5,1-1,1c-0.6,0-1-0.5-1-1v-21c0-3.1-2.5-5.7-5.7-5.7h-0.8v-11.3c0-3.1-2.5-5.7-5.7-5.7H679
					h-10.5c-3.1,0-5.7,2.5-5.7,5.7v45.6h-4.6v3.8H679h20.8v-3.8h-4.6v-30.7h0.8c1.1,0,2,0.9,2,2v21c0,2.6,2.1,4.6,4.6,4.6
					c2.6,0,4.6-2.1,4.6-4.6V632C707.3,631,707,629.9,706.6,629z M689.4,640.5H679h-10.4v-17H679h10.4V640.5z"/>
			</g>
		</g>
		<g>
			<path class="st0" d="M745.7,840.9H619.4v-46h126.3V840.9z M622.4,837.9h120.4v-40.1H622.4V837.9z"/>
		</g>
	</g>
	<g>
		<g>
			<path class="st0" d="M940.2,251.2v0.7c0,3-1.4,5.4-4.1,6.4c2.8,0.8,4.1,3.2,4.1,6.2v2.4c0,4.5-1.9,7.8-6.6,7.8
				c-4.7,0-6.6-3.3-6.6-7.8v-1.8h1.9v1.8c0,3.3,1.3,5.8,4.7,5.8c3.4,0,4.7-2.5,4.7-6v-2.4c0-3.2-1.6-5-4.6-5.2h-2.1v-1.8h2.2
				c2.8-0.2,4.5-2.2,4.5-5.1v-1.1c0-3.5-1.3-6-4.7-6c-3.4,0-4.7,2.5-4.7,5.8v1.2h-1.9v-1.1c0-4.5,1.9-7.8,6.6-7.8
				C938.2,243.5,940.2,246.8,940.2,251.2z"/>
			<path class="st0" d="M943.5,251.2c0-4.5,2.1-7.8,6.8-7.8c4.7,0,6.8,3.2,6.8,7.8V267c0,4.5-2.1,7.8-6.8,7.8
				c-4.7,0-6.8-3.3-6.8-7.8V251.2z M945.5,267c0,3.4,1.4,5.8,4.7,5.8c3.4,0,4.7-2.5,4.7-5.8v-15.9c0-3.3-1.4-5.8-4.7-5.8
				c-3.4,0-4.7,2.5-4.7,5.8V267z"/>
		</g>
		<g>
			<path class="st0" d="M1103.3,90.2c0-4.5,2.1-7.8,6.8-7.8c4.7,0,6.8,3.2,6.8,7.8v15.7c0,4.5-2.1,7.8-6.8,7.8
				c-4.7,0-6.8-3.3-6.8-7.8V90.2z M1105.4,106c0,3.4,1.4,5.8,4.7,5.8c3.4,0,4.7-2.5,4.7-5.8V90c0-3.3-1.4-5.8-4.7-5.8
				c-3.4,0-4.7,2.5-4.7,5.8V106z"/>
		</g>
		<g>
			<path class="st0" d="M1279.1,251.2v0.7c0,3-1.4,5.4-4.1,6.4c2.8,0.8,4.1,3.2,4.1,6.2v2.4c0,4.5-1.9,7.8-6.6,7.8
				c-4.7,0-6.6-3.3-6.6-7.8v-1.8h1.9v1.8c0,3.3,1.3,5.8,4.7,5.8c3.4,0,4.7-2.5,4.7-6v-2.4c0-3.2-1.6-5-4.6-5.2h-2.1v-1.8h2.2
				c2.8-0.2,4.5-2.2,4.5-5.1v-1.1c0-3.5-1.3-6-4.7-6c-3.4,0-4.7,2.5-4.7,5.8v1.2h-1.9v-1.1c0-4.5,1.9-7.8,6.6-7.8
				C1277.1,243.5,1279.1,246.8,1279.1,251.2z"/>
			<path class="st0" d="M1282.4,251.2c0-4.5,2.1-7.8,6.8-7.8c4.7,0,6.8,3.2,6.8,7.8V267c0,4.5-2.1,7.8-6.8,7.8
				c-4.7,0-6.8-3.3-6.8-7.8V251.2z M1284.4,267c0,3.4,1.4,5.8,4.7,5.8c3.4,0,4.7-2.5,4.7-5.8v-15.9c0-3.3-1.4-5.8-4.7-5.8
				c-3.4,0-4.7,2.5-4.7,5.8V267z"/>
		</g>
		<g>
			<g>
				<path class="st0" d="M1137.7,220.2v-3.5h-11.9v3.5h-31v-3.5h-11.9v3.5h-12.2v41.6h74.6v-41.6H1137.7z M1141.7,258.3H1074v-34.6
					h67.7V258.3z"/>
			</g>
			<g>
				<rect x="1080.4" y="233" class="st0" width="16.7" height="3.5"/>
			</g>
			<g>
				<polygon class="st0" points="1127.6,243 1131,243 1131,236.4 1137.7,236.4 1137.7,233 1131,233 1131,226.4 1127.6,226.4 
					1127.6,233 1121,233 1121,236.4 1127.6,236.4 				"/>
			</g>
		</g>
		<g>
			<rect x="929.7" y="291.4" class="st0" width="18.7" height="3.9"/>
		</g>
		<g>
			<polygon class="st0" points="1281.2,302.3 1285.1,302.3 1285.1,294.9 1292.5,294.9 1292.5,291 1285.1,291 1285.1,283.6 
				1281.2,283.6 1281.2,291 1273.8,291 1273.8,294.9 1281.2,294.9 			"/>
		</g>
		<g>
			
				<rect x="909.4" y="220.3" transform="matrix(0.7282 0.6854 -0.6854 0.7282 404.2285 -576.4508)" class="st0" width="38.9" height="2.1"/>
		</g>
		<g>
			
				<rect x="1290.1" y="202.6" transform="matrix(0.7086 0.7056 -0.7056 0.7086 532.455 -846.5346)" class="st0" width="2.1" height="37.6"/>
		</g>
		<g>
			
				<rect x="992.3" y="164.7" transform="matrix(0.4217 0.9067 -0.9067 0.4217 735.9798 -822.4966)" class="st0" width="41.1" height="2.1"/>
		</g>
		<g>
			
				<rect x="1208.1" y="145.9" transform="matrix(0.9373 0.3486 -0.3486 0.9373 133.6039 -411.0512)" class="st0" width="2.1" height="39.7"/>
		</g>
		<g>
			
				<rect x="1229.7" y="156.7" transform="matrix(0.8998 0.4363 -0.4363 0.8998 196.5575 -520.114)" class="st0" width="2.1" height="22.5"/>
		</g>
		<g>
			
				<rect x="1246.1" y="166.8" transform="matrix(0.8398 0.5429 -0.5429 0.8398 296.5015 -648.6226)" class="st0" width="2.1" height="22.5"/>
		</g>
		<g>
			
				<rect x="1263.1" y="178.9" transform="matrix(0.7869 0.6171 -0.6171 0.7869 386.7194 -739.5288)" class="st0" width="2.1" height="22.5"/>
		</g>
		<g>
			
				<rect x="1282.1" y="191.5" transform="matrix(0.7368 0.6762 -0.6762 0.7368 474.8768 -814.2202)" class="st0" width="2.1" height="22.5"/>
		</g>
		<g>
			
				<rect x="1129.4" y="126.9" transform="matrix(0.9996 2.831232e-02 -2.831232e-02 0.9996 4.3643 -31.9516)" class="st0" width="2.1" height="22.5"/>
		</g>
		<g>
			
				<rect x="1148.5" y="129.4" transform="matrix(0.9889 0.1485 -0.1485 0.9889 33.6241 -169.1499)" class="st0" width="2.1" height="22.5"/>
		</g>
		<g>
			
				<rect x="1169" y="133.5" transform="matrix(0.9712 0.2384 -0.2384 0.9712 68.2214 -274.7483)" class="st0" width="2.1" height="22.5"/>
		</g>
		<g>
			
				<rect x="1191.5" y="137.1" transform="matrix(0.9498 0.3127 -0.3127 0.9498 106.2135 -365.5153)" class="st0" width="2.1" height="22.5"/>
		</g>
		<g>
			
				<rect x="977.5" y="166.9" transform="matrix(0.4369 0.8995 -0.8995 0.4369 707.7717 -794.8134)" class="st0" width="22.5" height="2.1"/>
		</g>
		<g>
			
				<rect x="961.1" y="177" transform="matrix(0.5427 0.84 -0.84 0.5427 594.2446 -735.3153)" class="st0" width="22.5" height="2.1"/>
		</g>
		<g>
			
				<rect x="944.2" y="189.1" transform="matrix(0.6168 0.7871 -0.7871 0.6168 515.7744 -679.1323)" class="st0" width="22.5" height="2.1"/>
		</g>
		<g>
			
				<rect x="925.2" y="201.7" transform="matrix(0.6758 0.737 -0.737 0.6758 452.9902 -624.4579)" class="st0" width="22.5" height="2.1"/>
		</g>
		<g>
			
				<rect x="1077.8" y="137.1" transform="matrix(2.794955e-02 0.9996 -0.9996 2.794955e-02 1196.6935 -954.3389)" class="st0" width="22.5" height="2.1"/>
		</g>
		<g>
			
				<rect x="1058.7" y="139.5" transform="matrix(0.1488 0.9889 -0.9889 0.1488 1049.7986 -938.3571)" class="st0" width="22.5" height="2.1"/>
		</g>
		<g>
			
				<rect x="1038.3" y="143.6" transform="matrix(0.2382 0.9712 -0.9712 0.2382 940.0605 -909.0762)" class="st0" width="22.5" height="2.1"/>
		</g>
		<g>
			
				<rect x="1015.8" y="147.3" transform="matrix(0.3125 0.9499 -0.9499 0.3125 846.968 -873.5949)" class="st0" width="22.5" height="2.1"/>
		</g>
		<g>
			<polyline class="st3" points="1105.2,140.6 1097.4,435 1118.3,435 1105.2,126.1 1105.2,168.2 			"/>
		</g>
		<g>
			<rect x="1109.4" y="123.8" class="st0" width="2.1" height="44.2"/>
		</g>
		<path class="st3" d="M1107.5,316.8c-10.8,0-19.6,8.8-19.6,19.6s8.8,19.6,19.6,19.6s19.6-8.8,19.6-19.6S1118.3,316.8,1107.5,316.8z
			"/>
	</g>
	<g>
		<path class="st0" d="M770.3,356.5H579.1c-10.5,0-19.1-8.5-19.1-19.1V227.9c0-10.5,8.5-19.1,19.1-19.1h191.3
			c10.5,0,19.1,8.5,19.1,19.1v109.5C789.4,347.9,780.9,356.5,770.3,356.5z"/>
		<text transform="matrix(1 0 0 1 617.0132 311.6621)" class="st4 st5 st6">o mph</text>
		<circle class="st1" cx="524.8" cy="277.7" r="16.7"/>
		<circle class="st2" cx="825.5" cy="277.7" r="16.7"/>
		<rect x="573.5" y="332" class="st4" width="10.5" height="11.5"/>
		<rect x="590.8" y="332" class="st4" width="10.5" height="11.5"/>
		<rect x="608.1" y="332" class="st4" width="10.5" height="11.5"/>
		<rect x="625.5" y="332" class="st4" width="10.5" height="11.5"/>
		<rect x="642.8" y="332" class="st4" width="10.5" height="11.5"/>
		<rect x="660.1" y="332" class="st4" width="10.5" height="11.5"/>
		<rect x="677.5" y="332" class="st4" width="10.5" height="11.5"/>
		<rect x="694.8" y="332" class="st4" width="10.5" height="11.5"/>
		<rect x="712.1" y="332" class="st4" width="10.5" height="11.5"/>
		<rect x="729.5" y="332" class="st4" width="10.5" height="11.5"/>
		<rect x="746.8" y="332" class="st4" width="10.5" height="11.5"/>
		<rect x="764.1" y="332" class="st4" width="10.5" height="11.5"/>
		<rect x="573.5" y="221" class="st4" width="10.5" height="11.5"/>
		<rect x="590.8" y="221" class="st4" width="10.5" height="11.5"/>
		<rect x="608.1" y="221" class="st4" width="10.5" height="11.5"/>
		<rect x="625.5" y="221" class="st4" width="10.5" height="11.5"/>
		<rect x="642.8" y="221" class="st4" width="10.5" height="11.5"/>
		<rect x="660.1" y="221" class="st4" width="10.5" height="11.5"/>
		<rect x="677.5" y="221" class="st4" width="10.5" height="11.5"/>
		<rect x="694.8" y="221" class="st4" width="10.5" height="11.5"/>
		<rect x="712.1" y="221" class="st4" width="10.5" height="11.5"/>
		<rect x="729.5" y="221" class="st4" width="10.5" height="11.5"/>
		<rect x="746.8" y="221" class="st4" width="10.5" height="11.5"/>
		<rect x="764.1" y="221" class="st4" width="10.5" height="11.5"/>
	</g>
</g>
<g id="Designed_by_Vecteezy">
	<g>
		<g>
			<g>
				<path class="st7" d="M732.3,937.7c0.8,0,1.6,0.7,1.6,0.7L720,968.2c-1.5,0-5.2,0.2-6.1,0.2c-0.8,0-1.6-0.7-1.6-0.7l-4.8-29.8
					c2.9,0,6.5-0.2,7.6-0.2c0.8,0,1.6,0.7,1.6,0.7l1.5,14.6c0.1,1.3,0.1,3,0.1,4.8c0.5-2,1-3.9,1.5-5.2l5.8-14.7
					C728.1,937.9,731.3,937.7,732.3,937.7L732.3,937.7z"/>
			</g>
			<g>
				<path class="st7" d="M746.6,952.4c0,3.2-1.8,5.4-6.3,6.3l-4.7,1c0.4,2,1.6,3,3.8,3c2.6,0,4.4-2,4.4-2s1.3,0.7,1.3,2.3
					c0,2.7-4.1,5.6-9,5.6c-4.9,0-8.1-3.1-8.1-8.3c0-6,4.3-14.2,11.9-14.2C744,946.1,746.6,948.6,746.6,952.4L746.6,952.4z
					 M738.6,955.5c1-0.3,1.3-1.2,1.3-2.1c0-0.9-0.3-2.2-1.3-2.2c-1.9,0-2.7,3-3,5.3L738.6,955.5z"/>
			</g>
			<g>
				<path class="st7" d="M759.4,946.1c3.8,0,6.7,2,6.7,4.7c0,3.3-4,4.5-4,4.5s-1.2-3.6-3.9-3.6c-1.8,0-2.9,1.8-2.9,5.8
					c0,3.6,1,5.2,3.3,5.2c2.4,0,3.9-1.6,3.9-1.6s1.3,0.7,1.3,2.2c0,2.6-4,5.3-8.6,5.3c-4.9,0-8-3.1-8-8.2
					C747.3,954.3,751.7,946.1,759.4,946.1L759.4,946.1z"/>
			</g>
			<g>
				<path class="st7" d="M777.8,941.3c0.9,0,1.5,0.7,1.5,0.7l-0.7,4.5h4.8l-1.1,3.5c-0.4,1.1-0.9,1.7-2,1.7h-2.5l-1.4,8.9
					c-0.2,1.4,0.1,2.1,1.1,2.1c0.9,0,1.8-0.5,1.8-0.5s1.3,0.7,1.3,2.2c0,2.2-3.1,4.3-7,4.3c-4.1,0-5.8-2.5-5.1-7l1.6-9.9h-2.6
					l1.1-3.6c0.3-0.9,1.1-1.6,2-1.6h1.3l1.5-4.2C775.2,941.9,777,941.3,777.8,941.3L777.8,941.3z"/>
			</g>
			<g>
				<path class="st7" d="M801.2,952.4c0,3.2-1.8,5.4-6.3,6.3l-4.7,1c0.4,2,1.6,3,3.8,3c2.6,0,4.4-2,4.4-2s1.3,0.7,1.3,2.3
					c0,2.7-4.1,5.6-9,5.6c-4.9,0-8.1-3.1-8.1-8.3c0-6,4.3-14.2,11.9-14.2C798.6,946.1,801.2,948.6,801.2,952.4L801.2,952.4z
					 M793.2,955.5c1-0.3,1.3-1.2,1.3-2.1c0-0.9-0.3-2.2-1.3-2.2c-1.9,0-2.7,3-3,5.3L793.2,955.5z"/>
			</g>
			<g>
				<path class="st7" d="M820.5,952.4c0,3.2-1.8,5.4-6.3,6.3l-4.7,1c0.4,2,1.6,3,3.8,3c2.6,0,4.4-2,4.4-2s1.3,0.7,1.3,2.3
					c0,2.7-4.1,5.6-9,5.6c-4.9,0-8.1-3.1-8.1-8.3c0-6,4.3-14.2,11.9-14.2C817.9,946.1,820.5,948.6,820.5,952.4L820.5,952.4z
					 M812.5,955.5c1-0.3,1.3-1.2,1.3-2.1c0-0.9-0.3-2.2-1.3-2.2c-1.9,0-2.7,3-3,5.3L812.5,955.5z"/>
			</g>
			<g>
				<path class="st7" d="M836.3,960.5c0,0,1.6,1.5,1.6,4c0,3.3-2.8,4.2-5.2,4.2c-3.1,0-5.3-1.5-7.6-2.3c-0.6,0.7-1.3,1.5-1.9,2.3
					c0,0-3.5-0.1-3.5-2.4c0-2.9,4.8-7.8,9.9-13.4c-0.6-0.1-1.2-0.2-1.7-0.2c-2.9,0-4.1,1.5-4.1,1.5s-1.5-1.7-1.4-4
					c0.2-3.1,3.1-4,5.5-4c2.5,0,4.3,1,6.1,1.7l1.5-1.7c0,0,3.5,0.1,3.5,2.5c0,2.8-4.6,7.6-9.6,13c1.1,0.3,2,0.5,3,0.5
					C835.1,962.2,836.3,960.5,836.3,960.5L836.3,960.5z"/>
			</g>
			<g>
				<path class="st7" d="M858.7,966.7c-1.2,7.6-6.4,11.4-13,11.4c-4.2,0-7.3-2.2-7.3-4.8c0-1.7,1.4-2.5,1.4-2.5s1.4,1.3,4.2,1.3
					c2.6,0,6.2-1.1,6.8-5.1l0.5-3.1c-1.8,2.6-4.1,4.6-7.1,4.6c-3.3,0-4.8-2.7-3.9-8.3l0.9-6c0.6-3.7,0.7-6.7,0.7-6.7
					c2.4-0.4,5.5-1.5,6.6-1.5c0.8,0,1.6,0.7,1.6,0.7l-1.2,7.5l-1.1,6.9c-0.1,0.6,0,1,0.6,1c2.8,0,4.3-7.9,4.3-7.9
					c0.6-3.7,0.7-6.7,0.7-6.7c2.4-0.4,5.5-1.5,6.6-1.5c0.9,0,1.6,0.7,1.6,0.7l-1.2,7.5L858.7,966.7z"/>
			</g>
		</g>
		<g>
			<path class="st7" d="M538.1,947.4h7.4c1.7,0,3,0.1,3.8,0.4c1.2,0.3,2.2,1,3,1.9c0.8,0.9,1.5,2,1.9,3.3c0.4,1.3,0.7,2.9,0.7,4.8
				c0,1.7-0.2,3.1-0.6,4.3c-0.5,1.5-1.2,2.7-2.2,3.6c-0.7,0.7-1.7,1.2-2.9,1.6c-0.9,0.3-2.1,0.4-3.6,0.4h-7.7V947.4z M542.2,950.8
				v13.4h3c1.1,0,2-0.1,2.5-0.2c0.7-0.2,1.2-0.4,1.6-0.8c0.4-0.4,0.8-1,1.1-1.9c0.3-0.9,0.4-2.1,0.4-3.7c0-1.6-0.1-2.8-0.4-3.6
				c-0.3-0.8-0.7-1.5-1.2-2c-0.5-0.5-1.1-0.8-1.9-0.9c-0.6-0.1-1.7-0.2-3.3-0.2H542.2z"/>
			<path class="st7" d="M566.4,962.9l3.9,0.6c-0.5,1.4-1.3,2.5-2.3,3.2c-1.1,0.7-2.4,1.1-4,1.1c-2.5,0-4.4-0.8-5.6-2.5
				c-1-1.3-1.4-3-1.4-5c0-2.4,0.6-4.3,1.9-5.7c1.3-1.4,2.9-2.1,4.8-2.1c2.2,0,3.9,0.7,5.1,2.2c1.3,1.4,1.9,3.6,1.8,6.6h-9.7
				c0,1.1,0.3,2,0.9,2.7c0.6,0.6,1.3,1,2.2,1c0.6,0,1.1-0.2,1.5-0.5C565.8,964.1,566.2,963.6,566.4,962.9z M566.6,959
				c0-1.1-0.3-2-0.9-2.6c-0.6-0.6-1.2-0.9-2-0.9c-0.8,0-1.5,0.3-2.1,0.9c-0.6,0.6-0.8,1.4-0.8,2.5H566.6z"/>
			<path class="st7" d="M571.6,963.4l3.9-0.6c0.2,0.8,0.5,1.3,1,1.7c0.5,0.4,1.2,0.6,2.1,0.6c1,0,1.8-0.2,2.3-0.6
				c0.3-0.3,0.5-0.6,0.5-1c0-0.3-0.1-0.5-0.3-0.7c-0.2-0.2-0.6-0.4-1.3-0.5c-3.1-0.7-5.1-1.3-5.9-1.9c-1.2-0.8-1.7-1.9-1.7-3.3
				c0-1.3,0.5-2.3,1.5-3.2c1-0.9,2.6-1.3,4.7-1.3c2,0,3.5,0.3,4.5,1c1,0.7,1.6,1.6,2,2.9l-3.6,0.7c-0.2-0.6-0.5-1-0.9-1.3
				c-0.4-0.3-1.1-0.5-1.9-0.5c-1,0-1.7,0.1-2.2,0.4c-0.3,0.2-0.4,0.5-0.4,0.8c0,0.3,0.1,0.5,0.4,0.7c0.3,0.3,1.6,0.6,3.6,1.1
				c2.1,0.5,3.5,1,4.3,1.7c0.8,0.7,1.2,1.6,1.2,2.9c0,1.3-0.6,2.5-1.7,3.5c-1.1,1-2.8,1.4-5,1.4c-2,0-3.6-0.4-4.7-1.2
				C572.8,965.8,572,964.7,571.6,963.4z"/>
			<path class="st7" d="M588.1,950.9v-3.6h3.9v3.6H588.1z M588.1,967.5v-14.6h3.9v14.6H588.1z"/>
			<path class="st7" d="M595,968.5l4.4,0.5c0.1,0.5,0.2,0.9,0.5,1.1c0.4,0.3,0.9,0.4,1.7,0.4c1,0,1.8-0.2,2.3-0.5
				c0.3-0.2,0.6-0.5,0.8-1c0.1-0.3,0.2-0.9,0.2-1.8v-2.1c-1.2,1.6-2.6,2.4-4.4,2.4c-2,0-3.5-0.8-4.7-2.5c-0.9-1.3-1.3-2.9-1.3-4.9
				c0-2.4,0.6-4.3,1.8-5.6c1.2-1.3,2.6-1.9,4.4-1.9c1.8,0,3.3,0.8,4.5,2.4v-2.1h3.6V966c0,1.7-0.1,3-0.4,3.9c-0.3,0.9-0.7,1.5-1.2,2
				c-0.5,0.5-1.2,0.9-2.1,1.1c-0.9,0.3-1.9,0.4-3.3,0.4c-2.5,0-4.2-0.4-5.3-1.3s-1.6-1.9-1.6-3.2C595,968.8,595,968.7,595,968.5z
				 M598.5,959.9c0,1.6,0.3,2.7,0.9,3.4c0.6,0.7,1.3,1.1,2.2,1.1c0.9,0,1.7-0.4,2.4-1.1c0.7-0.7,1-1.8,1-3.3c0-1.5-0.3-2.6-0.9-3.4
				c-0.6-0.7-1.4-1.1-2.4-1.1c-0.9,0-1.7,0.4-2.3,1.1C598.8,957.3,598.5,958.4,598.5,959.9z"/>
			<path class="st7" d="M625.3,967.5h-3.9v-7.5c0-1.6-0.1-2.6-0.2-3.1c-0.2-0.5-0.4-0.8-0.8-1.1c-0.4-0.3-0.8-0.4-1.3-0.4
				c-0.7,0-1.3,0.2-1.8,0.6c-0.5,0.4-0.9,0.9-1.1,1.5c-0.2,0.6-0.3,1.7-0.3,3.4v6.6H612v-14.6h3.6v2.1c1.3-1.7,2.9-2.5,4.8-2.5
				c0.9,0,1.6,0.2,2.3,0.5c0.7,0.3,1.2,0.7,1.6,1.2c0.4,0.5,0.6,1,0.8,1.6c0.1,0.6,0.2,1.5,0.2,2.6V967.5z"/>
			<path class="st7" d="M637.2,962.9l3.9,0.6c-0.5,1.4-1.3,2.5-2.3,3.2c-1.1,0.7-2.4,1.1-4,1.1c-2.5,0-4.4-0.8-5.6-2.5
				c-1-1.3-1.4-3-1.4-5c0-2.4,0.6-4.3,1.9-5.7c1.3-1.4,2.9-2.1,4.8-2.1c2.2,0,3.9,0.7,5.1,2.2c1.3,1.4,1.9,3.6,1.8,6.6h-9.7
				c0,1.1,0.3,2,0.9,2.7c0.6,0.6,1.3,1,2.2,1c0.6,0,1.1-0.2,1.5-0.5C636.6,964.1,636.9,963.6,637.2,962.9z M637.4,959
				c0-1.1-0.3-2-0.9-2.6c-0.6-0.6-1.2-0.9-2-0.9c-0.8,0-1.5,0.3-2.1,0.9c-0.6,0.6-0.8,1.4-0.8,2.5H637.4z"/>
			<path class="st7" d="M657.2,967.5h-3.6v-2.1c-0.6,0.8-1.3,1.5-2.1,1.9c-0.8,0.4-1.6,0.6-2.5,0.6c-1.7,0-3.1-0.7-4.3-2
				c-1.2-1.4-1.8-3.2-1.8-5.7c0-2.5,0.6-4.4,1.7-5.7c1.2-1.3,2.6-1.9,4.4-1.9c1.6,0,3,0.7,4.2,2v-7.3h3.9V967.5z M646.9,959.9
				c0,1.6,0.2,2.7,0.6,3.4c0.6,1,1.5,1.5,2.6,1.5c0.9,0,1.6-0.4,2.3-1.1c0.6-0.8,0.9-1.9,0.9-3.4c0-1.7-0.3-2.9-0.9-3.6
				c-0.6-0.7-1.4-1.1-2.3-1.1c-0.9,0-1.7,0.4-2.3,1.1C647.2,957.4,646.9,958.5,646.9,959.9z"/>
			<path class="st7" d="M667.6,967.5v-20.2h3.9v7.3c1.2-1.4,2.6-2,4.2-2c1.8,0,3.3,0.6,4.4,1.9c1.2,1.3,1.7,3.1,1.7,5.6
				c0,2.5-0.6,4.4-1.8,5.8c-1.2,1.3-2.6,2-4.3,2c-0.8,0-1.7-0.2-2.5-0.6c-0.8-0.4-1.5-1-2.1-1.9v2.1H667.6z M671.4,959.9
				c0,1.5,0.2,2.6,0.7,3.4c0.7,1,1.6,1.5,2.7,1.5c0.9,0,1.6-0.4,2.2-1.1c0.6-0.7,0.9-1.9,0.9-3.4c0-1.7-0.3-2.9-0.9-3.6
				c-0.6-0.7-1.4-1.1-2.3-1.1c-0.9,0-1.7,0.4-2.3,1.1C671.7,957.3,671.4,958.4,671.4,959.9z"/>
			<path class="st7" d="M682.6,952.9h4.1l3.5,10.4l3.4-10.4h4l-5.2,14.1l-0.9,2.5c-0.3,0.9-0.7,1.5-1,2c-0.3,0.4-0.7,0.8-1.1,1.1
				c-0.4,0.3-0.9,0.5-1.5,0.7c-0.6,0.2-1.2,0.2-2,0.2c-0.7,0-1.5-0.1-2.2-0.2l-0.3-3c0.6,0.1,1.2,0.2,1.6,0.2c0.9,0,1.6-0.3,2-0.8
				c0.4-0.5,0.8-1.2,1-2L682.6,952.9z"/>
		</g>
	</g>
</g>
</svg>
