<?xml version="1.0" encoding="utf-8"?>
<svg id="master-artboard" viewBox="0 0 1400 980" version="1.1" xmlns="http://www.w3.org/2000/svg" x="0px" y="0px" style="enable-background:new 0 0 1400 980;" width="1400px" height="980px"><g transform="matrix(0.875, 0, 0, 0.875, 0.000013325312465894967, 52.49999555822933)"><path d="M 0 0 H 1600 V 1000 H 0 V 0 Z" class="st0" style="fill: rgb(32, 32, 73);"/><g>
	<path d="M 676.400024 537 H 923.700027 V 784.300003 H 676.400024 V 537 Z" class="st0" style="fill: rgb(32, 32, 73);"/>
	<g>
		<path d="M 794.2999877929688 745 L 797.2000122070312 648.0999755859375 L 874.2999877929688 570 L 922.4000244140625 601.4000244140625 L 922.4000244140625 579.7000122070312 L 887.2999877929688 556.7999877929688 L 907.7999877929688 536.0999755859375 L 882.2000122070312 536.0999755859375 L 788.5999755859375 630.9000244140625 L 707 536.0999755859375 L 682.9000244140625 536.0999755859375 L 720.7000122070312 579.9000244140625 L 677.5999755859375 658.2000122070312 L 677.5999755859375 696 L 733.4000244140625 594.5999755859375 L 779 647.5999755859375 L 775.0999755859375 780.9000244140625 L 793.2999877929688 780.9000244140625 L 793.7999877929688 763.2000122070312 L 922.4000244140625 755.5999755859375 L 922.4000244140625 737.4000244140625 Z" class="st1" style="fill: rgb(255, 255, 255);"/>
		
			<path d="M 773.799988 768.900024 H 791.799988 V 777.900024 H 773.799988 V 768.900024 Z" transform="matrix(5.750922e-02 -0.9983 0.9983 5.750922e-02 -34.4296 1510.4265)" class="st2" style="fill: rgb(153, 224, 255);"/>
		
			<path d="M 775.799988 733 H 793.799988 V 742 H 775.799988 V 733 Z" transform="matrix(5.750997e-02 -0.9983 0.9983 5.750997e-02 3.4006 1478.6178)" class="st2" style="fill: rgb(153, 224, 255);"/>
		
			<path d="M 777.900024 697.099976 H 795.900024 V 706.099976 H 777.900024 V 697.099976 Z" transform="matrix(5.749815e-02 -0.9983 0.9983 5.749815e-02 41.2407 1446.8191)" class="st2" style="fill: rgb(153, 224, 255);"/>
		
			<path d="M 780 661.099976 H 798 V 670.099976 H 780 V 661.099976 Z" transform="matrix(5.750986e-02 -0.9983 0.9983 5.750986e-02 79.0628 1415.0022)" class="st3" style="fill: rgb(51, 173, 255);"/>
		
			<path d="M 775.200012 624.599976 H 784.200012 V 642.599976 H 775.200012 V 624.599976 Z" transform="matrix(0.7523 -0.6588 0.6588 0.7523 -224.2727 670.5959)" class="st3" style="fill: rgb(51, 173, 255);"/>
		
			<path d="M 751.5 597.5 H 760.5 V 615.5 H 751.5 V 597.5 Z" transform="matrix(0.7523 -0.6588 0.6588 0.7523 -212.3028 648.299)" class="st3" style="fill: rgb(51, 173, 255);"/>
		
			<path d="M 727.799988 570.400024 H 736.799988 V 588.400024 H 727.799988 V 570.400024 Z" transform="matrix(0.7523 -0.6588 0.6588 0.7523 -200.336 625.9312)" class="st3" style="fill: rgb(51, 173, 255);"/>
		
			<path d="M 704.099976 543.299988 H 713.099976 V 561.299988 H 704.099976 V 543.299988 Z" transform="matrix(0.7523 -0.6588 0.6588 0.7523 -188.3675 603.5992)" class="st3" style="fill: rgb(51, 173, 255);"/>
		<path class="st4" d="M922.4,536.1v244.8H677.6V536.1H922.4 M925.8,532.7h-3.4H677.6h-3.4v3.4v244.8v3.4h3.4h244.8h3.4v-3.4V536.1&#10;&#9;&#9;&#9;V532.7L925.8,532.7z" style="fill: rgb(36, 105, 206);"/>
		<path d="M 808.9000244140625 712.2999877929688 L 787.7000122070312 704.7000122070312 L 766.5999755859375 712.2999877929688 L 787.7000122070312 671.2000122070312 Z" class="st5" style="fill: rgb(242, 154, 63);"/>
	</g>
	<g>
		
			<path d="M 837.599998 403.5 A 37.599998 37.599998 0 0 1 800 441.099998 A 37.599998 37.599998 0 0 1 762.400002 403.5 A 37.599998 37.599998 0 0 1 800 365.900002 A 37.599998 37.599998 0 0 1 837.599998 403.5 Z" transform="matrix(0.1774 -0.9841 0.9841 0.1774 260.9966 1119.2632)" class="st3" style="fill: rgb(51, 173, 255);"/>
		<path d="M 799.9000244140625 385.29998779296875 L 803.7999877929688 381.3999938964844 L 786 376.6000061035156 L 790.7999877929688 394.3999938964844 L 794.7000122070312 390.5 L 806.5999755859375 402.29998779296875 L 806.5999755859375 430.3999938964844 L 814 430.3999938964844 L 814 399.29998779296875 Z" class="st0" style="fill: rgb(32, 32, 73);"/>
	</g>
	<text transform="matrix(1 0 0 1 763.4774 486.5811)" class="st6 st7 st8" style="white-space: pre;  fill: rgb(238, 242, 243);  font-family: 'Roboto-BlackItalic';  font-size: 37.0197px; ;  font-weight: Roboto-BlackItalic">30m</text>
	<g>
		<g>
			<g>
				<path class="st5" d="M231.6,711.5c-35.4-34.5-54.8-80.6-54.8-130c0-42,14.7-82.9,41.3-115.3c26.3-31.9,62.9-54.1,103.2-62.4&#10;&#9;&#9;&#9;&#9;&#9;l3,14.7c-36.9,7.6-70.5,28-94.6,57.3c-24.4,29.7-37.9,67.2-37.9,105.7c0,45.3,17.9,87.6,50.3,119.2L231.6,711.5z" style="fill: rgb(242, 154, 63);"/>
			</g>
			<g>
				<g>
					<g>
						<g>
							<g>
								<g>
									
										<path d="M 443.799988 414.600006 H 462.699987 V 419.200006 H 443.799988 V 414.600006 Z" transform="matrix(0.5 -0.866 0.866 0.5 -134.4084 600.9973)" class="st9" style="fill: rgb(215, 234, 247);"/>
								</g>
								<g>
									
										<path d="M 253.699997 743.900024 H 272.599997 V 748.500024 H 253.699997 V 743.900024 Z" transform="matrix(0.5 -0.866 0.866 0.5 -514.5757 600.9941)" class="st9" style="fill: rgb(215, 234, 247);"/>
								</g>
							</g>
							<g>
								<g>
									
										<path d="M 513.400024 484.200012 H 532.300024 V 488.800012 H 513.400024 V 484.200012 Z" transform="matrix(0.866 -0.5 0.5 0.866 -173.1869 326.5969)" class="st9" style="fill: rgb(215, 234, 247);"/>
								</g>
								<g>
									
										<path d="M 184.199997 674.299988 H 203.099997 V 678.899988 H 184.199997 V 674.299988 Z" transform="matrix(0.866 -0.5 0.5 0.866 -312.3354 187.4465)" class="st9" style="fill: rgb(215, 234, 247);"/>
								</g>
							</g>
							<g>
								<g>
									<path d="M 538.900024 579.200012 H 557.800024 V 583.800012 H 538.900024 V 579.200012 Z" class="st9" style="fill: rgb(215, 234, 247);"/>
								</g>
								<g>
									<path d="M 158.699997 579.200012 H 177.599997 V 583.800012 H 158.699997 V 579.200012 Z" class="st9" style="fill: rgb(215, 234, 247);"/>
								</g>
							</g>
							<g>
								<g>
									
										<path d="M 520.599976 667.099976 H 525.199975 V 685.999975 H 520.599976 V 667.099976 Z" transform="matrix(0.5 -0.866 0.866 0.5 -324.4915 791.0954)" class="st9" style="fill: rgb(215, 234, 247);"/>
								</g>
								<g>
									
										<path d="M 191.300003 477 H 195.900003 V 495.9 H 191.300003 V 477 Z" transform="matrix(0.5 -0.866 0.866 0.5 -324.4919 410.9218)" class="st9" style="fill: rgb(215, 234, 247);"/>
								</g>
							</g>
							<g>
								<g>
									
										<path d="M 451 736.700012 H 455.6 V 755.600012 H 451 V 736.700012 Z" transform="matrix(0.866 -0.5 0.5 0.866 -312.3409 326.6043)" class="st9" style="fill: rgb(215, 234, 247);"/>
								</g>
								<g>
									
										<path d="M 260.899994 407.399994 H 265.499994 V 426.299994 H 260.899994 V 407.399994 Z" transform="matrix(0.866 -0.5 0.5 0.866 -173.1885 187.4522)" class="st9" style="fill: rgb(215, 234, 247);"/>
								</g>
							</g>
							<g>
								<g>
									<path d="M 356 382 H 360.6 V 400.9 H 356 V 382 Z" class="st9" style="fill: rgb(215, 234, 247);"/>
								</g>
							</g>
						</g>
						<g>
							<g>
								<g>
									
										<path d="M 521.599976 531.5 H 551.499975 V 536.1 H 521.599976 V 531.5 Z" transform="matrix(0.9659 -0.2588 0.2588 0.9659 -119.8656 157.0618)" class="st9" style="fill: rgb(215, 234, 247);"/>
								</g>
								<g>
									
										<path d="M 165 627 H 194.9 V 631.6 H 165 V 627 Z" transform="matrix(0.9659 -0.2588 0.2588 0.9659 -156.7491 68.0185)" class="st9" style="fill: rgb(215, 234, 247);"/>
								</g>
							</g>
							<g>
								<g>
									
										<path d="M 534.299988 614.299988 H 538.899988 V 644.199987 H 534.299988 V 614.299988 Z" transform="matrix(0.2588 -0.9659 0.9659 0.2588 -210.1833 984.675)" class="st9" style="fill: rgb(215, 234, 247);"/>
								</g>
								<g>
									
										<path d="M 177.699997 518.799988 H 182.299997 V 548.699987 H 177.699997 V 518.799988 Z" transform="matrix(0.2588 -0.9659 0.9659 0.2588 -382.1911 569.4047)" class="st9" style="fill: rgb(215, 234, 247);"/>
								</g>
							</g>
							<g>
								<g>
									
										<path d="M 486.5 697.099976 H 491.1 V 726.999975 H 486.5 V 697.099976 Z" transform="matrix(0.7071 -0.7071 0.7071 0.7071 -360.339 554.176)" class="st9" style="fill: rgb(215, 234, 247);"/>
								</g>
								<g>
									
										<path d="M 225.399994 436 H 229.999994 V 465.9 H 225.399994 V 436 Z" transform="matrix(0.7071 -0.7071 0.7071 0.7071 -252.2059 293.113)" class="st9" style="fill: rgb(215, 234, 247);"/>
								</g>
							</g>
							<g>
								<g>
									
										<path d="M 308.200012 388.299988 H 312.800012 V 418.199987 H 308.200012 V 388.299988 Z" transform="matrix(0.9659 -0.2588 0.2588 0.9659 -93.7857 94.0984)" class="st9" style="fill: rgb(215, 234, 247);"/>
								</g>
							</g>
							<g>
								<g>
									
										<path d="M 391.100006 400.899994 H 421.000006 V 405.499994 H 391.100006 V 400.899994 Z" transform="matrix(0.2588 -0.9659 0.9659 0.2588 -88.552 691.0359)" class="st9" style="fill: rgb(215, 234, 247);"/>
								</g>
							</g>
							<g>
								<g>
									
										<path d="M 212.800003 709.799988 H 242.700003 V 714.399988 H 212.800003 V 709.799988 Z" transform="matrix(0.7071 -0.7071 0.7071 0.7071 -436.7916 369.5629)" class="st9" style="fill: rgb(215, 234, 247);"/>
								</g>
								<g>
									
										<path d="M 473.799988 448.700012 H 503.699987 V 453.300012 H 473.799988 V 448.700012 Z" transform="matrix(0.7071 -0.7071 0.7071 0.7071 -175.7457 477.705)" class="st9" style="fill: rgb(215, 234, 247);"/>
								</g>
							</g>
						</g>
					</g>
					<g>
						<path class="st4" d="M358.2,784.3c-36.5,0-72.2-9.8-103.4-28.3l3.3-5.5c30.2,17.9,64.8,27.4,100.1,27.4&#10;&#9;&#9;&#9;&#9;&#9;&#9;&#9;c35.3,0,69.9-9.5,100.1-27.4l3.3,5.5C430.5,774.5,394.7,784.3,358.2,784.3z" style="fill: rgb(36, 105, 206);"/>
					</g>
					<g>
						<path class="st4" d="M500,726.5l-4.5-4.6c38.1-37.3,59.1-87.1,59.1-140.4c0-52.4-20.4-101.8-57.5-138.8&#10;&#9;&#9;&#9;&#9;&#9;&#9;&#9;c-37.1-37.1-86.4-57.5-138.8-57.5s-101.8,20.4-138.8,57.5c-37.1,37.1-57.5,86.4-57.5,138.8c0,53.3,21,103.2,59.1,140.4&#10;&#9;&#9;&#9;&#9;&#9;&#9;&#9;l-4.5,4.6c-39.4-38.5-61-90-61-145c0-54.2,21.1-105.1,59.4-143.4c38.3-38.3,89.2-59.4,143.4-59.4s105.1,21.1,143.4,59.4&#10;&#9;&#9;&#9;&#9;&#9;&#9;&#9;c38.3,38.3,59.4,89.2,59.4,143.4C561,636.6,539.3,688.1,500,726.5z" style="fill: rgb(36, 105, 206);"/>
					</g>
				</g>
			</g>
			<path class="st1" d="M370.3,682.4l-1.8,1.8l1.8,1.8v6.5l4.8,4.8v13.8h-3.6v-9.4h-4.7V679h-27.9v41.5h27.9v-16.3h2.1v9.4h8.8v-24&#10;&#9;&#9;&#9;&#9;L370.3,682.4z M361.1,695.2h-16.6v-11.8h16.6V695.2z M375.1,693.7l-2.2-2.2v-2.9l2.2,2.2V693.7z" style="fill: rgb(255, 255, 255);"/>
			<path class="st10" d="M383.6,766.4c-8.3,1.1-16.8,1.7-25.4,1.7c-29.6,0-57.6-6.9-82.5-19.2" style="fill: none; stroke: rgb(51, 173, 255); stroke-width: 7; stroke-miterlimit: 10;"/>
			<text transform="matrix(1 0 0 1 289.4716 617.0027)" class="st1 st7 st11" style="white-space: pre;  fill: rgb(255, 255, 255);  font-family: 'Roboto-BlackItalic';  font-size: 121.415px; ;  font-weight: Roboto-BlackItalic">76</text>
			<text transform="matrix(1 0 0 1 332.534 650.9186)" class="st1 st7 st12" style="white-space: pre;  fill: rgb(255, 255, 255);  font-family: 'Roboto-BlackItalic';  font-size: 22.6738px; ;  font-weight: Roboto-BlackItalic">km/h</text>
		</g>
		<g>
			<g>
				<path class="st5" d="M1116.1,711.5c-35.4-34.5-54.8-80.6-54.8-130c0-100.1,81.4-181.5,181.5-181.5c44,0,86.4,15.9,119.4,44.9&#10;&#9;&#9;&#9;&#9;&#9;c32.7,28.6,54.1,68,60.2,110.9l-14.9,2.1c-5.6-39.3-25.2-75.4-55.2-101.7c-30.3-26.5-69.2-41.1-109.6-41.1&#10;&#9;&#9;&#9;&#9;&#9;c-91.8,0-166.5,74.7-166.5,166.5c0,45.3,17.9,87.6,50.3,119.2L1116.1,711.5z" style="fill: rgb(242, 154, 63);"/>
			</g>
			<path class="st10" d="M1226.4,767.5c-23.9-1.9-46.6-8.4-67.2-18.6" style="fill: none; stroke: rgb(51, 173, 255); stroke-width: 7; stroke-miterlimit: 10;"/>
			<g>
				<g>
					<g>
						<g>
							<g>
								
									<path d="M 1327.300049 414.600006 H 1346.200048 V 419.200006 H 1327.300049 V 414.600006 Z" transform="matrix(0.5 -0.866 0.866 0.5 307.3378 1366.1385)" class="st9" style="fill: rgb(215, 234, 247);"/>
							</g>
							<g>
								
									<path d="M 1137.300049 743.900024 H 1156.200048 V 748.500024 H 1137.300049 V 743.900024 Z" transform="matrix(0.5 -0.866 0.866 0.5 -72.8296 1366.1354)" class="st9" style="fill: rgb(215, 234, 247);"/>
							</g>
						</g>
						<g>
							<g>
								
									<path d="M 1396.900024 484.200012 H 1415.800024 V 488.800012 H 1396.900024 V 484.200012 Z" transform="matrix(0.866 -0.5 0.5 0.866 -54.824 768.3453)" class="st9" style="fill: rgb(215, 234, 247);"/>
							</g>
							<g>
								
									<path d="M 1067.699951 674.299988 H 1086.599951 V 678.899988 H 1067.699951 V 674.299988 Z" transform="matrix(0.866 -0.5 0.5 0.866 -193.9725 629.1949)" class="st9" style="fill: rgb(215, 234, 247);"/>
							</g>
						</g>
						<g>
							<g>
								<path d="M 1422.400024 579.200012 H 1441.300024 V 583.800012 H 1422.400024 V 579.200012 Z" class="st13" style="fill: rgb(145, 36, 57);"/>
							</g>
							<g>
								<path d="M 1042.199951 579.200012 H 1061.099951 V 583.800012 H 1042.199951 V 579.200012 Z" class="st9" style="fill: rgb(215, 234, 247);"/>
							</g>
						</g>
						<g>
							<g>
								
									<path d="M 1404.099976 667.099976 H 1408.699975 V 685.999975 H 1404.099976 V 667.099976 Z" transform="matrix(0.5 -0.866 0.866 0.5 117.2692 1556.245)" class="st13" style="fill: rgb(145, 36, 57);"/>
							</g>
							<g>
								
									<path d="M 1074.800049 477 H 1079.400049 V 495.9 H 1074.800049 V 477 Z" transform="matrix(0.5 -0.866 0.866 0.5 117.2687 1176.0714)" class="st9" style="fill: rgb(215, 234, 247);"/>
							</g>
						</g>
						<g>
							<g>
								
									<path d="M 1334.5 736.700012 H 1339.1 V 755.600012 H 1334.5 V 736.700012 Z" transform="matrix(0.866 -0.5 0.5 0.866 -193.9731 768.361)" class="st9" style="fill: rgb(215, 234, 247);"/>
							</g>
							<g>
								
									<path d="M 1144.400024 407.399994 H 1149.000024 V 426.299994 H 1144.400024 V 407.399994 Z" transform="matrix(0.866 -0.5 0.5 0.866 -54.8207 629.209)" class="st9" style="fill: rgb(215, 234, 247);"/>
							</g>
						</g>
						<g>
							<g>
								<path d="M 1239.5 762.099976 H 1244.1 V 780.999975 H 1239.5 V 762.099976 Z" class="st9" style="fill: rgb(215, 234, 247);"/>
							</g>
							<g>
								<path d="M 1239.5 382 H 1244.1 V 400.9 H 1239.5 V 382 Z" class="st9" style="fill: rgb(215, 234, 247);"/>
							</g>
						</g>
					</g>
					<g>
						<g>
							<g>
								
									<path d="M 1405.099976 531.5 H 1434.999975 V 536.1 H 1405.099976 V 531.5 Z" transform="matrix(0.9659 -0.2588 0.2588 0.9659 -89.7548 385.7107)" class="st9" style="fill: rgb(215, 234, 247);"/>
							</g>
							<g>
								
									<path d="M 1048.5 627 H 1078.4 V 631.6 H 1048.5 V 627 Z" transform="matrix(0.9659 -0.2588 0.2588 0.9659 -126.6344 296.6742)" class="st9" style="fill: rgb(215, 234, 247);"/>
							</g>
						</g>
						<g>
							<g>
								
									<path d="M 1417.800049 614.299988 H 1422.400049 V 644.199987 H 1417.800049 V 614.299988 Z" transform="matrix(0.2588 -0.9659 0.9659 0.2588 444.6788 1838.1052)" class="st13" style="fill: rgb(145, 36, 57);"/>
							</g>
							<g>
								
									<path d="M 1061.199951 518.799988 H 1065.799951 V 548.699987 H 1061.199951 V 518.799988 Z" transform="matrix(0.2588 -0.9659 0.9659 0.2588 272.6642 1422.8311)" class="st9" style="fill: rgb(215, 234, 247);"/>
							</g>
						</g>
						<g>
							<g>
								
									<path d="M 1370 697.099976 H 1374.6 V 726.999975 H 1370 V 697.099976 Z" transform="matrix(0.7071 -0.7071 0.7071 0.7071 -101.5606 1178.9053)" class="st13" style="fill: rgb(145, 36, 57);"/>
							</g>
							<g>
								
									<path d="M 1108.900024 436 H 1113.500024 V 465.9 H 1108.900024 V 436 Z" transform="matrix(0.7071 -0.7071 0.7071 0.7071 6.5704 917.8541)" class="st9" style="fill: rgb(215, 234, 247);"/>
							</g>
						</g>
						<g>
							<g>
								
									<path d="M 1287.199951 744.900024 H 1291.799951 V 774.800024 H 1287.199951 V 744.900024 Z" transform="matrix(0.9659 -0.2588 0.2588 0.9659 -152.7213 359.6627)" class="st9" style="fill: rgb(215, 234, 247);"/>
							</g>
							<g>
								
									<path d="M 1191.699951 388.299988 H 1196.299951 V 418.199987 H 1191.699951 V 388.299988 Z" transform="matrix(0.9659 -0.2588 0.2588 0.9659 -63.678 322.7791)" class="st9" style="fill: rgb(215, 234, 247);"/>
							</g>
						</g>
						<g>
							<g>
								
									<path d="M 1179 757.5 H 1208.9 V 762.1 H 1179 V 757.5 Z" transform="matrix(0.2588 -0.9659 0.9659 0.2588 151.0142 1716.4535)" class="st9" style="fill: rgb(215, 234, 247);"/>
							</g>
							<g>
								
									<path d="M 1274.599976 400.899994 H 1304.499975 V 405.499994 H 1274.599976 V 400.899994 Z" transform="matrix(0.2588 -0.9659 0.9659 0.2588 566.2845 1544.4456)" class="st9" style="fill: rgb(215, 234, 247);"/>
							</g>
						</g>
						<g>
							<g>
								
									<path d="M 1096.300049 709.799988 H 1126.200048 V 714.399988 H 1096.300049 V 709.799988 Z" transform="matrix(0.7071 -0.7071 0.7071 0.7071 -178.0207 994.3143)" class="st9" style="fill: rgb(215, 234, 247);"/>
							</g>
							<g>
								
									<path d="M 1357.300049 448.700012 H 1387.200048 V 453.300012 H 1357.300049 V 448.700012 Z" transform="matrix(0.7071 -0.7071 0.7071 0.7071 83.0305 1102.4452)" class="st9" style="fill: rgb(215, 234, 247);"/>
							</g>
						</g>
					</g>
				</g>
				<g>
					<path class="st4" d="M1241.8,784.3c-36.5,0-72.2-9.8-103.4-28.3l3.3-5.5c30.2,17.9,64.8,27.4,100.1,27.4s69.9-9.5,100.1-27.4&#10;&#9;&#9;&#9;&#9;&#9;&#9;l3.3,5.5C1314,774.5,1278.2,784.3,1241.8,784.3z" style="fill: rgb(36, 105, 206);"/>
				</g>
				<g>
					<g>
						<path class="st4" d="M1383.5,726.5l-4.5-4.6c38.1-37.3,59.1-87.1,59.1-140.4c0-52.4-20.4-101.8-57.5-138.8&#10;&#9;&#9;&#9;&#9;&#9;&#9;&#9;c-37.1-37.1-86.4-57.5-138.8-57.5c-52.4,0-101.8,20.4-138.8,57.5c-37.1,37.1-57.5,86.4-57.5,138.8c0,53.3,21,103.2,59.1,140.4&#10;&#9;&#9;&#9;&#9;&#9;&#9;&#9;l-4.5,4.6c-39.4-38.5-61-90-61-145c0-54.2,21.1-105.1,59.4-143.4c38.3-38.3,89.2-59.4,143.4-59.4&#10;&#9;&#9;&#9;&#9;&#9;&#9;&#9;c54.2,0,105.1,21.1,143.4,59.4c38.3,38.3,59.4,89.2,59.4,143.4C1444.5,636.6,1422.8,688.1,1383.5,726.5z" style="fill: rgb(36, 105, 206);"/>
					</g>
				</g>
			</g>
			<g>
				<path class="st1" d="M1241.3,707.6c2.4,0,4.4-2,4.4-4.4c0-2-1.4-3.7-3.2-4.2v-2.6h6.2V695h-6.2v-4.5h6.2v-1.3h-6.2v-4.5h6.2&#10;&#9;&#9;&#9;&#9;&#9;v-1.3h-6.2v-1.1h-2.4V699c-1.8,0.5-3.2,2.2-3.2,4.2C1237,705.6,1238.9,707.6,1241.3,707.6z" style="fill: rgb(255, 255, 255);"/>
				<path class="st1" d="M1259.7,713.5c-1,1.3-1.6,2-3,2c-1.3,0-2-0.8-3-2c-1-1.2-2.2-2.8-4.5-2.8s-3.5,1.5-4.5,2.8&#10;&#9;&#9;&#9;&#9;&#9;c-1,1.3-1.6,2-3,2c-1.3,0-2-0.8-3-2c-1-1.2-2.2-2.8-4.5-2.8s-3.5,1.5-4.5,2.8c-1,1.3-1.6,2-3,2c-1.3,0-2-0.8-3-2&#10;&#9;&#9;&#9;&#9;&#9;c-1-1.2-2.2-2.8-4.5-2.8v1.9c1.3,0,2,0.8,3,2c1,1.2,2.2,2.8,4.5,2.8c2.3,0,3.5-1.5,4.5-2.8c1-1.3,1.6-2,3-2c1.3,0,2,0.8,3,2&#10;&#9;&#9;&#9;&#9;&#9;c1,1.2,2.2,2.8,4.5,2.8c2.3,0,3.5-1.5,4.5-2.8c1-1.3,1.6-2,3-2c1.3,0,2,0.8,3,2c1,1.2,2.2,2.8,4.5,2.8c2.3,0,3.5-1.5,4.5-2.8&#10;&#9;&#9;&#9;&#9;&#9;c1-1.3,1.6-2,3-2v-1.9C1261.8,710.7,1260.6,712.2,1259.7,713.5z" style="fill: rgb(255, 255, 255);"/>
				<path class="st1" d="M1259.5,702.6c-1,1.3-1.7,2.1-3.1,2.1c-1.4,0-2.1-0.8-3.1-2.1c-1-1.2-2.2-2.8-4.6-2.8v1.9&#10;&#9;&#9;&#9;&#9;&#9;c1.4,0,2.1,0.8,3.1,2.1c1,1.2,2.2,2.8,4.6,2.8c2.4,0,3.6-1.5,4.6-2.8c1-1.3,1.7-2.1,3.1-2.1v-1.9&#10;&#9;&#9;&#9;&#9;&#9;C1261.8,699.9,1260.5,701.4,1259.5,702.6z" style="fill: rgb(255, 255, 255);"/>
				<path class="st1" d="M1222.5,703.8c1,1.2,2.2,2.8,4.6,2.8c2.4,0,3.6-1.5,4.6-2.8c1-1.3,1.7-2.1,3.1-2.1v-1.9&#10;&#9;&#9;&#9;&#9;&#9;c-2.4,0-3.6,1.5-4.6,2.8c-1,1.3-1.7,2.1-3.1,2.1s-2.1-0.8-3.1-2.1c-1-1.2-2.2-2.8-4.6-2.8v1.9&#10;&#9;&#9;&#9;&#9;&#9;C1220.8,701.8,1221.4,702.6,1222.5,703.8z" style="fill: rgb(255, 255, 255);"/>
			</g>
			<text transform="matrix(1 0 0 1 1207.3735 617.0029)" class="st1 st7 st11" style="white-space: pre;  fill: rgb(255, 255, 255);  font-family: 'Roboto-BlackItalic';  font-size: 121.415px; ;  font-weight: Roboto-BlackItalic">4</text>
		</g>
	</g>
	<g>
		<g>
			<g>
				<path class="st4" d="M531.5,284.2L497.3,250l34.2-34.2v22.8H573v22.9h-41.4V284.2z M504.3,250l22.2,22.2v-15.7H568v-12.9h-41.4&#10;&#9;&#9;&#9;&#9;&#9;v-15.7L504.3,250z" style="fill: rgb(36, 105, 206);"/>
			</g>
			<g>
				<path class="st14" d="M1068.5,284.2v-22.8H1027v-22.9h41.4v-22.8l34.2,34.2L1068.5,284.2z M1032,256.4h41.4v15.7l22.2-22.2&#10;&#9;&#9;&#9;&#9;&#9;l-22.2-22.2v15.7H1032V256.4z" style="fill: rgb(53, 53, 109);"/>
			</g>
		</g>
		<path d="M 800 250 L 800 250.10000610351562 L 800 249.89999389648438 Z" class="st14" style="fill: rgb(53, 53, 109);"/>
		<path d="M 800 249.89999389648438 L 800 250.10000610351562 L 800 250 Z" class="st14" style="fill: rgb(53, 53, 109);"/>
		<g>
			<path class="st14" d="M800.8,225.2v-4.5h-14.3v4.5H778v54h31.3v-54H800.8z M796.5,267.4h-5.7v-5.7h5.7V267.4z M796.6,256.5h-5.8&#10;&#9;&#9;&#9;&#9;v-24h5.8V256.5z" style="fill: rgb(53, 53, 109);"/>
			<path class="st4" d="M871.3,220.8L871.3,220.8L871.3,220.8l-30.4,58.4h60.7L871.3,220.8z M874.1,272.7h-5.7V267h5.7V272.7z&#10;&#9;&#9;&#9;&#9; M868.4,261.7v-24h5.8v24H868.4z" style="fill: rgb(36, 105, 206);"/>
			<path class="st14" d="M728.9,245.9v-12.4c0-7.1-5.7-12.8-12.8-12.8c-7.1,0-12.8,5.7-12.8,12.8v12.4h-4.9v33.3h35.4v-33.3H728.9z&#10;&#9;&#9;&#9;&#9; M716.1,267.8c-2.9,0-5.3-2.4-5.3-5.3c0-2.9,2.4-5.3,5.3-5.3c2.9,0,5.3,2.4,5.3,5.3C721.4,265.5,719,267.8,716.1,267.8z&#10;&#9;&#9;&#9;&#9; M722.2,245.9H710v-12.4c0-3.4,2.7-6.1,6.1-6.1c3.4,0,6.1,2.7,6.1,6.1V245.9z" style="fill: rgb(53, 53, 109);"/>
		</g>
	</g>
</g></g></svg>