<?xml version="1.0" encoding="utf-8"?>
<!-- Generator: Adobe Illustrator 21.0.0, SVG Export Plug-In . SVG Version: 6.00 Build 0)  -->
<svg xmlns="http://www.w3.org/2000/svg" xmlns:xlink="http://www.w3.org/1999/xlink" version="1.1" id="Layer_1" x="0px" y="0px" viewBox="0 0 1400 1400" style="enable-background:new 0 0 1400 1400;" xml:space="preserve">
<style type="text/css">
	.st0{fill:none;stroke:#2FBACC;stroke-width:3;stroke-miterlimit:10;}
	.st1{fill:none;stroke:#2FBACC;stroke-width:2;stroke-linecap:round;stroke-miterlimit:10;}
	.st2{fill:#EFEFEF;}
	.st3{fill:#2FBACC;}
	.st4{fill:#DD5E5E;}
	.st5{fill:#484849;}
	.st6{fill:#6B6B6B;}
	.st7{fill:url(#SVGID_1_);}
	.st8{fill:url(#SVGID_2_);}
	.st9{fill:url(#SVGID_3_);}
	.st10{fill:#FFFFFF;}
	.st11{fill:#1B75BB;}
	.st12{opacity:0.74;}
	.st13{fill:url(#SVGID_4_);}
	.st14{fill:url(#SVGID_5_);}
	.st15{fill:url(#SVGID_6_);}
	.st16{fill:url(#SVGID_7_);}
	.st17{fill:url(#SVGID_8_);}
	.st18{fill:url(#SVGID_9_);}
	.st19{fill:url(#SVGID_10_);}
	.st20{fill:url(#SVGID_11_);}
	.st21{fill:url(#SVGID_12_);}
	.st22{fill:url(#SVGID_13_);}
	.st23{fill:url(#SVGID_14_);}
	.st24{fill:url(#SVGID_15_);}
	.st25{fill:url(#SVGID_16_);}
	.st26{fill:url(#SVGID_17_);}
	.st27{fill:url(#SVGID_18_);}
	.st28{fill:url(#SVGID_19_);}
	.st29{fill:url(#SVGID_20_);}
	.st30{fill:url(#SVGID_21_);}
	.st31{fill:url(#SVGID_22_);}
	.st32{fill:url(#SVGID_23_);}
	.st33{fill:url(#SVGID_24_);}
	.st34{fill:url(#SVGID_25_);}
	.st35{fill:url(#SVGID_26_);}
	.st36{fill:url(#SVGID_27_);}
	.st37{fill:url(#SVGID_28_);}
	.st38{fill:url(#SVGID_29_);}
	.st39{fill:url(#SVGID_30_);}
	.st40{fill:url(#SVGID_31_);}
	.st41{fill:url(#SVGID_32_);}
	.st42{fill:url(#SVGID_33_);}
	.st43{fill:url(#SVGID_34_);}
	.st44{fill:url(#SVGID_35_);}
</style>
<g>
	
	<g>
		<g>
			<g>
				<line class="st0" x1="702.2" y1="438.9" x2="702.2" y2="457.6"/>
				<line class="st0" x1="702.2" y1="795.9" x2="702.2" y2="814.6"/>
				<line class="st0" x1="514.4" y1="626.7" x2="533.1" y2="626.7"/>
				<line class="st0" x1="871.4" y1="626.7" x2="890.1" y2="626.7"/>
				<line class="st0" x1="835.1" y1="493.9" x2="821.9" y2="507.1"/>
				<line class="st0" x1="582.6" y1="746.4" x2="569.4" y2="759.6"/>
				<line class="st0" x1="569.4" y1="493.9" x2="582.6" y2="507.1"/>
				<line class="st0" x1="821.9" y1="746.4" x2="835.1" y2="759.6"/>
			</g>
			<line class="st1" x1="739" y1="441.7" x2="737.1" y2="451.4"/>
			<line class="st1" x1="774.4" y1="452.4" x2="770.7" y2="461.6"/>
			<line class="st1" x1="807.1" y1="469.9" x2="801.6" y2="478.1"/>
			<line class="st1" x1="859.1" y1="521.9" x2="850.9" y2="527.4"/>
			<line class="st1" x1="876.6" y1="554.5" x2="867.4" y2="558.3"/>
			<line class="st1" x1="887.3" y1="589.9" x2="877.6" y2="591.9"/>
			<line class="st1" x1="665.4" y1="441.7" x2="667.4" y2="451.4"/>
			<line class="st1" x1="630" y1="452.4" x2="633.8" y2="461.6"/>
			<line class="st1" x1="597.4" y1="469.9" x2="602.9" y2="478.1"/>
			<line class="st1" x1="545.4" y1="521.9" x2="553.6" y2="527.4"/>
			<line class="st1" x1="527.9" y1="554.5" x2="537.1" y2="558.3"/>
			<line class="st1" x1="517.2" y1="589.9" x2="526.9" y2="591.9"/>
			<line class="st1" x1="739" y1="811.8" x2="737.1" y2="802.1"/>
			<line class="st1" x1="774.4" y1="801.1" x2="770.7" y2="791.9"/>
			<line class="st1" x1="807.1" y1="783.6" x2="801.6" y2="775.4"/>
			<line class="st1" x1="859.1" y1="731.6" x2="850.9" y2="726.1"/>
			<line class="st1" x1="876.6" y1="698.9" x2="867.4" y2="695.2"/>
			<line class="st1" x1="887.3" y1="663.6" x2="877.6" y2="661.6"/>
			<line class="st1" x1="545.4" y1="731.6" x2="553.6" y2="726.1"/>
			<line class="st1" x1="527.9" y1="698.9" x2="537.1" y2="695.2"/>
			<line class="st1" x1="517.2" y1="663.6" x2="526.9" y2="661.6"/>
			<g>
				<path class="st2" d="M592.1,743.5c0-1.8,0.2-3.2,0.5-4.3c0.4-1.1,0.9-1.9,1.6-2.5s1.6-0.9,2.7-0.9c0.8,0,1.5,0.2,2.1,0.5      c0.6,0.3,1.1,0.8,1.5,1.4c0.4,0.6,0.7,1.4,0.9,2.2c0.2,0.9,0.3,2.1,0.3,3.6c0,1.8-0.2,3.2-0.5,4.3c-0.4,1.1-0.9,1.9-1.6,2.5      c-0.7,0.6-1.6,0.9-2.7,0.9c-1.4,0-2.6-0.5-3.4-1.6C592.6,748.3,592.1,746.3,592.1,743.5z M594,743.5c0,2.5,0.3,4.1,0.9,4.9      c0.6,0.8,1.3,1.2,2.1,1.2s1.6-0.4,2.1-1.2s0.9-2.5,0.9-4.9c0-2.5-0.3-4.1-0.9-4.9s-1.3-1.2-2.2-1.2c-0.8,0-1.5,0.4-2,1.1      C594.4,739.3,594,741,594,743.5z"/>
			</g>
			<g>
				<path class="st2" d="M553.2,634.5v1.8h-9.9c0-0.4,0.1-0.9,0.2-1.3c0.3-0.7,0.7-1.3,1.2-2s1.4-1.4,2.4-2.3      c1.6-1.3,2.7-2.4,3.3-3.2s0.9-1.5,0.9-2.2c0-0.7-0.3-1.3-0.8-1.9c-0.5-0.5-1.2-0.8-2-0.8c-0.9,0-1.6,0.3-2.1,0.8      s-0.8,1.3-0.8,2.2l-1.9-0.2c0.1-1.4,0.6-2.5,1.5-3.2c0.8-0.7,2-1.1,3.4-1.1c1.4,0,2.6,0.4,3.4,1.2s1.3,1.8,1.3,3      c0,0.6-0.1,1.2-0.4,1.8s-0.7,1.2-1.2,1.8s-1.5,1.5-2.8,2.6c-1.1,0.9-1.8,1.6-2.1,1.9s-0.6,0.7-0.8,1H553.2z"/>
				<path class="st2" d="M555.2,628.8c0-1.8,0.2-3.2,0.5-4.3c0.4-1.1,0.9-1.9,1.6-2.5s1.6-0.9,2.7-0.9c0.8,0,1.5,0.2,2.1,0.5      s1.1,0.8,1.5,1.4c0.4,0.6,0.7,1.4,0.9,2.2c0.2,0.9,0.3,2.1,0.3,3.6c0,1.8-0.2,3.2-0.5,4.3s-0.9,1.9-1.6,2.5      c-0.7,0.6-1.6,0.9-2.7,0.9c-1.4,0-2.6-0.5-3.4-1.6C555.7,633.7,555.2,631.6,555.2,628.8z M557.1,628.8c0,2.5,0.3,4.1,0.9,4.9      s1.3,1.2,2.1,1.2s1.6-0.4,2.1-1.2s0.9-2.5,0.9-4.9c0-2.5-0.3-4.1-0.9-4.9s-1.3-1.2-2.2-1.2c-0.8,0-1.5,0.4-2,1.1      C557.4,624.7,557.1,626.3,557.1,628.8z"/>
			</g>
			<g>
				<path class="st2" d="M598.1,524.7v-3.6h-6.5v-1.7l6.9-9.7h1.5v9.7h2v1.7h-2v3.6H598.1z M598.1,519.4v-6.8l-4.7,6.8H598.1z"/>
				<path class="st2" d="M603.8,517.3c0-1.8,0.2-3.2,0.5-4.3c0.4-1.1,0.9-1.9,1.6-2.5s1.6-0.9,2.7-0.9c0.8,0,1.5,0.2,2.1,0.5      s1.1,0.8,1.5,1.4c0.4,0.6,0.7,1.4,0.9,2.2c0.2,0.9,0.3,2.1,0.3,3.6c0,1.8-0.2,3.2-0.5,4.3s-0.9,1.9-1.6,2.5      c-0.7,0.6-1.6,0.9-2.7,0.9c-1.4,0-2.6-0.5-3.4-1.6C604.3,522.1,603.8,520.1,603.8,517.3z M605.7,517.3c0,2.5,0.3,4.1,0.9,4.9      s1.3,1.2,2.1,1.2s1.6-0.4,2.1-1.2s0.9-2.5,0.9-4.9c0-2.5-0.3-4.1-0.9-4.9c-0.6-0.8-1.3-1.2-2.2-1.2c-0.8,0-1.5,0.4-2,1.1      C606,513.1,605.7,514.8,605.7,517.3z"/>
			</g>
			<g>
				<path class="st2" d="M700.4,472.1l-1.8,0.1c-0.2-0.7-0.4-1.3-0.7-1.6c-0.5-0.5-1.1-0.8-1.8-0.8c-0.6,0-1.1,0.2-1.5,0.5      c-0.6,0.4-1,1-1.4,1.9s-0.5,2-0.5,3.5c0.4-0.7,1-1.2,1.6-1.5s1.3-0.5,2-0.5c1.2,0,2.3,0.5,3.1,1.4s1.3,2.1,1.3,3.5      c0,0.9-0.2,1.8-0.6,2.6c-0.4,0.8-1,1.4-1.7,1.9s-1.5,0.6-2.4,0.6c-1.5,0-2.8-0.6-3.8-1.7s-1.5-3-1.5-5.6c0-2.9,0.5-5,1.6-6.3      c0.9-1.1,2.2-1.7,3.8-1.7c1.2,0,2.2,0.3,2.9,1S700.2,470.9,700.4,472.1z M692.9,478.6c0,0.6,0.1,1.2,0.4,1.8s0.6,1,1.1,1.3      c0.5,0.3,1,0.5,1.5,0.5c0.8,0,1.4-0.3,2-0.9s0.8-1.5,0.8-2.6c0-1-0.3-1.9-0.8-2.5s-1.3-0.9-2.1-0.9c-0.8,0-1.5,0.3-2.1,0.9      S692.9,477.6,692.9,478.6z"/>
				<path class="st2" d="M702.5,476c0-1.8,0.2-3.2,0.5-4.3c0.4-1.1,0.9-1.9,1.6-2.5s1.6-0.9,2.7-0.9c0.8,0,1.5,0.2,2.1,0.5      s1.1,0.8,1.5,1.4c0.4,0.6,0.7,1.4,0.9,2.2c0.2,0.9,0.3,2.1,0.3,3.6c0,1.8-0.2,3.2-0.5,4.3s-0.9,1.9-1.6,2.5      c-0.7,0.6-1.6,0.9-2.7,0.9c-1.4,0-2.6-0.5-3.4-1.6C703,480.9,702.5,478.9,702.5,476z M704.4,476c0,2.5,0.3,4.1,0.9,4.9      s1.3,1.2,2.1,1.2s1.6-0.4,2.1-1.2s0.9-2.5,0.9-4.9c0-2.5-0.3-4.1-0.9-4.9s-1.3-1.2-2.2-1.2c-0.8,0-1.5,0.4-2,1.1      C704.7,471.9,704.4,473.6,704.4,476z"/>
			</g>
			<g>
				<path class="st2" d="M792.6,516.5c-0.8-0.3-1.3-0.7-1.7-1.2s-0.6-1.1-0.6-1.9c0-1.1,0.4-2,1.2-2.8s1.8-1.1,3.1-1.1      c1.3,0,2.4,0.4,3.2,1.1s1.2,1.7,1.2,2.8c0,0.7-0.2,1.3-0.5,1.8c-0.4,0.5-0.9,0.9-1.7,1.2c0.9,0.3,1.6,0.8,2.1,1.5      s0.7,1.5,0.7,2.4c0,1.3-0.5,2.4-1.4,3.2s-2.1,1.3-3.6,1.3s-2.7-0.4-3.6-1.3c-0.9-0.9-1.4-2-1.4-3.3c0-1,0.2-1.8,0.7-2.5      C791,517.2,791.7,516.8,792.6,516.5z M791.6,520.3c0,0.5,0.1,1,0.4,1.5s0.6,0.9,1.1,1.1s1,0.4,1.6,0.4c0.9,0,1.6-0.3,2.2-0.9      s0.9-1.3,0.9-2.2c0-0.9-0.3-1.6-0.9-2.2s-1.3-0.9-2.2-0.9c-0.9,0-1.6,0.3-2.2,0.9S791.6,519.5,791.6,520.3z M792.2,513.4      c0,0.7,0.2,1.3,0.7,1.7s1.1,0.7,1.8,0.7c0.7,0,1.3-0.2,1.7-0.7c0.5-0.4,0.7-1,0.7-1.6c0-0.7-0.2-1.2-0.7-1.7      c-0.5-0.5-1.1-0.7-1.7-0.7c-0.7,0-1.3,0.2-1.8,0.7C792.4,512.2,792.2,512.8,792.2,513.4z"/>
				<path class="st2" d="M801.4,517.3c0-1.8,0.2-3.2,0.5-4.3c0.4-1.1,0.9-1.9,1.6-2.5s1.6-0.9,2.7-0.9c0.8,0,1.5,0.2,2.1,0.5      s1.1,0.8,1.5,1.4c0.4,0.6,0.7,1.4,0.9,2.2c0.2,0.9,0.3,2.1,0.3,3.6c0,1.8-0.2,3.2-0.5,4.3s-0.9,1.9-1.6,2.5      c-0.7,0.6-1.6,0.9-2.7,0.9c-1.4,0-2.6-0.5-3.4-1.6C801.9,522.1,801.4,520.1,801.4,517.3z M803.3,517.3c0,2.5,0.3,4.1,0.9,4.9      s1.3,1.2,2.1,1.2s1.6-0.4,2.1-1.2s0.9-2.5,0.9-4.9c0-2.5-0.3-4.1-0.9-4.9c-0.6-0.8-1.3-1.2-2.2-1.2c-0.8,0-1.5,0.4-2,1.1      C803.6,513.1,803.3,514.8,803.3,517.3z"/>
			</g>
			<g>
				<path class="st2" d="M832,636.2h-1.8v-11.8c-0.4,0.4-1,0.8-1.7,1.3s-1.4,0.7-1.9,1v-1.8c1-0.5,1.9-1.1,2.7-1.8s1.3-1.4,1.6-2      h1.2V636.2z"/>
				<path class="st2" d="M836.8,628.8c0-1.8,0.2-3.2,0.5-4.3c0.4-1.1,0.9-1.9,1.6-2.5s1.6-0.9,2.7-0.9c0.8,0,1.5,0.2,2.1,0.5      s1.1,0.8,1.5,1.4c0.4,0.6,0.7,1.4,0.9,2.2c0.2,0.9,0.3,2.1,0.3,3.6c0,1.8-0.2,3.2-0.5,4.3s-0.9,1.9-1.6,2.5      c-0.7,0.6-1.6,0.9-2.7,0.9c-1.4,0-2.6-0.5-3.4-1.6C837.3,633.7,836.8,631.6,836.8,628.8z M838.7,628.8c0,2.5,0.3,4.1,0.9,4.9      s1.3,1.2,2.1,1.2s1.6-0.4,2.1-1.2s0.9-2.5,0.9-4.9c0-2.5-0.3-4.1-0.9-4.9s-1.3-1.2-2.2-1.2c-0.8,0-1.5,0.4-2,1.1      C839,624.7,838.7,626.3,838.7,628.8z"/>
				<path class="st2" d="M848.4,628.8c0-1.8,0.2-3.2,0.5-4.3c0.4-1.1,0.9-1.9,1.6-2.5s1.6-0.9,2.7-0.9c0.8,0,1.5,0.2,2.1,0.5      s1.1,0.8,1.5,1.4c0.4,0.6,0.7,1.4,0.9,2.2c0.2,0.9,0.3,2.1,0.3,3.6c0,1.8-0.2,3.2-0.5,4.3s-0.9,1.9-1.6,2.5      c-0.7,0.6-1.6,0.9-2.7,0.9c-1.4,0-2.6-0.5-3.4-1.6C848.9,633.7,848.4,631.6,848.4,628.8z M850.3,628.8c0,2.5,0.3,4.1,0.9,4.9      s1.3,1.2,2.1,1.2s1.6-0.4,2.1-1.2s0.9-2.5,0.9-4.9c0-2.5-0.3-4.1-0.9-4.9s-1.3-1.2-2.2-1.2c-0.8,0-1.5,0.4-2,1.1      C850.7,624.7,850.3,626.3,850.3,628.8z"/>
			</g>
			<g>
				<path class="st2" d="M788.5,750.9h-1.8v-11.8c-0.4,0.4-1,0.8-1.7,1.3s-1.4,0.7-1.9,1v-1.8c1-0.5,1.9-1.1,2.7-1.8s1.3-1.4,1.6-2      h1.2V750.9z"/>
				<path class="st2" d="M802.9,749.1v1.8H793c0-0.4,0.1-0.9,0.2-1.3c0.3-0.7,0.7-1.3,1.2-2s1.4-1.4,2.4-2.3      c1.6-1.3,2.7-2.4,3.3-3.2s0.9-1.5,0.9-2.2c0-0.7-0.3-1.3-0.8-1.9c-0.5-0.5-1.2-0.8-2-0.8c-0.9,0-1.6,0.3-2.1,0.8      s-0.8,1.3-0.8,2.2l-1.9-0.2c0.1-1.4,0.6-2.5,1.5-3.2c0.8-0.7,2-1.1,3.4-1.1c1.4,0,2.6,0.4,3.4,1.2s1.3,1.8,1.3,3      c0,0.6-0.1,1.2-0.4,1.8s-0.7,1.2-1.2,1.8s-1.5,1.5-2.8,2.6c-1.1,0.9-1.8,1.6-2.1,1.9s-0.6,0.7-0.8,1H802.9z"/>
				<path class="st2" d="M804.9,743.5c0-1.8,0.2-3.2,0.5-4.3c0.4-1.1,0.9-1.9,1.6-2.5s1.6-0.9,2.7-0.9c0.8,0,1.5,0.2,2.1,0.5      s1.1,0.8,1.5,1.4c0.4,0.6,0.7,1.4,0.9,2.2c0.2,0.9,0.3,2.1,0.3,3.6c0,1.8-0.2,3.2-0.5,4.3s-0.9,1.9-1.6,2.5      c-0.7,0.6-1.6,0.9-2.7,0.9c-1.4,0-2.6-0.5-3.4-1.6C805.4,748.3,804.9,746.3,804.9,743.5z M806.8,743.5c0,2.5,0.3,4.1,0.9,4.9      s1.3,1.2,2.1,1.2s1.6-0.4,2.1-1.2s0.9-2.5,0.9-4.9c0-2.5-0.3-4.1-0.9-4.9s-1.3-1.2-2.2-1.2c-0.8,0-1.5,0.4-2,1.1      C807.1,739.3,806.8,741,806.8,743.5z"/>
			</g>
			<g>
				<path class="st2" d="M693,783.6h-1.8v-11.8c-0.4,0.4-1,0.8-1.7,1.3s-1.4,0.7-1.9,1v-1.8c1-0.5,1.9-1.1,2.7-1.8s1.3-1.4,1.6-2      h1.2V783.6z"/>
				<path class="st2" d="M707.3,772.3l-1.8,0.1c-0.2-0.7-0.4-1.3-0.7-1.6c-0.5-0.5-1.1-0.8-1.8-0.8c-0.6,0-1.1,0.2-1.5,0.5      c-0.6,0.4-1,1-1.4,1.9s-0.5,2-0.5,3.5c0.4-0.7,1-1.2,1.6-1.5s1.3-0.5,2-0.5c1.2,0,2.3,0.5,3.1,1.4s1.3,2.1,1.3,3.5      c0,0.9-0.2,1.8-0.6,2.6c-0.4,0.8-1,1.4-1.7,1.9s-1.5,0.6-2.4,0.6c-1.5,0-2.8-0.6-3.8-1.7s-1.5-3-1.5-5.6c0-2.9,0.5-5,1.6-6.3      c0.9-1.1,2.2-1.7,3.8-1.7c1.2,0,2.2,0.3,2.9,1S707.1,771.1,707.3,772.3z M699.7,778.8c0,0.6,0.1,1.2,0.4,1.8s0.6,1,1.1,1.3      c0.5,0.3,1,0.5,1.5,0.5c0.8,0,1.4-0.3,2-0.9s0.8-1.5,0.8-2.6c0-1-0.3-1.9-0.8-2.5s-1.3-0.9-2.1-0.9c-0.8,0-1.5,0.3-2.1,0.9      S699.7,777.8,699.7,778.8z"/>
				<path class="st2" d="M709.4,776.2c0-1.8,0.2-3.2,0.5-4.3c0.4-1.1,0.9-1.9,1.6-2.5s1.6-0.9,2.7-0.9c0.8,0,1.5,0.2,2.1,0.5      s1.1,0.8,1.5,1.4c0.4,0.6,0.7,1.4,0.9,2.2c0.2,0.9,0.3,2.1,0.3,3.6c0,1.8-0.2,3.2-0.5,4.3s-0.9,1.9-1.6,2.5      c-0.7,0.6-1.6,0.9-2.7,0.9c-1.4,0-2.6-0.5-3.4-1.6C709.9,781.1,709.4,779,709.4,776.2z M711.3,776.2c0,2.5,0.3,4.1,0.9,4.9      s1.3,1.2,2.1,1.2s1.6-0.4,2.1-1.2s0.9-2.5,0.9-4.9c0-2.5-0.3-4.1-0.9-4.9s-1.3-1.2-2.2-1.2c-0.8,0-1.5,0.4-2,1.1      C711.6,772.1,711.3,773.7,711.3,776.2z"/>
			</g>
			<g>
				<path class="st2" d="M758.7,778.7H758v-4.9c-0.2,0.2-0.4,0.3-0.7,0.5c-0.3,0.2-0.6,0.3-0.8,0.4v-0.7c0.4-0.2,0.8-0.4,1.1-0.7      c0.3-0.3,0.5-0.6,0.7-0.8h0.5V778.7z"/>
				<path class="st2" d="M763.1,778.7v-1.5h-2.7v-0.7l2.8-4h0.6v4h0.8v0.7h-0.8v1.5H763.1z M763.1,776.5v-2.8l-1.9,2.8H763.1z"/>
				<path class="st2" d="M765.5,775.7c0-0.7,0.1-1.3,0.2-1.8s0.4-0.8,0.7-1c0.3-0.2,0.7-0.4,1.1-0.4c0.3,0,0.6,0.1,0.9,0.2      c0.3,0.1,0.5,0.3,0.6,0.6c0.2,0.3,0.3,0.6,0.4,0.9c0.1,0.4,0.1,0.9,0.1,1.5c0,0.7-0.1,1.3-0.2,1.8c-0.1,0.4-0.4,0.8-0.7,1      c-0.3,0.2-0.7,0.4-1.1,0.4c-0.6,0-1.1-0.2-1.4-0.6C765.7,777.7,765.5,776.8,765.5,775.7z M766.3,775.7c0,1,0.1,1.7,0.4,2      c0.2,0.3,0.5,0.5,0.9,0.5s0.6-0.2,0.9-0.5c0.2-0.3,0.4-1,0.4-2c0-1-0.1-1.7-0.4-2c-0.2-0.3-0.5-0.5-0.9-0.5      c-0.3,0-0.6,0.1-0.8,0.4C766.4,773.9,766.3,774.6,766.3,775.7z"/>
			</g>
			<path class="st3" d="M551.8,778.8c-17.5-17.2-32-37.4-42.8-59.4c-10.8-22.1-17.5-46.1-20.2-70.5c-1.2-12.2-1.4-24.6-0.7-36.9     l0.3-4.6l0.2-2.3c0.1-0.8,0.2-1.5,0.3-2.3c0.4-3.1,0.7-6.1,1.2-9.2l1.6-9.1c0.6-3,1.3-6,2-9c2.9-12,6.9-23.7,11.8-35     c4.9-11.3,10.8-22.2,17.6-32.5c13.6-20.6,30.7-38.8,50.4-53.6c19.8-14.8,42.1-26.1,65.6-33.4c11.8-3.7,23.9-6.2,36.1-7.7l4.6-0.6     c1.5-0.2,3.1-0.2,4.6-0.4l4.6-0.4c0.8-0.1,1.5-0.1,2.3-0.2l2.3-0.1c3.1-0.1,6.2-0.2,9.3-0.2l9.3,0.2c12.3,0.6,24.6,2.2,36.7,4.8     l4.5,1c1.5,0.3,3,0.7,4.5,1.1c3,0.8,5.9,1.7,8.9,2.5l8.8,3c2.9,1.1,5.8,2.2,8.6,3.3c22.8,9.5,44,22.8,62.3,39.3     c18.3,16.6,33.7,36.3,45.4,58c11.7,21.7,19.5,45.5,23.2,69.9c1.8,12.2,2.5,24.6,2.2,36.9c-0.3,12.3-1.6,24.6-4,36.7     c-4.9,24.1-13.8,47.5-26.6,68.6c-12.8,21.1-29.1,39.9-48.1,55.5c-19.1,15.5-40.8,27.7-64,35.9c-23.2,8.2-47.7,12.1-72.2,12.2     c24.5-0.3,49-4.4,72-12.8c23-8.4,44.5-20.8,63.3-36.4c18.8-15.6,34.9-34.4,47.4-55.4c12.5-21,21.2-44.1,25.9-68     c2.4-12,3.5-24.1,3.8-36.3c0.2-12.2-0.4-24.4-2.3-36.4c-3.7-24.1-11.4-47.6-23-69c-11.6-21.4-26.9-40.8-44.9-57.2     c-18.1-16.3-39-29.4-61.5-38.7c-2.8-1.1-5.6-2.3-8.5-3.3l-8.6-2.9c-2.9-0.9-5.8-1.7-8.8-2.5c-1.5-0.4-2.9-0.8-4.4-1.1l-4.4-1     c-11.9-2.6-24-4.2-36.2-4.8l-9.1-0.2c-3,0-6.1,0.1-9.1,0.2l-2.3,0.1c-0.8,0-1.5,0.1-2.3,0.2l-4.6,0.3c-1.5,0.1-3,0.2-4.6,0.4     l-4.5,0.6c-12.1,1.5-24.1,4-35.7,7.6c-23.3,7.2-45.3,18.4-64.9,32.9c-19.5,14.6-36.5,32.6-50.1,52.8c-6.8,10.1-12.7,20.9-17.6,32     c-4.9,11.2-8.9,22.7-11.8,34.6c-0.7,3-1.4,5.9-2,8.9l-1.6,9c-0.4,3-0.8,6.1-1.2,9.1c-0.1,0.8-0.2,1.5-0.3,2.3l-0.2,2.3l-0.4,4.6     c-0.8,12.2-0.7,24.4,0.4,36.6c2.5,24.3,9,48.2,19.5,70.4C520.2,741.1,534.5,761.4,551.8,778.8z"/>
			<circle class="st3" cx="549.5" cy="775.4" r="8.2"/>
			<path class="st3" d="M339.2,525.9c-0.6,0-1-0.4-1-1v-11.2c0-0.6,0.4-1,1-1s1,0.4,1,1v11.2C340.2,525.5,339.8,525.9,339.2,525.9z"/>
			<path class="st3" d="M237.4,627.7h-11.2c-0.6,0-1-0.4-1-1s0.4-1,1-1h11.2c0.6,0,1,0.4,1,1S237.9,627.7,237.4,627.7z"/>
			<path class="st3" d="M452.3,627.7h-11.2c-0.6,0-1-0.4-1-1s0.4-1,1-1h11.2c0.6,0,1,0.4,1,1S452.9,627.7,452.3,627.7z"/>
			<path class="st3" d="M259.3,707.7c-0.3,0-0.5-0.1-0.7-0.3c-0.4-0.4-0.4-1,0-1.4l7.9-7.9c0.4-0.4,1-0.4,1.4,0s0.4,1,0,1.4     l-7.9,7.9C259.8,707.6,259.5,707.7,259.3,707.7z"/>
			<path class="st3" d="M267.2,555.7c-0.3,0-0.5-0.1-0.7-0.3l-7.9-7.9c-0.4-0.4-0.4-1,0-1.4c0.4-0.4,1-0.4,1.4,0l7.9,7.9     c0.4,0.4,0.4,1,0,1.4C267.7,555.6,267.5,555.7,267.2,555.7z"/>
			<path class="st4" d="M339.2,509.4V530c53.4,0,96.8,43.3,96.8,96.8h20.6C456.6,561.9,404,509.4,339.2,509.4z M360.8,523.4     c-0.1,0.5-0.5,0.8-1,0.8c-0.1,0-0.1,0-0.2,0c-0.5-0.1-0.9-0.6-0.8-1.2l1.1-5.7c0.1-0.5,0.6-0.9,1.2-0.8c0.5,0.1,0.9,0.6,0.8,1.2     L360.8,523.4z M382.8,524.2l-2.2,5.4c-0.2,0.4-0.5,0.6-0.9,0.6c-0.1,0-0.3,0-0.4-0.1c-0.5-0.2-0.8-0.8-0.5-1.3l2.2-5.4     c0.2-0.5,0.8-0.8,1.3-0.5C382.8,523.1,383,523.7,382.8,524.2z M401.9,534.7l-3.2,4.9c-0.2,0.3-0.5,0.4-0.8,0.4     c-0.2,0-0.4-0.1-0.6-0.2c-0.5-0.3-0.6-0.9-0.3-1.4l3.2-4.9c0.3-0.5,0.9-0.6,1.4-0.3C402.1,533.6,402.3,534.2,401.9,534.7z      M419.9,547.5l-7.9,7.9c-0.2,0.2-0.5,0.3-0.7,0.3s-0.5-0.1-0.7-0.3c-0.4-0.4-0.4-1,0-1.4l7.9-7.9c0.4-0.4,1-0.4,1.4,0     S420.3,547.1,419.9,547.5z M432.4,565.7l-4.9,3.2c-0.2,0.1-0.4,0.2-0.6,0.2c-0.3,0-0.6-0.2-0.8-0.4c-0.3-0.5-0.2-1.1,0.3-1.4     l4.9-3.2c0.5-0.3,1.1-0.2,1.4,0.3C433,564.8,432.9,565.4,432.4,565.7z M436.7,587.4c-0.4,0-0.8-0.2-0.9-0.6     c-0.2-0.5,0-1.1,0.5-1.3l5.4-2.2c0.5-0.2,1.1,0,1.3,0.5c0.2,0.5,0,1.1-0.5,1.3l-5.4,2.2C437,587.3,436.9,587.4,436.7,587.4z      M448.7,606l-5.7,1.1c-0.1,0-0.1,0-0.2,0c-0.5,0-0.9-0.3-1-0.8c-0.1-0.5,0.2-1.1,0.8-1.2l5.7-1.1c0.5-0.1,1.1,0.2,1.2,0.8     C449.6,605.4,449.2,605.9,448.7,606z"/>
			<path class="st3" d="M318.6,524.2c-0.5,0-0.9-0.3-1-0.8l-1.1-5.7c-0.1-0.5,0.2-1.1,0.8-1.2c0.5-0.1,1.1,0.2,1.2,0.8l1.1,5.7     c0.1,0.5-0.2,1.1-0.8,1.2C318.8,524.2,318.7,524.2,318.6,524.2z"/>
			<path class="st3" d="M298.9,530.2c-0.4,0-0.8-0.2-0.9-0.6l-2.2-5.4c-0.2-0.5,0-1.1,0.5-1.3c0.5-0.2,1.1,0,1.3,0.5l2.2,5.4     c0.2,0.5,0,1.1-0.5,1.3C299.1,530.2,299,530.2,298.9,530.2z"/>
			<path class="st3" d="M280.6,540c-0.3,0-0.6-0.2-0.8-0.4l-3.2-4.9c-0.3-0.5-0.2-1.1,0.3-1.4c0.5-0.3,1.1-0.2,1.4,0.3l3.2,4.9     c0.3,0.5,0.2,1.1-0.3,1.4C281,539.9,280.8,540,280.6,540z"/>
			<path class="st3" d="M251.5,569.1c-0.2,0-0.4-0.1-0.6-0.2l-4.9-3.2c-0.5-0.3-0.6-0.9-0.3-1.4c0.3-0.5,0.9-0.6,1.4-0.3l4.9,3.2     c0.5,0.3,0.6,0.9,0.3,1.4C252.1,569,251.8,569.1,251.5,569.1z"/>
			<path class="st3" d="M241.7,587.4c-0.1,0-0.3,0-0.4-0.1L236,585c-0.5-0.2-0.8-0.8-0.5-1.3c0.2-0.5,0.8-0.8,1.3-0.5l5.4,2.2     c0.5,0.2,0.8,0.8,0.5,1.3C242.5,587.1,242.1,587.4,241.7,587.4z"/>
			<path class="st3" d="M235.7,607.2c-0.1,0-0.1,0-0.2,0l-5.7-1.1c-0.5-0.1-0.9-0.6-0.8-1.2c0.1-0.5,0.6-0.9,1.2-0.8l5.7,1.1     c0.5,0.1,0.9,0.6,0.8,1.2C236.6,606.8,236.2,607.2,235.7,607.2z"/>
			<path class="st3" d="M246.6,689.6c-0.3,0-0.6-0.2-0.8-0.4c-0.3-0.5-0.2-1.1,0.3-1.4l4.9-3.2c0.5-0.3,1.1-0.2,1.4,0.3     c0.3,0.5,0.2,1.1-0.3,1.4l-4.9,3.2C247,689.6,246.8,689.6,246.6,689.6z"/>
			<path class="st3" d="M236.3,670.4c-0.4,0-0.8-0.2-0.9-0.6c-0.2-0.5,0-1.1,0.5-1.3l5.4-2.2c0.5-0.2,1.1,0,1.3,0.5     c0.2,0.5,0,1.1-0.5,1.3l-5.4,2.2C236.6,670.3,236.5,670.4,236.3,670.4z"/>
			<path class="st3" d="M230,649.5c-0.5,0-0.9-0.3-1-0.8c-0.1-0.5,0.2-1.1,0.8-1.2l5.7-1.1c0.5-0.1,1.1,0.2,1.2,0.8     c0.1,0.5-0.2,1.1-0.8,1.2l-5.7,1.1C230.1,649.5,230.1,649.5,230,649.5z"/>
			<g>
				<g>
					<path class="st2" d="M274.3,695.6c0-1,0.1-1.9,0.3-2.5c0.2-0.6,0.5-1.1,1-1.5s1-0.5,1.6-0.5c0.5,0,0.9,0.1,1.3,0.3       c0.4,0.2,0.7,0.5,0.9,0.8c0.2,0.4,0.4,0.8,0.6,1.3c0.1,0.5,0.2,1.2,0.2,2.1c0,1-0.1,1.9-0.3,2.5c-0.2,0.6-0.5,1.1-1,1.5       s-1,0.5-1.6,0.5c-0.9,0-1.5-0.3-2-0.9C274.5,698.5,274.3,697.3,274.3,695.6z M275.4,695.6c0,1.5,0.2,2.4,0.5,2.9       c0.3,0.5,0.8,0.7,1.3,0.7c0.5,0,0.9-0.2,1.3-0.7c0.3-0.5,0.5-1.5,0.5-2.9c0-1.5-0.2-2.4-0.5-2.9c-0.3-0.5-0.8-0.7-1.3-0.7       c-0.5,0-0.9,0.2-1.2,0.6C275.6,693.2,275.4,694.2,275.4,695.6z"/>
				</g>
				<g>
					<path class="st2" d="M251.3,631.3v1h-5.9c0-0.3,0-0.5,0.1-0.8c0.1-0.4,0.4-0.8,0.7-1.2c0.3-0.4,0.8-0.8,1.4-1.3       c1-0.8,1.6-1.4,2-1.9c0.3-0.5,0.5-0.9,0.5-1.3c0-0.4-0.2-0.8-0.5-1.1c-0.3-0.3-0.7-0.4-1.2-0.4c-0.5,0-0.9,0.2-1.3,0.5       c-0.3,0.3-0.5,0.8-0.5,1.3l-1.1-0.1c0.1-0.8,0.4-1.5,0.9-1.9c0.5-0.4,1.2-0.7,2-0.7c0.9,0,1.5,0.2,2,0.7s0.7,1.1,0.7,1.8       c0,0.4-0.1,0.7-0.2,1c-0.1,0.3-0.4,0.7-0.7,1.1s-0.9,0.9-1.7,1.6c-0.7,0.5-1.1,0.9-1.3,1.1s-0.3,0.4-0.5,0.6H251.3z"/>
				</g>
				<g>
					<path class="st2" d="M277.7,566.5v-2.1h-3.8v-1l4-5.8h0.9v5.8h1.2v1h-1.2v2.1H277.7z M277.7,563.4v-4l-2.8,4H277.7z"/>
				</g>
				<g>
					<path class="st2" d="M338.2,535.5l-1.1,0.1c-0.1-0.4-0.2-0.7-0.4-0.9c-0.3-0.3-0.7-0.5-1.1-0.5c-0.3,0-0.7,0.1-0.9,0.3       c-0.3,0.3-0.6,0.6-0.8,1.1c-0.2,0.5-0.3,1.2-0.3,2.1c0.3-0.4,0.6-0.7,1-0.9c0.4-0.2,0.8-0.3,1.2-0.3c0.7,0,1.3,0.3,1.9,0.8       c0.5,0.5,0.8,1.2,0.8,2.1c0,0.6-0.1,1.1-0.4,1.6c-0.2,0.5-0.6,0.8-1,1.1s-0.9,0.4-1.4,0.4c-0.9,0-1.6-0.3-2.2-1       c-0.6-0.7-0.9-1.8-0.9-3.3c0-1.7,0.3-3,1-3.7c0.6-0.7,1.3-1,2.2-1c0.7,0,1.3,0.2,1.7,0.6C337.8,534.2,338.1,534.8,338.2,535.5z        M333.7,539.3c0,0.4,0.1,0.7,0.2,1.1c0.2,0.3,0.4,0.6,0.7,0.8c0.3,0.2,0.6,0.3,0.9,0.3c0.5,0,0.9-0.2,1.2-0.6s0.5-0.9,0.5-1.5       c0-0.6-0.2-1.1-0.5-1.4c-0.3-0.4-0.7-0.5-1.2-0.5c-0.5,0-0.9,0.2-1.3,0.5C333.9,538.3,333.7,538.7,333.7,539.3z"/>
				</g>
				<g>
					<path class="st2" d="M392.6,561.7c-0.5-0.2-0.8-0.4-1-0.7c-0.2-0.3-0.3-0.7-0.3-1.1c0-0.6,0.2-1.2,0.7-1.6       c0.5-0.4,1.1-0.7,1.9-0.7c0.8,0,1.4,0.2,1.9,0.7c0.5,0.4,0.7,1,0.7,1.6c0,0.4-0.1,0.8-0.3,1.1c-0.2,0.3-0.5,0.5-1,0.7       c0.5,0.2,1,0.5,1.2,0.9s0.4,0.9,0.4,1.4c0,0.8-0.3,1.4-0.8,1.9c-0.5,0.5-1.2,0.8-2.1,0.8c-0.9,0-1.6-0.3-2.1-0.8       s-0.8-1.2-0.8-1.9c0-0.6,0.1-1.1,0.4-1.4C391.6,562.1,392,561.8,392.6,561.7z M392,563.9c0,0.3,0.1,0.6,0.2,0.9       c0.1,0.3,0.4,0.5,0.7,0.7c0.3,0.2,0.6,0.2,0.9,0.2c0.5,0,1-0.2,1.3-0.5s0.5-0.8,0.5-1.3c0-0.5-0.2-1-0.5-1.3       c-0.3-0.3-0.8-0.5-1.3-0.5c-0.5,0-0.9,0.2-1.3,0.5C392.2,563,392,563.4,392,563.9z M392.4,559.8c0,0.4,0.1,0.8,0.4,1       c0.3,0.3,0.6,0.4,1.1,0.4c0.4,0,0.8-0.1,1-0.4c0.3-0.3,0.4-0.6,0.4-1c0-0.4-0.1-0.7-0.4-1s-0.6-0.4-1-0.4c-0.4,0-0.8,0.1-1,0.4       C392.5,559.1,392.4,559.5,392.4,559.8z"/>
				</g>
				<g>
					<path class="st2" d="M415.9,632.3h-1.1v-6.9c-0.3,0.3-0.6,0.5-1,0.8c-0.4,0.3-0.8,0.4-1.1,0.6v-1.1c0.6-0.3,1.1-0.6,1.6-1       c0.5-0.4,0.8-0.8,1-1.2h0.7V632.3z"/>
					<path class="st2" d="M418.6,628c0-1,0.1-1.9,0.3-2.5c0.2-0.6,0.5-1.1,1-1.5s1-0.5,1.6-0.5c0.5,0,0.9,0.1,1.3,0.3       c0.4,0.2,0.7,0.5,0.9,0.8c0.2,0.4,0.4,0.8,0.6,1.3c0.1,0.5,0.2,1.2,0.2,2.1c0,1-0.1,1.9-0.3,2.5c-0.2,0.6-0.5,1.1-1,1.5       s-1,0.5-1.6,0.5c-0.9,0-1.5-0.3-2-0.9C418.9,630.8,418.6,629.6,418.6,628z M419.8,628c0,1.5,0.2,2.4,0.5,2.9       c0.3,0.5,0.8,0.7,1.3,0.7c0.5,0,0.9-0.2,1.3-0.7c0.3-0.5,0.5-1.5,0.5-2.9c0-1.5-0.2-2.4-0.5-2.9c-0.3-0.5-0.8-0.7-1.3-0.7       c-0.5,0-0.9,0.2-1.2,0.6C420,625.5,419.8,626.5,419.8,628z"/>
				</g>
			</g>
			<path class="st3" d="M250.5,716.5c-7.4-7.2-14-15.3-19.5-24.1c-5.4-8.8-9.9-18.3-13-28.2c-3.1-9.9-5-20.2-5.6-30.6     c-0.6-10.4,0.1-20.9,2-31.1c1.8-10.3,5.2-20.3,9.5-29.7c0.5-1.2,1.1-2.4,1.7-3.5c0.6-1.2,1.2-2.3,1.8-3.5l1.9-3.4l1-1.7l1.1-1.7     l2.1-3.3l2.3-3.2c1.5-2.2,3.1-4.2,4.7-6.2c6.6-8.1,14.2-15.4,22.5-21.7c8.4-6.2,17.5-11.5,27.2-15.6c9.7-4,19.8-6.8,30.2-8.4     c10.4-1.5,20.9-1.7,31.3-0.8c10.4,1,20.7,3.4,30.5,6.8c9.9,3.5,19.2,8.3,27.9,14.1c8.6,5.9,16.5,12.8,23.5,20.5     c6.9,7.8,12.9,16.4,17.8,25.6c4.8,9.2,8.5,19,10.9,29.1c2.4,10.1,3.5,20.5,3.4,30.8c-0.2-10.3-1.6-20.6-4.2-30.6     c-2.6-10-6.5-19.6-11.4-28.6c-4.9-9-11-17.4-17.9-25c-7-7.5-14.8-14.2-23.4-19.9c-2.2-1.3-4.3-2.8-6.6-4l-3.3-1.9l-3.4-1.7     l-1.7-0.9l-1.7-0.8l-3.5-1.6c-1.2-0.5-2.4-0.9-3.6-1.4c-1.2-0.5-2.4-1-3.6-1.3c-9.7-3.4-19.7-5.6-29.9-6.6     c-10.2-0.9-20.5-0.6-30.6,0.9c-10.1,1.5-20,4.4-29.4,8.3c-9.4,3.9-18.4,9.1-26.6,15.1c-8.2,6.2-15.6,13.2-22.1,21.1     c-1.6,2-3.2,4-4.7,6.1l-2.2,3.1l-2.1,3.2l-1,1.6l-1,1.7l-1.9,3.3c-0.6,1.1-1.2,2.3-1.8,3.4c-0.6,1.1-1.2,2.3-1.7,3.4     c-1.1,2.3-2.2,4.6-3,7c-0.5,1.2-1,2.4-1.4,3.6l-1.2,3.6c-0.4,1.2-0.8,2.4-1.2,3.7l-1.1,3.7l-0.9,3.7c-0.3,1.2-0.6,2.5-0.8,3.8     c-2,10.1-2.8,20.3-2.3,30.6c0.5,10.3,2.3,20.4,5.2,30.3c2.9,9.9,7.1,19.3,12.3,28.2c2.7,4.4,5.5,8.7,8.7,12.8     C243.4,708.9,246.9,712.7,250.5,716.5z"/>
			<circle class="st3" cx="249.1" cy="539" r="4.9"/>
			<g>
				<rect x="1066.1" y="515.9" class="st3" width="4" height="11"/>
			</g>
			<g>
				<rect x="957.3" y="624.7" class="st3" width="11" height="4"/>
			</g>
			<g>
				<rect x="1168" y="624.7" class="st3" width="11" height="4"/>
			</g>
			<g>
				
					<rect x="1137.1" y="550.2" transform="matrix(0.707 -0.7072 0.7072 0.707 -55.7895 969.8107)" class="st3" width="11" height="4"/>
			</g>
			<g>
				
					<rect x="991.6" y="546.7" transform="matrix(0.7071 -0.7071 0.7071 0.7071 -99.4682 864.3447)" class="st3" width="4" height="11"/>
			</g>
			<g>
				<path class="st2" d="M974.4,628c0-1,0.1-1.9,0.3-2.5c0.2-0.6,0.5-1.1,1-1.5s1-0.5,1.6-0.5c0.5,0,0.9,0.1,1.3,0.3      c0.4,0.2,0.7,0.5,0.9,0.8c0.2,0.4,0.4,0.8,0.6,1.3c0.1,0.5,0.2,1.2,0.2,2.1c0,1-0.1,1.9-0.3,2.5c-0.2,0.6-0.5,1.1-1,1.5      s-1,0.5-1.6,0.5c-0.9,0-1.5-0.3-2-0.9C974.7,630.8,974.4,629.6,974.4,628z M975.5,628c0,1.5,0.2,2.4,0.5,2.9      c0.3,0.5,0.8,0.7,1.3,0.7c0.5,0,0.9-0.2,1.3-0.7c0.3-0.5,0.5-1.5,0.5-2.9c0-1.5-0.2-2.4-0.5-2.9c-0.3-0.5-0.8-0.7-1.3-0.7      c-0.5,0-0.9,0.2-1.2,0.6C975.7,625.5,975.5,626.5,975.5,628z"/>
			</g>
			<g>
				<path class="st2" d="M1007.2,566.5h-1.1v-6.9c-0.3,0.3-0.6,0.5-1,0.8c-0.4,0.3-0.8,0.4-1.1,0.6v-1.1c0.6-0.3,1.1-0.6,1.6-1      c0.5-0.4,0.8-0.8,1-1.2h0.7V566.5z"/>
				<path class="st2" d="M1010,562.1c0-1,0.1-1.9,0.3-2.5c0.2-0.6,0.5-1.1,1-1.5s1-0.5,1.6-0.5c0.5,0,0.9,0.1,1.3,0.3      c0.4,0.2,0.7,0.5,0.9,0.8c0.2,0.4,0.4,0.8,0.6,1.3c0.1,0.5,0.2,1.2,0.2,2.1c0,1-0.1,1.9-0.3,2.5c-0.2,0.6-0.5,1.1-1,1.5      s-1,0.5-1.6,0.5c-0.9,0-1.5-0.3-2-0.9C1010.3,565,1010,563.8,1010,562.1z M1011.2,562.1c0,1.5,0.2,2.4,0.5,2.9      c0.3,0.5,0.8,0.7,1.3,0.7c0.5,0,0.9-0.2,1.3-0.7c0.3-0.5,0.5-1.5,0.5-2.9c0-1.5-0.2-2.4-0.5-2.9c-0.3-0.5-0.8-0.7-1.3-0.7      c-0.5,0-0.9,0.2-1.2,0.6C1011.3,559.7,1011.2,560.7,1011.2,562.1z"/>
			</g>
			<g>
				<path class="st2" d="M1067,535.5l-1.1,0.1c-0.1-0.4-0.2-0.7-0.4-0.9c-0.3-0.3-0.7-0.5-1.1-0.5c-0.3,0-0.7,0.1-0.9,0.3      c-0.3,0.3-0.6,0.6-0.8,1.1c-0.2,0.5-0.3,1.2-0.3,2.1c0.3-0.4,0.6-0.7,1-0.9c0.4-0.2,0.8-0.3,1.2-0.3c0.7,0,1.3,0.3,1.9,0.8      c0.5,0.5,0.8,1.2,0.8,2.1c0,0.6-0.1,1.1-0.4,1.6c-0.2,0.5-0.6,0.8-1,1.1s-0.9,0.4-1.4,0.4c-0.9,0-1.6-0.3-2.2-1      c-0.6-0.7-0.9-1.8-0.9-3.3c0-1.7,0.3-3,1-3.7c0.6-0.7,1.3-1,2.2-1c0.7,0,1.3,0.2,1.7,0.6C1066.7,534.2,1067,534.8,1067,535.5z       M1062.6,539.3c0,0.4,0.1,0.7,0.2,1.1c0.2,0.3,0.4,0.6,0.7,0.8c0.3,0.2,0.6,0.3,0.9,0.3c0.5,0,0.9-0.2,1.2-0.6s0.5-0.9,0.5-1.5      c0-0.6-0.2-1.1-0.5-1.4c-0.3-0.4-0.7-0.5-1.2-0.5c-0.5,0-0.9,0.2-1.3,0.5C1062.8,538.3,1062.6,538.7,1062.6,539.3z"/>
				<path class="st2" d="M1068.3,537.8c0-1,0.1-1.9,0.3-2.5c0.2-0.6,0.5-1.1,1-1.5s1-0.5,1.6-0.5c0.5,0,0.9,0.1,1.3,0.3      c0.4,0.2,0.7,0.5,0.9,0.8c0.2,0.4,0.4,0.8,0.6,1.3c0.1,0.5,0.2,1.2,0.2,2.1c0,1-0.1,1.9-0.3,2.5c-0.2,0.6-0.5,1.1-1,1.5      s-1,0.5-1.6,0.5c-0.9,0-1.5-0.3-2-0.9C1068.6,540.7,1068.3,539.5,1068.3,537.8z M1069.4,537.8c0,1.5,0.2,2.4,0.5,2.9      c0.3,0.5,0.8,0.7,1.3,0.7c0.5,0,0.9-0.2,1.3-0.7c0.3-0.5,0.5-1.5,0.5-2.9c0-1.5-0.2-2.4-0.5-2.9c-0.3-0.5-0.8-0.7-1.3-0.7      c-0.5,0-0.9,0.2-1.2,0.6C1069.6,535.3,1069.4,536.3,1069.4,537.8z"/>
			</g>
			<g>
				<path class="st2" d="M1121.5,561.7c-0.5-0.2-0.8-0.4-1-0.7c-0.2-0.3-0.3-0.7-0.3-1.1c0-0.6,0.2-1.2,0.7-1.6      c0.5-0.4,1.1-0.7,1.9-0.7c0.8,0,1.4,0.2,1.9,0.7c0.5,0.4,0.7,1,0.7,1.6c0,0.4-0.1,0.8-0.3,1.1c-0.2,0.3-0.5,0.5-1,0.7      c0.5,0.2,1,0.5,1.2,0.9s0.4,0.9,0.4,1.4c0,0.8-0.3,1.4-0.8,1.9c-0.5,0.5-1.2,0.8-2.1,0.8c-0.9,0-1.6-0.3-2.1-0.8      s-0.8-1.2-0.8-1.9c0-0.6,0.1-1.1,0.4-1.4C1120.5,562.1,1120.9,561.8,1121.5,561.7z M1120.9,563.9c0,0.3,0.1,0.6,0.2,0.9      c0.1,0.3,0.4,0.5,0.7,0.7c0.3,0.2,0.6,0.2,0.9,0.2c0.5,0,1-0.2,1.3-0.5s0.5-0.8,0.5-1.3c0-0.5-0.2-1-0.5-1.3      c-0.3-0.3-0.8-0.5-1.3-0.5c-0.5,0-0.9,0.2-1.3,0.5C1121.1,563,1120.9,563.4,1120.9,563.9z M1121.2,559.8c0,0.4,0.1,0.8,0.4,1      c0.3,0.3,0.6,0.4,1.1,0.4c0.4,0,0.8-0.1,1-0.4c0.3-0.3,0.4-0.6,0.4-1c0-0.4-0.1-0.7-0.4-1s-0.6-0.4-1-0.4c-0.4,0-0.8,0.1-1,0.4      C1121.4,559.1,1121.2,559.5,1121.2,559.8z"/>
				<path class="st2" d="M1126.7,562.1c0-1,0.1-1.9,0.3-2.5c0.2-0.6,0.5-1.1,1-1.5s1-0.5,1.6-0.5c0.5,0,0.9,0.1,1.3,0.3      c0.4,0.2,0.7,0.5,0.9,0.8c0.2,0.4,0.4,0.8,0.6,1.3c0.1,0.5,0.2,1.2,0.2,2.1c0,1-0.1,1.9-0.3,2.5c-0.2,0.6-0.5,1.1-1,1.5      s-1,0.5-1.6,0.5c-0.9,0-1.5-0.3-2-0.9C1127,565,1126.7,563.8,1126.7,562.1z M1127.8,562.1c0,1.5,0.2,2.4,0.5,2.9      c0.3,0.5,0.8,0.7,1.3,0.7c0.5,0,0.9-0.2,1.3-0.7c0.3-0.5,0.5-1.5,0.5-2.9c0-1.5-0.2-2.4-0.5-2.9c-0.3-0.5-0.8-0.7-1.3-0.7      c-0.5,0-0.9,0.2-1.2,0.6C1128,559.7,1127.8,560.7,1127.8,562.1z"/>
			</g>
			<g>
				<path class="st2" d="M1144.7,632.3h-1.1v-6.9c-0.3,0.3-0.6,0.5-1,0.8c-0.4,0.3-0.8,0.4-1.1,0.6v-1.1c0.6-0.3,1.1-0.6,1.6-1      c0.5-0.4,0.8-0.8,1-1.2h0.7V632.3z"/>
				<path class="st2" d="M1147.5,628c0-1,0.1-1.9,0.3-2.5c0.2-0.6,0.5-1.1,1-1.5s1-0.5,1.6-0.5c0.5,0,0.9,0.1,1.3,0.3      c0.4,0.2,0.7,0.5,0.9,0.8c0.2,0.4,0.4,0.8,0.6,1.3c0.1,0.5,0.2,1.2,0.2,2.1c0,1-0.1,1.9-0.3,2.5c-0.2,0.6-0.5,1.1-1,1.5      s-1,0.5-1.6,0.5c-0.9,0-1.5-0.3-2-0.9C1147.8,630.8,1147.5,629.6,1147.5,628z M1148.7,628c0,1.5,0.2,2.4,0.5,2.9      c0.3,0.5,0.8,0.7,1.3,0.7c0.5,0,0.9-0.2,1.3-0.7c0.3-0.5,0.5-1.5,0.5-2.9c0-1.5-0.2-2.4-0.5-2.9c-0.3-0.5-0.8-0.7-1.3-0.7      c-0.5,0-0.9,0.2-1.2,0.6C1148.8,625.5,1148.7,626.5,1148.7,628z"/>
				<path class="st2" d="M1154.4,628c0-1,0.1-1.9,0.3-2.5c0.2-0.6,0.5-1.1,1-1.5s1-0.5,1.6-0.5c0.5,0,0.9,0.1,1.3,0.3      c0.4,0.2,0.7,0.5,0.9,0.8c0.2,0.4,0.4,0.8,0.6,1.3c0.1,0.5,0.2,1.2,0.2,2.1c0,1-0.1,1.9-0.3,2.5c-0.2,0.6-0.5,1.1-1,1.5      s-1,0.5-1.6,0.5c-0.9,0-1.5-0.3-2-0.9C1154.7,630.8,1154.4,629.6,1154.4,628z M1155.5,628c0,1.5,0.2,2.4,0.5,2.9      c0.3,0.5,0.8,0.7,1.3,0.7c0.5,0,0.9-0.2,1.3-0.7c0.3-0.5,0.5-1.5,0.5-2.9c0-1.5-0.2-2.4-0.5-2.9c-0.3-0.5-0.8-0.7-1.3-0.7      c-0.5,0-0.9,0.2-1.2,0.6C1155.7,625.5,1155.5,626.5,1155.5,628z"/>
			</g>
			<path class="st3" d="M941.9,626.7c-0.3-16.5,2.8-33.2,8.9-48.6c6.2-15.4,15.5-29.6,27.2-41.5c11.7-11.9,25.8-21.4,41.2-27.8     c15.4-6.5,32.1-9.8,48.8-9.8c16.7,0,33.4,3.4,48.8,9.8c15.4,6.4,29.6,15.9,41.2,27.8c11.7,11.9,21,26.1,27.2,41.5     c6.1,15.4,9.2,32.1,8.9,48.6c-0.5-33.1-14.3-65.5-37.8-88.4c-5.8-5.7-12.2-10.9-19-15.4c-6.8-4.5-14.1-8.4-21.6-11.5     c-15.1-6.2-31.5-9.4-47.8-9.4c-16.3,0-32.7,3.1-47.8,9.4c-15.1,6.2-29,15.5-40.7,26.9C956.2,561.2,942.4,593.7,941.9,626.7z"/>
			<circle class="st3" cx="1194.3" cy="626.7" r="4.9"/>
			<path class="st5" d="M783.5,675H620.9c-9.6,0-17.4-7.8-17.4-17.4v-61c0-9.6,7.8-17.4,17.4-17.4h162.6c9.6,0,17.4,7.8,17.4,17.4     v61C800.9,667.2,793.1,675,783.5,675z"/>
			<polygon class="st3" points="700,564 693.1,574.3 706.9,574.3    "/>
			<path class="st3" d="M1062.1,518c-25.5,1.5-48.7,11.7-66.5,27.7l5.5,5.5c16.5-14.6,37.7-24,61.1-25.4V518z"/>
			<path class="st3" d="M1149.5,553.9l-5.5,5.5c14.8,16.5,24.3,37.9,25.8,61.4h7.7C1176,595.1,1165.7,571.8,1149.5,553.9z"/>
			<path class="st3" d="M987.1,554.2c-16,17.9-26.2,41-27.7,66.5h7.7c1.4-23.4,10.8-44.6,25.4-61.1L987.1,554.2z"/>
			<path class="st3" d="M1141,545.4c-18-16-41.2-26.1-66.9-27.4v7.7c23.5,1.3,44.8,10.6,61.4,25.1L1141,545.4z"/>
		</g>
		<g>
			<polygon class="st3" points="629.4,614.6 624.2,626.9 630.6,626.9 635.8,614.6    "/>
			<polygon class="st3" points="636.9,614.6 631.7,626.9 638.1,626.9 643.3,614.6    "/>
			<polygon class="st3" points="651.2,626.9 651.2,616 646.6,626.9    "/>
			<polygon class="st3" points="644.4,614.6 639.1,626.9 645.5,626.9 650.8,614.6    "/>
			<polygon class="st3" points="623.6,614.6 623.6,625.7 628.3,614.6    "/>
			<path class="st3" d="M657.4,616.3h-3.1v-4.7h-33.9v18.1h33.9v-5.8h3.1V616.3z M653,628.4h-31.2V613H653v3.3v7.6V628.4z      M656.1,622.6h-1.7v-4.9h1.7V622.6z"/>
		</g>
		<path class="st3" d="M609.1,649.4c15.5-0.6,31-1,46.6-1.3c7.8-0.1,15.5-0.2,23.3-0.3l23.3-0.1l23.3,0.1c7.8,0.1,15.5,0.1,23.3,0.3    c15.5,0.2,31,0.6,46.6,1.3c-15.5,0.6-31,1-46.6,1.3c-7.8,0.1-15.5,0.2-23.3,0.3l-23.3,0.1l-23.3-0.1c-7.8-0.1-15.5-0.1-23.3-0.3    C640.2,650.4,624.6,650,609.1,649.4z"/>
		<path class="st3" d="M609.1,599.4c15.5-0.6,31-1,46.6-1.3c7.8-0.1,15.5-0.2,23.3-0.3l23.3-0.1l23.3,0.1c7.8,0.1,15.5,0.1,23.3,0.3    c15.5,0.2,31,0.6,46.6,1.3c-15.5,0.6-31,1-46.6,1.3c-7.8,0.1-15.5,0.2-23.3,0.3l-23.3,0.1l-23.3-0.1c-7.8-0.1-15.5-0.1-23.3-0.3    C640.2,600.4,624.6,600,609.1,599.4z"/>
		<g>
			<path class="st3" d="M706.7,629.4h-1.9v-12.1c-0.5,0.4-1.1,0.9-1.8,1.3c-0.7,0.4-1.4,0.8-2,1v-1.8c1.1-0.5,2-1.1,2.8-1.8     s1.4-1.4,1.7-2.1h1.2V629.4z"/>
			<path class="st3" d="M721.5,627.6v1.8h-10.2c0-0.5,0.1-0.9,0.2-1.3c0.3-0.7,0.7-1.4,1.2-2c0.6-0.7,1.4-1.4,2.5-2.3     c1.7-1.4,2.8-2.5,3.4-3.3c0.6-0.8,0.9-1.6,0.9-2.3c0-0.7-0.3-1.4-0.8-1.9c-0.5-0.5-1.2-0.8-2.1-0.8c-0.9,0-1.6,0.3-2.2,0.8     c-0.5,0.5-0.8,1.3-0.8,2.3l-1.9-0.2c0.1-1.5,0.6-2.6,1.5-3.3c0.9-0.8,2-1.1,3.5-1.1c1.5,0,2.6,0.4,3.5,1.2c0.9,0.8,1.3,1.8,1.3,3     c0,0.6-0.1,1.2-0.4,1.8s-0.7,1.2-1.3,1.9c-0.6,0.7-1.6,1.6-2.9,2.7c-1.1,1-1.9,1.6-2.2,1.9c-0.3,0.3-0.6,0.7-0.8,1H721.5z"/>
			<path class="st3" d="M724.6,629.4v-2.2h2.2v2.2H724.6z"/>
			<path class="st3" d="M739.4,627.6v1.8h-10.2c0-0.5,0.1-0.9,0.2-1.3c0.3-0.7,0.7-1.4,1.2-2c0.6-0.7,1.4-1.4,2.5-2.3     c1.7-1.4,2.8-2.5,3.4-3.3c0.6-0.8,0.9-1.6,0.9-2.3c0-0.7-0.3-1.4-0.8-1.9c-0.5-0.5-1.2-0.8-2.1-0.8c-0.9,0-1.6,0.3-2.2,0.8     c-0.5,0.5-0.8,1.3-0.8,2.3l-1.9-0.2c0.1-1.5,0.6-2.6,1.5-3.3c0.9-0.8,2-1.1,3.5-1.1c1.5,0,2.6,0.4,3.5,1.2c0.9,0.8,1.3,1.8,1.3,3     c0,0.6-0.1,1.2-0.4,1.8s-0.7,1.2-1.3,1.9c-0.6,0.7-1.6,1.6-2.9,2.7c-1.1,1-1.9,1.6-2.2,1.9c-0.3,0.3-0.6,0.7-0.8,1H739.4z"/>
			<path class="st3" d="M747.5,629.4v-3.7h-6.7V624l7-10h1.5v10h2.1v1.7h-2.1v3.7H747.5z M747.5,624V617l-4.8,6.9H747.5z"/>
			<path class="st3" d="M757.1,629.4l-4.2-11.2h2l2.4,6.7c0.3,0.7,0.5,1.5,0.7,2.2c0.2-0.6,0.4-1.3,0.7-2.1l2.5-6.8h1.9l-4.2,11.2     H757.1z"/>
		</g>
		<path class="st6" d="M92.1,676.5c-0.1-7.7-0.1-15.5,0.7-23.2c0.2-3.9,0.9-7.7,1.3-11.6c0.3-1.9,0.6-3.8,1-5.7    c0.3-1.9,0.6-3.8,1.1-5.7c3.2-15.2,8-30.2,14.4-44.5l2.4-5.4l2.6-5.3l1.3-2.6c0.5-0.9,0.9-1.7,1.4-2.6l2.8-5.2c1-1.7,2-3.4,3-5.1    c1-1.7,2-3.4,3.1-5.1c2.1-3.3,4.2-6.7,6.5-9.9c9-13,18.9-25.5,29.8-37.1c21.8-23.3,46.7-43.8,73.2-61.9    c13.3-9.1,27.1-17.4,41.1-25.3c14.1-7.8,28.5-15.2,43.2-21.9c29.4-13.5,59.7-25,90.7-34.7c30.9-9.7,62.5-17.5,94.4-23.7    c15.9-3.2,32-5.8,48.1-8.1c16.1-2.3,32.2-4.2,48.4-5.7c16.2-1.5,32.4-2.6,48.7-3.4c16.2-0.7,32.5-1.1,48.8-1.1    c16.3,0,32.5,0.4,48.8,1.1c16.2,0.7,32.5,1.9,48.7,3.4c16.2,1.5,32.3,3.4,48.4,5.7c16.1,2.3,32.1,4.9,48.1,8.1    c31.9,6.3,63.5,14,94.4,23.7c15.5,4.8,30.8,10.1,45.9,15.9c15.1,5.8,30.1,12,44.7,18.8c14.7,6.7,29.1,14.1,43.2,21.9    c14.1,7.9,27.9,16.2,41.1,25.3c26.6,18.1,51.4,38.6,73.2,61.9c10.9,11.7,20.8,24.1,29.8,37.1c2.3,3.2,4.4,6.6,6.5,9.9    c1.1,1.6,2,3.4,3.1,5.1c1,1.7,2,3.4,3,5.1l2.8,5.2l1.4,2.6l1.3,2.6l2.6,5.3l2.4,5.4c6.4,14.3,11.2,29.3,14.4,44.5    c0.4,1.9,0.7,3.8,1.1,5.7c0.3,1.9,0.7,3.8,0.9,5.7c0.5,3.9,1.1,7.7,1.3,11.6c0.8,7.7,0.8,15.5,0.7,23.2c-1-30.9-9-61.3-22.9-88.8    l-2.6-5.2l-2.8-5.1l-1.4-2.5l-1.5-2.5l-3-5c-1-1.7-2.1-3.3-3.1-4.9c-1.1-1.6-2.1-3.3-3.2-4.8c-2.2-3.2-4.4-6.4-6.7-9.5    c-9.3-12.4-19.4-24.2-30.5-35.2c-22-22.1-46.9-41.4-73.4-58.4c-26.5-16.9-54.6-31.6-83.7-44.3c-58.1-25.3-119.7-43.1-182.4-54.7    c-15.7-2.9-31.5-5.4-47.3-7.6c-15.8-2.1-31.7-4-47.6-5.3c-15.9-1.4-31.9-2.5-47.8-3.2c-16-0.7-32-1-47.9-1c-16,0-32,0.4-47.9,1    c-16,0.7-31.9,1.8-47.8,3.2c-15.9,1.4-31.8,3.2-47.6,5.3c-15.8,2.2-31.6,4.6-47.3,7.6C446.6,367.3,385,385,326.9,410.3    c-29,12.7-57.1,27.4-83.7,44.3c-26.5,16.9-51.4,36.3-73.4,58.4c-11.1,11-21.2,22.8-30.5,35.2c-2.4,3.1-4.5,6.3-6.7,9.5    c-1.1,1.6-2.1,3.2-3.2,4.8c-1,1.6-2.1,3.2-3.1,4.9l-3,5l-1.5,2.5l-1.4,2.5l-2.8,5.1l-2.6,5.2C101.2,615.2,93.2,645.6,92.1,676.5z"/>
	</g>
</g>
</svg>
