<?xml version="1.0" encoding="utf-8"?>
<!-- Generator: Adobe Illustrator 21.0.0, SVG Export Plug-In . SVG Version: 6.00 Build 0)  -->
<svg xmlns="http://www.w3.org/2000/svg" xmlns:xlink="http://www.w3.org/1999/xlink" version="1.1" id="Layer_1" x="0px" y="0px" viewBox="0 0 1400 1400" style="enable-background:new 0 0 1400 1400;" xml:space="preserve">
<style type="text/css">
	.st0{fill:none;stroke:#2FBACC;stroke-width:3;stroke-miterlimit:10;}
	.st1{fill:none;stroke:#2FBACC;stroke-width:2;stroke-linecap:round;stroke-miterlimit:10;}
	.st2{fill:#EFEFEF;}
	.st3{fill:#2FBACC;}
	.st4{fill:#DD5E5E;}
	.st5{fill:#484849;}
	.st6{fill:#6B6B6B;}
	.st7{fill:url(#SVGID_1_);}
	.st8{fill:url(#SVGID_2_);}
	.st9{fill:url(#SVGID_3_);}
	.st10{fill:#FFFFFF;}
	.st11{fill:#1B75BB;}
	.st12{opacity:0.74;}
	.st13{fill:url(#SVGID_4_);}
	.st14{fill:url(#SVGID_5_);}
	.st15{fill:url(#SVGID_6_);}
	.st16{fill:url(#SVGID_7_);}
	.st17{fill:url(#SVGID_8_);}
	.st18{fill:url(#SVGID_9_);}
	.st19{fill:url(#SVGID_10_);}
	.st20{fill:url(#SVGID_11_);}
	.st21{fill:url(#SVGID_12_);}
	.st22{fill:url(#SVGID_13_);}
	.st23{fill:url(#SVGID_14_);}
	.st24{fill:url(#SVGID_15_);}
	.st25{fill:url(#SVGID_16_);}
	.st26{fill:url(#SVGID_17_);}
	.st27{fill:url(#SVGID_18_);}
	.st28{fill:url(#SVGID_19_);}
	.st29{fill:url(#SVGID_20_);}
	.st30{fill:url(#SVGID_21_);}
	.st31{fill:url(#SVGID_22_);}
	.st32{fill:url(#SVGID_23_);}
	.st33{fill:url(#SVGID_24_);}
	.st34{fill:url(#SVGID_25_);}
	.st35{fill:url(#SVGID_26_);}
	.st36{fill:url(#SVGID_27_);}
	.st37{fill:url(#SVGID_28_);}
	.st38{fill:url(#SVGID_29_);}
	.st39{fill:url(#SVGID_30_);}
	.st40{fill:url(#SVGID_31_);}
	.st41{fill:url(#SVGID_32_);}
	.st42{fill:url(#SVGID_33_);}
	.st43{fill:url(#SVGID_34_);}
	.st44{fill:url(#SVGID_35_);}
</style>
<g>
	
	<g>
		<g>
			<linearGradient id="SVGID_1_" gradientUnits="userSpaceOnUse" x1="1303.457" y1="750.4145" x2="1102.7904" y2="673.7478">
				<stop offset="0" style="stop-color:#FFFFFF"/>
				<stop offset="0.514" style="stop-color:#69C3E9;stop-opacity:0.3208"/>
				<stop offset="0.7568" style="stop-color:#27A9E0;stop-opacity:0"/>
			</linearGradient>
			<circle class="st7" cx="1051" cy="654" r="177.6"/>
			<linearGradient id="SVGID_2_" gradientUnits="userSpaceOnUse" x1="941.5604" y1="697.0754" x2="1210.047" y2="590.5807">
				<stop offset="0" style="stop-color:#1B75BB;stop-opacity:0"/>
				<stop offset="1" style="stop-color:#27A9E0"/>
			</linearGradient>
			<path class="st8" d="M922.7,781c-14.5-14.4-26.5-31.3-35.4-49.8c-8.9-18.5-14.4-38.5-16.5-58.9c-1-10.2-1.1-20.5-0.4-30.7     c0.7-10.2,2.2-20.4,4.8-30.4c5-19.9,13.3-39,24.7-56.1c11.4-17.1,25.7-32.2,42.2-44.5c16.5-12.3,35.1-21.6,54.8-27.6     c9.8-3,19.9-5.1,30.1-6.3c10.2-1.2,20.5-1.7,30.8-1.2c20.5,1.1,40.9,5.5,59.9,13.4c19,7.9,36.6,19.1,51.8,32.9     c15.2,13.9,28,30.3,37.7,48.4c9.7,18.1,16.1,37.9,19.2,58.3c1.5,10.2,2,20.5,1.8,30.7c-0.3,10.3-1.3,20.5-3.4,30.6     c-4.1,20.1-11.5,39.6-22.2,57.1c-10.6,17.5-24.3,33.3-40.1,46.3c-15.9,12.9-34,23.1-53.3,30c-19.3,6.9-39.8,10.1-60.2,10.2     c20.4-0.2,40.9-3.6,60.1-10.6c19.2-7,37.1-17.3,52.9-30.3c15.7-13,29.2-28.7,39.6-46.2c10.5-17.5,17.8-36.8,21.8-56.8     c2-10,3-20.2,3.2-30.3c0.2-10.2-0.3-20.4-1.8-30.4c-3.1-20.1-9.4-39.7-19.1-57.6c-9.7-17.9-22.4-34.1-37.4-47.8     c-15.1-13.6-32.5-24.6-51.3-32.5c-18.8-7.9-38.9-12.2-59.2-13.3c-10.2-0.5-20.4-0.1-30.4,1.1c-10.1,1.2-20.1,3.2-29.8,6.2     c-19.5,5.9-37.9,15.2-54.3,27.3c-16.3,12.2-30.6,27.1-42,43.9c-11.4,16.9-19.7,35.8-24.8,55.5c-2.6,9.9-4.1,20-4.9,30.1     c-0.7,10.2-0.7,20.4,0.3,30.5c2,20.3,7.3,40.3,16,58.8C896.5,749.5,908.4,766.5,922.7,781z"/>
			<linearGradient id="SVGID_3_" gradientUnits="userSpaceOnUse" x1="1011.9757" y1="635.7568" x2="1119.9757" y2="690.7568">
				<stop offset="0" style="stop-color:#1B75BB;stop-opacity:0"/>
				<stop offset="1" style="stop-color:#1B75BB"/>
			</linearGradient>
			<path class="st9" d="M1081,580.4c9.9,3.8,19,9.8,26.7,17.3c7.6,7.5,13.8,16.6,17.9,26.6c4.2,10,6.2,20.8,6.2,31.7     c-0.1,10.9-2.4,21.7-6.7,31.7c-4.3,10-10.6,19.1-18.4,26.6c-7.9,7.5-17.2,13.4-27.3,17.3c-10.1,3.9-20.9,5.6-31.7,5.3     c-10.7-0.5-21.3-3-30.9-7.6c19.8,7.8,42.2,7.4,61.4-0.6c19.3-7.9,35.1-23.5,43.2-42.5c8.3-19,8.8-41.2,1.3-60.6     C1115.4,606,1100.3,589.5,1081,580.4z"/>
			<g>
				<path class="st10" d="M1218.1,727.5c-0.1,0-0.3,0-0.4-0.1l-94.8-39.6c-0.5-0.2-0.8-0.8-0.5-1.3s0.8-0.7,1.3-0.5l94.8,39.6      c0.5,0.2,0.8,0.8,0.5,1.3C1218.9,727.3,1218.5,727.5,1218.1,727.5z"/>
			</g>
			<g>
				<g>
					<path class="st11" d="M1048.9,488.1c-1.4,0-2.5-1.1-2.5-2.5V467c0-1.4,1.1-2.5,2.5-2.5s2.5,1.1,2.5,2.5v18.7       C1051.4,487,1050.3,488.1,1048.9,488.1z"/>
				</g>
				<g>
					<path class="st11" d="M1048.9,845.1c-1.4,0-2.5-1.1-2.5-2.5V824c0-1.4,1.1-2.5,2.5-2.5s2.5,1.1,2.5,2.5v18.7       C1051.4,844,1050.3,845.1,1048.9,845.1z"/>
				</g>
				<g>
					<path class="st11" d="M879.8,657.3h-18.7c-1.4,0-2.5-1.1-2.5-2.5s1.1-2.5,2.5-2.5h18.7c1.4,0,2.5,1.1,2.5,2.5       S881.2,657.3,879.8,657.3z"/>
				</g>
				<g>
					<path class="st11" d="M1236.8,657.3h-18.7c-1.4,0-2.5-1.1-2.5-2.5s1.1-2.5,2.5-2.5h18.7c1.4,0,2.5,1.1,2.5,2.5       S1238.2,657.3,1236.8,657.3z"/>
				</g>
				<g>
					<path class="st11" d="M1168.6,537.7c-0.6,0-1.3-0.2-1.8-0.7c-1-1-1-2.6,0-3.5l13.2-13.2c1-1,2.6-1,3.5,0c1,1,1,2.6,0,3.5       l-13.2,13.2C1169.8,537.5,1169.2,537.7,1168.6,537.7z"/>
				</g>
				<g>
					<path class="st11" d="M916.1,790.1c-0.6,0-1.3-0.2-1.8-0.7c-1-1-1-2.6,0-3.5l13.2-13.2c1-1,2.6-1,3.5,0c1,1,1,2.6,0,3.5       l-13.2,13.2C917.4,789.9,916.8,790.1,916.1,790.1z"/>
				</g>
				<g>
					<path class="st11" d="M929.3,537.7c-0.6,0-1.3-0.2-1.8-0.7l-13.2-13.2c-1-1-1-2.6,0-3.5c1-1,2.6-1,3.5,0l13.2,13.2       c1,1,1,2.6,0,3.5C930.6,537.5,930,537.7,929.3,537.7z"/>
				</g>
				<g>
					<path class="st11" d="M1181.8,790.1c-0.6,0-1.3-0.2-1.8-0.7l-13.2-13.2c-1-1-1-2.6,0-3.5c1-1,2.6-1,3.5,0l13.2,13.2       c1,1,1,2.6,0,3.5C1183,789.9,1182.4,790.1,1181.8,790.1z"/>
				</g>
			</g>
			<g class="st12">
				
					<radialGradient id="SVGID_4_" cx="1819.4985" cy="1891.1543" r="33.5749" gradientTransform="matrix(0.9293 0.3693 -0.3693 0.9293 220.229 -1704.6337)" gradientUnits="userSpaceOnUse">
					<stop offset="0" style="stop-color:#FFFFFF"/>
					<stop offset="0.514" style="stop-color:#69C3E9;stop-opacity:0.3208"/>
					<stop offset="0.7568" style="stop-color:#27A9E0;stop-opacity:0"/>
				</radialGradient>
				<circle class="st13" cx="1212.8" cy="724.7" r="33.6"/>
				
					<radialGradient id="SVGID_5_" cx="-353.1788" cy="951.6862" r="35.5553" gradientTransform="matrix(0.4698 0.1867 -0.6516 1.6399 1998.8522 -769.9885)" gradientUnits="userSpaceOnUse">
					<stop offset="0" style="stop-color:#FFFFFF"/>
					<stop offset="0.514" style="stop-color:#69C3E9;stop-opacity:0.3208"/>
					<stop offset="0.7568" style="stop-color:#27A9E0;stop-opacity:0"/>
				</radialGradient>
				<path class="st14" d="M1229.5,731.4c-12.8,32.2-30.6,55.3-39.9,51.7c-9.2-3.7-6.3-32.7,6.5-64.9c12.8-32.2,30.6-55.3,39.9-51.7      C1245.2,670.1,1242.3,699.2,1229.5,731.4z"/>
			</g>
			<g class="st12">
				
					<radialGradient id="SVGID_6_" cx="1721.0798" cy="1888.4519" r="25.604" gradientTransform="matrix(0.9293 0.3693 -0.3693 0.9293 220.229 -1704.6337)" gradientUnits="userSpaceOnUse">
					<stop offset="0" style="stop-color:#FFFFFF"/>
					<stop offset="0.514" style="stop-color:#69C3E9;stop-opacity:0.3208"/>
					<stop offset="0.7568" style="stop-color:#27A9E0;stop-opacity:0"/>
				</radialGradient>
				<circle class="st15" cx="1122.3" cy="685.9" r="25.6"/>
				
					<radialGradient id="SVGID_7_" cx="-547.853" cy="950.1548" r="27.1143" gradientTransform="matrix(0.4698 0.1867 -0.6516 1.6399 1998.8522 -769.9885)" gradientUnits="userSpaceOnUse">
					<stop offset="0" style="stop-color:#FFFFFF"/>
					<stop offset="0.514" style="stop-color:#69C3E9;stop-opacity:0.3208"/>
					<stop offset="0.7568" style="stop-color:#27A9E0;stop-opacity:0"/>
				</radialGradient>
				<path class="st16" d="M1135.1,691c-9.8,24.6-23.4,42.2-30.4,39.4s-4.8-25,4.9-49.5c9.8-24.6,23.4-42.2,30.4-39.4      C1147,644.2,1144.8,666.4,1135.1,691z"/>
			</g>
			<g>
				<g>
					<path class="st11" d="M1021.2,659.9h-4.8v-30.6c-1.2,1.1-2.7,2.2-4.6,3.3c-1.9,1.1-3.6,1.9-5.1,2.5v-4.6c2.7-1.3,5-2.8,7.1-4.6       c2-1.8,3.4-3.5,4.3-5.2h3.1V659.9z"/>
					<path class="st11" d="M1033.5,640.6c0-4.6,0.5-8.4,1.4-11.2c1-2.8,2.4-5,4.2-6.5c1.9-1.5,4.2-2.3,7.1-2.3       c2.1,0,3.9,0.4,5.5,1.3c1.6,0.8,2.9,2.1,3.9,3.7c1,1.6,1.8,3.5,2.4,5.8s0.9,5.4,0.9,9.3c0,4.6-0.5,8.3-1.4,11.1       c-0.9,2.8-2.4,5-4.2,6.5c-1.9,1.5-4.3,2.3-7.1,2.3c-3.8,0-6.7-1.4-8.9-4.1C1034.8,653.3,1033.5,648,1033.5,640.6z        M1038.4,640.6c0,6.4,0.8,10.7,2.3,12.8c1.5,2.1,3.4,3.2,5.6,3.2s4.1-1.1,5.6-3.2c1.5-2.1,2.3-6.4,2.3-12.8       c0-6.4-0.8-10.7-2.3-12.8c-1.5-2.1-3.4-3.2-5.6-3.2c-2.2,0-4,0.9-5.3,2.8C1039.3,629.8,1038.4,634.2,1038.4,640.6z"/>
					<path class="st11" d="M1082,659.9h-4.8v-30.6c-1.2,1.1-2.7,2.2-4.6,3.3c-1.9,1.1-3.6,1.9-5.1,2.5v-4.6c2.7-1.3,5-2.8,7.1-4.6       c2-1.8,3.4-3.5,4.3-5.2h3.1V659.9z"/>
					<path class="st11" d="M1019.9,691.2v-18.6h2.3v10.6l5.4-5.5h3l-5.2,5l5.7,8.5h-2.8l-4.5-6.9l-1.6,1.6v5.4H1019.9z"/>
					<path class="st11" d="M1033,691.2v-13.5h2v1.9c0.4-0.7,1-1.2,1.7-1.6c0.7-0.4,1.5-0.6,2.4-0.6c1,0,1.8,0.2,2.5,0.6       c0.6,0.4,1.1,1,1.4,1.7c1.1-1.6,2.5-2.4,4.2-2.4c1.3,0,2.4,0.4,3.1,1.1c0.7,0.7,1.1,1.9,1.1,3.4v9.3h-2.3v-8.5       c0-0.9-0.1-1.6-0.2-2c-0.1-0.4-0.4-0.7-0.8-1c-0.4-0.2-0.8-0.4-1.4-0.4c-1,0-1.7,0.3-2.4,0.9c-0.6,0.6-0.9,1.6-0.9,3v7.8h-2.3       v-8.8c0-1-0.2-1.8-0.6-2.3s-1-0.8-1.8-0.8c-0.6,0-1.2,0.2-1.8,0.5c-0.5,0.3-0.9,0.8-1.2,1.5s-0.4,1.6-0.4,2.8v7H1033z"/>
					<path class="st11" d="M1052.9,691.5l5.4-19.3h1.8l-5.4,19.3H1052.9z"/>
					<path class="st11" d="M1061.9,691.2v-18.6h2.3v6.7c1.1-1.2,2.4-1.9,4-1.9c1,0,1.9,0.2,2.6,0.6c0.7,0.4,1.3,0.9,1.6,1.6       c0.3,0.7,0.5,1.7,0.5,3v8.6h-2.3v-8.6c0-1.1-0.2-2-0.7-2.5s-1.2-0.8-2.1-0.8c-0.7,0-1.3,0.2-1.9,0.5c-0.6,0.4-1,0.8-1.3,1.4       c-0.3,0.6-0.4,1.4-0.4,2.5v7.4H1061.9z"/>
				</g>
				<g>
					
						<linearGradient id="SVGID_8_" gradientUnits="userSpaceOnUse" x1="7967.8608" y1="750.687" x2="7767.8677" y2="674.2776" gradientTransform="matrix(-1 0 0 1 8065.8477 0)">
						<stop offset="0" style="stop-color:#FFFFFF"/>
						<stop offset="0.514" style="stop-color:#69C3E9;stop-opacity:0.3208"/>
						<stop offset="0.7568" style="stop-color:#27A9E0;stop-opacity:0"/>
					</linearGradient>
					<circle class="st17" cx="349.6" cy="654.6" r="177"/>
					<linearGradient id="SVGID_9_" gradientUnits="userSpaceOnUse" x1="481.0341" y1="487.7928" x2="408.0341" y2="617.7928">
						<stop offset="0" style="stop-color:#C90E44"/>
						<stop offset="0.7568" style="stop-color:#C90E44;stop-opacity:0"/>
					</linearGradient>
					<path class="st18" d="M351.1,477.5v33.8c0.9,0,1.8,0,2.7,0c76.2,0,138.1,61.3,139.2,137.2h33.7       C523.4,554,446.1,478.3,351.1,477.5z"/>
					
						<linearGradient id="SVGID_10_" gradientUnits="userSpaceOnUse" x1="7607.4082" y1="697.0754" x2="7875.8945" y2="590.5807" gradientTransform="matrix(-1 0 0 1 8065.8477 0)">
						<stop offset="0" style="stop-color:#1B75BB;stop-opacity:0"/>
						<stop offset="1" style="stop-color:#27A9E0"/>
					</linearGradient>
					<path class="st19" d="M477.3,781c14.5-14.4,26.5-31.3,35.4-49.8c8.9-18.5,14.4-38.5,16.5-58.9c1-10.2,1.1-20.5,0.4-30.7       c-0.7-10.2-2.2-20.4-4.8-30.4c-5-19.9-13.3-39-24.7-56.1c-11.4-17.1-25.7-32.2-42.2-44.5c-16.5-12.3-35.1-21.6-54.8-27.6       c-9.8-3-19.9-5.1-30.1-6.3c-10.2-1.2-20.5-1.7-30.8-1.2c-20.5,1.1-40.9,5.5-59.9,13.4c-19,7.9-36.6,19.1-51.8,32.9       c-15.2,13.9-28,30.3-37.7,48.4c-9.7,18.1-16.1,37.9-19.2,58.3c-1.5,10.2-2,20.5-1.8,30.7c0.3,10.3,1.3,20.5,3.4,30.6       c4.1,20.1,11.5,39.6,22.2,57.1c10.6,17.5,24.3,33.3,40.1,46.3c15.9,12.9,34,23.1,53.3,30c19.3,6.9,39.8,10.1,60.2,10.2       c-20.4-0.2-40.9-3.6-60.1-10.6c-19.2-7-37.1-17.3-52.9-30.3c-15.7-13-29.2-28.7-39.6-46.2c-10.5-17.5-17.8-36.8-21.8-56.8       c-2-10-3-20.2-3.2-30.3c-0.2-10.2,0.3-20.4,1.8-30.4c3.1-20.1,9.4-39.7,19.1-57.6c9.7-17.9,22.4-34.1,37.4-47.8       c15.1-13.6,32.5-24.6,51.3-32.5c18.8-7.9,38.9-12.2,59.2-13.3c10.2-0.5,20.4-0.1,30.4,1.1c10.1,1.2,20.1,3.2,29.8,6.2       c19.5,5.9,37.9,15.2,54.3,27.3c16.3,12.2,30.6,27.1,42,43.9c11.4,16.9,19.7,35.8,24.8,55.5c2.6,9.9,4.1,20,4.9,30.1       c0.7,10.2,0.7,20.4-0.3,30.5c-2,20.3-7.3,40.3-16,58.8C503.5,749.5,491.6,766.5,477.3,781z"/>
					
						<linearGradient id="SVGID_11_" gradientUnits="userSpaceOnUse" x1="7677.8232" y1="635.7568" x2="7785.8232" y2="690.7568" gradientTransform="matrix(-1 0 0 1 8065.8477 0)">
						<stop offset="0" style="stop-color:#1B75BB;stop-opacity:0"/>
						<stop offset="1" style="stop-color:#1B75BB"/>
					</linearGradient>
					<path class="st20" d="M319,580.4c-9.9,3.8-19,9.8-26.7,17.3c-7.6,7.5-13.8,16.6-17.9,26.6c-4.2,10-6.2,20.8-6.2,31.7       c0.1,10.9,2.4,21.7,6.7,31.7c4.3,10,10.6,19.1,18.4,26.6c7.9,7.5,17.2,13.4,27.3,17.3c10.1,3.9,20.9,5.6,31.7,5.3       c10.7-0.5,21.3-3,30.9-7.6c-19.8,7.8-42.2,7.4-61.4-0.6c-19.3-7.9-35.1-23.5-43.2-42.5c-8.3-19-8.8-41.2-1.3-60.6       C284.6,606,299.7,589.5,319,580.4z"/>
					<g>
						<path class="st10" d="M181.9,727.5c0.1,0,0.3,0,0.4-0.1l94.8-39.6c0.5-0.2,0.8-0.8,0.5-1.3s-0.8-0.7-1.3-0.5l-94.8,39.6        c-0.5,0.2-0.8,0.8-0.5,1.3C181.1,727.3,181.5,727.5,181.9,727.5z"/>
					</g>
					<g>
						<g>
							<path class="st11" d="M351.1,488.1c1.4,0,2.5-1.1,2.5-2.5V467c0-1.4-1.1-2.5-2.5-2.5s-2.5,1.1-2.5,2.5v18.7         C348.6,487,349.7,488.1,351.1,488.1z"/>
						</g>
						<g>
							<path class="st11" d="M520.2,657.3h18.7c1.4,0,2.5-1.1,2.5-2.5s-1.1-2.5-2.5-2.5h-18.7c-1.4,0-2.5,1.1-2.5,2.5         S518.8,657.3,520.2,657.3z"/>
						</g>
						<g>
							<path class="st11" d="M163.2,657.3h18.7c1.4,0,2.5-1.1,2.5-2.5s-1.1-2.5-2.5-2.5h-18.7c-1.4,0-2.5,1.1-2.5,2.5         S161.8,657.3,163.2,657.3z"/>
						</g>
						<g>
							<path class="st11" d="M231.4,537.7c0.6,0,1.3-0.2,1.8-0.7c1-1,1-2.6,0-3.5L220,520.2c-1-1-2.6-1-3.5,0c-1,1-1,2.6,0,3.5         l13.2,13.2C230.2,537.5,230.8,537.7,231.4,537.7z"/>
						</g>
						<g>
							<path class="st11" d="M470.7,537.7c0.6,0,1.3-0.2,1.8-0.7l13.2-13.2c1-1,1-2.6,0-3.5c-1-1-2.6-1-3.5,0l-13.2,13.2         c-1,1-1,2.6,0,3.5C469.4,537.5,470,537.7,470.7,537.7z"/>
						</g>
						<g>
							<path class="st11" d="M218.2,790.1c0.6,0,1.3-0.2,1.8-0.7l13.2-13.2c1-1,1-2.6,0-3.5c-1-1-2.6-1-3.5,0l-13.2,13.2         c-1,1-1,2.6,0,3.5C217,789.9,217.6,790.1,218.2,790.1z"/>
						</g>
					</g>
					<g>
						<path class="st11" d="M320.4,647.4l4.8-0.6c0.6,2.7,1.5,4.7,2.8,5.9c1.3,1.2,2.9,1.8,4.8,1.8c2.3,0,4.2-0.8,5.7-2.4        c1.6-1.6,2.3-3.5,2.3-5.8c0-2.2-0.7-4-2.2-5.5c-1.4-1.4-3.3-2.1-5.5-2.1c-0.9,0-2,0.2-3.4,0.5l0.5-4.2c0.3,0,0.6,0.1,0.8,0.1        c2,0,3.9-0.5,5.5-1.6s2.5-2.7,2.5-4.9c0-1.8-0.6-3.2-1.8-4.4c-1.2-1.2-2.7-1.7-4.6-1.7c-1.9,0-3.4,0.6-4.7,1.8        c-1.2,1.2-2,2.9-2.4,5.3l-4.8-0.9c0.6-3.2,1.9-5.7,4-7.5c2.1-1.8,4.7-2.7,7.8-2.7c2.1,0,4.1,0.5,5.9,1.4        c1.8,0.9,3.2,2.2,4.1,3.8c1,1.6,1.4,3.3,1.4,5c0,1.7-0.5,3.2-1.4,4.6c-0.9,1.4-2.3,2.5-4,3.3c2.3,0.5,4.1,1.6,5.4,3.3        s1.9,3.8,1.9,6.3c0,3.4-1.2,6.3-3.7,8.7c-2.5,2.4-5.6,3.6-9.5,3.6c-3.4,0-6.3-1-8.6-3.1C322,653.3,320.8,650.6,320.4,647.4z"/>
						<path class="st11" d="M376.1,653.1v4.6h-25.9c0-1.2,0.2-2.3,0.6-3.3c0.7-1.8,1.7-3.5,3.2-5.2s3.5-3.7,6.3-5.9        c4.3-3.5,7.1-6.3,8.6-8.3c1.5-2,2.2-4,2.2-5.8c0-1.9-0.7-3.5-2-4.8c-1.4-1.3-3.1-2-5.3-2c-2.3,0-4.2,0.7-5.6,2.1        c-1.4,1.4-2.1,3.3-2.1,5.8l-4.9-0.5c0.3-3.7,1.6-6.5,3.8-8.4c2.2-1.9,5.2-2.9,8.9-2.9c3.8,0,6.7,1,8.9,3.1        c2.2,2.1,3.3,4.7,3.3,7.7c0,1.6-0.3,3.1-1,4.6c-0.6,1.5-1.7,3.1-3.2,4.8c-1.5,1.7-4,4-7.4,6.9c-2.9,2.4-4.7,4.1-5.6,4.9        c-0.8,0.9-1.5,1.7-2,2.6H376.1z"/>
						<path class="st11" d="M311.9,692.1v-8.8h1.3v1.3c0.3-0.6,0.7-1,1-1.2c0.3-0.2,0.6-0.3,1-0.3c0.5,0,1,0.2,1.5,0.5l-0.5,1.4        c-0.4-0.2-0.7-0.3-1.1-0.3c-0.3,0-0.6,0.1-0.9,0.3c-0.3,0.2-0.4,0.5-0.6,0.8c-0.2,0.5-0.3,1.1-0.3,1.7v4.6H311.9z"/>
						<path class="st11" d="M317.5,695.5v-12.2h1.4v1.1c0.3-0.4,0.7-0.8,1.1-1c0.4-0.2,0.9-0.3,1.5-0.3c0.8,0,1.4,0.2,2,0.6        c0.6,0.4,1,0.9,1.3,1.6c0.3,0.7,0.4,1.5,0.4,2.3c0,0.9-0.2,1.7-0.5,2.4c-0.3,0.7-0.8,1.3-1.4,1.7c-0.6,0.4-1.3,0.6-1.9,0.6        c-0.5,0-0.9-0.1-1.3-0.3s-0.7-0.5-1-0.8v4.3H317.5z M318.9,687.8c0,1.1,0.2,2,0.7,2.5c0.5,0.5,1,0.8,1.7,0.8        c0.7,0,1.2-0.3,1.7-0.8c0.5-0.6,0.7-1.4,0.7-2.6c0-1.1-0.2-2-0.7-2.5s-1-0.8-1.7-0.8c-0.6,0-1.2,0.3-1.7,0.9        C319.1,685.8,318.9,686.6,318.9,687.8z"/>
						<path class="st11" d="M327,692.1v-8.8h1.3v1.2c0.3-0.4,0.6-0.8,1.1-1c0.5-0.3,1-0.4,1.6-0.4c0.7,0,1.2,0.1,1.6,0.4        s0.7,0.7,0.9,1.1c0.7-1,1.6-1.5,2.7-1.5c0.9,0,1.5,0.2,2,0.7c0.5,0.5,0.7,1.2,0.7,2.2v6.1h-1.5v-5.6c0-0.6,0-1-0.1-1.3        c-0.1-0.3-0.3-0.5-0.5-0.6s-0.6-0.2-0.9-0.2c-0.6,0-1.1,0.2-1.5,0.6c-0.4,0.4-0.6,1.1-0.6,2v5.1h-1.5v-5.7        c0-0.7-0.1-1.2-0.4-1.5s-0.6-0.5-1.2-0.5c-0.4,0-0.8,0.1-1.2,0.3c-0.4,0.2-0.6,0.5-0.8,1s-0.2,1-0.2,1.8v4.6H327z"/>
						<path class="st11" d="M344.9,692.1l3.2-4.6l-3-4.2h1.9l1.4,2.1c0.3,0.4,0.5,0.7,0.6,1c0.2-0.4,0.5-0.7,0.7-1l1.5-2.1h1.8        l-3,4.2l3.3,4.7h-1.8l-1.8-2.7l-0.5-0.7l-2.3,3.5H344.9z"/>
						<path class="st11" d="M364.3,692.1h-1.5v-9.5c-0.4,0.3-0.8,0.7-1.4,1s-1.1,0.6-1.6,0.8V683c0.8-0.4,1.6-0.9,2.2-1.4        c0.6-0.6,1.1-1.1,1.3-1.6h1V692.1z"/>
						<path class="st11" d="M368.1,686.1c0-1.4,0.1-2.6,0.4-3.5c0.3-0.9,0.7-1.6,1.3-2s1.3-0.7,2.2-0.7c0.7,0,1.2,0.1,1.7,0.4        c0.5,0.3,0.9,0.6,1.2,1.1c0.3,0.5,0.6,1.1,0.8,1.8c0.2,0.7,0.3,1.7,0.3,2.9c0,1.4-0.1,2.6-0.4,3.5c-0.3,0.9-0.7,1.6-1.3,2        c-0.6,0.5-1.3,0.7-2.2,0.7c-1.2,0-2.1-0.4-2.8-1.3C368.5,690.1,368.1,688.4,368.1,686.1z M369.7,686.1c0,2,0.2,3.3,0.7,4        c0.5,0.7,1,1,1.7,1c0.7,0,1.3-0.3,1.7-1s0.7-2,0.7-4c0-2-0.2-3.3-0.7-4s-1.1-1-1.7-1c-0.7,0-1.2,0.3-1.6,0.9        C369.9,682.8,369.7,684.1,369.7,686.1z"/>
						<path class="st11" d="M377.6,686.1c0-1.4,0.1-2.6,0.4-3.5c0.3-0.9,0.7-1.6,1.3-2s1.3-0.7,2.2-0.7c0.7,0,1.2,0.1,1.7,0.4        c0.5,0.3,0.9,0.6,1.2,1.1c0.3,0.5,0.6,1.1,0.8,1.8c0.2,0.7,0.3,1.7,0.3,2.9c0,1.4-0.1,2.6-0.4,3.5c-0.3,0.9-0.7,1.6-1.3,2        c-0.6,0.5-1.3,0.7-2.2,0.7c-1.2,0-2.1-0.4-2.8-1.3C378,690.1,377.6,688.4,377.6,686.1z M379.1,686.1c0,2,0.2,3.3,0.7,4        c0.5,0.7,1,1,1.7,1c0.7,0,1.3-0.3,1.7-1s0.7-2,0.7-4c0-2-0.2-3.3-0.7-4s-1.1-1-1.7-1c-0.7,0-1.2,0.3-1.6,0.9        C379.4,682.8,379.1,684.1,379.1,686.1z"/>
					</g>
					<g class="st12">
						
							<radialGradient id="SVGID_12_" cx="8014.2222" cy="-570.3331" r="33.5749" gradientTransform="matrix(-0.9293 0.3693 0.3693 0.9293 7845.6187 -1704.6337)" gradientUnits="userSpaceOnUse">
							<stop offset="0" style="stop-color:#FFFFFF"/>
							<stop offset="0.514" style="stop-color:#69C3E9;stop-opacity:0.3208"/>
							<stop offset="0.7568" style="stop-color:#27A9E0;stop-opacity:0"/>
						</radialGradient>
						<circle class="st21" cx="187.2" cy="724.7" r="33.6"/>
						
							<radialGradient id="SVGID_13_" cx="11900.1211" cy="-443.231" r="35.5553" gradientTransform="matrix(-0.4698 0.1867 0.6516 1.6399 6066.9956 -769.9885)" gradientUnits="userSpaceOnUse">
							<stop offset="0" style="stop-color:#FFFFFF"/>
							<stop offset="0.514" style="stop-color:#69C3E9;stop-opacity:0.3208"/>
							<stop offset="0.7568" style="stop-color:#27A9E0;stop-opacity:0"/>
						</radialGradient>
						<path class="st22" d="M170.5,731.4c12.8,32.2,30.6,55.3,39.9,51.7s6.3-32.7-6.5-64.9s-30.6-55.3-39.9-51.7        S157.7,699.2,170.5,731.4z"/>
					</g>
					<g class="st12">
						
							<radialGradient id="SVGID_14_" cx="7915.8037" cy="-573.0355" r="25.604" gradientTransform="matrix(-0.9293 0.3693 0.3693 0.9293 7845.6187 -1704.6337)" gradientUnits="userSpaceOnUse">
							<stop offset="0" style="stop-color:#FFFFFF"/>
							<stop offset="0.514" style="stop-color:#69C3E9;stop-opacity:0.3208"/>
							<stop offset="0.7568" style="stop-color:#27A9E0;stop-opacity:0"/>
						</radialGradient>
						<circle class="st23" cx="277.7" cy="685.9" r="25.6"/>
						
							<radialGradient id="SVGID_15_" cx="11705.4473" cy="-444.7624" r="27.1143" gradientTransform="matrix(-0.4698 0.1867 0.6516 1.6399 6066.9956 -769.9885)" gradientUnits="userSpaceOnUse">
							<stop offset="0" style="stop-color:#FFFFFF"/>
							<stop offset="0.514" style="stop-color:#69C3E9;stop-opacity:0.3208"/>
							<stop offset="0.7568" style="stop-color:#27A9E0;stop-opacity:0"/>
						</radialGradient>
						<path class="st24" d="M264.9,691c9.8,24.6,23.4,42.2,30.4,39.4s4.8-25-4.9-49.5c-9.8-24.6-23.4-42.2-30.4-39.4        C253,644.2,255.2,666.4,264.9,691z"/>
					</g>
				</g>
			</g>
		</g>
		<linearGradient id="SVGID_16_" gradientUnits="userSpaceOnUse" x1="700" y1="582.8259" x2="700" y2="693.0277">
			<stop offset="0" style="stop-color:#FFFFFF"/>
			<stop offset="0.514" style="stop-color:#69C3E9;stop-opacity:0.3208"/>
			<stop offset="0.7568" style="stop-color:#27A9E0;stop-opacity:0"/>
		</linearGradient>
		<rect x="571" y="613.5" class="st25" width="258" height="57.3"/>
		<g>
			<path d="M609.1,649.9v-22.2h3l11.7,17.4v-17.4h2.8v22.2h-3l-11.7-17.4v17.4H609.1z"/>
			<path d="M629,649.9l8.5-22.2h3.2l9.1,22.2h-3.3l-2.6-6.7h-9.3l-2.4,6.7H629z M635.4,640.8h7.5l-2.3-6.1c-0.7-1.9-1.2-3.4-1.6-4.6     c-0.3,1.4-0.7,2.8-1.2,4.2L635.4,640.8z"/>
			<path d="M656.2,649.9l-8.6-22.2h3.2l5.8,16.1c0.5,1.3,0.9,2.5,1.2,3.6c0.3-1.2,0.7-2.4,1.2-3.6l6-16.1h3l-8.7,22.2H656.2z"/>
			<path d="M671,649.9v-22.2h2.9v22.2H671z"/>
			<path d="M689.5,641.2v-2.6l9.4,0v8.2c-1.4,1.2-2.9,2-4.5,2.6c-1.5,0.6-3.1,0.9-4.7,0.9c-2.2,0-4.2-0.5-5.9-1.4     c-1.8-0.9-3.1-2.3-4-4c-0.9-1.8-1.4-3.7-1.4-5.9c0-2.2,0.5-4.2,1.4-6c0.9-1.9,2.2-3.3,3.9-4.2s3.6-1.4,5.9-1.4     c1.6,0,3.1,0.3,4.4,0.8c1.3,0.5,2.3,1.2,3,2.2c0.7,0.9,1.3,2.1,1.7,3.6l-2.6,0.7c-0.3-1.1-0.7-2-1.2-2.7     c-0.5-0.6-1.2-1.2-2.1-1.6c-0.9-0.4-1.9-0.6-3.1-0.6c-1.3,0-2.5,0.2-3.5,0.6c-1,0.4-1.8,0.9-2.4,1.6s-1.1,1.4-1.4,2.2     c-0.6,1.4-0.8,2.9-0.8,4.5c0,2,0.3,3.6,1,5c0.7,1.3,1.7,2.3,3,3c1.3,0.6,2.7,1,4.1,1c1.3,0,2.5-0.2,3.7-0.7     c1.2-0.5,2.1-1,2.8-1.6v-4.1H689.5z"/>
			<path d="M700.8,649.9l8.5-22.2h3.2l9.1,22.2h-3.3l-2.6-6.7h-9.3l-2.4,6.7H700.8z M707.2,640.8h7.5l-2.3-6.1     c-0.7-1.9-1.2-3.4-1.6-4.6c-0.3,1.4-0.7,2.8-1.2,4.2L707.2,640.8z"/>
			<path d="M727.3,649.9v-19.6H720v-2.6h17.6v2.6h-7.3v19.6H727.3z"/>
			<path d="M741.1,649.9v-22.2h2.9v22.2H741.1z"/>
			<path d="M748.3,639.1c0-3.7,1-6.6,3-8.7c2-2.1,4.5-3.1,7.7-3.1c2,0,3.9,0.5,5.5,1.5c1.6,1,2.9,2.3,3.8,4.1c0.9,1.8,1.3,3.7,1.3,6     c0,2.3-0.5,4.3-1.4,6c-0.9,1.8-2.2,3.1-3.9,4c-1.7,0.9-3.5,1.4-5.4,1.4c-2.1,0-4-0.5-5.6-1.5c-1.6-1-2.9-2.4-3.7-4.1     C748.7,642.9,748.3,641,748.3,639.1z M751.3,639.1c0,2.7,0.7,4.8,2.2,6.3c1.4,1.5,3.2,2.3,5.4,2.3c2.2,0,4-0.8,5.5-2.3     c1.4-1.6,2.1-3.8,2.1-6.6c0-1.8-0.3-3.4-0.9-4.7c-0.6-1.3-1.5-2.4-2.7-3.1c-1.2-0.7-2.5-1.1-4-1.1c-2.1,0-3.9,0.7-5.4,2.1     C752.1,633.4,751.3,635.8,751.3,639.1z"/>
			<path d="M773.3,649.9v-22.2h3l11.7,17.4v-17.4h2.8v22.2h-3l-11.7-17.4v17.4H773.3z"/>
		</g>
		<g>
			<linearGradient id="SVGID_17_" gradientUnits="userSpaceOnUse" x1="663.7705" y1="601.4926" x2="663.7705" y2="537.4437">
				<stop offset="0" style="stop-color:#FFFFFF"/>
				<stop offset="0.514" style="stop-color:#69C3E9;stop-opacity:0.3208"/>
				<stop offset="0.7568" style="stop-color:#27A9E0;stop-opacity:0"/>
			</linearGradient>
			<path class="st26" d="M653.2,589.7v-22.2h4.4l5.3,15.7c0.5,1.5,0.8,2.6,1.1,3.3c0.3-0.8,0.6-2,1.2-3.6l5.3-15.4h4v22.2h-2.8     v-18.6l-6.4,18.6h-2.6l-6.4-18.9v18.9H653.2z"/>
			<linearGradient id="SVGID_18_" gradientUnits="userSpaceOnUse" x1="687.437" y1="601.4926" x2="687.437" y2="537.4437">
				<stop offset="0" style="stop-color:#FFFFFF"/>
				<stop offset="0.514" style="stop-color:#69C3E9;stop-opacity:0.3208"/>
				<stop offset="0.7568" style="stop-color:#27A9E0;stop-opacity:0"/>
			</linearGradient>
			<path class="st27" d="M679.2,589.7v-22.2h16v2.6h-13.1v6.8h12.3v2.6h-12.3v7.6h13.6v2.6H679.2z"/>
			<linearGradient id="SVGID_19_" gradientUnits="userSpaceOnUse" x1="708.9463" y1="601.4926" x2="708.9463" y2="537.4437">
				<stop offset="0" style="stop-color:#FFFFFF"/>
				<stop offset="0.514" style="stop-color:#69C3E9;stop-opacity:0.3208"/>
				<stop offset="0.7568" style="stop-color:#27A9E0;stop-opacity:0"/>
			</linearGradient>
			<path class="st28" d="M699.8,589.7v-22.2h7.6c1.7,0,3,0.1,4,0.3c1.3,0.3,2.4,0.8,3.3,1.6c1.2,1,2,2.3,2.6,3.8     c0.6,1.5,0.9,3.3,0.9,5.3c0,1.7-0.2,3.2-0.6,4.5c-0.4,1.3-0.9,2.4-1.5,3.2c-0.6,0.9-1.3,1.5-2,2c-0.7,0.5-1.6,0.9-2.6,1.1     c-1,0.3-2.2,0.4-3.6,0.4H699.8z M702.7,587.1h4.7c1.5,0,2.6-0.1,3.4-0.4c0.8-0.3,1.5-0.7,2-1.2c0.7-0.7,1.2-1.6,1.6-2.8     c0.4-1.2,0.6-2.6,0.6-4.3c0-2.3-0.4-4.1-1.1-5.4c-0.8-1.2-1.7-2.1-2.8-2.5c-0.8-0.3-2.1-0.5-3.8-0.5h-4.7V587.1z"/>
			<linearGradient id="SVGID_20_" gradientUnits="userSpaceOnUse" x1="724.1289" y1="601.4926" x2="724.1289" y2="537.4437">
				<stop offset="0" style="stop-color:#FFFFFF"/>
				<stop offset="0.514" style="stop-color:#69C3E9;stop-opacity:0.3208"/>
				<stop offset="0.7568" style="stop-color:#27A9E0;stop-opacity:0"/>
			</linearGradient>
			<path class="st29" d="M722.7,589.7v-22.2h2.9v22.2H722.7z"/>
			<linearGradient id="SVGID_21_" gradientUnits="userSpaceOnUse" x1="738.7207" y1="601.4926" x2="738.7207" y2="537.4437">
				<stop offset="0" style="stop-color:#FFFFFF"/>
				<stop offset="0.514" style="stop-color:#69C3E9;stop-opacity:0.3208"/>
				<stop offset="0.7568" style="stop-color:#27A9E0;stop-opacity:0"/>
			</linearGradient>
			<path class="st30" d="M728.3,589.7l8.5-22.2h3.2l9.1,22.2h-3.3l-2.6-6.7h-9.3l-2.4,6.7H728.3z M734.7,580.6h7.5l-2.3-6.1     c-0.7-1.9-1.2-3.4-1.6-4.6c-0.3,1.4-0.7,2.8-1.2,4.2L734.7,580.6z"/>
		</g>
		<g>
			<linearGradient id="SVGID_22_" gradientUnits="userSpaceOnUse" x1="655.7402" y1="562.4926" x2="655.7402" y2="499.4846">
				<stop offset="0" style="stop-color:#FFFFFF"/>
				<stop offset="0.514" style="stop-color:#69C3E9;stop-opacity:0.3208"/>
				<stop offset="0.7568" style="stop-color:#27A9E0;stop-opacity:0"/>
			</linearGradient>
			<path class="st31" d="M647.3,540.2V518h8.4c1.5,0,2.6,0.1,3.4,0.2c1.1,0.2,2,0.5,2.7,1c0.7,0.5,1.3,1.2,1.8,2.1     c0.4,0.9,0.7,1.9,0.7,3c0,1.9-0.6,3.5-1.8,4.8c-1.2,1.3-3.4,2-6.5,2h-5.7v9H647.3z M650.2,528.6h5.7c1.9,0,3.2-0.4,4-1.1     c0.8-0.7,1.2-1.7,1.2-3c0-0.9-0.2-1.7-0.7-2.4c-0.5-0.7-1.1-1.1-1.9-1.3c-0.5-0.1-1.4-0.2-2.7-0.2h-5.7V528.6z"/>
			<linearGradient id="SVGID_23_" gradientUnits="userSpaceOnUse" x1="676.7422" y1="562.4926" x2="676.7422" y2="499.4846">
				<stop offset="0" style="stop-color:#FFFFFF"/>
				<stop offset="0.514" style="stop-color:#69C3E9;stop-opacity:0.3208"/>
				<stop offset="0.7568" style="stop-color:#27A9E0;stop-opacity:0"/>
			</linearGradient>
			<path class="st32" d="M668,540.2V518h2.9v9.1h11.5V518h2.9v22.2h-2.9v-10.5H671v10.5H668z"/>
			<linearGradient id="SVGID_24_" gradientUnits="userSpaceOnUse" x1="700.0527" y1="562.4926" x2="700.0527" y2="499.4846">
				<stop offset="0" style="stop-color:#FFFFFF"/>
				<stop offset="0.514" style="stop-color:#69C3E9;stop-opacity:0.3208"/>
				<stop offset="0.7568" style="stop-color:#27A9E0;stop-opacity:0"/>
			</linearGradient>
			<path class="st33" d="M689.4,529.4c0-3.7,1-6.6,3-8.7c2-2.1,4.5-3.1,7.7-3.1c2,0,3.9,0.5,5.5,1.5c1.6,1,2.9,2.3,3.8,4.1     c0.9,1.8,1.3,3.7,1.3,6c0,2.3-0.5,4.3-1.4,6c-0.9,1.8-2.2,3.1-3.9,4c-1.7,0.9-3.5,1.4-5.4,1.4c-2.1,0-4-0.5-5.6-1.5     c-1.6-1-2.9-2.4-3.7-4.1C689.9,533.2,689.4,531.4,689.4,529.4z M692.5,529.5c0,2.7,0.7,4.8,2.2,6.3c1.4,1.5,3.2,2.3,5.4,2.3     c2.2,0,4-0.8,5.5-2.3c1.4-1.6,2.1-3.8,2.1-6.6c0-1.8-0.3-3.4-0.9-4.7c-0.6-1.3-1.5-2.4-2.7-3.1c-1.2-0.7-2.5-1.1-4-1.1     c-2.1,0-3.9,0.7-5.4,2.1C693.2,523.7,692.5,526.1,692.5,529.5z"/>
			<linearGradient id="SVGID_25_" gradientUnits="userSpaceOnUse" x1="723.1592" y1="562.4926" x2="723.1592" y2="499.4846">
				<stop offset="0" style="stop-color:#FFFFFF"/>
				<stop offset="0.514" style="stop-color:#69C3E9;stop-opacity:0.3208"/>
				<stop offset="0.7568" style="stop-color:#27A9E0;stop-opacity:0"/>
			</linearGradient>
			<path class="st34" d="M714.4,540.2V518h3l11.7,17.4V518h2.8v22.2h-3l-11.7-17.4v17.4H714.4z"/>
			<linearGradient id="SVGID_26_" gradientUnits="userSpaceOnUse" x1="745.1748" y1="562.4926" x2="745.1748" y2="499.4846">
				<stop offset="0" style="stop-color:#FFFFFF"/>
				<stop offset="0.514" style="stop-color:#69C3E9;stop-opacity:0.3208"/>
				<stop offset="0.7568" style="stop-color:#27A9E0;stop-opacity:0"/>
			</linearGradient>
			<path class="st35" d="M736.9,540.2V518h16v2.6h-13.1v6.8h12.3v2.6h-12.3v7.6h13.6v2.6H736.9z"/>
		</g>
		<g>
			<linearGradient id="SVGID_27_" gradientUnits="userSpaceOnUse" x1="616.6191" y1="689.4926" x2="616.6191" y2="740.3477">
				<stop offset="0" style="stop-color:#FFFFFF"/>
				<stop offset="0.514" style="stop-color:#69C3E9;stop-opacity:0.3208"/>
				<stop offset="0.7568" style="stop-color:#27A9E0;stop-opacity:0"/>
			</linearGradient>
			<path class="st36" d="M623.5,709.9l2.9,0.7c-0.6,2.4-1.7,4.3-3.3,5.5c-1.6,1.3-3.6,1.9-5.9,1.9c-2.4,0-4.3-0.5-5.8-1.5     c-1.5-1-2.6-2.4-3.4-4.2c-0.8-1.8-1.2-3.8-1.2-5.9c0-2.3,0.4-4.3,1.3-6c0.9-1.7,2.1-3,3.8-3.9c1.6-0.9,3.4-1.3,5.4-1.3     c2.2,0,4.1,0.6,5.6,1.7c1.5,1.1,2.6,2.7,3.2,4.8l-2.9,0.7c-0.5-1.6-1.3-2.8-2.2-3.5c-1-0.7-2.2-1.1-3.7-1.1     c-1.7,0-3.1,0.4-4.3,1.2c-1.1,0.8-2,1.9-2.4,3.3c-0.5,1.4-0.7,2.8-0.7,4.3c0,1.9,0.3,3.5,0.8,4.9c0.5,1.4,1.4,2.5,2.6,3.2     s2.4,1,3.8,1c1.6,0,3-0.5,4.2-1.4C622.3,713.2,623.1,711.8,623.5,709.9z"/>
			<linearGradient id="SVGID_28_" gradientUnits="userSpaceOnUse" x1="637.9932" y1="689.4926" x2="637.9932" y2="740.3477">
				<stop offset="0" style="stop-color:#FFFFFF"/>
				<stop offset="0.514" style="stop-color:#69C3E9;stop-opacity:0.3208"/>
				<stop offset="0.7568" style="stop-color:#27A9E0;stop-opacity:0"/>
			</linearGradient>
			<path class="st37" d="M627.6,717.7l8.5-22.2h3.2l9.1,22.2H645l-2.6-6.7h-9.3l-2.4,6.7H627.6z M634,708.6h7.5l-2.3-6.1     c-0.7-1.9-1.2-3.4-1.6-4.6c-0.3,1.4-0.7,2.8-1.2,4.2L634,708.6z"/>
			<linearGradient id="SVGID_29_" gradientUnits="userSpaceOnUse" x1="660.5459" y1="689.4926" x2="660.5459" y2="740.3477">
				<stop offset="0" style="stop-color:#FFFFFF"/>
				<stop offset="0.514" style="stop-color:#69C3E9;stop-opacity:0.3208"/>
				<stop offset="0.7568" style="stop-color:#27A9E0;stop-opacity:0"/>
			</linearGradient>
			<path class="st38" d="M650.8,717.7v-22.2h9.8c2,0,3.5,0.2,4.5,0.6c1,0.4,1.9,1.1,2.5,2.1c0.6,1,0.9,2.1,0.9,3.3     c0,1.6-0.5,2.9-1.5,4c-1,1.1-2.6,1.8-4.7,2.1c0.8,0.4,1.4,0.7,1.8,1.1c0.9,0.8,1.7,1.8,2.4,3l3.9,6h-3.7l-2.9-4.6     c-0.9-1.3-1.6-2.4-2.1-3.1c-0.6-0.7-1.1-1.2-1.5-1.5c-0.4-0.3-0.9-0.5-1.3-0.6c-0.3-0.1-0.9-0.1-1.6-0.1h-3.4v9.9H650.8z      M653.7,705.3h6.3c1.3,0,2.4-0.1,3.1-0.4c0.8-0.3,1.3-0.7,1.7-1.3c0.4-0.6,0.6-1.3,0.6-2c0-1-0.4-1.9-1.1-2.6c-0.8-0.7-2-1-3.6-1     h-7V705.3z"/>
			<linearGradient id="SVGID_30_" gradientUnits="userSpaceOnUse" x1="689.5547" y1="689.4926" x2="689.5547" y2="740.3477">
				<stop offset="0" style="stop-color:#FFFFFF"/>
				<stop offset="0.514" style="stop-color:#69C3E9;stop-opacity:0.3208"/>
				<stop offset="0.7568" style="stop-color:#27A9E0;stop-opacity:0"/>
			</linearGradient>
			<path class="st39" d="M680.7,710.6l2.8-0.2c0.1,1.1,0.4,2,0.9,2.7c0.5,0.7,1.2,1.3,2.2,1.7c1,0.4,2.1,0.7,3.4,0.7     c1.1,0,2.1-0.2,3-0.5s1.5-0.8,1.9-1.4c0.4-0.6,0.6-1.2,0.6-1.9c0-0.7-0.2-1.3-0.6-1.8c-0.4-0.5-1.1-1-2-1.3     c-0.6-0.2-1.9-0.6-4-1.1c-2-0.5-3.5-1-4.3-1.4c-1.1-0.6-1.8-1.2-2.4-2.1c-0.5-0.8-0.8-1.7-0.8-2.8c0-1.1,0.3-2.2,1-3.1     c0.6-1,1.6-1.7,2.8-2.2c1.2-0.5,2.6-0.8,4.1-0.8c1.6,0,3.1,0.3,4.4,0.8c1.3,0.5,2.2,1.3,2.9,2.3c0.7,1,1,2.2,1.1,3.5l-2.8,0.2     c-0.2-1.4-0.7-2.5-1.5-3.2c-0.9-0.7-2.2-1.1-3.9-1.1c-1.8,0-3.1,0.3-3.9,1c-0.8,0.7-1.2,1.4-1.2,2.4c0,0.8,0.3,1.5,0.9,2     c0.6,0.5,2,1,4.4,1.6c2.4,0.5,4,1,4.9,1.4c1.3,0.6,2.2,1.3,2.9,2.3c0.6,0.9,0.9,2,0.9,3.2c0,1.2-0.3,2.3-1,3.3     c-0.7,1-1.6,1.9-2.9,2.4c-1.3,0.6-2.7,0.9-4.3,0.9c-2,0-3.7-0.3-5-0.9s-2.4-1.5-3.2-2.6C681.2,713.4,680.8,712.1,680.7,710.6z"/>
			<linearGradient id="SVGID_31_" gradientUnits="userSpaceOnUse" x1="710.7402" y1="689.4926" x2="710.7402" y2="740.3477">
				<stop offset="0" style="stop-color:#FFFFFF"/>
				<stop offset="0.514" style="stop-color:#69C3E9;stop-opacity:0.3208"/>
				<stop offset="0.7568" style="stop-color:#27A9E0;stop-opacity:0"/>
			</linearGradient>
			<path class="st40" d="M702.5,717.7v-22.2h16v2.6h-13.1v6.8h12.3v2.6h-12.3v7.6H719v2.6H702.5z"/>
			<linearGradient id="SVGID_32_" gradientUnits="userSpaceOnUse" x1="730.2051" y1="689.4926" x2="730.2051" y2="740.3477">
				<stop offset="0" style="stop-color:#FFFFFF"/>
				<stop offset="0.514" style="stop-color:#69C3E9;stop-opacity:0.3208"/>
				<stop offset="0.7568" style="stop-color:#27A9E0;stop-opacity:0"/>
			</linearGradient>
			<path class="st41" d="M728.7,717.7v-19.6h-7.3v-2.6H739v2.6h-7.3v19.6H728.7z"/>
			<linearGradient id="SVGID_33_" gradientUnits="userSpaceOnUse" x1="743.9805" y1="689.4926" x2="743.9805" y2="740.3477">
				<stop offset="0" style="stop-color:#FFFFFF"/>
				<stop offset="0.514" style="stop-color:#69C3E9;stop-opacity:0.3208"/>
				<stop offset="0.7568" style="stop-color:#27A9E0;stop-opacity:0"/>
			</linearGradient>
			<path class="st42" d="M742.5,717.7v-22.2h2.9v22.2H742.5z"/>
			<linearGradient id="SVGID_34_" gradientUnits="userSpaceOnUse" x1="759.335" y1="689.4926" x2="759.335" y2="740.3477">
				<stop offset="0" style="stop-color:#FFFFFF"/>
				<stop offset="0.514" style="stop-color:#69C3E9;stop-opacity:0.3208"/>
				<stop offset="0.7568" style="stop-color:#27A9E0;stop-opacity:0"/>
			</linearGradient>
			<path class="st43" d="M750.6,717.7v-22.2h3l11.7,17.4v-17.4h2.8v22.2h-3l-11.7-17.4v17.4H750.6z"/>
			<linearGradient id="SVGID_35_" gradientUnits="userSpaceOnUse" x1="782.5342" y1="689.4926" x2="782.5342" y2="740.3477">
				<stop offset="0" style="stop-color:#FFFFFF"/>
				<stop offset="0.514" style="stop-color:#69C3E9;stop-opacity:0.3208"/>
				<stop offset="0.7568" style="stop-color:#27A9E0;stop-opacity:0"/>
			</linearGradient>
			<path class="st44" d="M783.4,709v-2.6l9.4,0v8.2c-1.4,1.2-2.9,2-4.5,2.6c-1.5,0.6-3.1,0.9-4.7,0.9c-2.2,0-4.2-0.5-5.9-1.4     c-1.8-0.9-3.1-2.3-4-4c-0.9-1.8-1.4-3.7-1.4-5.9c0-2.2,0.5-4.2,1.4-6c0.9-1.9,2.2-3.3,3.9-4.2s3.6-1.4,5.9-1.4     c1.6,0,3.1,0.3,4.4,0.8c1.3,0.5,2.3,1.2,3.1,2.2c0.7,0.9,1.3,2.1,1.7,3.6l-2.6,0.7c-0.3-1.1-0.7-2-1.2-2.7     c-0.5-0.6-1.2-1.2-2.1-1.6c-0.9-0.4-1.9-0.6-3.1-0.6c-1.3,0-2.5,0.2-3.5,0.6c-1,0.4-1.8,0.9-2.4,1.6c-0.6,0.7-1.1,1.4-1.4,2.2     c-0.6,1.4-0.8,2.9-0.8,4.5c0,2,0.3,3.6,1,5c0.7,1.3,1.7,2.3,3,3c1.3,0.6,2.7,1,4.1,1c1.3,0,2.5-0.2,3.7-0.7     c1.2-0.5,2.1-1,2.8-1.6V709H783.4z"/>
		</g>
	</g>
</g>
</svg>
