<?xml version="1.0" encoding="utf-8"?>
<!-- Generator: Adobe Illustrator 19.0.0, SVG Export Plug-In . SVG Version: 6.00 Build 0)  -->
<svg version="1.1" id="Layer_1" xmlns="http://www.w3.org/2000/svg" xmlns:xlink="http://www.w3.org/1999/xlink" x="0px" y="0px"
	 viewBox="0 0 1096 780" style="enable-background:new 0 0 1096 780;" xml:space="preserve">
<style type="text/css">
	.st0{fill:#E6E7E8;}
	.st1{fill:#0F0E0E;}
	.st2{fill:#2D3A4A;}
	.st3{fill:#27AAE1;}
	.st4{fill:#44C2F0;}
	.st5{fill:#FFFFFF;}
	.st6{fill:#FBB040;}
	.st7{fill:#B72125;}
	.st8{fill:#FFDE17;}
	.st9{fill:#8DC63F;}
</style>
<g>
	<g>
		<g>
			<circle class="st0" cx="676.3" cy="643.8" r="112.5"/>
			<circle class="st1" cx="676.3" cy="643.8" r="101.5"/>
			<path class="st2" d="M624.7,694.9c-13-13.1-21-31.2-21-51.1c0-40.1,32.5-72.6,72.6-72.6s72.6,32.5,72.6,72.6c0,19.9-8,38-21,51.1
				l15.7,15.7c17-17.1,27.5-40.7,27.5-66.8c0-52.4-42.5-94.8-94.8-94.8s-94.8,42.5-94.8,94.8c0,26.1,10.5,49.6,27.5,66.8
				L624.7,694.9z"/>
			<g>
				<path class="st3" d="M624.8,587.3c3.2-2.9,6.6-5.5,10.2-7.8l-7.5-13c-4.7,3-9.2,6.4-13.3,10.2L624.8,587.3z"/>
				<path class="st3" d="M599.9,640.3c0.2-4.3,0.8-8.6,1.7-12.7l-14.5-3.9c-1.2,5.4-2,10.9-2.2,16.6H599.9z"/>
				<path class="st3" d="M641.2,575.9c3.8-2,7.7-3.6,11.9-4.9l-3.9-14.5c-5.4,1.7-10.6,3.8-15.5,6.4L641.2,575.9z"/>
				<path class="st3" d="M601.6,660.2c-0.9-4.1-1.5-8.4-1.7-12.7h-15c0.2,5.7,1,11.2,2.2,16.6L601.6,660.2z"/>
				<path class="st3" d="M612,602.5c2.3-3.6,4.9-7,7.8-10.2l-10.6-10.6c-3.8,4.1-7.2,8.5-10.2,13.3L612,602.5z"/>
				<path class="st3" d="M603.4,620.6c1.3-4.1,3-8.1,4.9-11.9l-13-7.5c-2.6,4.9-4.8,10.1-6.4,15.5L603.4,620.6z"/>
				<path class="st3" d="M732.8,592.4c2.9,3.2,5.5,6.6,7.8,10.2l13-7.5c-3-4.7-6.4-9.2-10.2-13.3L732.8,592.4z"/>
				<path class="st3" d="M757.3,601.2l-13,7.5c2,3.8,3.6,7.7,4.9,11.9l14.5-3.9C762,611.3,759.9,606.1,757.3,601.2z"/>
				<path class="st3" d="M717.6,579.5c3.6,2.3,7,4.9,10.2,7.8l10.6-10.6c-4.1-3.8-8.5-7.2-13.3-10.2L717.6,579.5z"/>
				<path class="st3" d="M660,569.1c4.1-0.9,8.4-1.5,12.7-1.7v-15c-5.7,0.2-11.2,1-16.6,2.2L660,569.1z"/>
				<path class="st3" d="M699.5,571c4.1,1.3,8.1,3,11.9,4.9l7.5-13c-4.9-2.6-10.1-4.8-15.5-6.4L699.5,571z"/>
				<path class="st3" d="M679.9,567.4c4.3,0.2,8.6,0.8,12.7,1.7l3.9-14.5c-5.4-1.2-10.9-2-16.6-2.2V567.4z"/>
				<path class="st3" d="M749.2,667.1c-1.3,4.1-3,8.1-4.9,11.9l13,7.5c2.6-4.9,4.8-10.1,6.4-15.5L749.2,667.1z"/>
				<path class="st3" d="M740.7,685.1c-2.3,3.6-4.9,7-7.8,10.2l10.6,10.6c3.8-4.1,7.2-8.5,10.2-13.3L740.7,685.1z"/>
				<path class="st3" d="M752.7,647.4c-0.2,4.3-0.8,8.6-1.7,12.7l14.5,3.9c1.2-5.4,2-10.9,2.2-16.6H752.7z"/>
				<path class="st3" d="M608.4,678.9c-2-3.8-3.6-7.7-4.9-11.9l-14.5,3.9c1.7,5.4,3.8,10.6,6.4,15.5L608.4,678.9z"/>
				<path class="st3" d="M751,627.5c0.9,4.1,1.5,8.4,1.7,12.7h15c-0.2-5.7-1-11.2-2.2-16.6L751,627.5z"/>
				<path class="st3" d="M619.8,695.3c-2.9-3.2-5.5-6.6-7.8-10.2l-13,7.5c3,4.7,6.4,9.2,10.2,13.3L619.8,695.3z"/>
			</g>
		</g>
		<g>
			<path class="st4" d="M666.4,694.2V719h16.2v-24.8c0-0.7-0.6-1.3-1.3-1.3h-13.6C666.9,692.9,666.4,693.5,666.4,694.2z
				 M679.8,703.3h-10.7c-0.4,0-0.6-0.3-0.6-0.6V696c0-0.4,0.3-0.6,0.6-0.6h10.7c0.4,0,0.6,0.3,0.6,0.6v6.6
				C680.5,703,680.2,703.3,679.8,703.3z"/>
			<g>
				<path class="st4" d="M685.5,713.7c-1.1,0-2-0.9-2-2c0-0.7-0.6-1.3-1.3-1.3h-0.3v-0.7h0.3c1.1,0,2,0.9,2,2c0,0.7,0.6,1.4,1.4,1.4
					s1.4-0.6,1.4-1.4v-4.9c0-2.8-2.3-5-5-5v-0.7c3.1,0,5.7,2.6,5.7,5.7v4.9C687.5,712.8,686.6,713.7,685.5,713.7z"/>
			</g>
			<path class="st4" d="M682.3,717.6h-15.8c-0.8,0-1.4,0.6-1.4,1.4l0,0h18.5l0,0C683.6,718.2,683,717.6,682.3,717.6z"/>
		</g>
		<g>
			<g>
				<path class="st5" d="M710.7,671.4h-68.7c-8.6,0-15.7-7-15.7-15.7v-23.8c0-8.6,7-15.7,15.7-15.7h68.7c8.6,0,15.7,7,15.7,15.7
					v23.8C726.3,664.4,719.3,671.4,710.7,671.4z M641.9,619.3c-7,0-12.7,5.7-12.7,12.7v23.8c0,7,5.7,12.7,12.7,12.7h68.7
					c7,0,12.7-5.7,12.7-12.7v-23.8c0-7-5.7-12.7-12.7-12.7H641.9z"/>
			</g>
			<g>
				<path class="st4" d="M658.4,634l-2.2,1.9l-1.4-1.7l0.3-1.8l4.1-3.6L658.4,634z M659.1,659.6l-2.1,1.8l-1.6-1.7l2-13.8l2.1-1.8
					l1.5,1.9L659.1,659.6z M661.6,641.7l-2.1,1.8l-1.5-1.9l1.9-13.7l2.1-1.7l1.6,1.8L661.6,641.7z"/>
				<path class="st4" d="M671.9,657.4l-2.1,1.9l-1.6-1.8l1.6-11.5l2.1-1.8l1.6,1.9L671.9,657.4z M685.3,659.6l-2.1,1.8h-11.6
					l-1.6-1.8l2.1-1.8h11.6L685.3,659.6z M674.2,641.6l-2.1,1.9l-1.6-1.8l1.6-11.5l2.1-1.8l1.6,1.9L674.2,641.6z M689.8,628.1
					l-2.1,1.8h-11.6l-1.6-1.8l2.1-1.8h11.6L689.8,628.1z M687.8,657.4l-2.1,1.8l-1.6-1.8l1.5-11.4l2.1-1.8l1.6,1.8L687.8,657.4z
					 M690,641.7l-2.1,1.8l-1.6-1.8l1.6-11.5l2.1-1.8l1.6,1.8L690,641.7z"/>
				<path class="st4" d="M694.5,657.4l-2.1,1.9l-1.6-1.8l1.6-11.5l2.1-1.8l1.6,1.9L694.5,657.4z M707.8,659.6l-2.1,1.8h-11.6
					l-1.6-1.8l2.1-1.8h11.6L707.8,659.6z M696.7,641.6l-2.1,1.9l-1.6-1.8l1.6-11.5l2.1-1.8l1.6,1.9L696.7,641.6z M712.3,628.1
					l-2.1,1.8h-11.6l-1.6-1.8l2.1-1.8h11.6L712.3,628.1z M710.3,657.4l-2.1,1.8l-1.6-1.8l1.5-11.4l2.1-1.8l1.6,1.8L710.3,657.4z
					 M712.5,641.7l-2.1,1.8l-1.6-1.8l1.6-11.5l2.1-1.8l1.6,1.8L712.5,641.7z"/>
			</g>
		</g>
	</g>
	<g>
		<g>
			<g>
				<circle class="st0" cx="676.3" cy="136.2" r="112.5"/>
				<circle class="st1" cx="676.3" cy="136.2" r="101.5"/>
				<path class="st2" d="M624.7,187.3c-13-13.1-21-31.2-21-51.1c0-40.1,32.5-72.6,72.6-72.6S749,96,749,136.2c0,19.9-8,38-21,51.1
					l15.7,15.7c17-17.1,27.5-40.7,27.5-66.8c0-52.4-42.5-94.8-94.8-94.8s-94.8,42.5-94.8,94.8c0,26.1,10.5,49.6,27.5,66.8
					L624.7,187.3z"/>
				<g>
					<path class="st6" d="M601.6,152.5c-0.9-4.1-1.5-8.4-1.7-12.7h-15c0.2,5.7,1,11.2,2.2,16.6L601.6,152.5z"/>
					<path class="st6" d="M608.4,171.3c-2-3.8-3.6-7.7-4.9-11.9l-14.5,3.9c1.7,5.4,3.8,10.6,6.4,15.5L608.4,171.3z"/>
					<path class="st7" d="M619.8,187.6c-2.9-3.2-5.5-6.6-7.8-10.2l-13,7.5c3,4.7,6.4,9.2,10.2,13.3L619.8,187.6z"/>
				</g>
			</g>
			<g>
				<path class="st5" d="M710.7,163.7h-68.7c-8.6,0-15.7-7-15.7-15.7v-23.8c0-8.6,7-15.7,15.7-15.7h68.7c8.6,0,15.7,7,15.7,15.7
					v23.8C726.3,156.7,719.3,163.7,710.7,163.7z M641.9,111.6c-7,0-12.7,5.7-12.7,12.7v23.8c0,7,5.7,12.7,12.7,12.7h68.7
					c7,0,12.7-5.7,12.7-12.7v-23.8c0-7-5.7-12.7-12.7-12.7H641.9z"/>
			</g>
			<g>
				<path class="st4" d="M684.9,151.9l-2.1,1.8H670l-1.6-1.8l2.1-1.8h12.8L684.9,151.9z M689.4,120.4l-2.1,1.8h-12.8l-1.6-1.8
					l2.1-1.8h12.9L689.4,120.4z M687.2,136.2L685,138h-10.3l-1.6-1.8l2.1-1.8h10.3L687.2,136.2z M687.4,149.8l-2.1,1.8l-1.6-1.8
					l1.6-11.4l2.1-1.8l1.6,1.8L687.4,149.8z M689.6,134l-2.1,1.8l-1.6-1.8l1.6-11.5l2.1-1.8l1.5,1.8L689.6,134z"/>
				<path class="st4" d="M694.5,149.7l-2.1,1.9l-1.6-1.8l1.6-11.5l2.1-1.8l1.6,1.9L694.5,149.7z M707.8,151.9l-2.1,1.8h-11.6
					l-1.6-1.8l2.1-1.8h11.6L707.8,151.9z M696.7,134l-2.1,1.9l-1.6-1.8l1.6-11.5l2.1-1.8l1.6,1.9L696.7,134z M712.3,120.4l-2.1,1.8
					h-11.6l-1.6-1.8l2.1-1.8h11.6L712.3,120.4z M710.3,149.8l-2.1,1.8l-1.6-1.8l1.5-11.4l2.1-1.8l1.6,1.8L710.3,149.8z M712.5,134
					l-2.1,1.8l-1.6-1.8l1.6-11.5l2.1-1.8l1.6,1.8L712.5,134z"/>
			</g>
		</g>
		<g>
			<path class="st4" d="M666.4,186.5v24.8h16.2v-24.8c0-0.7-0.6-1.3-1.3-1.3h-13.6C666.9,185.2,666.4,185.8,666.4,186.5z
				 M679.8,195.6h-10.7c-0.4,0-0.6-0.3-0.6-0.6v-6.6c0-0.4,0.3-0.6,0.6-0.6h10.7c0.4,0,0.6,0.3,0.6,0.6v6.6
				C680.5,195.4,680.2,195.6,679.8,195.6z"/>
			<g>
				<path class="st4" d="M685.5,206c-1.1,0-2-0.9-2-2c0-0.7-0.6-1.3-1.3-1.3h-0.3V202h0.3c1.1,0,2,0.9,2,2c0,0.7,0.6,1.4,1.4,1.4
					s1.4-0.6,1.4-1.4v-4.9c0-2.8-2.3-5-5-5v-0.7c3.1,0,5.7,2.6,5.7,5.7v4.9C687.5,205.1,686.6,206,685.5,206z"/>
			</g>
			<path class="st4" d="M682.3,209.9h-15.8c-0.8,0-1.4,0.6-1.4,1.4l0,0h18.5l0,0C683.6,210.5,683,209.9,682.3,209.9z"/>
		</g>
	</g>
	<g>
		<g>
			<g>
				<circle class="st0" cx="932.9" cy="136.2" r="112.5"/>
				<circle class="st1" cx="932.9" cy="136.2" r="101.5"/>
				<path class="st2" d="M881.3,187.3c-13-13.1-21-31.2-21-51.1c0-40.1,32.5-72.6,72.6-72.6c40.1,0,72.6,32.5,72.6,72.6
					c0,19.9-8,38-21,51.1l15.7,15.7c17-17.1,27.5-40.7,27.5-66.8c0-52.4-42.5-94.8-94.8-94.8s-94.8,42.5-94.8,94.8
					c0,26.1,10.5,49.6,27.5,66.8L881.3,187.3z"/>
				<g>
					<path class="st8" d="M856.5,132.6c0.2-4.3,0.8-8.6,1.7-12.7l-14.5-3.9c-1.2,5.4-2,10.9-2.2,16.6H856.5z"/>
					<path class="st6" d="M858.2,152.5c-0.9-4.1-1.5-8.4-1.7-12.7h-15c0.2,5.7,1,11.2,2.2,16.6L858.2,152.5z"/>
					<path class="st6" d="M865,171.3c-2-3.8-3.6-7.7-4.9-11.9l-14.5,3.9c1.7,5.4,3.8,10.6,6.4,15.5L865,171.3z"/>
					<path class="st7" d="M876.4,187.6c-2.9-3.2-5.5-6.6-7.8-10.2l-13,7.5c3,4.7,6.4,9.2,10.2,13.3L876.4,187.6z"/>
				</g>
			</g>
			<g>
				<g>
					<path class="st5" d="M967.3,163.7h-68.7c-8.6,0-15.7-7-15.7-15.7v-23.8c0-8.6,7-15.7,15.7-15.7h68.7c8.6,0,15.7,7,15.7,15.7
						v23.8C983,156.7,975.9,163.7,967.3,163.7z M898.5,111.6c-7,0-12.7,5.7-12.7,12.7v23.8c0,7,5.7,12.7,12.7,12.7h68.7
						c7,0,12.7-5.7,12.7-12.7v-23.8c0-7-5.7-12.7-12.7-12.7H898.5z"/>
				</g>
				<g>
					<path class="st4" d="M930.7,134l-2.1,1.8L927,134l1.7-11.7l2.1-1.8l1.6,1.9L930.7,134z M944.2,136.2l-2.1,1.8h-11.6l-1.6-1.8
						l2.1-1.8h11.7L944.2,136.2z M944.1,151.9l-2.1,1.8l-1.6-1.8l1.9-13.6l2.1-1.8l1.6,1.8L944.1,151.9z M946.6,134l-2.1,1.8
						l-1.6-1.8l1.9-13.6l2.1-1.8l1.6,1.8L946.6,134z"/>
					<path class="st4" d="M951.1,149.7l-2.1,1.9l-1.6-1.8l1.6-11.5l2.1-1.8l1.6,1.9L951.1,149.7z M964.4,151.9l-2.1,1.8h-11.6
						l-1.6-1.8l2.1-1.8h11.6L964.4,151.9z M953.3,134l-2.1,1.9l-1.6-1.8l1.6-11.5l2.1-1.8l1.6,1.9L953.3,134z M968.9,120.4l-2.1,1.8
						h-11.6l-1.6-1.8l2.1-1.8h11.6L968.9,120.4z M967,149.8l-2.1,1.8l-1.6-1.8l1.5-11.4l2.1-1.8l1.6,1.8L967,149.8z M969.1,134
						l-2.1,1.8l-1.6-1.8l1.6-11.5l2.1-1.8l1.6,1.8L969.1,134z"/>
				</g>
			</g>
		</g>
		<g>
			<path class="st4" d="M923,186.5v24.8h16.2v-24.8c0-0.7-0.6-1.3-1.3-1.3h-13.6C923.6,185.2,923,185.8,923,186.5z M936.4,195.6
				h-10.7c-0.4,0-0.6-0.3-0.6-0.6v-6.6c0-0.4,0.3-0.6,0.6-0.6h10.7c0.4,0,0.6,0.3,0.6,0.6v6.6C937.1,195.4,936.8,195.6,936.4,195.6z
				"/>
			<g>
				<path class="st4" d="M942.1,206c-1.1,0-2-0.9-2-2c0-0.7-0.6-1.3-1.3-1.3h-0.3V202h0.3c1.1,0,2,0.9,2,2c0,0.7,0.6,1.4,1.4,1.4
					c0.7,0,1.4-0.6,1.4-1.4v-4.9c0-2.8-2.3-5-5-5v-0.7c3.1,0,5.7,2.6,5.7,5.7v4.9C944.1,205.1,943.2,206,942.1,206z"/>
			</g>
			<path class="st4" d="M938.9,209.9h-15.8c-0.8,0-1.4,0.6-1.4,1.4l0,0h18.5l0,0C940.2,210.5,939.6,209.9,938.9,209.9z"/>
		</g>
	</g>
	<g>
		<g>
			<circle class="st0" cx="163.1" cy="136.2" r="112.5"/>
			<circle class="st1" cx="163.1" cy="136.2" r="101.5"/>
			<path class="st2" d="M111.5,187.3c-13-13.1-21-31.2-21-51.1c0-40.1,32.5-72.6,72.6-72.6c40.1,0,72.6,32.5,72.6,72.6
				c0,19.9-8,38-21,51.1l15.7,15.7c17-17.1,27.5-40.7,27.5-66.8c0-52.4-42.5-94.8-94.8-94.8s-94.8,42.5-94.8,94.8
				c0,26.1,10.5,49.6,27.5,66.8L111.5,187.3z"/>
			<g>
				<path class="st7" d="M106.5,187.6c-2.9-3.2-5.5-6.6-7.8-10.2l-13,7.5c3,4.7,6.4,9.2,10.2,13.3L106.5,187.6z"/>
			</g>
		</g>
		<g>
			<path class="st4" d="M153.2,186.5v24.8h16.2v-24.8c0-0.7-0.6-1.3-1.3-1.3h-13.6C153.7,185.2,153.2,185.8,153.2,186.5z
				 M166.6,195.6h-10.7c-0.4,0-0.6-0.3-0.6-0.6v-6.6c0-0.4,0.3-0.6,0.6-0.6h10.7c0.4,0,0.6,0.3,0.6,0.6v6.6
				C167.2,195.4,167,195.6,166.6,195.6z"/>
			<g>
				<path class="st4" d="M172.2,206c-1.1,0-2-0.9-2-2c0-0.7-0.6-1.3-1.3-1.3h-0.3V202h0.3c1.1,0,2,0.9,2,2c0,0.7,0.6,1.4,1.4,1.4
					c0.8,0,1.4-0.6,1.4-1.4v-4.9c0-2.8-2.3-5-5-5v-0.7c3.1,0,5.7,2.6,5.7,5.7v4.9C174.3,205.1,173.4,206,172.2,206z"/>
			</g>
			<path class="st4" d="M169,209.9h-15.8c-0.8,0-1.4,0.6-1.4,1.4l0,0h18.5l0,0C170.4,210.5,169.8,209.9,169,209.9z"/>
		</g>
		<g>
			<g>
				<path class="st5" d="M197.5,163.7h-68.7c-8.6,0-15.7-7-15.7-15.7v-23.8c0-8.6,7-15.7,15.7-15.7h68.7c8.6,0,15.7,7,15.7,15.7
					v23.8C213.1,156.7,206.1,163.7,197.5,163.7z M128.7,111.6c-7,0-12.7,5.7-12.7,12.7v23.8c0,7,5.7,12.7,12.7,12.7h68.7
					c7,0,12.7-5.7,12.7-12.7v-23.8c0-7-5.7-12.7-12.7-12.7H128.7z"/>
			</g>
			<g>
				<path class="st4" d="M168.5,126.3l-2.2,1.9l-1.4-1.7l0.3-1.8l4.1-3.6L168.5,126.3z M169.2,151.9l-2.1,1.8l-1.6-1.7l2-13.8
					l2.1-1.8l1.5,1.9L169.2,151.9z M171.7,134l-2.1,1.8l-1.5-1.9l1.9-13.7l2.1-1.7l1.6,1.8L171.7,134z"/>
				<path class="st4" d="M182,149.7l-2.1,1.9l-1.6-1.8l1.6-11.5l2.1-1.8l1.6,1.9L182,149.7z M195.4,151.9l-2.1,1.8h-11.6l-1.6-1.8
					l2.1-1.8h11.6L195.4,151.9z M184.3,134l-2.1,1.9l-1.6-1.8l1.6-11.5l2.1-1.8l1.6,1.9L184.3,134z M199.9,120.4l-2.1,1.8h-11.6
					l-1.6-1.8l2.1-1.8h11.6L199.9,120.4z M197.9,149.8l-2.1,1.8l-1.6-1.8l1.5-11.4l2.1-1.8l1.6,1.8L197.9,149.8z M200.1,134
					l-2.1,1.8l-1.6-1.8l1.6-11.5l2.1-1.8l1.6,1.8L200.1,134z"/>
			</g>
		</g>
	</g>
	<g>
		<g>
			<circle class="st0" cx="419.7" cy="136.2" r="112.5"/>
			<circle class="st1" cx="419.7" cy="136.2" r="101.5"/>
			<path class="st2" d="M368.1,187.3c-13-13.1-21-31.2-21-51.1c0-40.1,32.5-72.6,72.6-72.6s72.6,32.5,72.6,72.6c0,19.9-8,38-21,51.1
				l15.7,15.7c17-17.1,27.5-40.7,27.5-66.8c0-52.4-42.5-94.8-94.8-94.8s-94.8,42.5-94.8,94.8c0,26.1,10.5,49.6,27.5,66.8
				L368.1,187.3z"/>
			<g>
				<path class="st6" d="M345,152.5c-0.9-4.1-1.5-8.4-1.7-12.7h-15c0.2,5.7,1,11.2,2.2,16.6L345,152.5z"/>
				<path class="st6" d="M351.8,171.3c-2-3.8-3.6-7.7-4.9-11.9l-14.5,3.9c1.7,5.4,3.8,10.6,6.4,15.5L351.8,171.3z"/>
				<path class="st7" d="M363.2,187.6c-2.9-3.2-5.5-6.6-7.8-10.2l-13,7.5c3,4.7,6.4,9.2,10.2,13.3L363.2,187.6z"/>
			</g>
		</g>
		<g>
			<path class="st4" d="M409.8,186.5v24.8h16.2v-24.8c0-0.7-0.6-1.3-1.3-1.3H411C410.3,185.2,409.8,185.8,409.8,186.5z M423.2,195.6
				h-10.7c-0.4,0-0.6-0.3-0.6-0.6v-6.6c0-0.4,0.3-0.6,0.6-0.6h10.7c0.4,0,0.6,0.3,0.6,0.6v6.6C423.9,195.4,423.6,195.6,423.2,195.6z
				"/>
			<g>
				<path class="st4" d="M428.9,206c-1.1,0-2-0.9-2-2c0-0.7-0.6-1.3-1.3-1.3h-0.3V202h0.3c1.1,0,2,0.9,2,2c0,0.7,0.6,1.4,1.4,1.4
					s1.4-0.6,1.4-1.4v-4.9c0-2.8-2.3-5-5-5v-0.7c3.1,0,5.7,2.6,5.7,5.7v4.9C430.9,205.1,430,206,428.9,206z"/>
			</g>
			<path class="st4" d="M425.6,209.9h-15.8c-0.8,0-1.4,0.6-1.4,1.4l0,0H427l0,0C427,210.5,426.4,209.9,425.6,209.9z"/>
		</g>
		<g>
			<g>
				<path class="st5" d="M454.1,163.7h-68.7c-8.6,0-15.7-7-15.7-15.7v-23.8c0-8.6,7-15.7,15.7-15.7h68.7c8.6,0,15.7,7,15.7,15.7
					v23.8C469.7,156.7,462.7,163.7,454.1,163.7z M385.3,111.6c-7,0-12.7,5.7-12.7,12.7v23.8c0,7,5.7,12.7,12.7,12.7h68.7
					c7,0,12.7-5.7,12.7-12.7v-23.8c0-7-5.7-12.7-12.7-12.7H385.3z"/>
			</g>
			<g>
				<path class="st4" d="M415.4,149.7l-4.3,3.7l2.2-15.2l2.1-1.8l1.6,1.9L415.4,149.7z M430.4,153.8h-19l4.2-3.7h11.7L430.4,153.8z
					 M418.9,124.5l-2.2,1.9l-1.5-1.9l0.3-2l2.1-1.8l1.6,1.9L418.9,124.5z M431,136.2l-2.1,1.8h-11.6l-1.6-1.8l2.1-1.8h11.7
					L431,136.2z M433.2,120.4l-2.1,1.8h-11.6l-1.6-1.8l2.1-1.8h11.6L433.2,120.4z M433.5,134l-2.1,1.8l-1.6-1.8l1.6-11.5l2.1-1.8
					l1.6,1.8L433.5,134z"/>
				<path class="st4" d="M437.9,149.7l-2.1,1.9l-1.6-1.8l1.6-11.5l2.1-1.8l1.6,1.9L437.9,149.7z M451.2,151.9l-2.1,1.8h-11.6
					l-1.6-1.8l2.1-1.8h11.6L451.2,151.9z M440.1,134l-2.1,1.9l-1.6-1.8l1.6-11.5l2.1-1.8l1.6,1.9L440.1,134z M455.7,120.4l-2.1,1.8
					H442l-1.6-1.8l2.1-1.8h11.6L455.7,120.4z M453.7,149.8l-2.1,1.8l-1.6-1.8l1.5-11.4l2.1-1.8l1.6,1.8L453.7,149.8z M455.9,134
					l-2.1,1.8l-1.6-1.8l1.6-11.5l2.1-1.8l1.6,1.8L455.9,134z"/>
			</g>
		</g>
	</g>
	<g>
		<g>
			<circle class="st0" cx="163.1" cy="390" r="112.5"/>
			<circle class="st1" cx="163.1" cy="390" r="101.5"/>
			<path class="st2" d="M111.5,441.1c-13-13.1-21-31.2-21-51.1c0-40.1,32.5-72.6,72.6-72.6s72.6,32.5,72.6,72.6c0,19.9-8,38-21,51.1
				l15.7,15.7c17-17.1,27.5-40.7,27.5-66.8c0-52.4-42.5-94.8-94.8-94.8S68.3,337.6,68.3,390c0,26.1,10.5,49.6,27.5,66.8L111.5,441.1
				z"/>
			<g>
				<path class="st8" d="M86.7,386.4c0.2-4.3,0.8-8.6,1.7-12.7l-14.5-3.9c-1.2,5.4-2,10.9-2.2,16.6H86.7z"/>
				<path class="st6" d="M88.4,406.3c-0.9-4.1-1.5-8.4-1.7-12.7h-15c0.2,5.7,1,11.2,2.2,16.6L88.4,406.3z"/>
				<path class="st8" d="M98.7,348.7c2.3-3.6,4.9-7,7.8-10.2l-10.6-10.6c-3.8,4.1-7.2,8.5-10.2,13.3L98.7,348.7z"/>
				<path class="st8" d="M90.2,366.8c1.3-4.1,3-8.1,4.9-11.9l-13-7.5c-2.6,4.9-4.8,10.1-6.4,15.5L90.2,366.8z"/>
				<path class="st6" d="M95.1,425.1c-2-3.8-3.6-7.7-4.9-11.9l-14.5,3.9c1.7,5.4,3.8,10.6,6.4,15.5L95.1,425.1z"/>
				<path class="st7" d="M106.5,441.5c-2.9-3.2-5.5-6.6-7.8-10.2l-13,7.5c3,4.7,6.4,9.2,10.2,13.3L106.5,441.5z"/>
			</g>
		</g>
		<g>
			<path class="st4" d="M153.2,440.3v24.8h16.2v-24.8c0-0.7-0.6-1.3-1.3-1.3h-13.6C153.7,439,153.2,439.6,153.2,440.3z M166.6,449.5
				h-10.7c-0.4,0-0.6-0.3-0.6-0.6v-6.6c0-0.4,0.3-0.6,0.6-0.6h10.7c0.4,0,0.6,0.3,0.6,0.6v6.6C167.2,449.2,167,449.5,166.6,449.5z"
				/>
			<g>
				<path class="st4" d="M172.2,459.9c-1.1,0-2-0.9-2-2c0-0.7-0.6-1.3-1.3-1.3h-0.3v-0.7h0.3c1.1,0,2,0.9,2,2c0,0.7,0.6,1.4,1.4,1.4
					c0.7,0,1.4-0.6,1.4-1.4V453c0-2.8-2.3-5-5-5v-0.7c3.1,0,5.7,2.6,5.7,5.7v4.9C174.3,458.9,173.4,459.9,172.2,459.9z"/>
			</g>
			<path class="st4" d="M169,463.8h-15.8c-0.8,0-1.4,0.6-1.4,1.4l0,0h18.5l0,0C170.4,464.4,169.8,463.8,169,463.8z"/>
		</g>
		<g>
			<g>
				<path class="st5" d="M197.5,417.6h-68.7c-8.6,0-15.7-7-15.7-15.7v-23.8c0-8.6,7-15.7,15.7-15.7h68.7c8.6,0,15.7,7,15.7,15.7
					v23.8C213.1,410.5,206.1,417.6,197.5,417.6z M128.7,365.4c-7,0-12.7,5.7-12.7,12.7v23.8c0,7,5.7,12.7,12.7,12.7h68.7
					c7,0,12.7-5.7,12.7-12.7v-23.8c0-7-5.7-12.7-12.7-12.7H128.7z"/>
			</g>
			<g>
				<path class="st4" d="M159.5,403.6l-2.1,1.9l-1.6-1.8l0.3-1.9l2.1-1.9l1.6,1.9L159.5,403.6z M172.9,405.8l-2.1,1.8h-11.6
					l-1.6-1.8l2.1-1.8h11.6L172.9,405.8z M161.7,387.9l-2.2,1.9l-1.7,0l2.4-17l3.2,3.7L161.7,387.9z M175.1,390l-2.1,1.8h-11.6
					l-1.6-1.8l2.1-1.8h11.6L175.1,390z M179.4,372.4l-4.2,3.7h-11.7l-3.1-3.7H179.4z M175.4,403.6l-2.1,1.8l-1.6-1.9l1.6-11.4
					l2.1-1.8l1.6,1.8L175.4,403.6z"/>
				<path class="st4" d="M182,403.6l-2.1,1.9l-1.6-1.8l1.6-11.5l2.1-1.8l1.6,1.9L182,403.6z M195.4,405.8l-2.1,1.8h-11.6l-1.6-1.8
					l2.1-1.8h11.6L195.4,405.8z M184.3,387.8l-2.1,1.9l-1.6-1.8l1.6-11.5l2.1-1.8l1.6,1.9L184.3,387.8z M199.9,374.2l-2.1,1.8h-11.6
					l-1.6-1.8l2.1-1.8h11.6L199.9,374.2z M197.9,403.6l-2.1,1.8l-1.6-1.8l1.5-11.4l2.1-1.8l1.6,1.8L197.9,403.6z M200.1,387.9
					l-2.1,1.8l-1.6-1.8l1.6-11.5l2.1-1.8l1.6,1.8L200.1,387.9z"/>
			</g>
		</g>
	</g>
	<g>
		<g>
			<circle class="st0" cx="419.7" cy="390" r="112.5"/>
			<circle class="st1" cx="419.7" cy="390" r="101.5"/>
			<path class="st2" d="M368.1,441.1c-13-13.1-21-31.2-21-51.1c0-40.1,32.5-72.6,72.6-72.6s72.6,32.5,72.6,72.6c0,19.9-8,38-21,51.1
				l15.7,15.7c17-17.1,27.5-40.7,27.5-66.8c0-52.4-42.5-94.8-94.8-94.8s-94.8,42.5-94.8,94.8c0,26.1,10.5,49.6,27.5,66.8
				L368.1,441.1z"/>
			<g>
				<path class="st8" d="M368.2,333.5c3.2-2.9,6.6-5.5,10.2-7.8l-7.5-13c-4.7,3-9.2,6.4-13.3,10.2L368.2,333.5z"/>
				<path class="st8" d="M343.3,386.4c0.2-4.3,0.8-8.6,1.7-12.7l-14.5-3.9c-1.2,5.4-2,10.9-2.2,16.6H343.3z"/>
				<path class="st9" d="M384.6,322.1c3.8-2,7.7-3.6,11.9-4.9l-3.9-14.5c-5.4,1.7-10.6,3.8-15.5,6.4L384.6,322.1z"/>
				<path class="st6" d="M345,406.3c-0.9-4.1-1.5-8.4-1.7-12.7h-15c0.2,5.7,1,11.2,2.2,16.6L345,406.3z"/>
				<path class="st8" d="M355.3,348.7c2.3-3.6,4.9-7,7.8-10.2l-10.6-10.6c-3.8,4.1-7.2,8.5-10.2,13.3L355.3,348.7z"/>
				<path class="st8" d="M346.8,366.8c1.3-4.1,3-8.1,4.9-11.9l-13-7.5c-2.6,4.9-4.8,10.1-6.4,15.5L346.8,366.8z"/>
				<path class="st9" d="M403.4,315.3c4.1-0.9,8.4-1.5,12.7-1.7v-15c-5.7,0.2-11.2,1-16.6,2.2L403.4,315.3z"/>
				<path class="st6" d="M351.8,425.1c-2-3.8-3.6-7.7-4.9-11.9l-14.5,3.9c1.7,5.4,3.8,10.6,6.4,15.5L351.8,425.1z"/>
				<path class="st7" d="M363.2,441.5c-2.9-3.2-5.5-6.6-7.8-10.2l-13,7.5c3,4.7,6.4,9.2,10.2,13.3L363.2,441.5z"/>
			</g>
		</g>
		<g>
			<path class="st4" d="M409.8,440.3v24.8h16.2v-24.8c0-0.7-0.6-1.3-1.3-1.3H411C410.3,439,409.8,439.6,409.8,440.3z M423.2,449.5
				h-10.7c-0.4,0-0.6-0.3-0.6-0.6v-6.6c0-0.4,0.3-0.6,0.6-0.6h10.7c0.4,0,0.6,0.3,0.6,0.6v6.6C423.9,449.2,423.6,449.5,423.2,449.5z
				"/>
			<g>
				<path class="st4" d="M428.9,459.9c-1.1,0-2-0.9-2-2c0-0.7-0.6-1.3-1.3-1.3h-0.3v-0.7h0.3c1.1,0,2,0.9,2,2c0,0.7,0.6,1.4,1.4,1.4
					s1.4-0.6,1.4-1.4V453c0-2.8-2.3-5-5-5v-0.7c3.1,0,5.7,2.6,5.7,5.7v4.9C430.9,458.9,430,459.9,428.9,459.9z"/>
			</g>
			<path class="st4" d="M425.6,463.8h-15.8c-0.8,0-1.4,0.6-1.4,1.4l0,0H427l0,0C427,464.4,426.4,463.8,425.6,463.8z"/>
		</g>
		<g>
			<g>
				<path class="st5" d="M454.1,417.6h-68.7c-8.6,0-15.7-7-15.7-15.7v-23.8c0-8.6,7-15.7,15.7-15.7h68.7c8.6,0,15.7,7,15.7,15.7
					v23.8C469.7,410.5,462.7,417.6,454.1,417.6z M385.3,365.4c-7,0-12.7,5.7-12.7,12.7v23.8c0,7,5.7,12.7,12.7,12.7h68.7
					c7,0,12.7-5.7,12.7-12.7v-23.8c0-7-5.7-12.7-12.7-12.7H385.3z"/>
			</g>
			<g>
				<path class="st4" d="M415.4,403.6l-2.1,1.9l-1.6-1.8l1.9-13.4l1.7,0l1.7,2L415.4,403.6z M428.7,405.8l-2.1,1.8h-11.6l-1.6-1.8
					l2.1-1.8h11.6L428.7,405.8z M417.6,387.8l-2.2,2l-1.8,0l1.9-13.4l2.1-1.8l1.6,1.9L417.6,387.8z M431,390l-2.1,1.8h-11.6
					l-1.6-1.8l2.1-1.8h11.7L431,390z M433.2,374.2l-2.1,1.8h-11.6l-1.6-1.8l2.1-1.8h11.6L433.2,374.2z M431.3,403.6l-2.1,1.8
					l-1.6-1.9l1.6-11.4l2.1-1.8l1.6,1.8L431.3,403.6z"/>
				<path class="st4" d="M437.9,403.6l-2.1,1.9l-1.6-1.8l1.6-11.5l2.1-1.8l1.6,1.9L437.9,403.6z M451.2,405.8l-2.1,1.8h-11.6
					l-1.6-1.8l2.1-1.8h11.6L451.2,405.8z M440.1,387.8l-2.1,1.9l-1.6-1.8l1.6-11.5l2.1-1.8l1.6,1.9L440.1,387.8z M455.7,374.2
					l-2.1,1.8H442l-1.6-1.8l2.1-1.8h11.6L455.7,374.2z M453.7,403.6l-2.1,1.8l-1.6-1.8l1.5-11.4l2.1-1.8l1.6,1.8L453.7,403.6z
					 M455.9,387.9l-2.1,1.8l-1.6-1.8l1.6-11.5l2.1-1.8l1.6,1.8L455.9,387.9z"/>
			</g>
		</g>
	</g>
	<g>
		<g>
			<circle class="st0" cx="676.3" cy="390" r="112.5"/>
			<circle class="st1" cx="676.3" cy="390" r="101.5"/>
			<path class="st2" d="M624.7,441.1c-13-13.1-21-31.2-21-51.1c0-40.1,32.5-72.6,72.6-72.6S749,349.9,749,390c0,19.9-8,38-21,51.1
				l15.7,15.7c17-17.1,27.5-40.7,27.5-66.8c0-52.4-42.5-94.8-94.8-94.8s-94.8,42.5-94.8,94.8c0,26.1,10.5,49.6,27.5,66.8
				L624.7,441.1z"/>
			<g>
				<path class="st8" d="M624.8,333.5c3.2-2.9,6.6-5.5,10.2-7.8l-7.5-13c-4.7,3-9.2,6.4-13.3,10.2L624.8,333.5z"/>
				<path class="st8" d="M599.9,386.4c0.2-4.3,0.8-8.6,1.7-12.7l-14.5-3.9c-1.2,5.4-2,10.9-2.2,16.6H599.9z"/>
				<path class="st9" d="M641.2,322.1c3.8-2,7.7-3.6,11.9-4.9l-3.9-14.5c-5.4,1.7-10.6,3.8-15.5,6.4L641.2,322.1z"/>
				<path class="st6" d="M601.6,406.3c-0.9-4.1-1.5-8.4-1.7-12.7h-15c0.2,5.7,1,11.2,2.2,16.6L601.6,406.3z"/>
				<path class="st8" d="M612,348.7c2.3-3.6,4.9-7,7.8-10.2l-10.6-10.6c-3.8,4.1-7.2,8.5-10.2,13.3L612,348.7z"/>
				<path class="st8" d="M603.4,366.8c1.3-4.1,3-8.1,4.9-11.9l-13-7.5c-2.6,4.9-4.8,10.1-6.4,15.5L603.4,366.8z"/>
				<path class="st9" d="M660,315.3c4.1-0.9,8.4-1.5,12.7-1.7v-15c-5.7,0.2-11.2,1-16.6,2.2L660,315.3z"/>
				<path class="st9" d="M699.5,317.1c4.1,1.3,8.1,3,11.9,4.9l7.5-13c-4.9-2.6-10.1-4.8-15.5-6.4L699.5,317.1z"/>
				<path class="st9" d="M679.9,313.6c4.3,0.2,8.6,0.8,12.7,1.7l3.9-14.5c-5.4-1.2-10.9-2-16.6-2.2V313.6z"/>
				<path class="st6" d="M608.4,425.1c-2-3.8-3.6-7.7-4.9-11.9l-14.5,3.9c1.7,5.4,3.8,10.6,6.4,15.5L608.4,425.1z"/>
				<path class="st7" d="M619.8,441.5c-2.9-3.2-5.5-6.6-7.8-10.2l-13,7.5c3,4.7,6.4,9.2,10.2,13.3L619.8,441.5z"/>
			</g>
		</g>
		<g>
			<path class="st4" d="M666.4,440.3v24.8h16.2v-24.8c0-0.7-0.6-1.3-1.3-1.3h-13.6C666.9,439,666.4,439.6,666.4,440.3z M679.8,449.5
				h-10.7c-0.4,0-0.6-0.3-0.6-0.6v-6.6c0-0.4,0.3-0.6,0.6-0.6h10.7c0.4,0,0.6,0.3,0.6,0.6v6.6C680.5,449.2,680.2,449.5,679.8,449.5z
				"/>
			<g>
				<path class="st4" d="M685.5,459.9c-1.1,0-2-0.9-2-2c0-0.7-0.6-1.3-1.3-1.3h-0.3v-0.7h0.3c1.1,0,2,0.9,2,2c0,0.7,0.6,1.4,1.4,1.4
					s1.4-0.6,1.4-1.4V453c0-2.8-2.3-5-5-5v-0.7c3.1,0,5.7,2.6,5.7,5.7v4.9C687.5,458.9,686.6,459.9,685.5,459.9z"/>
			</g>
			<path class="st4" d="M682.3,463.8h-15.8c-0.8,0-1.4,0.6-1.4,1.4l0,0h18.5l0,0C683.6,464.4,683,463.8,682.3,463.8z"/>
		</g>
		<g>
			<g>
				<path class="st5" d="M710.7,417.6h-68.7c-8.6,0-15.7-7-15.7-15.7v-23.8c0-8.6,7-15.7,15.7-15.7h68.7c8.6,0,15.7,7,15.7,15.7
					v23.8C726.3,410.5,719.3,417.6,710.7,417.6z M641.9,365.4c-7,0-12.7,5.7-12.7,12.7v23.8c0,7,5.7,12.7,12.7,12.7h68.7
					c7,0,12.7-5.7,12.7-12.7v-23.8c0-7-5.7-12.7-12.7-12.7H641.9z"/>
			</g>
			<g>
				<path class="st4" d="M680.7,394.2l-8.8,13.4h-2.5l0.4-3l9.5-14.4l1.9,0L680.7,394.2z M691.4,374.2l-2.1,1.8h-14.9l-1.6-1.8
					l2.1-1.8h14.9L691.4,374.2z M688.2,383.1l-4.5,6.6l-1.9,0l0.5-3.7l6.3-9.5l0.4,0L688.2,383.1z"/>
				<path class="st4" d="M694.5,403.6l-2.1,1.9l-1.6-1.8l1.6-11.5l2.1-1.8l1.6,1.9L694.5,403.6z M707.8,405.8l-2.1,1.8h-11.6
					l-1.6-1.8l2.1-1.8h11.6L707.8,405.8z M696.7,387.8l-2.1,1.9l-1.6-1.8l1.6-11.5l2.1-1.8l1.6,1.9L696.7,387.8z M712.3,374.2
					l-2.1,1.8h-11.6l-1.6-1.8l2.1-1.8h11.6L712.3,374.2z M710.3,403.6l-2.1,1.8l-1.6-1.8l1.5-11.4l2.1-1.8l1.6,1.8L710.3,403.6z
					 M712.5,387.9l-2.1,1.8l-1.6-1.8l1.6-11.5l2.1-1.8l1.6,1.8L712.5,387.9z"/>
			</g>
		</g>
	</g>
	<g>
		<g>
			<circle class="st0" cx="419.7" cy="643.8" r="112.5"/>
			<circle class="st1" cx="419.7" cy="643.8" r="101.5"/>
			<path class="st2" d="M368.1,694.9c-13-13.1-21-31.2-21-51.1c0-40.1,32.5-72.6,72.6-72.6s72.6,32.5,72.6,72.6c0,19.9-8,38-21,51.1
				l15.7,15.7c17-17.1,27.5-40.7,27.5-66.8c0-52.4-42.5-94.8-94.8-94.8s-94.8,42.5-94.8,94.8c0,26.1,10.5,49.6,27.5,66.8
				L368.1,694.9z"/>
			<g>
				<path class="st8" d="M368.2,587.3c3.2-2.9,6.6-5.5,10.2-7.8l-7.5-13c-4.7,3-9.2,6.4-13.3,10.2L368.2,587.3z"/>
				<path class="st8" d="M343.3,640.3c0.2-4.3,0.8-8.6,1.7-12.7l-14.5-3.9c-1.2,5.4-2,10.9-2.2,16.6H343.3z"/>
				<path class="st9" d="M384.6,575.9c3.8-2,7.7-3.6,11.9-4.9l-3.9-14.5c-5.4,1.7-10.6,3.8-15.5,6.4L384.6,575.9z"/>
				<path class="st6" d="M345,660.2c-0.9-4.1-1.5-8.4-1.7-12.7h-15c0.2,5.7,1,11.2,2.2,16.6L345,660.2z"/>
				<path class="st8" d="M355.3,602.5c2.3-3.6,4.9-7,7.8-10.2l-10.6-10.6c-3.8,4.1-7.2,8.5-10.2,13.3L355.3,602.5z"/>
				<path class="st8" d="M346.8,620.6c1.3-4.1,3-8.1,4.9-11.9l-13-7.5c-2.6,4.9-4.8,10.1-6.4,15.5L346.8,620.6z"/>
				<path class="st3" d="M476.2,592.4c2.9,3.2,5.5,6.6,7.8,10.2l13-7.5c-3-4.7-6.4-9.2-10.2-13.3L476.2,592.4z"/>
				<path class="st3" d="M500.7,601.2l-13,7.5c2,3.8,3.6,7.7,4.9,11.9l14.5-3.9C505.4,611.3,503.2,606.1,500.7,601.2z"/>
				<path class="st9" d="M461,579.5c3.6,2.3,7,4.9,10.2,7.8l10.6-10.6c-4.1-3.8-8.5-7.2-13.3-10.2L461,579.5z"/>
				<path class="st9" d="M403.4,569.1c4.1-0.9,8.4-1.5,12.7-1.7v-15c-5.7,0.2-11.2,1-16.6,2.2L403.4,569.1z"/>
				<path class="st9" d="M442.9,571c4.1,1.3,8.1,3,11.9,4.9l7.5-13c-4.9-2.6-10.1-4.8-15.5-6.4L442.9,571z"/>
				<path class="st9" d="M423.3,567.4c4.3,0.2,8.6,0.8,12.7,1.7l3.9-14.5c-5.4-1.2-10.9-2-16.6-2.2V567.4z"/>
				<path class="st3" d="M492.6,667.1c-1.3,4.1-3,8.1-4.9,11.9l13,7.5c2.6-4.9,4.8-10.1,6.4-15.5L492.6,667.1z"/>
				<path class="st3" d="M496.1,647.4c-0.2,4.3-0.8,8.6-1.7,12.7l14.5,3.9c1.2-5.4,2-10.9,2.2-16.6H496.1z"/>
				<path class="st6" d="M351.8,678.9c-2-3.8-3.6-7.7-4.9-11.9l-14.5,3.9c1.7,5.4,3.8,10.6,6.4,15.5L351.8,678.9z"/>
				<path class="st3" d="M494.4,627.5c0.9,4.1,1.5,8.4,1.7,12.7h15c-0.2-5.7-1-11.2-2.2-16.6L494.4,627.5z"/>
				<path class="st7" d="M363.2,695.3c-2.9-3.2-5.5-6.6-7.8-10.2l-13,7.5c3,4.7,6.4,9.2,10.2,13.3L363.2,695.3z"/>
			</g>
		</g>
		<g>
			<path class="st4" d="M409.8,694.2V719h16.2v-24.8c0-0.7-0.6-1.3-1.3-1.3H411C410.3,692.9,409.8,693.5,409.8,694.2z M423.2,703.3
				h-10.7c-0.4,0-0.6-0.3-0.6-0.6V696c0-0.4,0.3-0.6,0.6-0.6h10.7c0.4,0,0.6,0.3,0.6,0.6v6.6C423.9,703,423.6,703.3,423.2,703.3z"/>
			<g>
				<path class="st4" d="M428.9,713.7c-1.1,0-2-0.9-2-2c0-0.7-0.6-1.3-1.3-1.3h-0.3v-0.7h0.3c1.1,0,2,0.9,2,2c0,0.7,0.6,1.4,1.4,1.4
					s1.4-0.6,1.4-1.4v-4.9c0-2.8-2.3-5-5-5v-0.7c3.1,0,5.7,2.6,5.7,5.7v4.9C430.9,712.8,430,713.7,428.9,713.7z"/>
			</g>
			<path class="st4" d="M425.6,717.6h-15.8c-0.8,0-1.4,0.6-1.4,1.4l0,0H427l0,0C427,718.2,426.4,717.6,425.6,717.6z"/>
		</g>
		<g>
			<g>
				<path class="st5" d="M454.1,671.4h-68.7c-8.6,0-15.7-7-15.7-15.7v-23.8c0-8.6,7-15.7,15.7-15.7h68.7c8.6,0,15.7,7,15.7,15.7
					v23.8C469.7,664.4,462.7,671.4,454.1,671.4z M385.3,619.3c-7,0-12.7,5.7-12.7,12.7v23.8c0,7,5.7,12.7,12.7,12.7h68.7
					c7,0,12.7-5.7,12.7-12.7v-23.8c0-7-5.7-12.7-12.7-12.7H385.3z"/>
			</g>
			<g>
				<path class="st4" d="M428.7,659.6l-2.1,1.8H415l-1.6-1.8l2.1-1.8h11.6L428.7,659.6z M417.5,641.6l-2.1,1.8l-1.6-1.8l1.6-11.4
					l2.1-1.8l1.6,1.9L417.5,641.6z M431,643.8l-2.1,1.8h-11.6l-1.6-1.8l2.1-1.8h11.7L431,643.8z M433.1,628.1l-2.1,1.8h-11.6
					l-1.6-1.8l2.1-1.8h11.6L433.1,628.1z M431.2,657.4l-2.1,1.8l-1.6-1.8l1.5-11.4l2.2-2l1.7,0L431.2,657.4z M435,630.2l-1.9,13.4
					l-1.8,0l-1.7-1.9l1.6-11.5l2.1-1.8L435,630.2z"/>
				<path class="st4" d="M437.9,657.4l-2.1,1.9l-1.6-1.8l1.6-11.5l2.1-1.8l1.6,1.9L437.9,657.4z M451.2,659.6l-2.1,1.8h-11.6
					l-1.6-1.8l2.1-1.8h11.6L451.2,659.6z M440.1,641.6l-2.1,1.9l-1.6-1.8l1.6-11.5l2.1-1.8l1.6,1.9L440.1,641.6z M455.7,628.1
					l-2.1,1.8H442l-1.6-1.8l2.1-1.8h11.6L455.7,628.1z M453.7,657.4l-2.1,1.8l-1.6-1.8l1.5-11.4l2.1-1.8l1.6,1.8L453.7,657.4z
					 M455.9,641.7l-2.1,1.8l-1.6-1.8l1.6-11.5l2.1-1.8l1.6,1.8L455.9,641.7z"/>
			</g>
		</g>
	</g>
	<g>
		<g>
			<circle class="st0" cx="932.9" cy="390" r="112.5"/>
			<circle class="st1" cx="932.9" cy="390" r="101.5"/>
			<path class="st2" d="M881.3,441.1c-13-13.1-21-31.2-21-51.1c0-40.1,32.5-72.6,72.6-72.6c40.1,0,72.6,32.5,72.6,72.6
				c0,19.9-8,38-21,51.1l15.7,15.7c17-17.1,27.5-40.7,27.5-66.8c0-52.4-42.5-94.8-94.8-94.8s-94.8,42.5-94.8,94.8
				c0,26.1,10.5,49.6,27.5,66.8L881.3,441.1z"/>
			<g>
				<path class="st8" d="M881.4,333.5c3.2-2.9,6.6-5.5,10.2-7.8l-7.5-13c-4.7,3-9.2,6.4-13.3,10.2L881.4,333.5z"/>
				<path class="st8" d="M856.5,386.4c0.2-4.3,0.8-8.6,1.7-12.7l-14.5-3.9c-1.2,5.4-2,10.9-2.2,16.6H856.5z"/>
				<path class="st9" d="M897.8,322.1c3.8-2,7.7-3.6,11.9-4.9l-3.9-14.5c-5.4,1.7-10.6,3.8-15.5,6.4L897.8,322.1z"/>
				<path class="st6" d="M858.2,406.3c-0.9-4.1-1.5-8.4-1.7-12.7h-15c0.2,5.7,1,11.2,2.2,16.6L858.2,406.3z"/>
				<path class="st8" d="M868.6,348.7c2.3-3.6,4.9-7,7.8-10.2l-10.6-10.6c-3.8,4.1-7.2,8.5-10.2,13.3L868.6,348.7z"/>
				<path class="st8" d="M860,366.8c1.3-4.1,3-8.1,4.9-11.9l-13-7.5c-2.6,4.9-4.8,10.1-6.4,15.5L860,366.8z"/>
				<path class="st3" d="M989.5,338.5c2.9,3.2,5.5,6.6,7.8,10.2l13-7.5c-3-4.7-6.4-9.2-10.2-13.3L989.5,338.5z"/>
				<path class="st9" d="M974.2,325.7c3.6,2.3,7,4.9,10.2,7.8l10.6-10.6c-4.1-3.8-8.5-7.2-13.3-10.2L974.2,325.7z"/>
				<path class="st9" d="M916.6,315.3c4.1-0.9,8.4-1.5,12.7-1.7v-15c-5.7,0.2-11.2,1-16.6,2.2L916.6,315.3z"/>
				<path class="st9" d="M956.1,317.1c4.1,1.3,8.1,3,11.9,4.9l7.5-13c-4.9-2.6-10.1-4.8-15.5-6.4L956.1,317.1z"/>
				<path class="st9" d="M936.5,313.6c4.3,0.2,8.6,0.8,12.7,1.7l3.9-14.5c-5.4-1.2-10.9-2-16.6-2.2V313.6z"/>
				<path class="st6" d="M865,425.1c-2-3.8-3.6-7.7-4.9-11.9l-14.5,3.9c1.7,5.4,3.8,10.6,6.4,15.5L865,425.1z"/>
				<path class="st7" d="M876.4,441.5c-2.9-3.2-5.5-6.6-7.8-10.2l-13,7.5c3,4.7,6.4,9.2,10.2,13.3L876.4,441.5z"/>
			</g>
		</g>
		<g>
			<path class="st4" d="M923,440.3v24.8h16.2v-24.8c0-0.7-0.6-1.3-1.3-1.3h-13.6C923.6,439,923,439.6,923,440.3z M936.4,449.5h-10.7
				c-0.4,0-0.6-0.3-0.6-0.6v-6.6c0-0.4,0.3-0.6,0.6-0.6h10.7c0.4,0,0.6,0.3,0.6,0.6v6.6C937.1,449.2,936.8,449.5,936.4,449.5z"/>
			<g>
				<path class="st4" d="M942.1,459.9c-1.1,0-2-0.9-2-2c0-0.7-0.6-1.3-1.3-1.3h-0.3v-0.7h0.3c1.1,0,2,0.9,2,2c0,0.7,0.6,1.4,1.4,1.4
					c0.8,0,1.4-0.6,1.4-1.4V453c0-2.8-2.3-5-5-5v-0.7c3.1,0,5.7,2.6,5.7,5.7v4.9C944.1,458.9,943.2,459.9,942.1,459.9z"/>
			</g>
			<path class="st4" d="M938.9,463.8h-15.8c-0.8,0-1.4,0.6-1.4,1.4l0,0h18.5l0,0C940.2,464.4,939.6,463.8,938.9,463.8z"/>
		</g>
		<g>
			<g>
				<path class="st5" d="M967.3,417.6h-68.7c-8.6,0-15.7-7-15.7-15.7v-23.8c0-8.6,7-15.7,15.7-15.7h68.7c8.6,0,15.7,7,15.7,15.7
					v23.8C983,410.5,975.9,417.6,967.3,417.6z M898.5,365.4c-7,0-12.7,5.7-12.7,12.7v23.8c0,7,5.7,12.7,12.7,12.7h68.7
					c7,0,12.7-5.7,12.7-12.7v-23.8c0-7-5.7-12.7-12.7-12.7H898.5z"/>
			</g>
			<g>
				<path class="st4" d="M928.5,403.6l-2.1,1.9l-1.6-1.8l1.6-11.5l2.1-1.8l1.6,1.9L928.5,403.6z M941.9,405.8l-2.1,1.8h-11.6
					l-1.6-1.8l2.1-1.8h11.6L941.9,405.8z M930.8,387.8l-2.1,1.9l-1.6-1.8l1.6-11.5l2.1-1.8l1.6,1.9L930.8,387.8z M944.2,390
					l-2.1,1.8h-11.6l-1.6-1.8l2.1-1.8h11.7L944.2,390z M946.4,374.2l-2.1,1.8h-11.6l-1.6-1.8l2.1-1.8h11.6L946.4,374.2z
					 M944.4,403.6l-2.1,1.8l-1.6-1.8l1.5-11.4l2.1-1.8l1.6,1.8L944.4,403.6z M946.6,387.9l-2.1,1.8l-1.6-1.8l1.6-11.5l2.1-1.8
					l1.6,1.8L946.6,387.9z"/>
				<path class="st4" d="M951.1,403.6l-2.1,1.9l-1.6-1.8l1.6-11.5l2.1-1.8l1.6,1.9L951.1,403.6z M964.4,405.8l-2.1,1.8h-11.6
					l-1.6-1.8l2.1-1.8h11.6L964.4,405.8z M953.3,387.8l-2.1,1.9l-1.6-1.8l1.6-11.5l2.1-1.8l1.6,1.9L953.3,387.8z M968.9,374.2
					l-2.1,1.8h-11.6l-1.6-1.8l2.1-1.8h11.6L968.9,374.2z M967,403.6l-2.1,1.8l-1.6-1.8l1.5-11.4l2.1-1.8l1.6,1.8L967,403.6z
					 M969.1,387.9l-2.1,1.8l-1.6-1.8l1.6-11.5l2.1-1.8l1.6,1.8L969.1,387.9z"/>
			</g>
		</g>
	</g>
</g>
</svg>
